<?xml version="1.0" encoding="UTF-8"?>
<svg id="_Слой_2" data-name="Слой 2" xmlns="http://www.w3.org/2000/svg" viewBox="0 0 453.86 356.53">
  <defs>
    <style>
      .cls-1 {
        fill: #fff;
      }

      .cls-2 {
        fill: #342783;
      }
    </style>
  </defs>
  <g id="_Слой_1-2" data-name="Слой 1">
    <g>
      <g>
        <g id="seat-1-1">
          <rect class="cls-2" x="24.62" y="304.95" width="51.57" height="51.57"/>
          <path class="cls-1" d="M49.98,338.18v-9.15h-3.29v-2.19c.7-.02,1.32-.13,1.88-.34s1.02-.52,1.38-.95.6-.96.71-1.61h2.58v14.24h-3.26Z"/>
        </g>
        <g id="seat-1-2">
          <rect class="cls-2" x="83.02" y="304.95" width="51.57" height="51.57"/>
          <path class="cls-1" d="M103.33,338.18c.01-.85.14-1.59.39-2.22s.6-1.19,1.06-1.7,1.01-1.01,1.67-1.49,1.38-1.01,2.19-1.57c.61-.42,1.07-.79,1.41-1.1s.56-.61.7-.89.2-.6.2-.93c0-.6-.17-1.08-.52-1.45s-.83-.55-1.45-.55c-.55,0-.99.12-1.33.36s-.59.56-.75.97-.24.88-.24,1.41h-3.1c0-1.15.22-2.13.66-2.92s1.07-1.4,1.89-1.82,1.81-.62,2.96-.62,2.04.2,2.81.61,1.35.95,1.75,1.63.6,1.45.6,2.29c0,.72-.13,1.36-.4,1.9s-.64,1.04-1.12,1.49-1.07.89-1.74,1.32c-.77.5-1.38.9-1.81,1.21s-.76.55-.97.75-.38.4-.5.6h6.52v2.72h-10.89Z"/>
        </g>
        <g id="seat-1-3">
          <rect class="cls-2" x="141.42" y="304.95" width="51.57" height="51.57"/>
          <path class="cls-1" d="M167.35,338.47c-1.2,0-2.24-.19-3.13-.57s-1.59-.94-2.08-1.69-.75-1.66-.77-2.75h3.09c.03.46.15.87.34,1.25s.49.68.89.9.91.34,1.54.34c.51,0,.94-.08,1.3-.25s.63-.41.82-.73.28-.69.28-1.13-.1-.79-.3-1.08-.5-.51-.89-.66-.87-.22-1.43-.22h-.86v-2.29h.78c.49,0,.91-.07,1.26-.2s.62-.33.81-.6.28-.59.28-.98c0-.35-.08-.66-.25-.92s-.41-.46-.71-.61-.66-.22-1.08-.22c-.54,0-.98.11-1.33.32s-.61.48-.78.81-.28.68-.3,1.04h-3.05c.02-.86.25-1.64.68-2.33s1.06-1.24,1.87-1.65,1.8-.61,2.97-.61c1.01,0,1.9.16,2.69.47s1.39.77,1.84,1.37.66,1.31.66,2.15c0,.74-.22,1.33-.65,1.79s-1.03.82-1.77,1.07v.04c.9.25,1.6.66,2.1,1.25s.76,1.34.76,2.27c0,.76-.15,1.41-.44,1.96s-.7,1.01-1.23,1.38-1.12.63-1.79.81-1.38.26-2.12.26Z"/>
        </g>
        <g id="seat-1-4">
          <rect class="cls-2" x="199.82" y="304.95" width="51.57" height="51.57"/>
          <path class="cls-1" d="M226.82,338.18v-3.22h-6.68v-2.9l6.7-8.12h3.12v8.62h2.12v2.39h-2.12v3.22h-3.13ZM222.32,332.68c.46-.04.84-.07,1.16-.09s.61-.03.88-.03h2.46v-3.28c0-.28,0-.59.02-.93s.04-.76.07-1.25h-.04c-.32.45-.59.83-.82,1.14s-.45.59-.65.84l-1.45,1.75c-.2.24-.43.5-.69.78s-.57.62-.95,1.03v.04Z"/>
        </g>
        <g id="seat-1-5">
          <rect class="cls-2" x="258.22" y="304.95" width="51.57" height="51.57"/>
          <path class="cls-1" d="M283.96,338.47c-1.07,0-2.03-.17-2.88-.52s-1.53-.85-2.04-1.49-.81-1.42-.89-2.32h3.22c.07.35.22.65.43.9s.5.46.84.6.75.21,1.2.21c.49,0,.93-.1,1.31-.31s.67-.5.89-.86.32-.79.32-1.27c0-.51-.11-.96-.33-1.32s-.51-.65-.88-.84-.79-.29-1.25-.29c-.34,0-.65.04-.93.13s-.53.2-.75.34-.39.3-.54.47h-3.07l1.48-7.94h8.66v2.62h-6.33l-.63,3.14h.04c.33-.36.73-.65,1.2-.85s1.05-.31,1.74-.31c.87,0,1.67.2,2.41.6s1.33.96,1.78,1.69.67,1.6.67,2.6-.24,1.91-.73,2.67-1.16,1.34-2.02,1.76-1.84.62-2.94.62Z"/>
        </g>
        <g id="seat-1-6">
          <rect class="cls-2" x="316.62" y="304.95" width="51.57" height="51.57"/>
          <path class="cls-1" d="M342.77,338.47c-1,0-1.88-.17-2.63-.52s-1.38-.83-1.88-1.43c-.55-.66-.95-1.44-1.21-2.34s-.39-1.92-.41-3.04c-.01-1.48.2-2.78.62-3.91s1.1-2.01,2-2.64,2.06-.95,3.47-.95c.99,0,1.84.16,2.56.49s1.29.77,1.73,1.32.72,1.18.86,1.88h-3.12c-.06-.22-.17-.43-.33-.64s-.36-.37-.63-.5-.6-.2-1-.2c-.62,0-1.15.15-1.58.46s-.78.76-1.03,1.37-.41,1.36-.48,2.26v.14h.04c.27-.38.57-.7.91-.96s.72-.47,1.15-.61.9-.21,1.43-.21c.9,0,1.74.21,2.5.63s1.38,1.01,1.85,1.76.7,1.61.71,2.6c0,.99-.24,1.86-.72,2.62s-1.14,1.35-1.97,1.78-1.78.64-2.84.64ZM342.64,336.03c.48,0,.92-.11,1.3-.34s.69-.53.92-.92.34-.82.34-1.3-.11-.95-.33-1.34-.53-.7-.91-.92-.83-.34-1.31-.34c-.53,0-1,.11-1.4.33s-.71.53-.94.91-.34.83-.34,1.33.12.94.35,1.33.56.7.96.92.86.33,1.36.33Z"/>
        </g>
        <g id="seat-1-7">
          <rect class="cls-2" x="375.02" y="304.95" width="51.57" height="51.57"/>
          <path class="cls-1" d="M397.55,338.18c.06-1.29.26-2.52.6-3.68s.76-2.24,1.27-3.24,1.07-1.88,1.67-2.67,1.2-1.45,1.8-1.97v-.04c-.7.04-1.31.07-1.84.09s-1.06.03-1.6.03h-3.85v-2.75h10.46v2.5c-.64.63-1.26,1.36-1.85,2.2s-1.12,1.75-1.59,2.75-.85,2.07-1.14,3.21-.45,2.33-.49,3.58h-3.44Z"/>
        </g>
        <g id="seat-2-1">
          <rect class="cls-2" x="53.27" y="247.27" width="51.57" height="51.57"/>
          <path class="cls-1" d="M78.62,280.49v-9.15h-3.29v-2.19c.7-.02,1.32-.13,1.88-.34s1.02-.52,1.38-.95.6-.96.71-1.61h2.58v14.24h-3.26Z"/>
        </g>
        <g id="seat-2-2">
          <rect class="cls-2" x="111.67" y="247.27" width="51.57" height="51.57"/>
          <path class="cls-1" d="M131.97,280.49c.01-.85.14-1.59.39-2.22s.6-1.19,1.06-1.7,1.01-1.01,1.67-1.49,1.38-1.01,2.19-1.57c.61-.42,1.07-.79,1.41-1.1s.56-.61.7-.89.2-.6.2-.93c0-.6-.17-1.08-.52-1.45s-.83-.55-1.45-.55c-.55,0-.99.12-1.33.36s-.59.56-.75.97-.24.88-.24,1.41h-3.1c0-1.15.22-2.13.66-2.92s1.07-1.4,1.89-1.82,1.81-.62,2.96-.62,2.04.2,2.81.61,1.35.95,1.75,1.63.6,1.45.6,2.29c0,.72-.13,1.36-.4,1.9s-.64,1.04-1.12,1.49-1.07.89-1.74,1.32c-.77.5-1.38.9-1.81,1.21s-.76.55-.97.75-.38.4-.5.6h6.52v2.72h-10.89Z"/>
        </g>
        <g id="seat-2-3">
          <rect class="cls-2" x="170.07" y="247.27" width="51.57" height="51.57"/>
          <path class="cls-1" d="M195.99,280.79c-1.2,0-2.24-.19-3.13-.57s-1.59-.94-2.08-1.69-.75-1.66-.77-2.75h3.09c.03.46.15.87.34,1.25s.49.68.89.9.91.34,1.54.34c.51,0,.94-.08,1.3-.25s.63-.41.82-.73.28-.69.28-1.13-.1-.79-.3-1.08-.5-.51-.89-.66-.87-.22-1.43-.22h-.86v-2.29h.78c.49,0,.91-.07,1.26-.2s.62-.33.81-.6.28-.59.28-.98c0-.35-.08-.66-.25-.92s-.41-.46-.71-.61-.66-.22-1.08-.22c-.54,0-.98.11-1.33.32s-.61.48-.78.81-.28.68-.3,1.04h-3.05c.02-.86.25-1.64.68-2.33s1.06-1.24,1.87-1.65,1.8-.61,2.97-.61c1.01,0,1.9.16,2.69.47s1.39.77,1.84,1.37.66,1.31.66,2.15c0,.74-.22,1.33-.65,1.79s-1.03.82-1.77,1.07v.04c.9.25,1.6.66,2.1,1.25s.76,1.34.76,2.27c0,.76-.15,1.41-.44,1.96s-.7,1.01-1.23,1.38-1.12.63-1.79.81-1.38.26-2.12.26Z"/>
        </g>
        <g id="seat-2-4">
          <rect class="cls-2" x="228.47" y="247.27" width="51.57" height="51.57"/>
          <path class="cls-1" d="M255.46,280.49v-3.22h-6.68v-2.9l6.7-8.12h3.12v8.62h2.12v2.39h-2.12v3.22h-3.13ZM250.96,275c.46-.04.84-.07,1.16-.09s.61-.03.88-.03h2.46v-3.28c0-.28,0-.59.02-.93s.04-.76.07-1.25h-.04c-.32.45-.59.83-.82,1.14s-.45.59-.65.84l-1.45,1.75c-.2.24-.43.5-.69.78s-.57.62-.95,1.03v.04Z"/>
        </g>
        <g id="seat-2-5">
          <rect class="cls-2" x="286.87" y="247.27" width="51.57" height="51.57"/>
          <path class="cls-1" d="M312.6,280.79c-1.07,0-2.03-.17-2.88-.52s-1.53-.85-2.04-1.49-.81-1.42-.89-2.32h3.22c.07.35.22.65.43.9s.5.46.84.6.75.21,1.2.21c.49,0,.93-.1,1.31-.31s.67-.5.89-.86.32-.79.32-1.27c0-.51-.11-.96-.33-1.32s-.51-.65-.88-.84-.79-.29-1.25-.29c-.34,0-.65.04-.93.13s-.53.2-.75.34-.39.3-.54.47h-3.07l1.48-7.94h8.66v2.62h-6.33l-.63,3.14h.04c.33-.36.73-.65,1.2-.85s1.05-.31,1.74-.31c.87,0,1.67.2,2.41.6s1.33.96,1.78,1.69.67,1.6.67,2.6-.24,1.91-.73,2.67-1.16,1.34-2.02,1.76-1.84.62-2.94.62Z"/>
        </g>
        <g id="seat-2-6">
          <rect class="cls-2" x="345.27" y="247.27" width="51.57" height="51.57"/>
          <path class="cls-1" d="M371.41,280.79c-1,0-1.88-.17-2.63-.52s-1.38-.83-1.88-1.43c-.55-.66-.95-1.44-1.21-2.34s-.39-1.92-.41-3.04c-.01-1.48.2-2.78.62-3.91s1.1-2.01,2-2.64,2.06-.95,3.47-.95c.99,0,1.84.16,2.56.49s1.29.77,1.73,1.32.72,1.18.86,1.88h-3.12c-.06-.22-.17-.43-.33-.64s-.36-.37-.63-.5-.6-.2-1-.2c-.62,0-1.15.15-1.58.46s-.78.76-1.03,1.37-.41,1.36-.48,2.26v.14h.04c.27-.38.57-.7.91-.96s.72-.47,1.15-.61.9-.21,1.43-.21c.9,0,1.74.21,2.5.63s1.38,1.01,1.85,1.76.7,1.61.71,2.6c0,.99-.24,1.86-.72,2.62s-1.14,1.35-1.97,1.78-1.78.64-2.84.64ZM371.28,278.35c.48,0,.92-.11,1.3-.34s.69-.53.92-.92.34-.82.34-1.3-.11-.95-.33-1.34-.53-.7-.91-.92-.83-.34-1.31-.34c-.53,0-1,.11-1.4.33s-.71.53-.94.91-.34.83-.34,1.33.12.94.35,1.33.56.7.96.92.86.33,1.36.33Z"/>
        </g>
        <g id="seat-3-1">
          <rect class="cls-2" x="53.27" y="188.47" width="51.57" height="51.57"/>
          <path class="cls-1" d="M78.62,221.69v-9.15h-3.29v-2.19c.7-.02,1.32-.13,1.88-.34s1.02-.52,1.38-.95.6-.96.71-1.61h2.58v14.24h-3.26Z"/>
        </g>
        <g id="seat-3-2">
          <rect class="cls-2" x="111.67" y="188.47" width="51.57" height="51.57"/>
          <path class="cls-1" d="M131.97,221.69c.01-.85.14-1.59.39-2.22s.6-1.19,1.06-1.7,1.01-1.01,1.67-1.49,1.38-1.01,2.19-1.57c.61-.42,1.07-.79,1.41-1.1s.56-.61.7-.89.2-.6.2-.93c0-.6-.17-1.08-.52-1.45s-.83-.55-1.45-.55c-.55,0-.99.12-1.33.36s-.59.56-.75.97-.24.88-.24,1.41h-3.1c0-1.15.22-2.13.66-2.92s1.07-1.4,1.89-1.82,1.81-.62,2.96-.62,2.04.2,2.81.61,1.35.95,1.75,1.63.6,1.45.6,2.29c0,.72-.13,1.36-.4,1.9s-.64,1.04-1.12,1.49-1.07.89-1.74,1.32c-.77.5-1.38.9-1.81,1.21s-.76.55-.97.75-.38.4-.5.6h6.52v2.72h-10.89Z"/>
        </g>
        <g id="seat-3-3">
          <rect class="cls-2" x="170.07" y="188.47" width="51.57" height="51.57"/>
          <path class="cls-1" d="M195.99,221.99c-1.2,0-2.24-.19-3.13-.57s-1.59-.94-2.08-1.69-.75-1.66-.77-2.75h3.09c.03.46.15.87.34,1.25s.49.68.89.9.91.34,1.54.34c.51,0,.94-.08,1.3-.25s.63-.41.82-.73.28-.69.28-1.13-.1-.79-.3-1.08-.5-.51-.89-.66-.87-.22-1.43-.22h-.86v-2.29h.78c.49,0,.91-.07,1.26-.2s.62-.33.81-.6.28-.59.28-.98c0-.35-.08-.66-.25-.92s-.41-.46-.71-.61-.66-.22-1.08-.22c-.54,0-.98.11-1.33.32s-.61.48-.78.81-.28.68-.3,1.04h-3.05c.02-.86.25-1.64.68-2.33s1.06-1.24,1.87-1.65,1.8-.61,2.97-.61c1.01,0,1.9.16,2.69.47s1.39.77,1.84,1.37.66,1.31.66,2.15c0,.74-.22,1.33-.65,1.79s-1.03.82-1.77,1.07v.04c.9.25,1.6.66,2.1,1.25s.76,1.34.76,2.27c0,.76-.15,1.41-.44,1.96s-.7,1.01-1.23,1.38-1.12.63-1.79.81-1.38.26-2.12.26Z"/>
        </g>
        <g id="seat-3-4">
          <rect class="cls-2" x="228.47" y="188.47" width="51.57" height="51.57"/>
          <path class="cls-1" d="M255.46,221.69v-3.22h-6.68v-2.9l6.7-8.12h3.12v8.62h2.12v2.39h-2.12v3.22h-3.13ZM250.96,216.2c.46-.04.84-.07,1.16-.09s.61-.03.88-.03h2.46v-3.28c0-.28,0-.59.02-.93s.04-.76.07-1.25h-.04c-.32.45-.59.83-.82,1.14s-.45.59-.65.84l-1.45,1.75c-.2.24-.43.5-.69.78s-.57.62-.95,1.03v.04Z"/>
        </g>
        <g id="seat-3-5">
          <rect class="cls-2" x="286.87" y="188.47" width="51.57" height="51.57"/>
          <path class="cls-1" d="M312.6,221.99c-1.07,0-2.03-.17-2.88-.52s-1.53-.85-2.04-1.49-.81-1.42-.89-2.32h3.22c.07.35.22.65.43.9s.5.46.84.6.75.21,1.2.21c.49,0,.93-.1,1.31-.31s.67-.5.89-.86.32-.79.32-1.27c0-.51-.11-.96-.33-1.32s-.51-.65-.88-.84-.79-.29-1.25-.29c-.34,0-.65.04-.93.13s-.53.2-.75.34-.39.3-.54.47h-3.07l1.48-7.94h8.66v2.62h-6.33l-.63,3.14h.04c.33-.36.73-.65,1.2-.85s1.05-.31,1.74-.31c.87,0,1.67.2,2.41.6s1.33.96,1.78,1.69.67,1.6.67,2.6-.24,1.91-.73,2.67-1.16,1.34-2.02,1.76-1.84.62-2.94.62Z"/>
        </g>
        <g id="seat-3-6">
          <rect class="cls-2" x="345.27" y="188.47" width="51.57" height="51.57"/>
          <path class="cls-1" d="M371.41,221.99c-1,0-1.88-.17-2.63-.52s-1.38-.83-1.88-1.43c-.55-.66-.95-1.44-1.21-2.34s-.39-1.92-.41-3.04c-.01-1.48.2-2.78.62-3.91s1.1-2.01,2-2.64,2.06-.95,3.47-.95c.99,0,1.84.16,2.56.49s1.29.77,1.73,1.32.72,1.18.86,1.88h-3.12c-.06-.22-.17-.43-.33-.64s-.36-.37-.63-.5-.6-.2-1-.2c-.62,0-1.15.15-1.58.46s-.78.76-1.03,1.37-.41,1.36-.48,2.26v.14h.04c.27-.38.57-.7.91-.96s.72-.47,1.15-.61.9-.21,1.43-.21c.9,0,1.74.21,2.5.63s1.38,1.01,1.85,1.76.7,1.61.71,2.6c0,.99-.24,1.86-.72,2.62s-1.14,1.35-1.97,1.78-1.78.64-2.84.64ZM371.28,219.55c.48,0,.92-.11,1.3-.34s.69-.53.92-.92.34-.82.34-1.3-.11-.95-.33-1.34-.53-.7-.91-.92-.83-.34-1.31-.34c-.53,0-1,.11-1.4.33s-.71.53-.94.91-.34.83-.34,1.33.12.94.35,1.33.56.7.96.92.86.33,1.36.33Z"/>
        </g>
        <g id="seat-4-1">
          <rect class="cls-2" x="53.27" y="129.67" width="51.57" height="51.57"/>
          <path class="cls-1" d="M78.62,162.89v-9.15h-3.29v-2.19c.7-.02,1.32-.13,1.88-.34s1.02-.52,1.38-.95.6-.96.71-1.61h2.58v14.24h-3.26Z"/>
        </g>
        <g id="seat-4-2">
          <rect class="cls-2" x="111.67" y="129.67" width="51.57" height="51.57"/>
          <path class="cls-1" d="M131.97,162.89c.01-.85.14-1.59.39-2.22s.6-1.19,1.06-1.7,1.01-1.01,1.67-1.49,1.38-1.01,2.19-1.57c.61-.42,1.07-.79,1.41-1.1s.56-.61.7-.89.2-.6.2-.93c0-.6-.17-1.08-.52-1.45s-.83-.55-1.45-.55c-.55,0-.99.12-1.33.36s-.59.56-.75.97-.24.88-.24,1.41h-3.1c0-1.15.22-2.13.66-2.92s1.07-1.4,1.89-1.82,1.81-.62,2.96-.62,2.04.2,2.81.61,1.35.95,1.75,1.63.6,1.45.6,2.29c0,.72-.13,1.36-.4,1.9s-.64,1.04-1.12,1.49-1.07.89-1.74,1.32c-.77.5-1.38.9-1.81,1.21s-.76.55-.97.75-.38.4-.5.6h6.52v2.72h-10.89Z"/>
        </g>
        <g id="seat-4-3">
          <rect class="cls-2" x="170.07" y="129.67" width="51.57" height="51.57"/>
          <path class="cls-1" d="M195.99,163.19c-1.2,0-2.24-.19-3.13-.57s-1.59-.94-2.08-1.69-.75-1.66-.77-2.75h3.09c.03.46.15.87.34,1.25s.49.68.89.9.91.34,1.54.34c.51,0,.94-.08,1.3-.25s.63-.41.82-.73.28-.69.28-1.13-.1-.79-.3-1.08-.5-.51-.89-.66-.87-.22-1.43-.22h-.86v-2.29h.78c.49,0,.91-.07,1.26-.2s.62-.33.81-.6.28-.59.28-.98c0-.35-.08-.66-.25-.92s-.41-.46-.71-.61-.66-.22-1.08-.22c-.54,0-.98.11-1.33.32s-.61.48-.78.81-.28.68-.3,1.04h-3.05c.02-.86.25-1.64.68-2.33s1.06-1.24,1.87-1.65,1.8-.61,2.97-.61c1.01,0,1.9.16,2.69.47s1.39.77,1.84,1.37.66,1.31.66,2.15c0,.74-.22,1.33-.65,1.79s-1.03.82-1.77,1.07v.04c.9.25,1.6.66,2.1,1.25s.76,1.34.76,2.27c0,.76-.15,1.41-.44,1.96s-.7,1.01-1.23,1.38-1.12.63-1.79.81-1.38.26-2.12.26Z"/>
        </g>
        <g id="seat-4-4">
          <rect class="cls-2" x="228.47" y="129.67" width="51.57" height="51.57"/>
          <path class="cls-1" d="M255.46,162.89v-3.22h-6.68v-2.9l6.7-8.12h3.12v8.62h2.12v2.39h-2.12v3.22h-3.13ZM250.96,157.4c.46-.04.84-.07,1.16-.09s.61-.03.88-.03h2.46v-3.28c0-.28,0-.59.02-.93s.04-.76.07-1.25h-.04c-.32.45-.59.83-.82,1.14s-.45.59-.65.84l-1.45,1.75c-.2.24-.43.5-.69.78s-.57.62-.95,1.03v.04Z"/>
        </g>
        <g id="seat-4-5">
          <rect class="cls-2" x="286.87" y="129.67" width="51.57" height="51.57"/>
          <path class="cls-1" d="M312.6,163.19c-1.07,0-2.03-.17-2.88-.52s-1.53-.85-2.04-1.49-.81-1.42-.89-2.32h3.22c.07.35.22.65.43.9s.5.46.84.6.75.21,1.2.21c.49,0,.93-.1,1.31-.31s.67-.5.89-.86.32-.79.32-1.27c0-.51-.11-.96-.33-1.32s-.51-.65-.88-.84-.79-.29-1.25-.29c-.34,0-.65.04-.93.13s-.53.2-.75.34-.39.3-.54.47h-3.07l1.48-7.94h8.66v2.62h-6.33l-.63,3.14h.04c.33-.36.73-.65,1.2-.85s1.05-.31,1.74-.31c.87,0,1.67.2,2.41.6s1.33.96,1.78,1.69.67,1.6.67,2.6-.24,1.91-.73,2.67-1.16,1.34-2.02,1.76-1.84.62-2.94.62Z"/>
        </g>
        <g id="seat-4-6">
          <rect class="cls-2" x="345.27" y="129.67" width="51.57" height="51.57"/>
          <path class="cls-1" d="M371.41,163.19c-1,0-1.88-.17-2.63-.52s-1.38-.83-1.88-1.43c-.55-.66-.95-1.44-1.21-2.34s-.39-1.92-.41-3.04c-.01-1.48.2-2.78.62-3.91s1.1-2.01,2-2.64,2.06-.95,3.47-.95c.99,0,1.84.16,2.56.49s1.29.77,1.73,1.32.72,1.18.86,1.88h-3.12c-.06-.22-.17-.43-.33-.64s-.36-.37-.63-.5-.6-.2-1-.2c-.62,0-1.15.15-1.58.46s-.78.76-1.03,1.37-.41,1.36-.48,2.26v.14h.04c.27-.38.57-.7.91-.96s.72-.47,1.15-.61.9-.21,1.43-.21c.9,0,1.74.21,2.5.63s1.38,1.01,1.85,1.76.7,1.61.71,2.6c0,.99-.24,1.86-.72,2.62s-1.14,1.35-1.97,1.78-1.78.64-2.84.64ZM371.28,160.75c.48,0,.92-.11,1.3-.34s.69-.53.92-.92.34-.82.34-1.3-.11-.95-.33-1.34-.53-.7-.91-.92-.83-.34-1.31-.34c-.53,0-1,.11-1.4.33s-.71.53-.94.91-.34.83-.34,1.33.12.94.35,1.33.56.7.96.92.86.33,1.36.33Z"/>
        </g>
        <g id="seat-5-1">
          <rect class="cls-2" x="111.27" y="70.87" width="51.57" height="51.57"/>
          <path class="cls-1" d="M136.62,104.09v-9.15h-3.29v-2.19c.7-.02,1.32-.13,1.88-.34s1.02-.52,1.38-.95.6-.96.71-1.61h2.58v14.24h-3.26Z"/>
        </g>
        <g id="seat-5-2">
          <rect class="cls-2" x="169.67" y="70.87" width="51.57" height="51.57"/>
          <path class="cls-1" d="M189.97,104.09c.01-.85.14-1.59.39-2.22s.6-1.19,1.06-1.7,1.01-1.01,1.67-1.49,1.38-1.01,2.19-1.57c.61-.42,1.07-.79,1.41-1.1s.56-.61.7-.89.2-.6.2-.93c0-.6-.17-1.08-.52-1.45s-.83-.55-1.45-.55c-.55,0-.99.12-1.33.36s-.59.56-.75.97-.24.88-.24,1.41h-3.1c0-1.15.22-2.13.66-2.92s1.07-1.4,1.89-1.82,1.81-.62,2.96-.62,2.04.2,2.81.61,1.35.95,1.75,1.63.6,1.45.6,2.29c0,.72-.13,1.36-.4,1.9s-.64,1.04-1.12,1.49-1.07.89-1.74,1.32c-.77.5-1.38.9-1.81,1.21s-.76.55-.97.75-.38.4-.5.6h6.52v2.72h-10.89Z"/>
        </g>
        <g id="seat-5-3">
          <rect class="cls-2" x="228.07" y="70.87" width="51.57" height="51.57"/>
          <path class="cls-1" d="M253.99,104.39c-1.2,0-2.24-.19-3.13-.57s-1.59-.94-2.08-1.69-.75-1.66-.77-2.75h3.09c.03.46.15.87.34,1.25s.49.68.89.9.91.34,1.54.34c.51,0,.94-.08,1.3-.25s.63-.41.82-.73.28-.69.28-1.13-.1-.79-.3-1.08-.5-.51-.89-.66-.87-.22-1.43-.22h-.86v-2.29h.78c.49,0,.91-.07,1.26-.2s.62-.33.81-.6.28-.59.28-.98c0-.35-.08-.66-.25-.92s-.41-.46-.71-.61-.66-.22-1.08-.22c-.54,0-.98.11-1.33.32s-.61.48-.78.81-.28.68-.3,1.04h-3.05c.02-.86.25-1.64.68-2.33s1.06-1.24,1.87-1.65,1.8-.61,2.97-.61c1.01,0,1.9.16,2.69.47s1.39.77,1.84,1.37.66,1.31.66,2.15c0,.74-.22,1.33-.65,1.79s-1.03.82-1.77,1.07v.04c.9.25,1.6.66,2.1,1.25s.76,1.34.76,2.27c0,.76-.15,1.41-.44,1.96s-.7,1.01-1.23,1.38-1.12.63-1.79.81-1.38.26-2.12.26Z"/>
        </g>
        <g id="seat-5-4">
          <rect class="cls-2" x="286.47" y="70.87" width="51.57" height="51.57"/>
          <path class="cls-1" d="M313.46,104.09v-3.22h-6.68v-2.9l6.7-8.12h3.12v8.62h2.12v2.39h-2.12v3.22h-3.13ZM308.96,98.6c.46-.04.84-.07,1.16-.09s.61-.03.88-.03h2.46v-3.28c0-.28,0-.59.02-.93s.04-.76.07-1.25h-.04c-.32.45-.59.83-.82,1.14s-.45.59-.65.84l-1.45,1.75c-.2.24-.43.5-.69.78s-.57.62-.95,1.03v.04Z"/>
        </g>
        <path class="cls-2" d="M4.09,340.69v-11.44H0v-2.73c.87-.02,1.64-.17,2.34-.43.69-.26,1.26-.65,1.72-1.18.45-.53.75-1.2.89-2.01h3.2v17.8h-4.05Z"/>
        <path class="cls-2" d="M16.57,281.21c.02-1.07.18-1.99.49-2.77.31-.78.75-1.49,1.32-2.13.57-.64,1.26-1.26,2.07-1.87.81-.61,1.71-1.26,2.72-1.96.75-.53,1.33-.99,1.75-1.37.41-.39.7-.76.87-1.12.17-.36.25-.74.25-1.16,0-.75-.21-1.35-.64-1.81-.43-.46-1.03-.68-1.8-.68-.68,0-1.23.15-1.66.45-.42.3-.74.7-.93,1.21-.2.51-.3,1.1-.3,1.76h-3.85c0-1.44.27-2.66.82-3.66.55-1,1.33-1.76,2.35-2.28,1.02-.52,2.25-.78,3.68-.78s2.54.25,3.49.76c.95.5,1.68,1.18,2.18,2.04.5.85.75,1.81.75,2.87,0,.9-.16,1.7-.49,2.38s-.79,1.3-1.4,1.86c-.6.56-1.32,1.11-2.17,1.65-.96.63-1.71,1.13-2.25,1.51-.54.38-.94.69-1.2.94-.26.25-.47.5-.62.75h8.1v3.41h-13.53Z"/>
        <path class="cls-2" d="M23.24,222.78c-1.49,0-2.79-.24-3.89-.71-1.11-.48-1.97-1.18-2.59-2.11-.62-.93-.94-2.08-.95-3.44h3.83c.04.57.18,1.09.42,1.56.24.47.61.85,1.1,1.13.49.28,1.13.42,1.92.42.63,0,1.17-.11,1.61-.32.44-.21.78-.51,1.02-.91.23-.4.35-.86.35-1.41s-.13-.99-.38-1.35c-.25-.36-.62-.64-1.1-.82-.49-.19-1.08-.28-1.77-.28h-1.07v-2.86h.97c.61,0,1.13-.08,1.56-.25.44-.17.77-.42,1.01-.75.23-.33.35-.74.35-1.22,0-.44-.1-.82-.32-1.15-.21-.33-.5-.58-.88-.76-.38-.18-.82-.27-1.34-.27-.67,0-1.22.13-1.65.4-.43.26-.75.6-.97,1.01-.22.41-.34.84-.38,1.3h-3.79c.02-1.07.31-2.04.84-2.91.54-.87,1.31-1.55,2.32-2.06,1.01-.51,2.24-.76,3.69-.76,1.25,0,2.37.2,3.34.59.97.4,1.73.96,2.28,1.71.55.75.82,1.64.82,2.69,0,.92-.27,1.67-.81,2.24-.54.57-1.27,1.02-2.2,1.34v.05c1.12.31,1.99.83,2.61,1.56.63.73.94,1.67.94,2.84,0,.94-.18,1.76-.55,2.45-.37.69-.88,1.27-1.52,1.72-.65.46-1.39.79-2.22,1.01s-1.71.33-2.63.33Z"/>
        <path class="cls-2" d="M24.33,163.62v-4.03h-8.3v-3.63l8.32-10.14h3.87v10.78h2.63v2.99h-2.63v4.03h-3.89ZM18.74,156.74c.57-.05,1.05-.09,1.44-.11.4-.02.76-.04,1.09-.04h3.06v-4.1c0-.35.01-.74.03-1.16.02-.42.05-.94.09-1.56h-.05c-.4.56-.74,1.04-1.02,1.42-.28.39-.55.74-.81,1.06l-1.8,2.19c-.25.3-.54.63-.86.98-.32.35-.71.78-1.18,1.28v.05Z"/>
        <path class="cls-2" d="M76.99,104.46c-1.33,0-2.53-.22-3.58-.65-1.05-.44-1.9-1.06-2.54-1.87-.64-.81-1.01-1.78-1.1-2.9h4c.09.43.27.81.54,1.13.27.32.62.57,1.05.75.43.18.93.27,1.49.27.61,0,1.16-.13,1.63-.39.47-.26.84-.62,1.1-1.08.27-.46.4-.99.4-1.59,0-.64-.14-1.19-.41-1.65-.27-.46-.64-.81-1.1-1.06-.46-.24-.98-.37-1.55-.37-.42,0-.81.05-1.16.16-.35.11-.66.25-.93.42-.27.18-.49.37-.67.59h-3.81l1.84-9.92h10.76v3.27h-7.86l-.79,3.93h.05c.41-.46.91-.81,1.49-1.07.58-.26,1.3-.38,2.17-.38,1.08,0,2.07.25,2.99.74.92.5,1.66,1.2,2.21,2.11.56.91.84,1.99.84,3.25s-.3,2.39-.91,3.33c-.61.94-1.44,1.68-2.5,2.2s-2.28.78-3.66.78Z"/>
        <path class="cls-2" d="M449.81,338.5v-11.44h-4.09v-2.73c.87-.02,1.64-.17,2.33-.43.69-.26,1.26-.65,1.72-1.18.45-.53.75-1.2.89-2.01h3.2v17.8h-4.05Z"/>
        <path class="cls-2" d="M412.03,280.81c.02-1.07.18-1.99.49-2.77.31-.78.75-1.49,1.32-2.13.57-.64,1.26-1.26,2.07-1.87.81-.61,1.71-1.26,2.72-1.96.75-.53,1.33-.99,1.75-1.37.41-.39.7-.76.87-1.12.17-.36.25-.74.25-1.16,0-.75-.21-1.35-.64-1.81-.43-.46-1.03-.68-1.8-.68-.68,0-1.23.15-1.66.45-.42.3-.74.7-.93,1.21-.2.51-.3,1.1-.3,1.76h-3.85c0-1.44.27-2.66.82-3.66.55-1,1.33-1.76,2.35-2.28,1.02-.52,2.25-.78,3.68-.78s2.54.25,3.49.76c.95.5,1.68,1.18,2.18,2.04s.75,1.81.75,2.87c0,.9-.16,1.7-.49,2.38s-.79,1.3-1.4,1.86c-.6.56-1.32,1.11-2.17,1.65-.96.63-1.71,1.13-2.25,1.51-.54.38-.94.69-1.2.94-.26.25-.47.5-.62.75h8.1v3.41h-13.53Z"/>
        <path class="cls-2" d="M418.7,222.38c-1.49,0-2.79-.24-3.89-.71-1.11-.48-1.97-1.18-2.59-2.11-.62-.93-.94-2.08-.95-3.44h3.83c.04.57.18,1.09.42,1.56.24.47.61.85,1.1,1.13.49.28,1.13.42,1.92.42.63,0,1.17-.11,1.61-.32.44-.21.78-.51,1.02-.91.23-.4.35-.86.35-1.41s-.13-.99-.38-1.35c-.25-.36-.62-.64-1.1-.82-.49-.19-1.08-.28-1.77-.28h-1.07v-2.86h.97c.61,0,1.13-.08,1.56-.25.44-.17.77-.42,1.01-.75.23-.33.35-.74.35-1.22,0-.44-.11-.82-.32-1.15-.21-.33-.5-.58-.88-.76-.38-.18-.82-.27-1.34-.27-.67,0-1.22.13-1.65.4-.43.26-.75.6-.97,1.01-.22.41-.34.84-.38,1.3h-3.78c.02-1.07.31-2.04.84-2.91.54-.87,1.31-1.55,2.32-2.06,1.01-.51,2.24-.76,3.69-.76,1.25,0,2.37.2,3.34.59.97.4,1.73.96,2.28,1.71.55.75.82,1.64.82,2.69,0,.92-.27,1.67-.81,2.24-.54.57-1.27,1.02-2.2,1.34v.05c1.12.31,1.99.83,2.61,1.56.63.73.94,1.67.94,2.84,0,.94-.18,1.76-.55,2.45-.37.69-.88,1.27-1.52,1.72-.65.46-1.39.79-2.22,1.01-.83.22-1.71.33-2.63.33Z"/>
        <path class="cls-2" d="M419.79,163.22v-4.03h-8.3v-3.63l8.32-10.14h3.87v10.78h2.63v2.99h-2.63v4.03h-3.89ZM414.2,156.34c.57-.05,1.05-.09,1.44-.11.4-.02.76-.04,1.09-.04h3.06v-4.1c0-.35.01-.74.03-1.16.02-.42.05-.94.09-1.56h-.05c-.4.56-.74,1.04-1.02,1.42-.28.39-.55.74-.81,1.06l-1.8,2.19c-.25.3-.54.63-.85.98-.32.35-.71.78-1.18,1.28v.05Z"/>
        <path class="cls-2" d="M372.86,104.46c-1.33,0-2.53-.22-3.58-.65-1.05-.44-1.9-1.06-2.54-1.87-.64-.81-1.01-1.78-1.1-2.9h4c.09.43.27.81.54,1.13.27.32.62.57,1.05.75.43.18.93.27,1.49.27.61,0,1.16-.13,1.63-.39.47-.26.84-.62,1.1-1.08.27-.46.4-.99.4-1.59,0-.64-.14-1.19-.41-1.65-.27-.46-.64-.81-1.1-1.06-.46-.24-.98-.37-1.55-.37-.42,0-.81.05-1.16.16-.35.11-.66.25-.93.42-.27.18-.49.37-.67.59h-3.81l1.84-9.92h10.76v3.27h-7.86l-.79,3.93h.05c.41-.46.91-.81,1.49-1.07.58-.26,1.3-.38,2.17-.38,1.08,0,2.07.25,2.99.74.92.5,1.66,1.2,2.21,2.11.56.91.84,1.99.84,3.25s-.3,2.39-.91,3.33c-.61.94-1.44,1.68-2.5,2.2s-2.28.78-3.66.78Z"/>
      </g>
      <g>
        <path d="M87.08,44.13L102.98,0h10.51l15.95,44.13h-10.68l-2.78-8.43h-16.01l-2.72,8.43h-10.16ZM102.34,28.46h11.32l-2.66-8.22c-.66-2.03-1.19-3.93-1.61-5.72-.42-1.79-.83-3.8-1.23-6.04h-.14c-.35,1.6-.66,3.02-.94,4.26-.28,1.24-.6,2.52-.96,3.87-.36,1.34-.71,2.55-1.06,3.63l-2.72,8.22Z"/>
        <path d="M149.36,45c-3.55,0-6.65-.56-9.29-1.69s-4.71-2.8-6.18-5.01c-1.48-2.21-2.23-4.93-2.27-8.15h9.15c.1,1.35.43,2.59,1.01,3.71.58,1.12,1.46,2.01,2.64,2.68,1.18.67,2.7,1,4.57,1,1.51,0,2.79-.25,3.85-.75,1.06-.5,1.87-1.22,2.43-2.16.56-.94.84-2.05.84-3.34s-.3-2.34-.9-3.2c-.6-.86-1.48-1.51-2.64-1.95-1.16-.44-2.57-.67-4.23-.67h-2.55v-6.78h2.32c1.45,0,2.69-.2,3.73-.59,1.04-.4,1.84-.99,2.4-1.78s.84-1.76.84-2.9c0-1.04-.25-1.95-.75-2.72s-1.2-1.38-2.1-1.81c-.9-.43-1.96-.65-3.2-.65-1.6,0-2.91.31-3.94.94-1.02.63-1.79,1.43-2.32,2.4-.52.98-.82,2-.9,3.08h-9.03c.06-2.55.73-4.85,2.01-6.91,1.28-2.06,3.13-3.69,5.54-4.89,2.41-1.21,5.35-1.81,8.8-1.81,2.99,0,5.65.47,7.96,1.4,2.32.94,4.13,2.29,5.44,4.05,1.31,1.77,1.97,3.89,1.97,6.38,0,2.18-.65,3.95-1.94,5.31-1.29,1.36-3.04,2.42-5.24,3.17v.12c2.66.73,4.74,1.96,6.24,3.69,1.5,1.73,2.24,3.97,2.24,6.73,0,2.24-.44,4.18-1.32,5.82-.88,1.64-2.09,3-3.63,4.08-1.54,1.08-3.31,1.88-5.3,2.4-1.99.52-4.08.78-6.28.78Z"/>
        <path d="M170.15,32.46v-8.08h16.79v8.08h-16.79Z"/>
        <path d="M205.48,45c-3.03,0-5.65-.45-7.86-1.36s-3.93-2.17-5.17-3.79c-1.24-1.62-1.93-3.48-2.08-5.59h8.77c.27,1.49.95,2.63,2.04,3.43,1.09.8,2.54,1.2,4.36,1.2,1.66,0,2.94-.32,3.85-.97.91-.65,1.36-1.53,1.36-2.65,0-.95-.37-1.66-1.11-2.13-.74-.47-1.73-.84-2.95-1.1-1.23-.26-2.57-.53-4.04-.8-1.41-.27-2.79-.59-4.14-.97-1.35-.38-2.57-.91-3.65-1.59-1.08-.69-1.94-1.61-2.58-2.78-.64-1.17-.96-2.67-.96-4.5,0-2.16.59-3.97,1.77-5.43,1.18-1.46,2.77-2.56,4.78-3.3s4.25-1.11,6.72-1.11c2.93,0,5.39.39,7.35,1.17s3.5,1.87,4.6,3.27c1.1,1.4,1.79,3.02,2.06,4.85h-8.66c-.19-.75-.52-1.38-.98-1.88-.46-.5-1.06-.87-1.78-1.11-.72-.24-1.59-.36-2.59-.36-1.41,0-2.54.28-3.39.84-.85.56-1.27,1.34-1.27,2.35,0,.79.35,1.39,1.04,1.79.69.41,1.63.72,2.79.96,1.17.23,2.48.48,3.92.75,1.41.25,2.82.57,4.24.96,1.42.39,2.72.94,3.89,1.67,1.18.72,2.12,1.71,2.84,2.95.71,1.25,1.07,2.86,1.07,4.85,0,2.28-.62,4.19-1.85,5.73-1.24,1.54-2.92,2.71-5.07,3.49-2.14.78-4.58,1.17-7.33,1.17Z"/>
        <path d="M239.53,44.97c-3.44,0-6.4-.73-8.9-2.2-2.5-1.47-4.42-3.46-5.76-5.98s-2.01-5.35-2.01-8.5.68-6.01,2.06-8.53c1.37-2.52,3.27-4.51,5.7-5.98,2.43-1.47,5.24-2.2,8.43-2.2,2.26,0,4.3.35,6.14,1.06,1.83.71,3.41,1.69,4.72,2.97,1.78,1.72,3.08,3.87,3.91,6.46.83,2.59,1.23,5.43,1.19,8.54h-22.99c.19,1.58.6,2.94,1.23,4.07.63,1.13,1.48,2,2.55,2.61s2.36.91,3.87.91,2.64-.27,3.59-.81c.95-.54,1.67-1.29,2.17-2.26h9c-.52,1.85-1.44,3.52-2.75,5.01-1.31,1.49-2.99,2.66-5.02,3.53-2.04.87-4.41,1.3-7.11,1.3ZM232.06,25.22h13.46c-.1-1.47-.43-2.73-1-3.78-.57-1.05-1.32-1.86-2.24-2.43-.93-.57-2.01-.85-3.24-.85-1.41,0-2.6.29-3.56.87-.97.58-1.73,1.39-2.29,2.45s-.94,2.3-1.13,3.75Z"/>
        <path d="M259.68,44.13V0h9.29v13.49c0,2.34-.03,4.37-.1,6.11-.07,1.74-.13,3.12-.19,4.14l10.45-11.47h10.89l-11.35,11.81,12.68,20.04h-10.92l-8.31-13.87-3.16,3.3v10.57h-9.29Z"/>
        <path d="M306.99,44.47c-1.97,0-3.7-.25-5.2-.75-1.5-.5-2.66-1.36-3.49-2.58-.83-1.22-1.25-2.9-1.25-5.04v-17.84h-4.81v-5.99h4.81V2.11h9.18v10.16h6.23v5.99h-6.23v15.81c0,1.18.31,1.98.94,2.4.63.42,1.5.64,2.62.64.31,0,.67-.01,1.07-.04.41-.03.76-.05,1.07-.07h.46v7.01c-.5.08-1.22.17-2.14.29-.93.12-2.02.17-3.27.17Z"/>
        <path d="M332.41,44.97c-3.36,0-6.29-.74-8.8-2.22-2.51-1.48-4.46-3.48-5.85-6.01s-2.08-5.37-2.08-8.51.69-6.01,2.08-8.53,3.34-4.51,5.85-5.98c2.51-1.47,5.44-2.2,8.8-2.2s6.25.73,8.74,2.2c2.49,1.47,4.42,3.46,5.79,5.98,1.37,2.52,2.06,5.36,2.06,8.53s-.69,5.98-2.06,8.51c-1.37,2.53-3.3,4.53-5.79,6.01-2.49,1.48-5.4,2.22-8.74,2.22ZM332.35,38.19c1.54,0,2.86-.42,3.94-1.26,1.08-.84,1.9-2.01,2.46-3.5.56-1.5.84-3.23.84-5.2s-.28-3.76-.84-5.27c-.56-1.51-1.38-2.68-2.46-3.53-1.08-.85-2.39-1.27-3.94-1.27s-2.91.42-3.98,1.27c-1.07.85-1.88,2.03-2.43,3.53-.55,1.51-.83,3.26-.83,5.27s.27,3.7.83,5.2c.55,1.5,1.36,2.66,2.43,3.5,1.07.84,2.4,1.26,3.98,1.26Z"/>
        <path d="M353.49,44.13V12.28h9.06v5.7h.17c1.02-2.24,2.26-3.84,3.72-4.81,1.46-.96,3.17-1.45,5.14-1.45.46,0,.86.02,1.19.06.33.04.6.11.81.2v8.19h-.26c-.31-.06-.63-.1-.97-.13-.34-.03-.67-.04-1-.04-1.27,0-2.43.19-3.46.58-1.03.39-1.92.97-2.66,1.75-.74.78-1.31,1.75-1.71,2.91-.4,1.16-.59,2.52-.59,4.08v14.8h-9.44Z"/>
      </g>
    </g>
  </g>
</svg>