<?xml version="1.0" encoding="UTF-8"?>
<svg id="_Слой_2" data-name="Слой 2" xmlns="http://www.w3.org/2000/svg" viewBox="0 0 708.52 353.36">
  <defs>
    <style>
      .cls-1 {
        fill: #fff;
      }

      .cls-2 {
        fill: #342783;
      }
    </style>
  </defs>
  <g id="_Слой_1-2" data-name="Слой 1">
    <g>
      <g>
        <g id="seat-1-1">
          <rect class="cls-2" x="37.32" y="301.78" width="51.57" height="51.57"/>
          <path class="cls-1" d="M62.67,335.01v-9.15h-3.29v-2.19c.7-.02,1.32-.13,1.88-.34s1.02-.52,1.38-.95.6-.96.71-1.61h2.58v14.24h-3.26Z"/>
        </g>
        <g id="seat-1-2">
          <rect class="cls-2" x="95.72" y="301.78" width="51.57" height="51.57"/>
          <path class="cls-1" d="M116.02,335.01c.01-.85.14-1.59.39-2.22.25-.62.6-1.19,1.06-1.7s1.01-1.01,1.67-1.49c.65-.48,1.38-1.01,2.19-1.57.61-.42,1.07-.79,1.41-1.1s.56-.61.7-.89c.13-.29.2-.6.2-.93,0-.6-.17-1.08-.52-1.45-.35-.36-.83-.55-1.45-.55-.55,0-.99.12-1.33.36s-.59.56-.75.97c-.16.41-.24.88-.24,1.41h-3.1c0-1.15.22-2.13.66-2.92s1.07-1.4,1.89-1.82c.82-.42,1.81-.62,2.96-.62s2.04.2,2.81.61c.77.4,1.35.95,1.75,1.63s.6,1.45.6,2.29c0,.72-.13,1.36-.4,1.9s-.64,1.04-1.12,1.49c-.49.45-1.07.89-1.74,1.32-.78.5-1.38.9-1.81,1.21-.43.3-.76.55-.97.75-.21.2-.38.4-.5.6h6.52v2.72h-10.89Z"/>
        </g>
        <g id="seat-1-3">
          <rect class="cls-2" x="154.12" y="301.78" width="51.57" height="51.57"/>
          <path class="cls-1" d="M180.04,335.3c-1.2,0-2.24-.19-3.13-.57-.89-.38-1.59-.94-2.08-1.69s-.75-1.66-.77-2.75h3.09c.03.46.15.87.34,1.25s.49.68.89.9c.4.22.91.34,1.54.34.51,0,.94-.08,1.3-.25.36-.17.63-.41.82-.73.19-.32.28-.69.28-1.13s-.1-.79-.3-1.08c-.2-.29-.5-.51-.89-.66s-.87-.22-1.43-.22h-.86v-2.29h.78c.49,0,.91-.07,1.26-.2s.62-.33.81-.6c.19-.27.28-.59.28-.98,0-.35-.08-.66-.25-.92-.17-.26-.41-.46-.71-.61s-.66-.22-1.08-.22c-.54,0-.98.11-1.33.32-.35.21-.61.48-.78.81s-.28.68-.3,1.04h-3.05c.02-.86.25-1.64.68-2.33.43-.69,1.06-1.24,1.87-1.65.81-.41,1.8-.61,2.97-.61,1.01,0,1.9.16,2.69.47s1.39.77,1.84,1.37c.44.6.66,1.31.66,2.15,0,.74-.22,1.33-.65,1.79-.44.46-1.03.82-1.77,1.07v.04c.9.25,1.6.66,2.1,1.25.5.58.76,1.34.76,2.27,0,.76-.15,1.41-.44,1.96-.3.55-.71,1.01-1.23,1.38-.52.36-1.12.63-1.79.81-.67.18-1.38.26-2.12.26Z"/>
        </g>
        <g id="seat-1-4">
          <rect class="cls-2" x="212.52" y="301.78" width="51.57" height="51.57"/>
          <path class="cls-1" d="M239.51,335.01v-3.22h-6.68v-2.9l6.7-8.12h3.12v8.62h2.12v2.39h-2.12v3.22h-3.13ZM235.01,329.51c.46-.04.84-.07,1.16-.09s.61-.03.88-.03h2.46v-3.28c0-.28,0-.59.02-.93s.04-.76.07-1.25h-.04c-.32.45-.59.83-.82,1.14s-.45.59-.65.84l-1.45,1.75c-.2.24-.43.5-.69.78s-.57.62-.95,1.03v.04Z"/>
        </g>
        <g id="seat-1-5">
          <rect class="cls-2" x="270.92" y="301.78" width="51.57" height="51.57"/>
          <path class="cls-1" d="M296.65,335.3c-1.07,0-2.04-.17-2.88-.52-.85-.35-1.53-.85-2.04-1.49-.51-.65-.81-1.42-.89-2.32h3.22c.07.35.22.65.43.9.22.26.5.46.84.6.34.14.75.21,1.2.21.49,0,.93-.1,1.31-.31.38-.21.67-.5.89-.86s.32-.79.32-1.27c0-.51-.11-.96-.33-1.32-.22-.37-.51-.65-.88-.84s-.79-.29-1.25-.29c-.34,0-.65.04-.93.13s-.53.2-.75.34-.39.3-.54.47h-3.07l1.48-7.94h8.66v2.62h-6.33l-.63,3.14h.04c.33-.36.73-.65,1.2-.85.46-.21,1.05-.31,1.74-.31.87,0,1.67.2,2.41.6.74.4,1.33.96,1.78,1.69s.67,1.6.67,2.6-.24,1.91-.73,2.67-1.16,1.34-2.02,1.76c-.86.42-1.84.62-2.94.62Z"/>
        </g>
        <g id="seat-1-6">
          <rect class="cls-2" x="329.32" y="301.78" width="51.57" height="51.57"/>
          <path class="cls-1" d="M355.46,335.3c-1,0-1.88-.17-2.63-.52s-1.38-.83-1.88-1.43c-.55-.66-.95-1.44-1.21-2.34s-.39-1.92-.41-3.04c-.01-1.48.2-2.78.62-3.91s1.1-2.01,2-2.64,2.06-.95,3.47-.95c.99,0,1.84.16,2.56.49s1.29.77,1.73,1.32.72,1.18.86,1.88h-3.12c-.07-.22-.17-.43-.33-.64s-.36-.37-.63-.5-.6-.2-1-.2c-.62,0-1.15.15-1.58.46s-.78.76-1.03,1.37-.41,1.36-.48,2.26v.14h.04c.27-.38.57-.7.91-.96s.72-.47,1.15-.61.9-.21,1.43-.21c.91,0,1.74.21,2.5.63s1.38,1.01,1.85,1.76.7,1.61.71,2.6c0,.99-.24,1.86-.72,2.62s-1.14,1.35-1.97,1.78-1.78.64-2.84.64ZM355.33,332.86c.48,0,.92-.11,1.3-.34s.69-.53.92-.92.34-.82.34-1.3-.11-.95-.33-1.34-.53-.7-.91-.92-.83-.34-1.31-.34c-.53,0-1,.11-1.4.33s-.71.53-.94.91-.34.83-.34,1.33.12.94.35,1.33.55.7.96.92.86.33,1.36.33Z"/>
        </g>
        <g id="seat-1-7">
          <rect class="cls-2" x="387.72" y="301.78" width="51.57" height="51.57"/>
          <path class="cls-1" d="M410.24,335.01c.06-1.29.26-2.52.6-3.68.34-1.17.76-2.24,1.27-3.24.51-.99,1.07-1.88,1.67-2.67s1.2-1.45,1.8-1.97v-.04c-.7.04-1.31.07-1.84.09s-1.06.03-1.6.03h-3.85v-2.75h10.46v2.5c-.64.63-1.26,1.36-1.85,2.2-.59.83-1.12,1.75-1.59,2.75-.47,1-.85,2.07-1.14,3.21-.29,1.14-.45,2.33-.49,3.58h-3.44Z"/>
        </g>
        <g id="seat-1-8">
          <rect class="cls-2" x="446.12" y="301.78" width="51.57" height="51.57"/>
          <path class="cls-1" d="M471.94,335.3c-.85,0-1.64-.1-2.36-.3-.72-.2-1.34-.49-1.88-.86-.53-.38-.94-.84-1.24-1.38s-.44-1.16-.44-1.85c0-.83.24-1.56.73-2.19s1.18-1.08,2.09-1.36v-.06c-.76-.27-1.31-.66-1.67-1.16s-.54-1.08-.54-1.74c0-.79.22-1.47.65-2.06.44-.59,1.05-1.04,1.84-1.37s1.72-.49,2.79-.49,2,.16,2.78.47,1.38.76,1.81,1.33c.43.58.64,1.26.64,2.06,0,.64-.18,1.21-.55,1.72-.37.51-.92.9-1.65,1.16v.06c.94.26,1.65.71,2.12,1.35s.72,1.37.72,2.21c0,.71-.15,1.34-.43,1.89-.29.55-.7,1.02-1.22,1.4-.52.38-1.14.67-1.86.87s-1.5.3-2.35.3ZM471.94,332.86c.51,0,.96-.09,1.34-.27s.68-.43.89-.75.32-.69.32-1.12c0-.68-.23-1.22-.68-1.62-.46-.4-1.08-.6-1.88-.6-.53,0-1,.09-1.39.27s-.69.43-.9.77c-.21.33-.32.73-.32,1.18s.1.81.31,1.13c.21.32.51.57.9.74s.86.26,1.4.26ZM471.9,326.37c.7,0,1.23-.16,1.61-.49.38-.33.57-.76.57-1.3s-.19-.99-.57-1.32c-.38-.33-.92-.5-1.61-.5-.46,0-.86.07-1.18.22-.33.15-.58.36-.75.63-.17.27-.26.59-.26.96s.09.67.26.94c.17.27.42.48.75.63.33.15.72.22,1.18.22Z"/>
        </g>
        <g id="seat-1-9">
          <rect class="cls-2" x="504.52" y="301.78" width="51.57" height="51.57"/>
          <path class="cls-1" d="M530.16,335.3c-.99,0-1.86-.16-2.62-.47s-1.37-.76-1.83-1.32c-.46-.56-.75-1.22-.86-1.96l3.13.06c.07.25.2.47.38.67s.42.36.71.48.64.18,1.04.18.74-.06,1.05-.19.58-.31.82-.57.43-.58.59-.97.27-.86.35-1.4.12-1.16.12-1.85v-.36c0-.11,0-.21-.02-.29l.64,1.52h-.68c-.28.35-.59.65-.92.9s-.71.44-1.11.58-.86.2-1.36.2c-1.01,0-1.9-.22-2.67-.65s-1.37-1.03-1.8-1.79-.65-1.6-.65-2.55c0-1,.24-1.88.72-2.64.48-.76,1.15-1.35,1.99-1.78.85-.43,1.82-.64,2.91-.64.88,0,1.65.12,2.3.37.66.25,1.22.58,1.7,1.01.68.61,1.18,1.41,1.51,2.4s.49,2.19.49,3.6c0,1.56-.21,2.9-.64,4.01s-1.08,1.96-1.95,2.55c-.87.59-1.98.88-3.32.88ZM530.08,328.12c.54,0,1.01-.11,1.42-.33s.72-.53.95-.92.34-.84.34-1.35-.12-.96-.35-1.35-.55-.7-.95-.93-.86-.34-1.37-.34-.97.11-1.36.34-.7.54-.92.93c-.22.39-.33.83-.33,1.33s.11.96.34,1.35.53.7.92.93.83.34,1.32.34Z"/>
        </g>
        <g id="seat-1-10">
          <rect class="cls-2" x="562.92" y="301.78" width="51.57" height="51.57"/>
          <g>
            <path class="cls-1" d="M581.35,335.01v-9.15h-3.29v-2.19c.7-.02,1.32-.13,1.88-.34s1.02-.52,1.38-.95c.36-.42.6-.96.71-1.61h2.58v14.24h-3.26Z"/>
            <path class="cls-1" d="M593.06,335.3c-1.22,0-2.29-.3-3.22-.91-.93-.61-1.66-1.46-2.18-2.56-.52-1.1-.78-2.41-.78-3.92s.26-2.83.78-3.94c.52-1.11,1.25-1.97,2.18-2.57.93-.61,2.01-.91,3.24-.91s2.35.3,3.27.9c.92.6,1.64,1.46,2.15,2.57.51,1.11.77,2.43.77,3.95s-.26,2.82-.77,3.92c-.51,1.1-1.24,1.96-2.16,2.56s-2.02.91-3.28.91ZM593.08,332.73c.68,0,1.23-.2,1.65-.6.41-.4.71-.96.9-1.68.19-.72.28-1.57.28-2.53s-.1-1.83-.29-2.56c-.19-.73-.5-1.3-.91-1.71-.42-.41-.96-.61-1.63-.61s-1.21.2-1.63.61-.73.98-.92,1.71-.29,1.59-.29,2.56.1,1.8.29,2.52.5,1.29.92,1.69.96.61,1.63.61Z"/>
          </g>
        </g>
        <g id="seat-1-11">
          <rect class="cls-2" x="621.32" y="301.78" width="51.57" height="51.57"/>
          <g>
            <path class="cls-1" d="M642.3,335.01v-9.15h-3.29v-2.19c.7-.02,1.32-.13,1.88-.34s1.02-.52,1.38-.95.6-.96.71-1.61h2.58v14.24h-3.26Z"/>
            <path class="cls-1" d="M651.04,335.01v-9.15h-3.29v-2.19c.7-.02,1.32-.13,1.88-.34s1.02-.52,1.38-.95.6-.96.71-1.61h2.58v14.24h-3.26Z"/>
          </g>
        </g>
        <g id="seat-2-1">
          <rect class="cls-2" x="37.32" y="242.98" width="51.57" height="51.57"/>
          <path class="cls-1" d="M62.67,276.21v-9.15h-3.29v-2.19c.7-.02,1.32-.13,1.88-.34s1.02-.52,1.38-.95.6-.96.71-1.61h2.58v14.24h-3.26Z"/>
        </g>
        <g id="seat-2-2">
          <rect class="cls-2" x="95.72" y="242.98" width="51.57" height="51.57"/>
          <path class="cls-1" d="M116.02,276.21c.01-.85.14-1.59.39-2.22.25-.62.6-1.19,1.06-1.7s1.01-1.01,1.67-1.49c.65-.48,1.38-1.01,2.19-1.57.61-.42,1.07-.79,1.41-1.1s.56-.61.7-.89c.13-.29.2-.6.2-.93,0-.6-.17-1.08-.52-1.45-.35-.36-.83-.55-1.45-.55-.55,0-.99.12-1.33.36s-.59.56-.75.97c-.16.41-.24.88-.24,1.41h-3.1c0-1.15.22-2.13.66-2.92s1.07-1.4,1.89-1.82c.82-.42,1.81-.62,2.96-.62s2.04.2,2.81.61c.77.4,1.35.95,1.75,1.63s.6,1.45.6,2.29c0,.72-.13,1.36-.4,1.9s-.64,1.04-1.12,1.49c-.49.45-1.07.89-1.74,1.32-.78.5-1.38.9-1.81,1.21-.43.3-.76.55-.97.75-.21.2-.38.4-.5.6h6.52v2.72h-10.89Z"/>
        </g>
        <g id="seat-2-3">
          <rect class="cls-2" x="154.12" y="242.98" width="51.57" height="51.57"/>
          <path class="cls-1" d="M180.04,276.5c-1.2,0-2.24-.19-3.13-.57-.89-.38-1.59-.94-2.08-1.69s-.75-1.66-.77-2.75h3.09c.03.46.15.87.34,1.25s.49.68.89.9c.4.22.91.34,1.54.34.51,0,.94-.08,1.3-.25.36-.17.63-.41.82-.73.19-.32.28-.69.28-1.13s-.1-.79-.3-1.08c-.2-.29-.5-.51-.89-.66s-.87-.22-1.43-.22h-.86v-2.29h.78c.49,0,.91-.07,1.26-.2s.62-.33.81-.6c.19-.27.28-.59.28-.98,0-.35-.08-.66-.25-.92-.17-.26-.41-.46-.71-.61s-.66-.22-1.08-.22c-.54,0-.98.11-1.33.32-.35.21-.61.48-.78.81s-.28.68-.3,1.04h-3.05c.02-.86.25-1.64.68-2.33.43-.69,1.06-1.24,1.87-1.65.81-.41,1.8-.61,2.97-.61,1.01,0,1.9.16,2.69.47s1.39.77,1.84,1.37c.44.6.66,1.31.66,2.15,0,.74-.22,1.33-.65,1.79-.44.46-1.03.82-1.77,1.07v.04c.9.25,1.6.66,2.1,1.25.5.58.76,1.34.76,2.27,0,.76-.15,1.41-.44,1.96-.3.55-.71,1.01-1.23,1.38-.52.36-1.12.63-1.79.81-.67.18-1.38.26-2.12.26Z"/>
        </g>
        <g id="seat-2-4">
          <rect class="cls-2" x="212.52" y="242.98" width="51.57" height="51.57"/>
          <path class="cls-1" d="M239.51,276.21v-3.22h-6.68v-2.9l6.7-8.12h3.12v8.62h2.12v2.39h-2.12v3.22h-3.13ZM235.01,270.71c.46-.04.84-.07,1.16-.09s.61-.03.88-.03h2.46v-3.28c0-.28,0-.59.02-.93s.04-.76.07-1.25h-.04c-.32.45-.59.83-.82,1.14s-.45.59-.65.84l-1.45,1.75c-.2.24-.43.5-.69.78s-.57.62-.95,1.03v.04Z"/>
        </g>
        <g id="seat-2-5">
          <rect class="cls-2" x="270.92" y="242.98" width="51.57" height="51.57"/>
          <path class="cls-1" d="M296.65,276.5c-1.07,0-2.04-.17-2.88-.52-.85-.35-1.53-.85-2.04-1.49-.51-.65-.81-1.42-.89-2.32h3.22c.07.35.22.65.43.9.22.26.5.46.84.6.34.14.75.21,1.2.21.49,0,.93-.1,1.31-.31.38-.21.67-.5.89-.86s.32-.79.32-1.27c0-.51-.11-.96-.33-1.32-.22-.37-.51-.65-.88-.84s-.79-.29-1.25-.29c-.34,0-.65.04-.93.13s-.53.2-.75.34-.39.3-.54.47h-3.07l1.48-7.94h8.66v2.62h-6.33l-.63,3.14h.04c.33-.36.73-.65,1.2-.85.46-.21,1.05-.31,1.74-.31.87,0,1.67.2,2.41.6.74.4,1.33.96,1.78,1.69s.67,1.6.67,2.6-.24,1.91-.73,2.67-1.16,1.34-2.02,1.76c-.86.42-1.84.62-2.94.62Z"/>
        </g>
        <g id="seat-2-6">
          <rect class="cls-2" x="329.32" y="242.98" width="51.57" height="51.57"/>
          <path class="cls-1" d="M355.46,276.5c-1,0-1.88-.17-2.63-.52s-1.38-.83-1.88-1.43c-.55-.66-.95-1.44-1.21-2.34s-.39-1.92-.41-3.04c-.01-1.48.2-2.78.62-3.91s1.1-2.01,2-2.64,2.06-.95,3.47-.95c.99,0,1.84.16,2.56.49s1.29.77,1.73,1.32.72,1.18.86,1.88h-3.12c-.07-.22-.17-.43-.33-.64s-.36-.37-.63-.5-.6-.2-1-.2c-.62,0-1.15.15-1.58.46s-.78.76-1.03,1.37-.41,1.36-.48,2.26v.14h.04c.27-.38.57-.7.91-.96s.72-.47,1.15-.61.9-.21,1.43-.21c.91,0,1.74.21,2.5.63s1.38,1.01,1.85,1.76.7,1.61.71,2.6c0,.99-.24,1.86-.72,2.62s-1.14,1.35-1.97,1.78-1.78.64-2.84.64ZM355.33,274.06c.48,0,.92-.11,1.3-.34s.69-.53.92-.92.34-.82.34-1.3-.11-.95-.33-1.34-.53-.7-.91-.92-.83-.34-1.31-.34c-.53,0-1,.11-1.4.33s-.71.53-.94.91-.34.83-.34,1.33.12.94.35,1.33.55.7.96.92.86.33,1.36.33Z"/>
        </g>
        <g id="seat-2-7">
          <rect class="cls-2" x="387.72" y="242.98" width="51.57" height="51.57"/>
          <path class="cls-1" d="M410.24,276.21c.06-1.29.26-2.52.6-3.68.34-1.17.76-2.24,1.27-3.24.51-.99,1.07-1.88,1.67-2.67s1.2-1.45,1.8-1.97v-.04c-.7.04-1.31.07-1.84.09s-1.06.03-1.6.03h-3.85v-2.75h10.46v2.5c-.64.63-1.26,1.36-1.85,2.2-.59.83-1.12,1.75-1.59,2.75-.47,1-.85,2.07-1.14,3.21-.29,1.14-.45,2.33-.49,3.58h-3.44Z"/>
        </g>
        <g id="seat-2-8">
          <rect class="cls-2" x="446.12" y="242.98" width="51.57" height="51.57"/>
          <path class="cls-1" d="M471.94,276.5c-.85,0-1.64-.1-2.36-.3-.72-.2-1.34-.49-1.88-.86-.53-.38-.94-.84-1.24-1.38s-.44-1.16-.44-1.85c0-.83.24-1.56.73-2.19s1.18-1.08,2.09-1.36v-.06c-.76-.27-1.31-.66-1.67-1.16s-.54-1.08-.54-1.74c0-.79.22-1.47.65-2.06.44-.59,1.05-1.04,1.84-1.37s1.72-.49,2.79-.49,2,.16,2.78.47,1.38.76,1.81,1.33c.43.58.64,1.26.64,2.06,0,.64-.18,1.21-.55,1.72-.37.51-.92.9-1.65,1.16v.06c.94.26,1.65.71,2.12,1.35s.72,1.37.72,2.21c0,.71-.15,1.34-.43,1.89-.29.55-.7,1.02-1.22,1.4-.52.38-1.14.67-1.86.87s-1.5.3-2.35.3ZM471.94,274.06c.51,0,.96-.09,1.34-.27s.68-.43.89-.75.32-.69.32-1.12c0-.68-.23-1.22-.68-1.62-.46-.4-1.08-.6-1.88-.6-.53,0-1,.09-1.39.27s-.69.43-.9.77c-.21.33-.32.73-.32,1.18s.1.81.31,1.13c.21.32.51.57.9.74s.86.26,1.4.26ZM471.9,267.57c.7,0,1.23-.16,1.61-.49.38-.33.57-.76.57-1.3s-.19-.99-.57-1.32c-.38-.33-.92-.5-1.61-.5-.46,0-.86.07-1.18.22-.33.15-.58.36-.75.63-.17.27-.26.59-.26.96s.09.67.26.94c.17.27.42.48.75.63.33.15.72.22,1.18.22Z"/>
        </g>
        <g id="seat-2-9">
          <rect class="cls-2" x="504.52" y="242.98" width="51.57" height="51.57"/>
          <path class="cls-1" d="M530.16,276.5c-.99,0-1.86-.16-2.62-.47s-1.37-.76-1.83-1.32c-.46-.56-.75-1.22-.86-1.96l3.13.06c.07.25.2.47.38.67s.42.36.71.48.64.18,1.04.18.74-.06,1.05-.19.58-.31.82-.57.43-.58.59-.97.27-.86.35-1.4.12-1.16.12-1.85v-.36c0-.11,0-.21-.02-.29l.64,1.52h-.68c-.28.35-.59.65-.92.9s-.71.44-1.11.58-.86.2-1.36.2c-1.01,0-1.9-.22-2.67-.65s-1.37-1.03-1.8-1.79-.65-1.6-.65-2.55c0-1,.24-1.88.72-2.64.48-.76,1.15-1.35,1.99-1.78.85-.43,1.82-.64,2.91-.64.88,0,1.65.12,2.3.37.66.25,1.22.58,1.7,1.01.68.61,1.18,1.41,1.51,2.4s.49,2.19.49,3.6c0,1.56-.21,2.9-.64,4.01s-1.08,1.96-1.95,2.55c-.87.59-1.98.88-3.32.88ZM530.08,269.32c.54,0,1.01-.11,1.42-.33s.72-.53.95-.92.34-.84.34-1.35-.12-.96-.35-1.35-.55-.7-.95-.93-.86-.34-1.37-.34-.97.11-1.36.34-.7.54-.92.93c-.22.39-.33.83-.33,1.33s.11.96.34,1.35.53.7.92.93.83.34,1.32.34Z"/>
        </g>
        <g id="seat-2-10">
          <rect class="cls-2" x="562.92" y="242.98" width="51.57" height="51.57"/>
          <g>
            <path class="cls-1" d="M581.35,276.21v-9.15h-3.29v-2.19c.7-.02,1.32-.13,1.88-.34s1.02-.52,1.38-.95c.36-.42.6-.96.71-1.61h2.58v14.24h-3.26Z"/>
            <path class="cls-1" d="M593.06,276.5c-1.22,0-2.29-.3-3.22-.91-.93-.61-1.66-1.46-2.18-2.56-.52-1.1-.78-2.41-.78-3.92s.26-2.83.78-3.94c.52-1.11,1.25-1.97,2.18-2.57.93-.61,2.01-.91,3.24-.91s2.35.3,3.27.9c.92.6,1.64,1.46,2.15,2.57.51,1.11.77,2.43.77,3.95s-.26,2.82-.77,3.92c-.51,1.1-1.24,1.96-2.16,2.56s-2.02.91-3.28.91ZM593.08,273.93c.68,0,1.23-.2,1.65-.6.41-.4.71-.96.9-1.68.19-.72.28-1.57.28-2.53s-.1-1.83-.29-2.56c-.19-.73-.5-1.3-.91-1.71-.42-.41-.96-.61-1.63-.61s-1.21.2-1.63.61-.73.98-.92,1.71-.29,1.59-.29,2.56.1,1.8.29,2.52.5,1.29.92,1.69.96.61,1.63.61Z"/>
          </g>
        </g>
        <g id="seat-2-11">
          <rect class="cls-2" x="621.32" y="242.98" width="51.57" height="51.57"/>
          <g>
            <path class="cls-1" d="M642.3,276.21v-9.15h-3.29v-2.19c.7-.02,1.32-.13,1.88-.34s1.02-.52,1.38-.95.6-.96.71-1.61h2.58v14.24h-3.26Z"/>
            <path class="cls-1" d="M651.04,276.21v-9.15h-3.29v-2.19c.7-.02,1.32-.13,1.88-.34s1.02-.52,1.38-.95.6-.96.71-1.61h2.58v14.24h-3.26Z"/>
          </g>
        </g>
        <g id="seat-3-1">
          <rect class="cls-2" x="37.32" y="184.18" width="51.57" height="51.57"/>
          <path class="cls-1" d="M62.67,217.41v-9.15h-3.29v-2.19c.7-.02,1.32-.13,1.88-.34s1.02-.52,1.38-.95.6-.96.71-1.61h2.58v14.24h-3.26Z"/>
        </g>
        <g id="seat-3-2">
          <rect class="cls-2" x="95.72" y="184.18" width="51.57" height="51.57"/>
          <path class="cls-1" d="M116.02,217.41c.01-.85.14-1.59.39-2.22.25-.62.6-1.19,1.06-1.7s1.01-1.01,1.67-1.49c.65-.48,1.38-1.01,2.19-1.57.61-.42,1.07-.79,1.41-1.1s.56-.61.7-.89c.13-.29.2-.6.2-.93,0-.6-.17-1.08-.52-1.45-.35-.36-.83-.55-1.45-.55-.55,0-.99.12-1.33.36s-.59.56-.75.97c-.16.41-.24.88-.24,1.41h-3.1c0-1.15.22-2.13.66-2.92s1.07-1.4,1.89-1.82c.82-.42,1.81-.62,2.96-.62s2.04.2,2.81.61c.77.4,1.35.95,1.75,1.63s.6,1.45.6,2.29c0,.72-.13,1.36-.4,1.9s-.64,1.04-1.12,1.49c-.49.45-1.07.89-1.74,1.32-.78.5-1.38.9-1.81,1.21-.43.3-.76.55-.97.75-.21.2-.38.4-.5.6h6.52v2.72h-10.89Z"/>
        </g>
        <g id="seat-3-3">
          <rect class="cls-2" x="154.12" y="184.18" width="51.57" height="51.57"/>
          <path class="cls-1" d="M180.04,217.7c-1.2,0-2.24-.19-3.13-.57-.89-.38-1.59-.94-2.08-1.69s-.75-1.66-.77-2.75h3.09c.03.46.15.87.34,1.25s.49.68.89.9c.4.22.91.34,1.54.34.51,0,.94-.08,1.3-.25.36-.17.63-.41.82-.73.19-.32.28-.69.28-1.13s-.1-.79-.3-1.08c-.2-.29-.5-.51-.89-.66s-.87-.22-1.43-.22h-.86v-2.29h.78c.49,0,.91-.07,1.26-.2s.62-.33.81-.6c.19-.27.28-.59.28-.98,0-.35-.08-.66-.25-.92-.17-.26-.41-.46-.71-.61s-.66-.22-1.08-.22c-.54,0-.98.11-1.33.32-.35.21-.61.48-.78.81s-.28.68-.3,1.04h-3.05c.02-.86.25-1.64.68-2.33.43-.69,1.06-1.24,1.87-1.65.81-.41,1.8-.61,2.97-.61,1.01,0,1.9.16,2.69.47s1.39.77,1.84,1.37c.44.6.66,1.31.66,2.15,0,.74-.22,1.33-.65,1.79-.44.46-1.03.82-1.77,1.07v.04c.9.25,1.6.66,2.1,1.25.5.58.76,1.34.76,2.27,0,.76-.15,1.41-.44,1.96-.3.55-.71,1.01-1.23,1.38-.52.36-1.12.63-1.79.81-.67.18-1.38.26-2.12.26Z"/>
        </g>
        <g id="seat-3-4">
          <rect class="cls-2" x="212.52" y="184.18" width="51.57" height="51.57"/>
          <path class="cls-1" d="M239.51,217.41v-3.22h-6.68v-2.9l6.7-8.12h3.12v8.62h2.12v2.39h-2.12v3.22h-3.13ZM235.01,211.91c.46-.04.84-.07,1.16-.09s.61-.03.88-.03h2.46v-3.28c0-.28,0-.59.02-.93s.04-.76.07-1.25h-.04c-.32.45-.59.83-.82,1.14s-.45.59-.65.84l-1.45,1.75c-.2.24-.43.5-.69.78s-.57.62-.95,1.03v.04Z"/>
        </g>
        <g id="seat-3-5">
          <rect class="cls-2" x="270.92" y="184.18" width="51.57" height="51.57"/>
          <path class="cls-1" d="M296.65,217.7c-1.07,0-2.04-.17-2.88-.52-.85-.35-1.53-.85-2.04-1.49-.51-.65-.81-1.42-.89-2.32h3.22c.07.35.22.65.43.9.22.26.5.46.84.6.34.14.75.21,1.2.21.49,0,.93-.1,1.31-.31.38-.21.67-.5.89-.86s.32-.79.32-1.27c0-.51-.11-.96-.33-1.32-.22-.37-.51-.65-.88-.84s-.79-.29-1.25-.29c-.34,0-.65.04-.93.13s-.53.2-.75.34-.39.3-.54.47h-3.07l1.48-7.94h8.66v2.62h-6.33l-.63,3.14h.04c.33-.36.73-.65,1.2-.85.46-.21,1.05-.31,1.74-.31.87,0,1.67.2,2.41.6.74.4,1.33.96,1.78,1.69s.67,1.6.67,2.6-.24,1.91-.73,2.67-1.16,1.34-2.02,1.76c-.86.42-1.84.62-2.94.62Z"/>
        </g>
        <g id="seat-3-6">
          <rect class="cls-2" x="329.32" y="184.18" width="51.57" height="51.57"/>
          <path class="cls-1" d="M355.46,217.7c-1,0-1.88-.17-2.63-.52s-1.38-.83-1.88-1.43c-.55-.66-.95-1.44-1.21-2.34s-.39-1.92-.41-3.04c-.01-1.48.2-2.78.62-3.91s1.1-2.01,2-2.64,2.06-.95,3.47-.95c.99,0,1.84.16,2.56.49s1.29.77,1.73,1.32.72,1.18.86,1.88h-3.12c-.07-.22-.17-.43-.33-.64s-.36-.37-.63-.5-.6-.2-1-.2c-.62,0-1.15.15-1.58.46s-.78.76-1.03,1.37-.41,1.36-.48,2.26v.14h.04c.27-.38.57-.7.91-.96s.72-.47,1.15-.61.9-.21,1.43-.21c.91,0,1.74.21,2.5.63s1.38,1.01,1.85,1.76.7,1.61.71,2.6c0,.99-.24,1.86-.72,2.62s-1.14,1.35-1.97,1.78-1.78.64-2.84.64ZM355.33,215.26c.48,0,.92-.11,1.3-.34s.69-.53.92-.92.34-.82.34-1.3-.11-.95-.33-1.34-.53-.7-.91-.92-.83-.34-1.31-.34c-.53,0-1,.11-1.4.33s-.71.53-.94.91-.34.83-.34,1.33.12.94.35,1.33.55.7.96.92.86.33,1.36.33Z"/>
        </g>
        <g id="seat-3-7">
          <rect class="cls-2" x="387.72" y="184.18" width="51.57" height="51.57"/>
          <path class="cls-1" d="M410.24,217.41c.06-1.29.26-2.52.6-3.68.34-1.17.76-2.24,1.27-3.24.51-.99,1.07-1.88,1.67-2.67s1.2-1.45,1.8-1.97v-.04c-.7.04-1.31.07-1.84.09s-1.06.03-1.6.03h-3.85v-2.75h10.46v2.5c-.64.63-1.26,1.36-1.85,2.2-.59.83-1.12,1.75-1.59,2.75-.47,1-.85,2.07-1.14,3.21-.29,1.14-.45,2.33-.49,3.58h-3.44Z"/>
        </g>
        <g id="seat-3-8">
          <rect class="cls-2" x="446.12" y="184.18" width="51.57" height="51.57"/>
          <path class="cls-1" d="M471.94,217.7c-.85,0-1.64-.1-2.36-.3-.72-.2-1.34-.49-1.88-.86-.53-.38-.94-.84-1.24-1.38s-.44-1.16-.44-1.85c0-.83.24-1.56.73-2.19s1.18-1.08,2.09-1.36v-.06c-.76-.27-1.31-.66-1.67-1.16s-.54-1.08-.54-1.74c0-.79.22-1.47.65-2.06.44-.59,1.05-1.04,1.84-1.37s1.72-.49,2.79-.49,2,.16,2.78.47,1.38.76,1.81,1.33c.43.58.64,1.26.64,2.06,0,.64-.18,1.21-.55,1.72-.37.51-.92.9-1.65,1.16v.06c.94.26,1.65.71,2.12,1.35s.72,1.37.72,2.21c0,.71-.15,1.34-.43,1.89-.29.55-.7,1.02-1.22,1.4-.52.38-1.14.67-1.86.87s-1.5.3-2.35.3ZM471.94,215.26c.51,0,.96-.09,1.34-.27s.68-.43.89-.75.32-.69.32-1.12c0-.68-.23-1.22-.68-1.62-.46-.4-1.08-.6-1.88-.6-.53,0-1,.09-1.39.27s-.69.43-.9.77c-.21.33-.32.73-.32,1.18s.1.81.31,1.13c.21.32.51.57.9.74s.86.26,1.4.26ZM471.9,208.77c.7,0,1.23-.16,1.61-.49.38-.33.57-.76.57-1.3s-.19-.99-.57-1.32c-.38-.33-.92-.5-1.61-.5-.46,0-.86.07-1.18.22-.33.15-.58.36-.75.63-.17.27-.26.59-.26.96s.09.67.26.94c.17.27.42.48.75.63.33.15.72.22,1.18.22Z"/>
        </g>
        <g id="seat-3-9">
          <rect class="cls-2" x="504.52" y="184.18" width="51.57" height="51.57"/>
          <path class="cls-1" d="M530.16,217.7c-.99,0-1.86-.16-2.62-.47s-1.37-.76-1.83-1.32c-.46-.56-.75-1.22-.86-1.96l3.13.06c.07.25.2.47.38.67s.42.36.71.48.64.18,1.04.18.74-.06,1.05-.19.58-.31.82-.57.43-.58.59-.97.27-.86.35-1.4.12-1.16.12-1.85v-.36c0-.11,0-.21-.02-.29l.64,1.52h-.68c-.28.35-.59.65-.92.9s-.71.44-1.11.58-.86.2-1.36.2c-1.01,0-1.9-.22-2.67-.65s-1.37-1.03-1.8-1.79-.65-1.6-.65-2.55c0-1,.24-1.88.72-2.64.48-.76,1.15-1.35,1.99-1.78.85-.43,1.82-.64,2.91-.64.88,0,1.65.12,2.3.37.66.25,1.22.58,1.7,1.01.68.61,1.18,1.41,1.51,2.4s.49,2.19.49,3.6c0,1.56-.21,2.9-.64,4.01s-1.08,1.96-1.95,2.55c-.87.59-1.98.88-3.32.88ZM530.08,210.52c.54,0,1.01-.11,1.42-.33s.72-.53.95-.92.34-.84.34-1.35-.12-.96-.35-1.35-.55-.7-.95-.93-.86-.34-1.37-.34-.97.11-1.36.34-.7.54-.92.93c-.22.39-.33.83-.33,1.33s.11.96.34,1.35.53.7.92.93.83.34,1.32.34Z"/>
        </g>
        <g id="seat-3-10">
          <rect class="cls-2" x="562.92" y="184.18" width="51.57" height="51.57"/>
          <g>
            <path class="cls-1" d="M581.35,217.41v-9.15h-3.29v-2.19c.7-.02,1.32-.13,1.88-.34s1.02-.52,1.38-.95c.36-.42.6-.96.71-1.61h2.58v14.24h-3.26Z"/>
            <path class="cls-1" d="M593.06,217.7c-1.22,0-2.29-.3-3.22-.91-.93-.61-1.66-1.46-2.18-2.56-.52-1.1-.78-2.41-.78-3.92s.26-2.83.78-3.94c.52-1.11,1.25-1.97,2.18-2.57.93-.61,2.01-.91,3.24-.91s2.35.3,3.27.9c.92.6,1.64,1.46,2.15,2.57.51,1.11.77,2.43.77,3.95s-.26,2.82-.77,3.92c-.51,1.1-1.24,1.96-2.16,2.56s-2.02.91-3.28.91ZM593.08,215.13c.68,0,1.23-.2,1.65-.6.41-.4.71-.96.9-1.68.19-.72.28-1.57.28-2.53s-.1-1.83-.29-2.56c-.19-.73-.5-1.3-.91-1.71-.42-.41-.96-.61-1.63-.61s-1.21.2-1.63.61-.73.98-.92,1.71-.29,1.59-.29,2.56.1,1.8.29,2.52.5,1.29.92,1.69.96.61,1.63.61Z"/>
          </g>
        </g>
        <g id="seat-3-11">
          <rect class="cls-2" x="621.32" y="184.18" width="51.57" height="51.57"/>
          <g>
            <path class="cls-1" d="M642.3,217.41v-9.15h-3.29v-2.19c.7-.02,1.32-.13,1.88-.34s1.02-.52,1.38-.95.6-.96.71-1.61h2.58v14.24h-3.26Z"/>
            <path class="cls-1" d="M651.04,217.41v-9.15h-3.29v-2.19c.7-.02,1.32-.13,1.88-.34s1.02-.52,1.38-.95.6-.96.71-1.61h2.58v14.24h-3.26Z"/>
          </g>
        </g>
        <g id="seat-4-1">
          <rect class="cls-2" x="37.32" y="125.38" width="51.57" height="51.57"/>
          <path class="cls-1" d="M62.67,158.61v-9.15h-3.29v-2.19c.7-.02,1.32-.13,1.88-.34.56-.21,1.02-.52,1.38-.95.36-.42.6-.96.71-1.61h2.58v14.24h-3.26Z"/>
        </g>
        <g id="seat-4-2">
          <rect class="cls-2" x="95.72" y="125.38" width="51.57" height="51.57"/>
          <path class="cls-1" d="M116.02,158.61c.01-.85.14-1.59.39-2.22.25-.62.6-1.19,1.06-1.7.46-.51,1.01-1.01,1.67-1.49.65-.49,1.38-1.01,2.19-1.57.61-.42,1.07-.79,1.41-1.1.33-.31.56-.61.7-.89.13-.29.2-.6.2-.93,0-.6-.17-1.08-.52-1.45-.35-.37-.83-.55-1.45-.55-.55,0-.99.12-1.33.36-.34.24-.59.56-.75.97-.16.41-.24.88-.24,1.41h-3.1c0-1.15.22-2.13.66-2.92.44-.8,1.07-1.41,1.89-1.82.82-.42,1.81-.62,2.96-.62s2.04.2,2.81.61c.77.4,1.35.95,1.75,1.63s.6,1.45.6,2.29c0,.72-.13,1.36-.4,1.9s-.64,1.04-1.12,1.49c-.49.45-1.07.89-1.74,1.32-.78.5-1.38.9-1.81,1.21-.43.3-.76.55-.97.75-.21.2-.38.4-.5.6h6.52v2.72h-10.89Z"/>
        </g>
        <g id="seat-4-3">
          <rect class="cls-2" x="154.12" y="125.38" width="51.57" height="51.57"/>
          <path class="cls-1" d="M180.04,158.9c-1.2,0-2.24-.19-3.13-.57-.89-.38-1.59-.94-2.08-1.69-.5-.75-.75-1.66-.77-2.75h3.09c.03.46.15.87.34,1.25.2.38.49.68.89.9.4.22.91.34,1.54.34.51,0,.94-.08,1.3-.25.36-.17.63-.41.82-.73.19-.32.28-.69.28-1.13s-.1-.79-.3-1.08c-.2-.29-.5-.51-.89-.66-.39-.15-.87-.22-1.43-.22h-.86v-2.29h.78c.49,0,.91-.07,1.26-.2.35-.13.62-.33.81-.6.19-.27.28-.59.28-.98,0-.35-.08-.66-.25-.92-.17-.26-.41-.46-.71-.61s-.66-.22-1.08-.22c-.54,0-.98.11-1.33.32-.35.21-.61.48-.78.81-.18.33-.28.67-.3,1.04h-3.05c.02-.86.25-1.64.68-2.33.43-.69,1.06-1.24,1.87-1.65.81-.41,1.8-.61,2.97-.61,1.01,0,1.9.16,2.69.47.78.32,1.39.77,1.84,1.37.44.6.66,1.31.66,2.15,0,.74-.22,1.33-.65,1.79-.44.46-1.03.82-1.77,1.07v.04c.9.25,1.6.66,2.1,1.25.5.58.76,1.34.76,2.27,0,.75-.15,1.41-.44,1.96-.3.55-.71,1.01-1.23,1.38-.52.36-1.12.63-1.79.81-.67.18-1.38.26-2.12.26Z"/>
        </g>
        <g id="seat-4-4">
          <rect class="cls-2" x="212.52" y="125.38" width="51.57" height="51.57"/>
          <path class="cls-1" d="M239.51,158.61v-3.22h-6.68v-2.9l6.7-8.12h3.12v8.62h2.12v2.39h-2.12v3.22h-3.13ZM235.01,153.11c.46-.04.84-.07,1.16-.09s.61-.03.88-.03h2.46v-3.28c0-.28,0-.59.02-.93.02-.34.04-.76.07-1.25h-.04c-.32.45-.59.83-.82,1.14-.23.31-.45.59-.65.84l-1.45,1.75c-.2.24-.43.5-.69.78-.26.28-.57.62-.95,1.03v.04Z"/>
        </g>
        <g id="seat-4-5">
          <rect class="cls-2" x="270.92" y="125.38" width="51.57" height="51.57"/>
          <path class="cls-1" d="M296.65,158.9c-1.07,0-2.04-.17-2.88-.52-.85-.35-1.53-.85-2.04-1.49-.51-.65-.81-1.42-.89-2.32h3.22c.07.34.22.65.43.9.22.26.5.46.84.6.34.14.75.21,1.2.21.49,0,.93-.1,1.31-.31.38-.21.67-.5.89-.86.21-.37.32-.79.32-1.27,0-.51-.11-.96-.33-1.32-.22-.37-.51-.65-.88-.84s-.79-.29-1.25-.29c-.34,0-.65.04-.93.13-.28.08-.53.2-.75.34-.21.14-.39.3-.54.47h-3.07l1.48-7.94h8.66v2.62h-6.33l-.63,3.14h.04c.33-.37.73-.65,1.2-.85.46-.21,1.05-.31,1.74-.31.87,0,1.67.2,2.41.6.74.4,1.33.96,1.78,1.69.45.73.67,1.59.67,2.6s-.24,1.91-.73,2.67c-.49.75-1.16,1.34-2.02,1.76-.86.42-1.84.62-2.94.62Z"/>
        </g>
        <g id="seat-4-6">
          <rect class="cls-2" x="329.32" y="125.38" width="51.57" height="51.57"/>
          <path class="cls-1" d="M355.46,158.9c-1,0-1.88-.17-2.63-.52-.75-.35-1.38-.83-1.88-1.43-.55-.66-.95-1.44-1.21-2.34-.26-.91-.39-1.92-.41-3.04-.01-1.48.2-2.78.62-3.91.43-1.13,1.1-2.01,2-2.64.91-.63,2.06-.95,3.47-.95.99,0,1.84.16,2.56.49.72.33,1.29.76,1.73,1.32.44.55.72,1.18.86,1.88h-3.12c-.07-.22-.17-.43-.33-.64s-.36-.37-.63-.5c-.27-.13-.6-.2-1-.2-.62,0-1.15.15-1.58.46-.44.31-.78.76-1.03,1.37-.25.61-.41,1.36-.48,2.26v.14h.04c.27-.38.57-.7.91-.96s.72-.47,1.15-.61c.43-.14.9-.21,1.43-.21.91,0,1.74.21,2.5.63.76.42,1.38,1.01,1.85,1.76.47.75.7,1.61.71,2.6,0,.99-.24,1.86-.72,2.62-.48.76-1.14,1.35-1.97,1.78-.83.43-1.78.64-2.84.64ZM355.33,156.46c.48,0,.92-.11,1.3-.34s.69-.53.92-.92c.22-.39.34-.82.34-1.3s-.11-.95-.33-1.34-.53-.7-.91-.92-.83-.34-1.31-.34c-.53,0-1,.11-1.4.33-.4.22-.71.53-.94.91-.22.39-.34.83-.34,1.33s.12.94.35,1.33.55.7.96.92c.41.22.86.33,1.36.33Z"/>
        </g>
        <g id="seat-4-7">
          <rect class="cls-2" x="387.72" y="125.38" width="51.57" height="51.57"/>
          <path class="cls-1" d="M410.24,158.61c.06-1.29.26-2.52.6-3.68.34-1.17.76-2.25,1.27-3.24.51-.99,1.07-1.88,1.67-2.67.61-.79,1.2-1.45,1.8-1.97v-.04c-.7.04-1.31.07-1.84.09s-1.06.03-1.6.03h-3.85v-2.75h10.46v2.5c-.64.63-1.26,1.36-1.85,2.2-.59.83-1.12,1.75-1.59,2.75-.47,1-.85,2.07-1.14,3.21-.29,1.14-.45,2.33-.49,3.58h-3.44Z"/>
        </g>
        <g id="seat-4-8">
          <rect class="cls-2" x="446.12" y="125.38" width="51.57" height="51.57"/>
          <path class="cls-1" d="M471.94,158.9c-.85,0-1.64-.1-2.36-.3-.72-.2-1.34-.49-1.88-.86-.53-.38-.94-.84-1.24-1.38-.29-.54-.44-1.16-.44-1.85,0-.83.24-1.56.73-2.19s1.18-1.08,2.09-1.36v-.06c-.76-.27-1.31-.66-1.67-1.16-.36-.5-.54-1.08-.54-1.74,0-.79.22-1.47.65-2.06.44-.59,1.05-1.04,1.84-1.37.79-.33,1.72-.49,2.79-.49s2,.16,2.78.47,1.38.76,1.81,1.33c.43.58.64,1.26.64,2.06,0,.64-.18,1.21-.55,1.72-.37.51-.92.9-1.65,1.16v.06c.94.26,1.65.71,2.12,1.35.48.64.72,1.37.72,2.21,0,.71-.15,1.34-.43,1.89-.29.55-.7,1.02-1.22,1.4-.52.38-1.14.67-1.86.87-.71.2-1.5.3-2.35.3ZM471.94,156.46c.51,0,.96-.09,1.34-.27.38-.18.68-.43.89-.75.21-.32.32-.69.32-1.12,0-.68-.23-1.22-.68-1.62-.46-.4-1.08-.6-1.88-.6-.53,0-1,.09-1.39.27-.39.18-.69.43-.9.77-.21.33-.32.73-.32,1.18s.1.81.31,1.13c.21.32.51.57.9.74s.86.26,1.4.26ZM471.9,149.97c.7,0,1.23-.17,1.61-.49.38-.33.57-.76.57-1.3s-.19-.99-.57-1.32c-.38-.33-.92-.5-1.61-.5-.46,0-.86.07-1.18.22-.33.15-.58.36-.75.63-.17.27-.26.59-.26.96s.09.67.26.94c.17.27.42.48.75.63.33.15.72.22,1.18.22Z"/>
        </g>
        <g id="seat-4-9">
          <rect class="cls-2" x="504.52" y="125.38" width="51.57" height="51.57"/>
          <path class="cls-1" d="M530.16,158.9c-.99,0-1.86-.16-2.62-.47-.76-.32-1.37-.76-1.83-1.32-.46-.56-.75-1.22-.86-1.96l3.13.06c.07.25.2.47.38.67.18.2.42.36.71.48s.64.18,1.04.18.74-.06,1.05-.19c.31-.12.58-.31.82-.57s.43-.58.59-.97.27-.86.35-1.4c.08-.54.12-1.16.12-1.85v-.36c0-.11,0-.21-.02-.29l.64,1.52h-.68c-.28.35-.59.65-.92.9-.33.25-.71.44-1.11.58-.41.13-.86.2-1.36.2-1.01,0-1.9-.22-2.67-.65-.77-.44-1.37-1.03-1.8-1.79-.43-.76-.65-1.61-.65-2.55,0-1,.24-1.88.72-2.64.48-.76,1.15-1.35,1.99-1.78.85-.43,1.82-.64,2.91-.64.88,0,1.65.12,2.3.37.66.25,1.22.58,1.7,1.01.68.61,1.18,1.41,1.51,2.4.33.99.49,2.19.49,3.6,0,1.56-.21,2.9-.64,4.01-.43,1.11-1.08,1.96-1.95,2.55-.87.59-1.98.88-3.32.88ZM530.08,151.72c.54,0,1.01-.11,1.42-.33.41-.22.72-.53.95-.92s.34-.84.34-1.35-.12-.96-.35-1.35c-.23-.39-.55-.7-.95-.93s-.86-.34-1.37-.34-.97.11-1.36.34c-.39.23-.7.54-.92.93-.22.39-.33.83-.33,1.33s.11.96.34,1.35c.22.39.53.7.92.93s.83.34,1.32.34Z"/>
        </g>
        <g id="seat-4-10">
          <rect class="cls-2" x="562.92" y="125.38" width="51.57" height="51.57"/>
          <g>
            <path class="cls-1" d="M581.35,158.61v-9.15h-3.29v-2.19c.7-.02,1.32-.13,1.88-.34.56-.21,1.02-.52,1.38-.95.36-.42.6-.96.71-1.61h2.58v14.24h-3.26Z"/>
            <path class="cls-1" d="M593.06,158.9c-1.22,0-2.29-.3-3.22-.91-.93-.61-1.66-1.46-2.18-2.56-.52-1.1-.78-2.41-.78-3.92s.26-2.83.78-3.94c.52-1.11,1.25-1.97,2.18-2.57.93-.61,2.01-.91,3.24-.91s2.35.3,3.27.9c.92.6,1.64,1.46,2.15,2.57.51,1.11.77,2.43.77,3.95s-.26,2.82-.77,3.92c-.51,1.1-1.24,1.96-2.16,2.56s-2.02.91-3.28.91ZM593.08,156.33c.68,0,1.23-.2,1.65-.6.41-.4.71-.96.9-1.68.19-.72.28-1.57.28-2.53s-.1-1.83-.29-2.56c-.19-.73-.5-1.3-.91-1.71-.42-.41-.96-.61-1.63-.61s-1.21.2-1.63.61c-.42.41-.73.98-.92,1.71s-.29,1.59-.29,2.56.1,1.8.29,2.52.5,1.29.92,1.69c.42.4.96.61,1.63.61Z"/>
          </g>
        </g>
        <g id="seat-4-11">
          <rect class="cls-2" x="621.32" y="125.38" width="51.57" height="51.57"/>
          <g>
            <path class="cls-1" d="M642.3,158.61v-9.15h-3.29v-2.19c.7-.02,1.32-.13,1.88-.34.56-.21,1.02-.52,1.38-.95.36-.42.6-.96.71-1.61h2.58v14.24h-3.26Z"/>
            <path class="cls-1" d="M651.04,158.61v-9.15h-3.29v-2.19c.7-.02,1.32-.13,1.88-.34.56-.21,1.02-.52,1.38-.95.36-.42.6-.96.71-1.61h2.58v14.24h-3.26Z"/>
          </g>
        </g>
        <g id="seat-5-1">
          <rect class="cls-2" x="37.32" y="66.58" width="51.57" height="51.57"/>
          <path class="cls-1" d="M62.67,99.81v-9.15h-3.29v-2.19c.7-.02,1.32-.13,1.88-.34s1.02-.52,1.38-.95.6-.96.71-1.61h2.58v14.24h-3.26Z"/>
        </g>
        <g id="seat-5-2">
          <rect class="cls-2" x="95.72" y="66.58" width="51.57" height="51.57"/>
          <path class="cls-1" d="M116.02,99.81c.01-.85.14-1.59.39-2.22.25-.62.6-1.19,1.06-1.7s1.01-1.01,1.67-1.49c.65-.48,1.38-1.01,2.19-1.57.61-.42,1.07-.79,1.41-1.1s.56-.61.7-.89c.13-.29.2-.6.2-.93,0-.6-.17-1.08-.52-1.45-.35-.36-.83-.55-1.45-.55-.55,0-.99.12-1.33.36s-.59.56-.75.97c-.16.41-.24.88-.24,1.41h-3.1c0-1.15.22-2.13.66-2.92s1.07-1.4,1.89-1.82c.82-.42,1.81-.62,2.96-.62s2.04.2,2.81.61c.77.4,1.35.95,1.75,1.63s.6,1.45.6,2.29c0,.72-.13,1.36-.4,1.9s-.64,1.04-1.12,1.49c-.49.45-1.07.89-1.74,1.32-.78.5-1.38.9-1.81,1.21-.43.3-.76.55-.97.75-.21.2-.38.4-.5.6h6.52v2.72h-10.89Z"/>
        </g>
        <g id="seat-5-3">
          <rect class="cls-2" x="154.12" y="66.58" width="51.57" height="51.57"/>
          <path class="cls-1" d="M180.04,100.1c-1.2,0-2.24-.19-3.13-.57-.89-.38-1.59-.94-2.08-1.69s-.75-1.66-.77-2.75h3.09c.03.46.15.87.34,1.25s.49.68.89.9c.4.22.91.34,1.54.34.51,0,.94-.08,1.3-.25.36-.17.63-.41.82-.73.19-.32.28-.69.28-1.13s-.1-.79-.3-1.08c-.2-.29-.5-.51-.89-.66s-.87-.22-1.43-.22h-.86v-2.29h.78c.49,0,.91-.07,1.26-.2s.62-.33.81-.6c.19-.27.28-.59.28-.98,0-.35-.08-.66-.25-.92-.17-.26-.41-.46-.71-.61s-.66-.22-1.08-.22c-.54,0-.98.11-1.33.32-.35.21-.61.48-.78.81s-.28.68-.3,1.04h-3.05c.02-.86.25-1.64.68-2.33.43-.69,1.06-1.24,1.87-1.65.81-.41,1.8-.61,2.97-.61,1.01,0,1.9.16,2.69.47s1.39.77,1.84,1.37c.44.6.66,1.31.66,2.15,0,.74-.22,1.33-.65,1.79-.44.46-1.03.82-1.77,1.07v.04c.9.25,1.6.66,2.1,1.25.5.58.76,1.34.76,2.27,0,.76-.15,1.41-.44,1.96-.3.55-.71,1.01-1.23,1.38-.52.36-1.12.63-1.79.81-.67.18-1.38.26-2.12.26Z"/>
        </g>
        <g id="seat-5-4">
          <rect class="cls-2" x="212.52" y="66.58" width="51.57" height="51.57"/>
          <path class="cls-1" d="M239.51,99.81v-3.22h-6.68v-2.9l6.7-8.12h3.12v8.62h2.12v2.39h-2.12v3.22h-3.13ZM235.01,94.31c.46-.04.84-.07,1.16-.09s.61-.03.88-.03h2.46v-3.28c0-.28,0-.59.02-.93s.04-.76.07-1.25h-.04c-.32.45-.59.83-.82,1.14s-.45.59-.65.84l-1.45,1.75c-.2.24-.43.5-.69.78s-.57.62-.95,1.03v.04Z"/>
        </g>
        <g id="seat-5-5">
          <rect class="cls-2" x="270.92" y="66.58" width="51.57" height="51.57"/>
          <path class="cls-1" d="M296.65,100.1c-1.07,0-2.04-.17-2.88-.52-.85-.35-1.53-.85-2.04-1.49-.51-.65-.81-1.42-.89-2.32h3.22c.07.35.22.65.43.9.22.26.5.46.84.6.34.14.75.21,1.2.21.49,0,.93-.1,1.31-.31.38-.21.67-.5.89-.86s.32-.79.32-1.27c0-.51-.11-.96-.33-1.32-.22-.37-.51-.65-.88-.84s-.79-.29-1.25-.29c-.34,0-.65.04-.93.13s-.53.2-.75.34-.39.3-.54.47h-3.07l1.48-7.94h8.66v2.62h-6.33l-.63,3.14h.04c.33-.36.73-.65,1.2-.85.46-.21,1.05-.31,1.74-.31.87,0,1.67.2,2.41.6.74.4,1.33.96,1.78,1.69s.67,1.6.67,2.6-.24,1.91-.73,2.67-1.16,1.34-2.02,1.76c-.86.42-1.84.62-2.94.62Z"/>
        </g>
        <g id="seat-5-6">
          <rect class="cls-2" x="329.32" y="66.58" width="51.57" height="51.57"/>
          <path class="cls-1" d="M355.46,100.1c-1,0-1.88-.17-2.63-.52s-1.38-.83-1.88-1.43c-.55-.66-.95-1.44-1.21-2.34s-.39-1.92-.41-3.04c-.01-1.48.2-2.78.62-3.91s1.1-2.01,2-2.64,2.06-.95,3.47-.95c.99,0,1.84.16,2.56.49s1.29.77,1.73,1.32.72,1.18.86,1.88h-3.12c-.07-.22-.17-.43-.33-.64s-.36-.37-.63-.5-.6-.2-1-.2c-.62,0-1.15.15-1.58.46s-.78.76-1.03,1.37-.41,1.36-.48,2.26v.14h.04c.27-.38.57-.7.91-.96s.72-.47,1.15-.61.9-.21,1.43-.21c.91,0,1.74.21,2.5.63s1.38,1.01,1.85,1.76.7,1.61.71,2.6c0,.99-.24,1.86-.72,2.62s-1.14,1.35-1.97,1.78-1.78.64-2.84.64ZM355.33,97.66c.48,0,.92-.11,1.3-.34s.69-.53.92-.92.34-.82.34-1.3-.11-.95-.33-1.34-.53-.7-.91-.92-.83-.34-1.31-.34c-.53,0-1,.11-1.4.33s-.71.53-.94.91-.34.83-.34,1.33.12.94.35,1.33.55.7.96.92.86.33,1.36.33Z"/>
        </g>
        <g id="seat-5-7">
          <rect class="cls-2" x="387.72" y="66.58" width="51.57" height="51.57"/>
          <path class="cls-1" d="M410.24,99.81c.06-1.29.26-2.52.6-3.68.34-1.17.76-2.24,1.27-3.24.51-.99,1.07-1.88,1.67-2.67s1.2-1.45,1.8-1.97v-.04c-.7.04-1.31.07-1.84.09s-1.06.03-1.6.03h-3.85v-2.75h10.46v2.5c-.64.63-1.26,1.36-1.85,2.2-.59.83-1.12,1.75-1.59,2.75-.47,1-.85,2.07-1.14,3.21-.29,1.14-.45,2.33-.49,3.58h-3.44Z"/>
        </g>
        <g id="seat-5-8">
          <rect class="cls-2" x="446.12" y="66.58" width="51.57" height="51.57"/>
          <path class="cls-1" d="M471.94,100.1c-.85,0-1.64-.1-2.36-.3-.72-.2-1.34-.49-1.88-.86-.53-.38-.94-.84-1.24-1.38s-.44-1.16-.44-1.85c0-.83.24-1.56.73-2.19s1.18-1.08,2.09-1.36v-.06c-.76-.27-1.31-.66-1.67-1.16s-.54-1.08-.54-1.74c0-.79.22-1.47.65-2.06.44-.59,1.05-1.04,1.84-1.37s1.72-.49,2.79-.49,2,.16,2.78.47,1.38.76,1.81,1.33c.43.58.64,1.26.64,2.06,0,.64-.18,1.21-.55,1.72-.37.51-.92.9-1.65,1.16v.06c.94.26,1.65.71,2.12,1.35s.72,1.37.72,2.21c0,.71-.15,1.34-.43,1.89-.29.55-.7,1.02-1.22,1.4-.52.38-1.14.67-1.86.87s-1.5.3-2.35.3ZM471.94,97.66c.51,0,.96-.09,1.34-.27s.68-.43.89-.75.32-.69.32-1.12c0-.68-.23-1.22-.68-1.62-.46-.4-1.08-.6-1.88-.6-.53,0-1,.09-1.39.27s-.69.43-.9.77c-.21.33-.32.73-.32,1.18s.1.81.31,1.13c.21.32.51.57.9.74s.86.26,1.4.26ZM471.9,91.17c.7,0,1.23-.16,1.61-.49.38-.33.57-.76.57-1.3s-.19-.99-.57-1.32c-.38-.33-.92-.5-1.61-.5-.46,0-.86.07-1.18.22-.33.15-.58.36-.75.63-.17.27-.26.59-.26.96s.09.67.26.94c.17.27.42.48.75.63.33.15.72.22,1.18.22Z"/>
        </g>
        <g id="seat-5-9">
          <rect class="cls-2" x="504.52" y="66.58" width="51.57" height="51.57"/>
          <path class="cls-1" d="M530.16,100.1c-.99,0-1.86-.16-2.62-.47s-1.37-.76-1.83-1.32c-.46-.56-.75-1.22-.86-1.96l3.13.06c.07.25.2.47.38.67s.42.36.71.48.64.18,1.04.18.74-.06,1.05-.19.58-.31.82-.57.43-.58.59-.97.27-.86.35-1.4.12-1.16.12-1.85v-.36c0-.11,0-.21-.02-.29l.64,1.52h-.68c-.28.35-.59.65-.92.9s-.71.44-1.11.58-.86.2-1.36.2c-1.01,0-1.9-.22-2.67-.65s-1.37-1.03-1.8-1.79-.65-1.6-.65-2.55c0-1,.24-1.88.72-2.64.48-.76,1.15-1.35,1.99-1.78.85-.43,1.82-.64,2.91-.64.88,0,1.65.12,2.3.37.66.25,1.22.58,1.7,1.01.68.61,1.18,1.41,1.51,2.4s.49,2.19.49,3.6c0,1.56-.21,2.9-.64,4.01s-1.08,1.96-1.95,2.55c-.87.59-1.98.88-3.32.88ZM530.08,92.92c.54,0,1.01-.11,1.42-.33s.72-.53.95-.92.34-.84.34-1.35-.12-.96-.35-1.35-.55-.7-.95-.93-.86-.34-1.37-.34-.97.11-1.36.34-.7.54-.92.93c-.22.39-.33.83-.33,1.33s.11.96.34,1.35.53.7.92.93.83.34,1.32.34Z"/>
        </g>
        <g id="seat-5-10">
          <rect class="cls-2" x="562.92" y="66.58" width="51.57" height="51.57"/>
          <g>
            <path class="cls-1" d="M581.35,99.81v-9.15h-3.29v-2.19c.7-.02,1.32-.13,1.88-.34s1.02-.52,1.38-.95c.36-.42.6-.96.71-1.61h2.58v14.24h-3.26Z"/>
            <path class="cls-1" d="M593.06,100.1c-1.22,0-2.29-.3-3.22-.91-.93-.61-1.66-1.46-2.18-2.56-.52-1.1-.78-2.41-.78-3.92s.26-2.83.78-3.94c.52-1.11,1.25-1.97,2.18-2.57.93-.61,2.01-.91,3.24-.91s2.35.3,3.27.9c.92.6,1.64,1.46,2.15,2.57.51,1.11.77,2.43.77,3.95s-.26,2.82-.77,3.92c-.51,1.1-1.24,1.96-2.16,2.56s-2.02.91-3.28.91ZM593.08,97.53c.68,0,1.23-.2,1.65-.6.41-.4.71-.96.9-1.68.19-.72.28-1.57.28-2.53s-.1-1.83-.29-2.56c-.19-.73-.5-1.3-.91-1.71-.42-.41-.96-.61-1.63-.61s-1.21.2-1.63.61-.73.98-.92,1.71-.29,1.59-.29,2.56.1,1.8.29,2.52.5,1.29.92,1.69.96.61,1.63.61Z"/>
          </g>
        </g>
        <g id="seat-5-11">
          <rect class="cls-2" x="621.32" y="66.58" width="51.57" height="51.57"/>
          <g>
            <path class="cls-1" d="M642.3,99.81v-9.15h-3.29v-2.19c.7-.02,1.32-.13,1.88-.34s1.02-.52,1.38-.95.6-.96.71-1.61h2.58v14.24h-3.26Z"/>
            <path class="cls-1" d="M651.04,99.81v-9.15h-3.29v-2.19c.7-.02,1.32-.13,1.88-.34s1.02-.52,1.38-.95.6-.96.71-1.61h2.58v14.24h-3.26Z"/>
          </g>
        </g>
        <path class="cls-2" d="M9.18,340.52v-11.44h-4.09v-2.73c.87-.02,1.64-.17,2.34-.43.69-.26,1.26-.65,1.72-1.18.45-.53.75-1.2.89-2.01h3.2v17.8h-4.05Z"/>
        <path class="cls-2" d="M.76,281.72c.02-1.07.18-1.99.48-2.77.31-.78.75-1.49,1.32-2.13.57-.64,1.26-1.26,2.07-1.87.81-.61,1.71-1.26,2.72-1.96.75-.53,1.33-.99,1.75-1.37.41-.39.7-.76.87-1.12.17-.36.25-.74.25-1.16,0-.75-.21-1.35-.64-1.81-.43-.46-1.03-.68-1.79-.68-.68,0-1.23.15-1.66.45-.42.3-.74.7-.93,1.21s-.3,1.1-.3,1.76H1.04c0-1.44.27-2.66.82-3.66.55-1,1.33-1.76,2.35-2.28,1.02-.52,2.25-.78,3.68-.78s2.54.25,3.49.76c.95.5,1.68,1.18,2.18,2.04s.75,1.81.75,2.87c0,.9-.16,1.7-.49,2.38s-.79,1.3-1.4,1.86c-.6.56-1.32,1.11-2.17,1.65-.96.63-1.71,1.13-2.25,1.51-.54.38-.94.69-1.2.94-.26.25-.47.5-.62.75h8.1v3.41H.76Z"/>
        <path class="cls-2" d="M7.44,223.28c-1.49,0-2.79-.24-3.89-.71-1.11-.48-1.97-1.18-2.59-2.11-.62-.93-.94-2.08-.95-3.44h3.83c.04.57.18,1.09.42,1.56.24.47.61.85,1.1,1.13.49.28,1.13.42,1.92.42.63,0,1.17-.11,1.61-.32.45-.21.79-.51,1.02-.91.23-.4.35-.86.35-1.41s-.12-.99-.38-1.35c-.25-.36-.62-.64-1.1-.82-.48-.19-1.08-.28-1.77-.28h-1.07v-2.86h.97c.61,0,1.13-.08,1.56-.25.44-.17.77-.42,1.01-.75.23-.33.35-.74.35-1.22,0-.44-.1-.82-.32-1.15-.21-.33-.5-.58-.88-.76-.38-.18-.82-.27-1.34-.27-.67,0-1.22.13-1.65.4-.43.26-.75.6-.97,1.01-.22.41-.34.84-.38,1.3H.52c.02-1.07.31-2.04.84-2.91.54-.87,1.31-1.55,2.32-2.06,1.01-.51,2.24-.76,3.69-.76,1.25,0,2.37.2,3.34.59.97.4,1.73.96,2.28,1.71.55.75.83,1.64.83,2.69,0,.92-.27,1.67-.81,2.24-.54.57-1.27,1.02-2.2,1.34v.05c1.12.31,1.99.83,2.61,1.56.63.73.94,1.67.94,2.84,0,.94-.18,1.76-.55,2.45-.37.69-.88,1.27-1.52,1.72-.65.46-1.39.79-2.22,1.01s-1.71.33-2.63.33Z"/>
        <path class="cls-2" d="M8.53,164.12v-4.03H.23v-3.62l8.32-10.14h3.87v10.78h2.63v2.99h-2.63v4.03h-3.89ZM2.94,157.25c.57-.05,1.05-.09,1.44-.11s.76-.04,1.09-.04h3.06v-4.1c0-.35,0-.74.03-1.16.02-.42.05-.94.09-1.56h-.05c-.4.56-.74,1.04-1.02,1.42-.28.39-.55.74-.81,1.06l-1.79,2.18c-.25.3-.54.63-.86.98-.32.35-.71.78-1.18,1.28v.05Z"/>
        <path class="cls-2" d="M7.27,105.69c-1.33,0-2.53-.22-3.58-.65-1.05-.44-1.9-1.06-2.54-1.87-.64-.81-1.01-1.78-1.1-2.9h4c.09.43.27.81.54,1.13.27.32.62.57,1.05.75.43.18.93.27,1.49.27.61,0,1.16-.13,1.63-.39.47-.26.84-.62,1.1-1.08.27-.46.4-.99.4-1.59,0-.64-.14-1.19-.41-1.65-.27-.46-.64-.81-1.1-1.06s-.98-.37-1.55-.37c-.42,0-.81.05-1.16.16-.35.11-.66.25-.93.42-.27.18-.49.37-.67.59H.64l1.84-9.92h10.76v3.27h-7.86l-.79,3.93h.05c.41-.46.91-.81,1.49-1.07.58-.26,1.3-.38,2.17-.38,1.08,0,2.07.25,2.99.74.92.5,1.66,1.2,2.21,2.11.56.91.84,1.99.84,3.25s-.3,2.39-.91,3.33c-.61.94-1.44,1.68-2.5,2.2s-2.28.78-3.66.78Z"/>
        <path class="cls-2" d="M702.65,338.41v-11.44h-4.09v-2.73c.87-.02,1.64-.17,2.34-.43.69-.26,1.26-.65,1.72-1.18.45-.53.75-1.2.89-2.01h3.2v17.8h-4.05Z"/>
        <path class="cls-2" d="M694.23,279.61c.02-1.07.18-1.99.48-2.77.31-.78.75-1.49,1.32-2.13.57-.64,1.26-1.26,2.07-1.87.81-.61,1.71-1.26,2.72-1.96.75-.53,1.33-.99,1.75-1.37.41-.39.7-.76.87-1.12.17-.36.25-.74.25-1.16,0-.75-.21-1.35-.64-1.81-.43-.46-1.03-.68-1.79-.68-.68,0-1.23.15-1.66.45-.42.3-.74.7-.93,1.21s-.3,1.1-.3,1.76h-3.85c0-1.44.27-2.66.82-3.66.55-1,1.33-1.76,2.35-2.28,1.02-.52,2.25-.78,3.68-.78s2.54.25,3.49.76c.95.5,1.68,1.18,2.18,2.04s.75,1.81.75,2.87c0,.9-.16,1.7-.49,2.38s-.79,1.3-1.4,1.86c-.6.56-1.32,1.11-2.17,1.65-.96.63-1.71,1.13-2.25,1.51-.54.38-.94.69-1.2.94-.26.25-.47.5-.62.75h8.1v3.41h-13.53Z"/>
        <path class="cls-2" d="M700.91,221.18c-1.49,0-2.79-.24-3.89-.71-1.11-.48-1.97-1.18-2.59-2.11-.62-.93-.94-2.08-.95-3.44h3.83c.04.57.18,1.09.42,1.56.24.47.61.85,1.1,1.13.49.28,1.13.42,1.92.42.63,0,1.17-.11,1.61-.32.45-.21.79-.51,1.02-.91.23-.4.35-.86.35-1.41s-.12-.99-.38-1.35c-.25-.36-.62-.64-1.1-.82-.48-.19-1.08-.28-1.77-.28h-1.07v-2.86h.97c.61,0,1.13-.08,1.56-.25.44-.17.77-.42,1.01-.75.23-.33.35-.74.35-1.22,0-.44-.1-.82-.32-1.15-.21-.33-.5-.58-.88-.76-.38-.18-.82-.27-1.34-.27-.67,0-1.22.13-1.65.4-.43.26-.75.6-.97,1.01-.22.41-.34.84-.38,1.3h-3.79c.02-1.07.31-2.04.84-2.91.54-.87,1.31-1.55,2.32-2.06,1.01-.51,2.24-.76,3.69-.76,1.25,0,2.37.2,3.34.59.97.4,1.73.96,2.28,1.71.55.75.83,1.64.83,2.69,0,.92-.27,1.67-.81,2.24-.54.57-1.27,1.02-2.2,1.34v.05c1.12.31,1.99.83,2.61,1.56.63.73.94,1.67.94,2.84,0,.94-.18,1.76-.55,2.45-.37.69-.88,1.27-1.52,1.72-.65.46-1.39.79-2.22,1.01s-1.71.33-2.63.33Z"/>
        <path class="cls-2" d="M702,162.01v-4.03h-8.3v-3.63l8.32-10.14h3.87v10.78h2.63v2.99h-2.63v4.03h-3.89ZM696.41,155.14c.57-.05,1.05-.09,1.44-.11s.76-.04,1.09-.04h3.06v-4.1c0-.35,0-.74.03-1.16.02-.42.05-.94.09-1.56h-.05c-.4.56-.74,1.04-1.02,1.42-.28.39-.55.74-.81,1.06l-1.79,2.19c-.25.3-.54.63-.86.98-.32.35-.71.78-1.18,1.28v.05Z"/>
        <path class="cls-2" d="M700.74,103.58c-1.33,0-2.53-.22-3.58-.65-1.05-.43-1.9-1.06-2.54-1.87s-1.01-1.78-1.1-2.9h4c.09.43.27.81.54,1.13.27.32.62.57,1.05.75.43.18.93.27,1.49.27.61,0,1.16-.13,1.63-.39.47-.26.84-.62,1.1-1.08s.4-.99.4-1.59c0-.64-.14-1.19-.41-1.65-.27-.46-.64-.81-1.1-1.06s-.98-.37-1.55-.37c-.42,0-.81.05-1.16.16-.35.11-.66.25-.93.42-.27.18-.49.37-.67.59h-3.81l1.84-9.92h10.76v3.27h-7.86l-.79,3.93h.05c.41-.46.91-.81,1.49-1.07.58-.26,1.3-.38,2.17-.38,1.08,0,2.07.25,2.99.74.92.5,1.66,1.2,2.21,2.11.56.91.84,1.99.84,3.25s-.3,2.39-.91,3.33c-.61.94-1.44,1.68-2.5,2.2s-2.28.78-3.66.78Z"/>
      </g>
      <g>
        <path d="M41.05,44.13V0h20.88c2.3,0,4.31.26,6.04.78s3.15,1.27,4.27,2.26c1.22,1.06,2.14,2.29,2.78,3.69.64,1.4.96,2.98.96,4.73,0,2.18-.59,4.02-1.78,5.5-1.19,1.49-2.96,2.6-5.31,3.33v.23c2.84.68,5.02,1.96,6.54,3.85,1.52,1.89,2.29,4.19,2.29,6.89,0,2.11-.38,3.96-1.13,5.56-.75,1.6-1.82,2.94-3.21,4.02-1.29,1.04-2.82,1.85-4.58,2.42-1.76.57-3.87.85-6.34.85h-21.4ZM51.07,17.75h9.44c1.72,0,3.1-.41,4.16-1.24,1.05-.83,1.58-2.06,1.58-3.68,0-1.08-.23-1.99-.68-2.72-.45-.73-1.1-1.29-1.94-1.68-.84-.39-1.84-.58-3-.58h-9.55v9.9ZM51.07,36.19h10.31c1.02,0,1.92-.14,2.71-.43.78-.29,1.44-.68,1.98-1.19.5-.46.9-1.04,1.19-1.74.29-.7.43-1.46.43-2.29,0-1.29-.29-2.37-.85-3.21-.57-.85-1.34-1.49-2.32-1.91-.98-.42-2.08-.64-3.32-.64h-10.13v11.41Z"/>
        <path d="M98.64,45c-3.55,0-6.65-.56-9.29-1.69s-4.71-2.8-6.18-5.01c-1.48-2.21-2.23-4.93-2.27-8.15h9.15c.1,1.35.43,2.59,1.01,3.71s1.46,2.01,2.64,2.68c1.18.67,2.7,1,4.57,1,1.51,0,2.79-.25,3.85-.75,1.06-.5,1.87-1.22,2.43-2.16.56-.94.84-2.05.84-3.34s-.3-2.34-.9-3.2c-.6-.86-1.48-1.51-2.64-1.95s-2.57-.67-4.23-.67h-2.55v-6.78h2.32c1.45,0,2.69-.2,3.74-.59,1.04-.4,1.84-.99,2.4-1.78s.84-1.76.84-2.9c0-1.04-.25-1.95-.75-2.72s-1.2-1.38-2.1-1.81c-.9-.43-1.96-.65-3.2-.65-1.6,0-2.92.31-3.94.94-1.02.63-1.79,1.43-2.32,2.4s-.82,2-.9,3.08h-9.03c.06-2.55.73-4.85,2.01-6.91,1.28-2.05,3.13-3.69,5.54-4.89,2.41-1.21,5.35-1.81,8.8-1.81,2.99,0,5.65.47,7.96,1.4,2.32.94,4.13,2.29,5.44,4.05,1.31,1.77,1.97,3.89,1.97,6.38,0,2.18-.65,3.95-1.94,5.31s-3.04,2.42-5.24,3.17v.12c2.66.73,4.74,1.96,6.24,3.69,1.5,1.73,2.24,3.97,2.24,6.73,0,2.24-.44,4.18-1.32,5.82-.88,1.64-2.09,3-3.63,4.08s-3.31,1.88-5.3,2.4c-1.99.52-4.08.78-6.28.78Z"/>
        <path d="M119.43,32.46v-8.08h16.79v8.08h-16.79Z"/>
        <path d="M154.75,45c-3.03,0-5.65-.45-7.86-1.36s-3.93-2.17-5.17-3.79c-1.24-1.62-1.93-3.48-2.08-5.59h8.77c.27,1.49.95,2.63,2.04,3.43s2.54,1.2,4.36,1.2c1.66,0,2.94-.32,3.85-.97.91-.65,1.36-1.53,1.36-2.65,0-.95-.37-1.65-1.11-2.13-.74-.47-1.73-.84-2.95-1.1-1.23-.26-2.57-.53-4.04-.8-1.41-.27-2.79-.59-4.14-.97-1.35-.38-2.57-.91-3.65-1.59-1.08-.68-1.94-1.61-2.58-2.78-.64-1.17-.96-2.67-.96-4.5,0-2.16.59-3.97,1.77-5.43s2.77-2.56,4.78-3.3,4.25-1.11,6.72-1.11c2.93,0,5.39.39,7.35,1.17s3.5,1.87,4.6,3.27c1.1,1.4,1.79,3.02,2.06,4.85h-8.66c-.19-.75-.52-1.38-.98-1.88s-1.06-.87-1.78-1.12c-.72-.24-1.59-.36-2.59-.36-1.41,0-2.54.28-3.39.84-.85.56-1.27,1.34-1.27,2.34,0,.79.35,1.39,1.04,1.79.69.41,1.63.72,2.79.96,1.17.23,2.48.48,3.92.75,1.41.25,2.82.57,4.24.96s2.72.94,3.89,1.67c1.18.72,2.12,1.71,2.84,2.95.71,1.25,1.07,2.86,1.07,4.85,0,2.28-.62,4.19-1.85,5.73s-2.92,2.71-5.07,3.49c-2.14.78-4.58,1.17-7.33,1.17Z"/>
        <path d="M188.81,44.97c-3.44,0-6.4-.73-8.9-2.2s-4.42-3.46-5.76-5.98-2.01-5.35-2.01-8.5.68-6.01,2.06-8.53c1.37-2.52,3.27-4.51,5.7-5.98,2.43-1.47,5.24-2.2,8.43-2.2,2.26,0,4.3.35,6.14,1.06,1.83.71,3.41,1.69,4.72,2.97,1.78,1.72,3.08,3.87,3.91,6.46.83,2.59,1.23,5.43,1.19,8.54h-22.99c.19,1.58.6,2.94,1.23,4.07.63,1.13,1.48,2,2.55,2.61s2.36.91,3.87.91,2.64-.27,3.59-.81c.95-.54,1.67-1.29,2.17-2.26h9c-.52,1.85-1.44,3.52-2.75,5.01-1.31,1.49-2.99,2.66-5.02,3.53-2.04.87-4.41,1.3-7.11,1.3ZM181.33,25.22h13.46c-.1-1.47-.43-2.73-1-3.78-.57-1.05-1.32-1.86-2.24-2.43-.93-.57-2.01-.85-3.24-.85-1.41,0-2.6.29-3.56.87-.97.58-1.73,1.39-2.29,2.45-.56,1.05-.94,2.3-1.13,3.75Z"/>
        <path d="M208.96,44.13V0h9.29v13.49c0,2.34-.03,4.37-.1,6.11-.07,1.74-.13,3.12-.19,4.14l10.45-11.47h10.89l-11.35,11.81,12.68,20.04h-10.92l-8.31-13.87-3.16,3.3v10.57h-9.29Z"/>
        <path d="M256.27,44.47c-1.97,0-3.7-.25-5.2-.75-1.5-.5-2.66-1.36-3.49-2.58s-1.25-2.9-1.25-5.04v-17.84h-4.81v-5.99h4.81V2.11h9.18v10.16h6.23v5.99h-6.23v15.81c0,1.18.31,1.98.94,2.4.63.42,1.5.64,2.62.64.31,0,.67-.01,1.07-.04.41-.03.76-.05,1.07-.07h.46v7.01c-.5.08-1.22.17-2.14.29-.93.12-2.02.17-3.27.17Z"/>
        <path d="M281.69,44.97c-3.36,0-6.29-.74-8.8-2.22-2.51-1.48-4.46-3.48-5.85-6.01-1.39-2.53-2.08-5.37-2.08-8.51s.7-6.01,2.08-8.53c1.39-2.52,3.34-4.51,5.85-5.98,2.51-1.47,5.44-2.2,8.8-2.2s6.25.73,8.75,2.2c2.49,1.47,4.42,3.46,5.79,5.98,1.37,2.52,2.06,5.36,2.06,8.53s-.69,5.98-2.06,8.51c-1.37,2.53-3.3,4.53-5.79,6.01-2.49,1.48-5.41,2.22-8.75,2.22ZM281.63,38.19c1.54,0,2.86-.42,3.94-1.26,1.08-.84,1.9-2.01,2.46-3.5.56-1.5.84-3.23.84-5.2s-.28-3.76-.84-5.27c-.56-1.51-1.38-2.68-2.46-3.53s-2.39-1.27-3.94-1.27-2.91.42-3.98,1.27-1.88,2.03-2.43,3.53c-.55,1.5-.83,3.26-.83,5.27s.27,3.7.83,5.2c.55,1.5,1.36,2.66,2.43,3.5,1.07.84,2.4,1.26,3.98,1.26Z"/>
        <path d="M302.77,44.13V12.28h9.06v5.71h.17c1.02-2.24,2.26-3.84,3.72-4.81s3.17-1.45,5.14-1.45c.46,0,.86.02,1.19.06.33.04.6.11.81.2v8.19h-.26c-.31-.06-.63-.1-.97-.13-.34-.03-.67-.04-1-.04-1.27,0-2.43.19-3.46.58-1.03.39-1.92.97-2.66,1.75s-1.31,1.75-1.71,2.91c-.4,1.16-.59,2.52-.59,4.08v14.8h-9.44Z"/>
      </g>
    </g>
  </g>
</svg>