<?xml version="1.0" encoding="UTF-8"?>
<svg id="_Слой_2" data-name="Слой 2" xmlns="http://www.w3.org/2000/svg" viewBox="0 0 745.79 933.13">
  <defs>
    <style>
      .cls-1 {
        fill: #fff;
      }

      .cls-2 {
        fill: #44fc51;
      }

      .cls-3 {
        fill: #e82121;
      }

      .cls-4 {
        fill: #1d156d;
      }

      .cls-5 {
        fill: #f4f6f9;
      }

      .cls-6 {
        fill: #ffce00;
      }

      .cls-7 {
        fill: #342783;
      }

      .cls-8 {
        fill: #6a62bc;
      }

      .cls-9 {
        fill: #42b0fe;
      }
    </style>
  </defs>
  <g id="_Слой_1-2" data-name="Слой 1">
    <g>
      <g>
        <path class="cls-8" d="M488.69,0h-231.59C115.33,0,0,115.33,0,257.1v418.93c0,141.77,115.33,257.1,257.1,257.1h231.59c141.77,0,257.1-115.33,257.1-257.1v-418.93C745.79,115.33,630.46,0,488.69,0ZM727.06,676.03c0,131.64-106.71,238.37-238.37,238.37h-90.78c31.95-2.19,62.77-8.62,91.87-18.73h-5.58c-34.86,11.54-72.13,17.79-110.82,17.79s-75.95-6.24-110.82-17.79h-5.57c29.1,10.12,59.89,16.54,91.85,18.73h-91.74c-131.64,0-238.37-106.73-238.37-238.37v-93.37c2.07,32.44,8.51,63.71,18.73,93.22v-5.57c-11.45-34.76-17.66-71.88-17.66-110.44v-186.04c0-38.56,6.21-75.68,17.66-110.46v-5.55c-10.22,29.51-16.66,60.79-18.73,93.22v-93.96C18.73,125.45,125.46,18.73,257.1,18.73h103.7c-35.58,1.23-69.83,7.72-102.04,18.73h5.62c34.35-11.15,70.97-17.18,109-17.18s74.65,6.03,109,17.18h5.62c-32.2-11.01-66.46-17.5-102.04-18.73h102.73c131.66,0,238.37,106.71,238.37,238.37v82.14c-2.84-29.24-9.22-57.45-18.75-84.2.02.68.02,1.37.02,2.05v3.41c12.08,35.59,18.63,73.7,18.63,113.33v186.04c0,39.61-6.55,77.74-18.63,113.33v2.96c0,.84,0,1.68-.02,2.52,9.53-26.74,15.91-54.97,18.75-84.21v81.55Z"/>
        <path class="cls-7" d="M348.84,914.39h-91.74c-131.64,0-238.37-106.73-238.37-238.37v-93.37c2.07,32.44,8.51,63.71,18.73,93.22,35.54,102.66,116.92,184.11,219.53,219.78,29.1,10.12,59.89,16.54,91.85,18.73Z"/>
      </g>
      <g>
        <path class="cls-7" d="M727.06,257.1v82.14c-2.84-29.24-9.22-57.45-18.75-84.2-36.25-101.93-117.81-182.56-220.31-217.58-32.2-11.01-66.46-17.5-102.04-18.73h102.73c131.66,0,238.37,106.71,238.37,238.37Z"/>
        <path class="cls-7" d="M360.8,18.73c-35.58,1.23-69.83,7.72-102.04,18.73-103.45,35.33-185.54,117.13-221.29,220.36-10.22,29.51-16.66,60.79-18.73,93.22v-93.96C18.73,125.45,125.46,18.73,257.1,18.73h103.7Z"/>
        <rect class="cls-7" x="90.64" y="474.47" width="20.36" height="92.55"/>
        <rect class="cls-7" x="90.92" y="370.57" width="20.36" height="92.55"/>
        <rect class="cls-7" x="84.11" y="329.31" width="37.82" height="30.79"/>
        <rect class="cls-7" x="84.11" y="577.49" width="37.82" height="30.79"/>
        <rect class="cls-7" x="117.58" y="474.47" width="57.04" height="82.43"/>
        <polygon class="cls-7" points="174.62 614.29 174.62 659.47 124.3 659.47 124.3 672.46 83.8 672.46 83.8 614.29 174.62 614.29"/>
        <polygon class="cls-7" points="174.62 696.01 174.62 741.33 83.8 741.33 83.8 682.99 124.3 682.99 124.3 696.01 174.62 696.01"/>
        <polygon class="cls-7" points="174.92 196.26 174.92 241.58 124.61 241.58 124.61 254.6 84.11 254.6 84.11 196.26 174.92 196.26"/>
        <polygon class="cls-7" points="174.92 278.12 174.92 323.29 84.11 323.29 84.11 265.13 124.61 265.13 124.61 278.12 174.92 278.12"/>
        <rect class="cls-7" x="117.88" y="380.69" width="57.04" height="82.43"/>
        <polygon class="cls-7" points="189.75 754.48 189.75 839.4 99.24 754.48 189.75 754.48"/>
        <polygon class="cls-7" points="190.91 90.76 190.91 175.69 100.4 175.69 190.91 90.76"/>
        <path class="cls-7" d="M272.57,801.33v40.45h-57.81v-91.12h44.25c0,.48-.23,50.67-.23,50.67h13.79Z"/>
        <path class="cls-7" d="M273.77,121.2h-14.09s.25,50.21.25,50.67h-45.16v-91.1h59v40.43Z"/>
        <path class="cls-7" d="M342.28,750.66v91.12h-59v-40.45h14.08s-.25-50.19-.25-50.67h45.18Z"/>
        <rect class="cls-7" x="352.36" y="719.97" width="39.79" height="63.71"/>
        <path class="cls-7" d="M392.52,121.2h-84.43s.14,50.21.14,50.67h-25.85v-91.1h110.14v40.43Z"/>
        <rect class="cls-7" x="351.97" y="802.53" width="40.55" height="38.66"/>
        <path class="cls-7" d="M460.03,801.33v40.45h-57.81v-91.12h44.25c0,.48-.25,50.67-.25,50.67h13.81Z"/>
        <path class="cls-7" d="M461.21,121.2h-14.08s.25,50.21.25,50.67h-45.16v-91.1h58.99v40.43Z"/>
        <path class="cls-7" d="M529.72,80.77v91.1h-44.25c0-.46.25-50.67.25-50.67h-13.81v-40.43h57.81Z"/>
        <path class="cls-7" d="M529.72,750.66v91.12h-58.98v-40.45h14.08s-.25-50.19-.25-50.67h45.16Z"/>
        <path class="cls-7" d="M533.65,340.01v234.19c0,79.75-64.89,144.64-144.64,144.64h-39.34c-79.77,0-144.66-64.89-144.66-144.64v-234.19c0-79.75,64.89-144.64,144.66-144.64h39.34c79.75,0,144.64,64.89,144.64,144.64Z"/>
        <rect class="cls-7" x="566.96" y="475.75" width="50.05" height="82.43"/>
        <rect class="cls-7" x="567.21" y="381.96" width="50.06" height="82.43"/>
        <polygon class="cls-7" points="639.36 754.48 548.26 839.4 548.26 754.48 639.36 754.48"/>
        <polygon class="cls-7" points="640.52 175.69 549.4 175.69 549.4 90.76 640.52 175.69"/>
        <rect class="cls-7" x="623.82" y="371.86" width="27.4" height="195.1"/>
        <rect class="cls-7" x="619.95" y="578.75" width="37.82" height="30.81"/>
        <polygon class="cls-7" points="657.78 615.58 657.78 673.74 617.27 673.74 617.27 660.75 566.96 660.75 566.96 615.58 657.78 615.58"/>
        <polygon class="cls-7" points="657.78 684.27 657.78 742.61 566.96 742.61 566.96 697.29 617.27 697.29 617.27 684.27 657.78 684.27"/>
        <polygon class="cls-7" points="658.08 197.54 658.08 255.89 617.58 255.89 617.58 242.86 567.26 242.86 567.26 197.54 658.08 197.54"/>
        <polygon class="cls-7" points="658.08 266.41 658.08 324.58 567.26 324.58 567.26 279.39 617.58 279.39 617.58 266.41 658.08 266.41"/>
        <rect class="cls-7" x="620.25" y="330.57" width="37.82" height="30.81"/>
        <path class="cls-7" d="M708.3,255.05c-36.25-101.93-117.81-182.56-220.31-217.58-32.2-11.01-66.46-17.5-102.04-18.73h-25.16c-35.58,1.23-69.83,7.72-102.04,18.73-103.45,35.33-185.54,117.13-221.29,220.36-10.22,29.51-16.66,60.79-18.73,93.22v231.61c2.07,32.44,8.51,63.71,18.73,93.22,35.54,102.66,116.92,184.11,219.53,219.78,29.1,10.12,59.89,16.54,91.85,18.73h49.07c31.95-2.19,62.77-8.62,91.87-18.73,101.66-35.34,182.49-115.65,218.53-216.98,9.53-26.74,15.91-54.97,18.75-84.21v-255.23c-2.84-29.24-9.22-57.45-18.75-84.2ZM373.38,913.45c-38.68,0-75.95-6.24-110.82-17.79-106.11-35.1-190.1-119.18-225.09-225.34-11.45-34.76-17.66-71.88-17.66-110.44v-186.04c0-38.56,6.21-75.68,17.66-110.46,35.18-106.75,119.95-191.18,226.91-225.91,34.35-11.15,70.97-17.18,109-17.18s74.65,6.03,109,17.18c106,34.43,190.19,117.65,225.95,223.04,12.08,35.59,18.63,73.7,18.63,113.33v186.04c0,39.61-6.55,77.74-18.63,113.33-35.56,104.79-118.99,187.66-224.13,222.45-34.86,11.54-72.13,17.79-110.82,17.79Z"/>
        <path class="cls-7" d="M727.06,594.47v81.55c0,131.64-106.71,238.37-238.37,238.37h-90.78c31.95-2.19,62.77-8.62,91.87-18.73,101.66-35.34,182.49-115.65,218.53-216.98,9.53-26.74,15.91-54.97,18.75-84.21Z"/>
      </g>
      <g>
        <rect class="cls-7" x="90.64" y="474.47" width="20.36" height="92.55"/>
        <rect class="cls-7" x="90.92" y="370.57" width="20.36" height="92.55"/>
        <rect class="cls-7" x="84.11" y="329.31" width="37.82" height="30.79"/>
        <rect class="cls-7" x="84.11" y="577.49" width="37.82" height="30.79"/>
        <rect class="cls-7" x="117.58" y="474.47" width="57.04" height="82.43"/>
        <polygon class="cls-7" points="174.62 614.29 174.62 659.47 124.3 659.47 124.3 672.46 83.8 672.46 83.8 614.29 174.62 614.29"/>
        <polygon class="cls-7" points="174.62 696.01 174.62 741.33 83.8 741.33 83.8 682.99 124.3 682.99 124.3 696.01 174.62 696.01"/>
        <polygon class="cls-7" points="174.92 196.26 174.92 241.58 124.61 241.58 124.61 254.6 84.11 254.6 84.11 196.26 174.92 196.26"/>
        <polygon class="cls-7" points="174.92 278.12 174.92 323.29 84.11 323.29 84.11 265.13 124.61 265.13 124.61 278.12 174.92 278.12"/>
        <rect class="cls-7" x="117.88" y="380.69" width="57.04" height="82.43"/>
        <polygon class="cls-7" points="189.75 754.48 189.75 839.4 99.24 754.48 189.75 754.48"/>
        <polygon class="cls-7" points="190.91 90.76 190.91 175.69 100.4 175.69 190.91 90.76"/>
        <path class="cls-7" d="M272.57,801.33v40.45h-57.81v-91.12h44.25c0,.48-.23,50.67-.23,50.67h13.79Z"/>
        <path class="cls-7" d="M273.77,121.2h-14.09s.25,50.21.25,50.67h-45.16v-91.1h59v40.43Z"/>
        <path class="cls-7" d="M342.28,750.66v91.12h-59v-40.45h14.08s-.25-50.19-.25-50.67h45.18Z"/>
        <rect class="cls-7" x="352.36" y="719.97" width="39.79" height="63.71"/>
        <path class="cls-7" d="M392.52,121.2h-84.43s.14,50.21.14,50.67h-25.85v-91.1h110.14v40.43Z"/>
        <rect class="cls-7" x="351.97" y="802.53" width="40.55" height="38.66"/>
        <path class="cls-7" d="M460.03,801.33v40.45h-57.81v-91.12h44.25c0,.48-.25,50.67-.25,50.67h13.81Z"/>
        <path class="cls-7" d="M461.21,121.2h-14.08s.25,50.21.25,50.67h-45.16v-91.1h58.99v40.43Z"/>
        <path class="cls-7" d="M529.72,80.77v91.1h-44.25c0-.46.25-50.67.25-50.67h-13.81v-40.43h57.81Z"/>
        <path class="cls-7" d="M529.72,750.66v91.12h-58.98v-40.45h14.08s-.25-50.19-.25-50.67h45.16Z"/>
        <path class="cls-7" d="M533.65,340.01v234.19c0,79.75-64.89,144.64-144.64,144.64h-39.34c-79.77,0-144.66-64.89-144.66-144.64v-234.19c0-79.75,64.89-144.64,144.66-144.64h39.34c79.75,0,144.64,64.89,144.64,144.64Z"/>
        <rect class="cls-7" x="566.96" y="475.75" width="50.05" height="82.43"/>
        <rect class="cls-7" x="567.21" y="381.96" width="50.06" height="82.43"/>
        <polygon class="cls-7" points="639.36 754.48 548.26 839.4 548.26 754.48 639.36 754.48"/>
        <polygon class="cls-7" points="640.52 175.69 549.4 175.69 549.4 90.76 640.52 175.69"/>
        <rect class="cls-7" x="623.82" y="371.86" width="27.4" height="195.1"/>
        <rect class="cls-7" x="619.95" y="578.75" width="37.82" height="30.81"/>
        <polygon class="cls-7" points="657.78 615.58 657.78 673.74 617.27 673.74 617.27 660.75 566.96 660.75 566.96 615.58 657.78 615.58"/>
        <polygon class="cls-7" points="657.78 684.27 657.78 742.61 566.96 742.61 566.96 697.29 617.27 697.29 617.27 684.27 657.78 684.27"/>
        <polygon class="cls-7" points="658.08 197.54 658.08 255.89 617.58 255.89 617.58 242.86 567.26 242.86 567.26 197.54 658.08 197.54"/>
        <polygon class="cls-7" points="658.08 266.41 658.08 324.58 567.26 324.58 567.26 279.39 617.58 279.39 617.58 266.41 658.08 266.41"/>
        <rect class="cls-7" x="620.25" y="330.57" width="37.82" height="30.81"/>
        <path class="cls-7" d="M727.06,350.07c-2.12-32.21-8.56-63.23-18.73-92.53-17.75-51.1-46.85-96.9-84.3-134.35-38.48-38.47-85.78-68.16-138.61-85.73-35.2-11.72-72.88-18.07-112.03-18.07s-76.83,6.35-112.03,18.07c-105.18,35.01-188.43,117.93-223.88,222.9-12.03,35.63-18.56,73.79-18.56,113.47v186.04c0,39.68,6.53,77.84,18.56,113.47,17.65,52.24,47.14,99.04,85.27,137.17s84.7,67.48,136.79,85.14c35.74,12.11,74.03,18.68,113.85,18.68s78.11-6.57,113.85-18.68c103.36-35.04,185.32-116.45,221.1-219.49,10.17-29.28,16.61-60.32,18.73-92.53.52-7.85.78-15.77.78-23.77v-186.04c0-7.99-.27-15.91-.78-23.77ZM726.95,559.88c0,39.61-6.55,77.74-18.63,113.33-35.56,104.79-118.99,187.66-224.13,222.45-34.86,11.54-72.13,17.79-110.82,17.79s-75.95-6.24-110.82-17.79c-106.11-35.1-190.1-119.18-225.09-225.34-11.45-34.76-17.66-71.88-17.66-110.44v-186.04c0-38.56,6.21-75.68,17.66-110.46,35.18-106.75,119.95-191.18,226.91-225.91,34.35-11.15,70.97-17.18,109-17.18s74.65,6.03,109,17.18c106,34.43,190.19,117.65,225.95,223.04,12.08,35.59,18.63,73.7,18.63,113.33v186.04Z"/>
        <path class="cls-1" d="M727.06,339.24c-2.84-29.24-9.22-57.45-18.75-84.2-36.25-101.93-117.81-182.56-220.31-217.58-32.2-11.01-66.46-17.5-102.04-18.73-4.18-.16-8.37-.23-12.58-.23s-8.4.07-12.58.23c-35.58,1.23-69.83,7.72-102.04,18.73-103.45,35.33-185.54,117.13-221.29,220.36-10.22,29.51-16.66,60.79-18.73,93.22-.46,7.53-.71,15.13-.71,22.78v186.04c0,7.65.25,15.25.71,22.78,2.07,32.44,8.51,63.71,18.73,93.22,35.54,102.66,116.92,184.11,219.53,219.78,29.1,10.12,59.89,16.54,91.85,18.73,8.1.55,16.29.84,24.53.84s16.43-.28,24.53-.84c31.95-2.19,62.77-8.62,91.87-18.73,101.66-35.34,182.49-115.65,218.53-216.98,9.53-26.74,15.91-54.97,18.75-84.21,1.11-11.38,1.68-22.93,1.68-34.6v-186.04c0-11.67-.57-23.21-1.68-34.6ZM726.95,559.88c0,39.61-6.55,77.74-18.63,113.33-35.56,104.79-118.99,187.66-224.13,222.45-34.86,11.54-72.13,17.79-110.82,17.79s-75.95-6.24-110.82-17.79c-106.11-35.1-190.1-119.18-225.09-225.34-11.45-34.76-17.66-71.88-17.66-110.44v-186.04c0-38.56,6.21-75.68,17.66-110.46,35.18-106.75,119.95-191.18,226.91-225.91,34.35-11.15,70.97-17.18,109-17.18s74.65,6.03,109,17.18c106,34.43,190.19,117.65,225.95,223.04,12.08,35.59,18.63,73.7,18.63,113.33v186.04Z"/>
        <path class="cls-7" d="M708.32,260.51c-35.76-105.39-119.95-188.61-225.95-223.04-34.35-11.15-70.97-17.18-109-17.18s-74.65,6.03-109,17.18c-106.96,34.74-191.73,119.16-226.91,225.91-11.45,34.77-17.66,71.9-17.66,110.46v186.04c0,38.56,6.21,75.68,17.66,110.44,34.99,106.16,118.99,190.25,225.09,225.34,34.86,11.54,72.13,17.79,110.82,17.79s75.95-6.24,110.82-17.79c105.14-34.79,188.57-117.67,224.13-222.45,12.08-35.59,18.63-73.72,18.63-113.33v-186.04c0-39.63-6.55-77.74-18.63-113.33ZM549.4,90.76l91.12,84.93h-91.12v-84.93ZM567.21,464.39v-82.43h50.06v82.43h-50.06ZM617.01,475.75v82.43h-50.05v-82.43h50.05ZM471.92,80.77h57.81v91.1h-44.25c0-.46.25-50.67.25-50.67h-13.81v-40.43ZM402.23,80.77h58.99v40.43h-14.08s.25,50.21.25,50.67h-45.16v-91.1ZM282.38,80.77h110.14v40.43h-84.43s.14,50.21.14,50.67h-25.85v-91.1ZM214.76,80.77h59v40.43h-14.09s.25,50.21.25,50.67h-45.16v-91.1ZM84.11,196.26h90.81v45.32h-50.31v13.02h-40.5v-58.34ZM84.11,265.13h40.5v12.99h50.31v45.18h-90.81v-58.16ZM117.88,463.12v-82.43h57.04v82.43h-57.04ZM174.62,474.47v82.43h-57.04v-82.43h57.04ZM84.11,329.31h37.82v30.79h-37.82v-30.79ZM90.92,463.12v-92.55h20.36v92.55h-20.36ZM110.99,474.47v92.55h-20.36v-92.55h20.36ZM84.11,577.49h37.82v30.79h-37.82v-30.79ZM83.8,614.29h90.82v45.18h-50.31v12.99h-40.5v-58.16ZM83.8,682.99h40.5v13.02h50.31v45.32h-90.82v-58.34ZM189.75,839.4l-90.51-84.93h90.51v84.93ZM190.91,175.69h-90.51l90.51-84.93v84.93ZM272.57,841.78h-57.81v-91.12h44.25c0,.48-.23,50.67-.23,50.67h13.79v40.45ZM342.28,841.78h-59v-40.45h14.08s-.25-50.19-.25-50.67h45.18v91.12ZM392.52,841.19h-40.55v-38.66h40.55v38.66ZM352.36,783.68v-63.71h39.79v63.71h-39.79ZM460.03,841.78h-57.81v-91.12h44.25c0,.48-.25,50.67-.25,50.67h13.81v40.45ZM529.72,841.78h-58.98v-40.45h14.08s-.25-50.19-.25-50.67h45.16v91.12ZM533.65,574.2c0,79.75-64.89,144.64-144.64,144.64h-39.34c-79.77,0-144.66-64.89-144.66-144.64v-234.19c0-79.75,64.89-144.64,144.66-144.64h39.34c79.75,0,144.64,64.89,144.64,144.64v234.19ZM548.26,839.4v-84.93h91.1l-91.1,84.93ZM657.78,742.61h-90.81v-45.32h50.31v-13.02h40.5v58.34ZM657.78,673.74h-40.5v-12.99h-50.31v-45.18h90.81v58.16ZM657.78,609.57h-37.82v-30.81h37.82v30.81ZM623.82,566.96v-195.1h27.4v195.1h-27.4ZM658.08,361.39h-37.82v-30.81h37.82v30.81ZM658.08,324.58h-90.82v-45.19h50.31v-12.97h40.5v58.16ZM658.08,255.89h-40.5v-13.03h-50.31v-45.32h90.82v58.34Z"/>
      </g>
      <path class="cls-5" d="M389.01,195.37h-39.34c-79.77,0-144.66,64.89-144.66,144.64v234.19c0,79.75,64.89,144.64,144.66,144.64h39.34c79.75,0,144.64-64.89,144.64-144.64v-234.19c0-79.75-64.89-144.64-144.64-144.64ZM531.87,574.2c0,78.77-64.09,142.86-142.86,142.86h-39.34c-78.77,0-142.88-64.09-142.88-142.86v-234.19c0-78.77,64.11-142.86,142.88-142.86h39.34c78.77,0,142.86,64.09,142.86,142.86v234.19Z"/>
      <rect class="cls-8" x="172.71" y="336.66" width="393.23" height="240.88" rx="48.73" ry="48.73" transform="translate(-87.78 826.44) rotate(-90)"/>
      <polygon class="cls-4" points="189.75 754.48 189.75 839.4 99.24 754.48 189.75 754.48"/>
      <polygon class="cls-4" points="639.36 754.48 548.26 839.4 548.26 754.48 639.36 754.48"/>
      <polygon class="cls-4" points="190.91 90.76 190.91 175.69 100.4 175.69 190.91 90.76"/>
      <polygon class="cls-4" points="640.52 175.69 549.4 175.69 549.4 90.76 640.52 175.69"/>
      <rect class="cls-4" x="352.36" y="719.97" width="39.79" height="63.71"/>
      <g id="sector-a1">
        <polygon class="cls-2" points="174.62 696.01 174.62 741.33 83.8 741.33 83.8 682.99 124.3 682.99 124.3 696.01 174.62 696.01"/>
        <g>
          <path d="M121.64,723.58l3.87-10.62h1.86l3.9,10.62h-1.85l-.95-2.82h-4.09l-.98,2.82h-1.75ZM124.8,719.47h3.22l-.91-2.71c-.13-.38-.24-.76-.34-1.13s-.2-.79-.31-1.28h-.04c-.07.31-.14.58-.2.83s-.14.51-.22.79c-.08.28-.16.55-.25.79l-.94,2.71Z"/>
          <path d="M134.43,723.58v-7.06h-2.36v-1.09c.45,0,.86-.08,1.25-.21s.71-.34.97-.64.43-.68.49-1.16h1.28v10.16h-1.64Z"/>
        </g>
      </g>
      <g id="sector-b1">
        <path class="cls-9" d="M272.57,801.33v40.45h-57.81v-91.12h44.25c0,.48-.23,50.67-.23,50.67h13.79Z"/>
        <g>
          <path d="M236.85,827.99v-10.62h4.69c.55,0,1.04.07,1.46.21s.78.36,1.06.64c.24.23.43.51.56.82s.2.67.2,1.07c0,.56-.15,1.03-.46,1.39s-.75.63-1.32.8v.04c.66.15,1.19.45,1.59.88s.6,1,.6,1.68c0,.45-.07.85-.22,1.2s-.36.67-.65.93c-.31.3-.68.53-1.12.69s-.95.24-1.53.24h-4.88ZM238.56,821.83h2.73c.57,0,1.02-.14,1.34-.4s.48-.65.48-1.15c0-.32-.07-.59-.2-.8s-.33-.39-.58-.5-.55-.17-.91-.17h-2.87v3.03ZM238.56,826.54h3.03c.33,0,.62-.04.87-.13s.45-.21.61-.37c.14-.14.25-.3.33-.49s.12-.41.12-.64c0-.39-.09-.72-.26-.98s-.41-.46-.71-.59-.64-.2-1.03-.2h-2.96v3.39Z"/>
          <path d="M248.66,827.99v-7.06h-2.36v-1.09c.45-.01.86-.08,1.25-.21s.71-.34.97-.64.43-.68.49-1.16h1.28v10.16h-1.64Z"/>
        </g>
      </g>
      <g id="sector-b2">
        <path class="cls-9" d="M342.28,750.66v91.12h-59v-40.45h14.08s-.25-50.19-.25-50.67h45.18Z"/>
        <g>
          <path d="M304.8,826.34v-10.62h4.69c.55,0,1.04.07,1.46.21s.78.36,1.06.64c.24.23.43.51.56.82s.2.67.2,1.07c0,.56-.15,1.03-.46,1.39s-.75.63-1.32.8v.04c.66.15,1.19.45,1.59.88s.6.99.6,1.68c0,.45-.07.85-.22,1.2s-.36.66-.65.93c-.31.3-.68.53-1.12.69s-.95.24-1.53.24h-4.88ZM306.52,820.18h2.73c.57,0,1.02-.13,1.34-.4s.48-.65.48-1.15c0-.32-.07-.58-.2-.8s-.33-.39-.58-.5-.55-.17-.91-.17h-2.87v3.03ZM306.52,824.89h3.03c.33,0,.62-.04.87-.13s.45-.21.61-.37c.14-.13.25-.3.33-.49s.12-.41.12-.64c0-.39-.09-.72-.26-.98s-.41-.46-.71-.59-.64-.2-1.03-.2h-2.96v3.39Z"/>
          <path d="M314.23,826.34c.02-.62.13-1.15.31-1.6s.44-.85.77-1.21.73-.7,1.2-1.02.99-.67,1.58-1.04c.43-.26.78-.5,1.07-.72s.5-.45.64-.7.21-.55.21-.9c0-.54-.17-.99-.52-1.33s-.81-.51-1.41-.51c-.45,0-.82.09-1.12.28s-.52.45-.67.8-.22.75-.22,1.22h-1.62c0-.78.16-1.43.46-1.98s.74-.95,1.3-1.24,1.21-.43,1.97-.43,1.34.14,1.86.41.93.65,1.21,1.12.42,1.01.42,1.61-.12,1.09-.35,1.48-.55.74-.95,1.03-.85.58-1.36.88c-.62.39-1.11.71-1.47.96s-.63.49-.82.7-.33.45-.44.72h5.24v1.45h-7.3Z"/>
        </g>
      </g>
      <g id="sector-b3">
        <rect class="cls-9" x="351.97" y="802.53" width="40.55" height="38.66"/>
        <g>
          <path d="M364.37,826.34v-10.62h4.69c.55,0,1.04.07,1.46.21s.78.36,1.06.64c.24.23.43.51.56.82s.2.67.2,1.07c0,.56-.15,1.03-.46,1.39s-.75.63-1.32.8v.04c.66.15,1.19.45,1.59.88s.6.99.6,1.68c0,.45-.07.85-.22,1.2s-.36.66-.65.93c-.31.3-.68.53-1.12.69s-.95.24-1.53.24h-4.88ZM366.09,820.18h2.73c.57,0,1.02-.13,1.34-.4s.48-.65.48-1.15c0-.32-.07-.58-.2-.8s-.33-.39-.58-.5-.55-.17-.91-.17h-2.87v3.03ZM366.09,824.89h3.03c.33,0,.62-.04.87-.13s.45-.21.61-.37c.14-.13.25-.3.33-.49s.12-.41.12-.64c0-.39-.09-.72-.26-.98s-.41-.46-.71-.59-.64-.2-1.03-.2h-2.96v3.39Z"/>
          <path d="M377.77,826.55c-.79,0-1.5-.14-2.12-.41s-1.1-.67-1.46-1.2-.54-1.17-.55-1.91h1.58c.01.45.12.85.32,1.18s.48.59.85.77.81.27,1.33.27c.43,0,.8-.07,1.13-.22s.58-.36.76-.64.27-.63.27-1.06c0-.39-.09-.71-.28-.97s-.45-.46-.81-.59-.79-.2-1.3-.2h-.63v-1.21h.61c.47,0,.86-.06,1.17-.18s.56-.3.72-.54.24-.52.24-.85-.09-.6-.26-.84-.4-.42-.7-.54-.63-.19-1-.19c-.45,0-.83.09-1.15.27s-.55.42-.72.72-.25.64-.26,1.01h-1.55c0-.63.16-1.18.46-1.67s.72-.87,1.27-1.15,1.21-.42,1.99-.42c.66,0,1.25.11,1.78.33s.95.54,1.25.96.46.92.46,1.51c0,.55-.16,1-.47,1.33s-.72.59-1.23.76v.03c.69.19,1.2.49,1.53.93s.5.98.5,1.64c0,.5-.1.95-.29,1.33s-.46.71-.8.97-.74.46-1.2.59-.94.2-1.46.2Z"/>
        </g>
      </g>
      <g id="sector-b4">
        <path class="cls-9" d="M460.03,801.33v40.45h-57.81v-91.12h44.25c0,.48-.25,50.67-.25,50.67h13.81Z"/>
        <g>
          <path d="M422.14,823.7v-10.62h4.69c.55,0,1.04.07,1.46.21s.78.36,1.06.64c.24.23.43.51.56.82s.2.67.2,1.07c0,.56-.15,1.03-.46,1.39s-.75.63-1.32.8v.04c.66.15,1.19.45,1.59.88s.6.99.6,1.68c0,.45-.07.85-.22,1.2s-.36.66-.65.93c-.31.3-.68.53-1.12.69s-.95.24-1.53.24h-4.88ZM423.85,817.54h2.73c.57,0,1.02-.13,1.34-.4s.48-.65.48-1.15c0-.32-.07-.58-.2-.8s-.33-.39-.58-.5-.55-.17-.91-.17h-2.87v3.03ZM423.85,822.25h3.03c.33,0,.62-.04.87-.13s.45-.21.61-.37c.14-.13.25-.3.33-.49s.12-.41.12-.64c0-.39-.09-.72-.26-.98s-.41-.46-.71-.59-.64-.2-1.03-.2h-2.96v3.39Z"/>
          <path d="M436.55,823.7v-2.43h-4.89v-1.45l5.05-6.34h1.41v6.55h1.62v1.24h-1.62v2.43h-1.58ZM432.9,820.1c.34-.02.63-.03.86-.05s.45-.02.64-.02h2.15v-3.13c0-.19,0-.4.02-.63s.03-.53.05-.88h-.03c-.2.3-.36.56-.51.77s-.29.41-.43.58l-1.65,2.06c-.13.17-.29.35-.46.55s-.39.44-.64.71v.03Z"/>
        </g>
      </g>
      <g id="sector-b5">
        <path class="cls-9" d="M529.72,750.66v91.12h-58.98v-40.45h14.08s-.25-50.19-.25-50.67h45.16Z"/>
        <g>
          <path d="M493.08,822.53v-10.62h4.69c.55,0,1.04.07,1.46.21s.78.36,1.06.64c.24.23.43.51.56.82s.2.67.2,1.07c0,.56-.15,1.03-.46,1.39s-.75.63-1.32.8v.04c.66.15,1.19.45,1.59.88s.6.99.6,1.68c0,.45-.07.85-.22,1.2s-.36.66-.65.93c-.31.3-.68.53-1.12.69s-.95.24-1.53.24h-4.88ZM494.79,816.37h2.73c.57,0,1.02-.13,1.34-.4s.48-.65.48-1.15c0-.32-.07-.58-.2-.8s-.33-.39-.58-.5-.55-.17-.91-.17h-2.87v3.03ZM494.79,821.08h3.03c.33,0,.62-.04.87-.13s.45-.21.61-.37c.14-.13.25-.3.33-.49s.12-.41.12-.64c0-.39-.09-.72-.26-.98s-.41-.46-.71-.59-.64-.2-1.03-.2h-2.96v3.39Z"/>
          <path d="M506.2,822.74c-.73,0-1.37-.13-1.93-.39s-1-.61-1.33-1.06-.52-.96-.56-1.53h1.6c.07.32.19.59.37.84s.42.43.71.57.66.21,1.09.21.82-.09,1.15-.28.58-.44.76-.77.27-.72.27-1.16-.09-.85-.28-1.18-.44-.57-.75-.75-.66-.26-1.05-.26c-.34,0-.64.04-.91.12s-.49.19-.68.32-.34.28-.47.43h-1.55l1.09-5.48h5.62v1.37h-4.47l-.6,2.82h.03c.27-.28.59-.5.96-.66s.81-.23,1.32-.23c.59,0,1.13.14,1.65.42s.93.68,1.25,1.2.48,1.15.48,1.89-.16,1.36-.49,1.89-.78.94-1.35,1.23-1.22.44-1.94.44Z"/>
        </g>
      </g>
      <g id="sector-d1">
        <path class="cls-9" d="M273.77,121.2h-14.09s.25,50.21.25,50.67h-45.16v-91.1h59v40.43Z"/>
        <g>
          <path d="M237.25,105.47v-10.62h4.06c.79,0,1.48.13,2.07.38s1.09.62,1.49,1.09.71,1.04.91,1.7.31,1.39.31,2.18-.1,1.51-.31,2.16-.52,1.2-.93,1.66-.92.82-1.53,1.07-1.31.38-2.11.38h-3.95ZM238.97,104h2.13c.75,0,1.36-.15,1.84-.46s.82-.74,1.04-1.31.33-1.24.33-2.01-.1-1.45-.31-2.04-.55-1.03-1.01-1.36-1.07-.48-1.82-.48h-2.2v7.66Z"/>
          <path d="M249.63,105.47v-7.06h-2.36v-1.09c.45,0,.86-.08,1.25-.21s.71-.34.97-.64.43-.68.49-1.16h1.28v10.16h-1.64Z"/>
        </g>
      </g>
      <g id="sector-d2">
        <path class="cls-9" d="M392.52,121.2h-84.43s.14,50.21.14,50.67h-25.85v-91.1h110.14v40.43Z"/>
        <g>
          <path d="M332.33,104.53v-10.62h4.06c.79,0,1.48.13,2.07.38.59.26,1.09.62,1.49,1.09s.71,1.04.91,1.7c.2.66.31,1.39.31,2.18s-.1,1.52-.31,2.16c-.21.65-.52,1.2-.93,1.66s-.92.82-1.53,1.07-1.31.38-2.11.38h-3.95ZM334.05,103.05h2.13c.75,0,1.36-.15,1.84-.46s.82-.74,1.04-1.31c.22-.57.33-1.24.33-2.01s-.1-1.45-.31-2.04c-.21-.58-.55-1.03-1.01-1.36-.46-.32-1.07-.48-1.82-.48h-2.2v7.66Z"/>
          <path d="M342.32,104.53c.02-.62.13-1.15.31-1.6.18-.45.44-.85.77-1.21s.73-.7,1.2-1.02c.47-.32.99-.67,1.58-1.04.43-.26.78-.5,1.07-.72.28-.22.5-.45.64-.7.14-.25.21-.55.21-.9,0-.54-.17-.99-.52-1.33s-.81-.51-1.41-.51c-.45,0-.82.09-1.12.28s-.52.46-.67.8c-.15.35-.22.75-.22,1.22h-1.62c0-.78.16-1.43.46-1.98.31-.54.74-.95,1.3-1.24s1.21-.43,1.97-.43,1.34.14,1.86.41c.52.28.93.65,1.21,1.12.28.47.42,1.01.42,1.61s-.12,1.09-.35,1.48c-.23.4-.55.74-.95,1.03-.4.29-.85.59-1.36.88-.62.39-1.11.71-1.47.96-.36.25-.63.49-.82.7-.18.21-.33.46-.44.72h5.24v1.45h-7.3Z"/>
        </g>
      </g>
      <g id="sector-d3">
        <path class="cls-9" d="M461.21,121.2h-14.08s.25,50.21.25,50.67h-45.16v-91.1h58.99v40.43Z"/>
        <g>
          <path d="M423.44,105.37v-10.62h4.06c.79,0,1.48.13,2.07.38.59.26,1.09.62,1.49,1.09s.71,1.04.91,1.7c.2.66.31,1.39.31,2.18s-.1,1.52-.31,2.16c-.21.65-.52,1.2-.93,1.66s-.92.82-1.53,1.07-1.31.38-2.11.38h-3.95ZM425.17,103.89h2.13c.75,0,1.36-.15,1.84-.46s.82-.74,1.04-1.31c.22-.57.33-1.24.33-2.01s-.1-1.45-.31-2.04c-.21-.58-.55-1.03-1.01-1.36-.46-.32-1.07-.48-1.82-.48h-2.2v7.66Z"/>
          <path d="M437.41,105.58c-.79,0-1.5-.14-2.12-.41-.62-.27-1.1-.67-1.46-1.2-.36-.53-.54-1.16-.55-1.91h1.58c.01.46.12.85.32,1.18.2.33.48.59.85.77s.81.27,1.33.27c.43,0,.8-.07,1.13-.22.33-.14.58-.36.76-.64.18-.28.27-.63.27-1.06,0-.39-.09-.71-.28-.97-.18-.26-.45-.46-.81-.59-.36-.13-.79-.2-1.3-.2h-.63v-1.21h.61c.47,0,.86-.06,1.17-.18.32-.12.56-.3.72-.54.16-.23.24-.52.24-.85s-.09-.6-.26-.84c-.17-.23-.4-.41-.7-.54-.29-.13-.63-.19-1-.19-.45,0-.83.09-1.15.27-.31.18-.55.42-.72.72s-.25.64-.26,1.01h-1.55c0-.63.16-1.18.46-1.67s.72-.87,1.27-1.15c.55-.28,1.21-.42,1.99-.42.66,0,1.25.11,1.78.33s.95.54,1.25.96.46.92.46,1.51c0,.55-.16,1-.47,1.33s-.72.59-1.23.76v.03c.69.19,1.2.49,1.53.93s.5.98.5,1.64c0,.5-.1.95-.29,1.33-.19.39-.46.71-.8.97-.34.26-.74.46-1.2.59-.45.13-.94.2-1.46.2Z"/>
        </g>
      </g>
      <g id="sector-d4">
        <path class="cls-9" d="M529.72,80.77v91.1h-44.25c0-.46.25-50.67.25-50.67h-13.81v-40.43h57.81Z"/>
        <g>
          <path d="M494.08,104.19v-10.62h4.06c.79,0,1.48.13,2.07.38.59.26,1.09.62,1.49,1.09s.71,1.04.91,1.7c.2.66.31,1.39.31,2.18s-.1,1.52-.31,2.16c-.21.65-.52,1.2-.93,1.66s-.92.82-1.53,1.07-1.31.38-2.11.38h-3.95ZM495.8,102.71h2.13c.75,0,1.36-.15,1.84-.46s.82-.74,1.04-1.31c.22-.57.33-1.24.33-2.01s-.1-1.45-.31-2.04c-.21-.58-.55-1.03-1.01-1.36-.46-.32-1.07-.48-1.82-.48h-2.2v7.66Z"/>
          <path d="M509.06,104.19v-2.43h-4.89v-1.45l5.05-6.34h1.41v6.55h1.62v1.24h-1.62v2.43h-1.58ZM505.41,100.59c.34-.02.63-.03.86-.05.23-.01.45-.02.64-.02h2.15v-3.13c0-.18,0-.4.02-.63s.03-.53.05-.88h-.03c-.2.3-.36.56-.51.77-.14.21-.29.41-.43.58l-1.65,2.06c-.13.17-.29.35-.46.55-.17.2-.39.44-.64.71v.03Z"/>
        </g>
      </g>
      <g id="sector-a2">
        <polygon class="cls-2" points="174.62 614.29 174.62 659.47 124.3 659.47 124.3 672.46 83.8 672.46 83.8 614.29 174.62 614.29"/>
        <g>
          <path d="M120.24,642.65l3.87-10.62h1.86l3.9,10.62h-1.85l-.95-2.82h-4.09l-.98,2.82h-1.75ZM123.4,638.54h3.22l-.91-2.71c-.13-.38-.24-.76-.34-1.13s-.2-.79-.31-1.28h-.04c-.07.31-.14.58-.2.83s-.14.51-.22.79c-.08.28-.16.55-.25.79l-.94,2.71Z"/>
          <path d="M130.65,642.65c.02-.62.13-1.15.31-1.6.18-.45.44-.85.77-1.21s.73-.7,1.2-1.02c.47-.32.99-.67,1.58-1.04.43-.26.78-.5,1.07-.72.28-.22.5-.45.64-.7.14-.25.21-.55.21-.9,0-.54-.17-.99-.52-1.33s-.81-.51-1.41-.51c-.45,0-.82.09-1.12.28s-.52.46-.67.8c-.15.35-.22.75-.22,1.22h-1.62c0-.78.16-1.43.46-1.98.31-.54.74-.95,1.3-1.24s1.21-.43,1.97-.43,1.34.14,1.86.41c.52.28.93.65,1.21,1.12.28.47.42,1.01.42,1.61s-.12,1.09-.35,1.48c-.23.4-.55.74-.95,1.03-.4.29-.85.59-1.36.88-.62.39-1.11.71-1.47.96-.36.25-.63.49-.82.7-.18.21-.33.46-.44.72h5.24v1.45h-7.3Z"/>
        </g>
      </g>
      <g id="sector-a7">
        <polygon class="cls-2" points="174.92 278.12 174.92 323.29 84.11 323.29 84.11 265.13 124.61 265.13 124.61 278.12 174.92 278.12"/>
        <g>
          <path d="M120.52,306.45l3.87-10.62h1.86l3.9,10.62h-1.85l-.95-2.82h-4.09l-.98,2.82h-1.75ZM123.69,302.34h3.22l-.91-2.71c-.13-.38-.24-.76-.34-1.13s-.2-.79-.31-1.28h-.04c-.07.31-.14.58-.2.83s-.14.51-.22.79c-.08.28-.16.55-.25.79l-.94,2.71Z"/>
          <path d="M132.26,306.45c.05-.9.2-1.78.44-2.64s.56-1.67.94-2.44c.39-.77.82-1.47,1.31-2.1.49-.63,1-1.17,1.53-1.6v-.03c-.37.02-.71.03-1.02.05-.31.01-.64.02-1,.02h-3.63v-1.41h7.23v1.28c-.5.46-.99.99-1.46,1.61-.47.62-.89,1.31-1.28,2.06-.38.76-.69,1.57-.93,2.45-.24.88-.38,1.8-.43,2.76h-1.72Z"/>
        </g>
      </g>
      <g id="sector-a8">
        <polygon class="cls-2" points="174.92 196.26 174.92 241.58 124.61 241.58 124.61 254.6 84.11 254.6 84.11 196.26 174.92 196.26"/>
        <g>
          <path d="M120.01,225.51l3.87-10.62h1.86l3.9,10.62h-1.85l-.95-2.82h-4.09l-.98,2.82h-1.75ZM123.17,221.4h3.22l-.91-2.71c-.13-.38-.24-.76-.34-1.13s-.2-.79-.31-1.28h-.04c-.07.31-.14.58-.2.83s-.14.51-.22.79c-.08.28-.16.55-.25.79l-.94,2.71Z"/>
          <path d="M134.43,225.71c-.52,0-1.01-.06-1.49-.18-.48-.12-.91-.31-1.29-.56-.38-.25-.68-.58-.9-.97-.22-.39-.33-.86-.33-1.41,0-.68.2-1.24.6-1.67s.92-.74,1.57-.93v-.04c-.54-.17-.96-.44-1.24-.81-.29-.37-.43-.8-.43-1.3,0-.54.15-1.02.45-1.42.3-.4.71-.71,1.24-.94.52-.22,1.12-.34,1.8-.34s1.27.11,1.8.33c.52.22.94.53,1.24.93.3.4.45.87.45,1.41,0,.5-.14.93-.43,1.3s-.7.64-1.23.82v.04c.66.17,1.18.48,1.56.93.39.46.58,1.01.58,1.67,0,.55-.11,1.02-.32,1.42s-.5.72-.87.98c-.37.25-.79.44-1.26.56-.47.12-.97.18-1.49.18ZM134.43,224.42c.47,0,.88-.08,1.23-.23s.61-.37.8-.65c.19-.28.28-.61.28-1,0-.6-.21-1.07-.62-1.43-.41-.35-.98-.53-1.71-.53-.48,0-.89.08-1.24.24s-.62.39-.8.68c-.18.29-.28.64-.28,1.03s.09.73.28,1.01c.19.28.45.5.8.65.35.15.77.23,1.26.23ZM134.39,219.42c.6,0,1.07-.14,1.41-.41.34-.27.51-.64.51-1.12s-.17-.83-.51-1.1c-.34-.27-.81-.4-1.41-.4-.4,0-.74.06-1.03.18-.29.12-.51.3-.66.52s-.23.49-.23.8.08.58.23.81.38.41.66.53c.29.12.63.18,1.03.18Z"/>
        </g>
      </g>
      <g id="sector-c1">
        <polygon class="cls-2" points="657.78 684.27 657.78 742.61 566.96 742.61 566.96 697.29 617.27 697.29 617.27 684.27 657.78 684.27"/>
        <g>
          <path d="M620.59,724.4c-.76,0-1.45-.14-2.07-.41s-1.15-.66-1.6-1.15-.79-1.08-1.02-1.75c-.24-.67-.36-1.41-.36-2.2s.12-1.51.35-2.17.57-1.25,1.01-1.75c.44-.5.98-.89,1.6-1.17s1.33-.42,2.12-.42c.61,0,1.17.08,1.67.24s.93.38,1.28.67c.4.32.73.7.97,1.15.24.44.39.93.46,1.45h-1.71c-.07-.4-.23-.76-.46-1.06-.23-.3-.53-.54-.91-.72s-.82-.26-1.32-.26c-.71,0-1.31.18-1.81.53-.49.35-.87.84-1.12,1.45-.25.61-.38,1.3-.38,2.07s.14,1.5.41,2.11.66,1.08,1.16,1.42,1.08.51,1.75.51c.59,0,1.08-.12,1.48-.35.4-.23.7-.55.92-.94s.34-.82.39-1.28h1.71c-.01.53-.13,1.05-.36,1.56-.22.51-.53.96-.92,1.33-.4.4-.86.69-1.4.87-.54.19-1.15.28-1.84.28Z"/>
          <path d="M628.59,724.19v-7.06h-2.36v-1.09c.45,0,.86-.08,1.25-.21s.71-.34.97-.64.43-.68.49-1.16h1.28v10.16h-1.64Z"/>
        </g>
      </g>
      <g id="sector-c2">
        <polygon class="cls-2" points="657.78 615.58 657.78 673.74 617.27 673.74 617.27 660.75 566.96 660.75 566.96 615.58 657.78 615.58"/>
        <g>
          <path d="M619.19,643.47c-.76,0-1.45-.14-2.07-.41s-1.15-.66-1.6-1.15-.79-1.08-1.02-1.75c-.24-.67-.36-1.41-.36-2.2s.12-1.51.35-2.17.57-1.25,1.01-1.75c.44-.5.98-.89,1.6-1.17s1.33-.42,2.12-.42c.61,0,1.17.08,1.67.24s.93.38,1.28.67c.4.32.73.7.97,1.15.24.44.39.93.46,1.45h-1.71c-.07-.4-.23-.76-.46-1.06-.23-.3-.53-.54-.91-.72s-.82-.26-1.32-.26c-.71,0-1.31.18-1.81.53-.49.35-.87.84-1.12,1.45-.25.61-.38,1.3-.38,2.07s.14,1.5.41,2.11.66,1.08,1.16,1.42,1.08.51,1.75.51c.59,0,1.08-.12,1.48-.35.4-.23.7-.55.92-.94s.34-.82.39-1.28h1.71c-.01.53-.13,1.05-.36,1.56-.22.51-.53.96-.92,1.33-.4.4-.86.69-1.4.87-.54.19-1.15.28-1.84.28Z"/>
          <path d="M624.8,643.26c.02-.62.13-1.15.31-1.6.18-.45.44-.85.77-1.21s.73-.7,1.2-1.02c.47-.32.99-.67,1.58-1.04.43-.26.78-.5,1.07-.72.28-.22.5-.45.64-.7.14-.25.21-.55.21-.9,0-.54-.17-.99-.52-1.33s-.81-.51-1.41-.51c-.45,0-.82.09-1.12.28s-.52.46-.67.8c-.15.35-.22.75-.22,1.22h-1.62c0-.78.16-1.43.46-1.98.31-.54.74-.95,1.3-1.24s1.21-.43,1.97-.43,1.34.14,1.86.41c.52.28.93.65,1.21,1.12.28.47.42,1.01.42,1.61s-.12,1.09-.35,1.48c-.23.4-.55.74-.95,1.03-.4.29-.85.59-1.36.88-.62.39-1.11.71-1.47.96-.36.25-.63.49-.82.7-.18.21-.33.46-.44.72h5.24v1.45h-7.3Z"/>
        </g>
      </g>
      <g id="sector-c7">
        <polygon class="cls-2" points="658.08 266.41 658.08 324.58 567.26 324.58 567.26 279.39 617.58 279.39 617.58 266.41 658.08 266.41"/>
        <g>
          <path d="M619.48,307.26c-.76,0-1.45-.14-2.07-.41s-1.15-.66-1.6-1.15-.79-1.08-1.02-1.75c-.24-.67-.36-1.41-.36-2.2s.12-1.51.35-2.17.57-1.25,1.01-1.75c.44-.5.98-.89,1.6-1.17s1.33-.42,2.12-.42c.61,0,1.17.08,1.67.24s.93.38,1.28.67c.4.32.73.7.97,1.15.24.44.39.93.46,1.45h-1.71c-.07-.4-.23-.76-.46-1.06-.23-.3-.53-.54-.91-.72s-.82-.26-1.32-.26c-.71,0-1.31.18-1.81.53-.49.35-.87.84-1.12,1.45-.25.61-.38,1.3-.38,2.07s.14,1.5.41,2.11.66,1.08,1.16,1.42,1.08.51,1.75.51c.59,0,1.08-.12,1.48-.35.4-.23.7-.55.92-.94s.34-.82.39-1.28h1.71c-.01.53-.13,1.05-.36,1.56-.22.51-.53.96-.92,1.33-.4.4-.86.69-1.4.87-.54.19-1.15.28-1.84.28Z"/>
          <path d="M626.42,307.05c.05-.9.2-1.78.44-2.64s.56-1.67.94-2.44c.39-.77.82-1.47,1.31-2.1.49-.63,1-1.17,1.53-1.6v-.03c-.37.02-.71.03-1.02.05-.31.01-.64.02-1,.02h-3.63v-1.41h7.23v1.28c-.5.46-.99.99-1.46,1.61-.47.62-.89,1.31-1.28,2.06-.38.76-.69,1.57-.93,2.45-.24.88-.38,1.8-.43,2.76h-1.72Z"/>
        </g>
      </g>
      <g id="sector-c8">
        <polygon class="cls-2" points="658.08 197.54 658.08 255.89 617.58 255.89 617.58 242.86 567.26 242.86 567.26 197.54 658.08 197.54"/>
        <g>
          <path d="M618.96,226.32c-.76,0-1.45-.14-2.07-.41s-1.15-.66-1.6-1.15-.79-1.08-1.02-1.75c-.24-.67-.36-1.41-.36-2.2s.12-1.51.35-2.17.57-1.25,1.01-1.75c.44-.5.98-.89,1.6-1.17s1.33-.42,2.12-.42c.61,0,1.17.08,1.67.24s.93.38,1.28.67c.4.32.73.7.97,1.15.24.44.39.93.46,1.45h-1.71c-.07-.4-.23-.76-.46-1.06-.23-.3-.53-.54-.91-.72s-.82-.26-1.32-.26c-.71,0-1.31.18-1.81.53-.49.35-.87.84-1.12,1.45-.25.61-.38,1.3-.38,2.07s.14,1.5.41,2.11.66,1.08,1.16,1.42,1.08.51,1.75.51c.59,0,1.08-.12,1.48-.35.4-.23.7-.55.92-.94s.34-.82.39-1.28h1.71c-.01.53-.13,1.05-.36,1.56-.22.51-.53.96-.92,1.33-.4.4-.86.69-1.4.87-.54.19-1.15.28-1.84.28Z"/>
          <path d="M628.59,226.32c-.52,0-1.01-.06-1.49-.18-.48-.12-.91-.31-1.29-.56-.38-.25-.68-.58-.9-.97-.22-.39-.33-.86-.33-1.41,0-.68.2-1.24.6-1.67s.92-.74,1.57-.93v-.04c-.54-.17-.96-.44-1.24-.81-.29-.37-.43-.8-.43-1.3,0-.54.15-1.02.45-1.42.3-.4.71-.71,1.24-.94.52-.22,1.12-.34,1.8-.34s1.27.11,1.8.33c.52.22.94.53,1.24.93.3.4.45.87.45,1.41,0,.5-.14.93-.43,1.3s-.7.64-1.23.82v.04c.66.17,1.18.48,1.56.93.39.46.58,1.01.58,1.67,0,.55-.11,1.02-.32,1.42s-.5.72-.87.98c-.37.25-.79.44-1.26.56-.47.12-.97.18-1.49.18ZM628.59,225.03c.47,0,.88-.08,1.23-.23s.61-.37.8-.65c.19-.28.28-.61.28-1,0-.6-.21-1.07-.62-1.43-.41-.35-.98-.53-1.71-.53-.48,0-.89.08-1.24.24s-.62.39-.8.68c-.18.29-.28.64-.28,1.03s.09.73.28,1.01c.19.28.45.5.8.65.35.15.77.23,1.26.23ZM628.55,220.02c.6,0,1.07-.14,1.41-.41.34-.27.51-.64.51-1.12s-.17-.83-.51-1.1c-.34-.27-.81-.4-1.41-.4-.4,0-.74.06-1.03.18-.29.12-.51.3-.66.52s-.23.49-.23.8.08.58.23.81.38.41.66.53c.29.12.63.18,1.03.18Z"/>
        </g>
      </g>
      <g id="sector-a3">
        <rect class="cls-6" x="84.11" y="577.49" width="37.82" height="30.79"/>
        <g>
          <path d="M95.49,597.37l3.87-10.62h1.86l3.9,10.62h-1.85l-.95-2.82h-4.09l-.98,2.82h-1.75ZM98.66,593.26h3.22l-.91-2.71c-.13-.38-.24-.76-.34-1.13s-.2-.79-.31-1.28h-.04c-.07.31-.14.58-.2.83s-.14.51-.22.79c-.08.28-.16.55-.25.79l-.94,2.71Z"/>
          <path d="M109.87,597.58c-.79,0-1.5-.14-2.12-.41-.62-.27-1.1-.67-1.46-1.2-.36-.53-.54-1.16-.55-1.91h1.58c.01.46.12.85.32,1.18.2.33.48.59.85.77s.81.27,1.33.27c.43,0,.8-.07,1.13-.22.33-.14.58-.36.76-.64.18-.28.27-.63.27-1.06,0-.39-.09-.71-.28-.97-.18-.26-.45-.46-.81-.59-.36-.13-.79-.2-1.3-.2h-.63v-1.21h.61c.47,0,.86-.06,1.17-.18.32-.12.56-.3.72-.54.16-.23.24-.52.24-.85s-.09-.6-.26-.84c-.17-.23-.4-.41-.7-.54-.29-.13-.63-.19-1-.19-.45,0-.83.09-1.15.27-.31.18-.55.42-.72.72s-.25.64-.26,1.01h-1.55c0-.63.16-1.18.46-1.67s.72-.87,1.27-1.15c.55-.28,1.21-.42,1.99-.42.66,0,1.25.11,1.78.33s.95.54,1.25.96.46.92.46,1.51c0,.55-.16,1-.47,1.33s-.72.59-1.23.76v.03c.69.19,1.2.49,1.53.93s.5.98.5,1.64c0,.5-.1.95-.29,1.33-.19.39-.46.71-.8.97-.34.26-.74.46-1.2.59-.45.13-.94.2-1.46.2Z"/>
        </g>
      </g>
      <g id="sector-a6">
        <rect class="cls-6" x="84.11" y="329.31" width="37.82" height="30.79"/>
        <g>
          <path d="M95.39,349.19l3.87-10.62h1.86l3.9,10.62h-1.85l-.95-2.82h-4.09l-.98,2.82h-1.75ZM98.55,345.08h3.22l-.91-2.71c-.13-.38-.24-.76-.34-1.13s-.2-.79-.31-1.28h-.04c-.07.31-.14.58-.2.83s-.14.51-.22.79c-.08.28-.16.55-.25.79l-.94,2.71Z"/>
          <path d="M110.07,349.4c-.61,0-1.15-.1-1.6-.29-.45-.19-.85-.45-1.17-.78-.48-.49-.83-1.08-1.03-1.77-.2-.69-.3-1.52-.3-2.47,0-1.05.14-1.96.43-2.75.29-.79.73-1.4,1.34-1.85.6-.44,1.37-.66,2.31-.66.69,0,1.27.13,1.74.38.47.25.84.58,1.11.98.27.4.44.82.51,1.26h-1.59c-.04-.22-.12-.43-.26-.64-.13-.21-.33-.38-.57-.51s-.55-.2-.9-.2c-.58,0-1.05.15-1.42.44s-.64.72-.83,1.28c-.19.56-.29,1.24-.33,2.03v.1h.03c.21-.34.45-.63.72-.85.27-.22.57-.39.9-.5.33-.11.7-.16,1.09-.16.63,0,1.21.15,1.73.46s.94.72,1.25,1.24.47,1.11.47,1.75c0,.66-.16,1.25-.48,1.78-.32.53-.75.95-1.3,1.27s-1.16.47-1.84.47ZM110.02,348.13c.4,0,.77-.09,1.09-.28s.58-.45.76-.78c.19-.33.28-.71.28-1.15s-.1-.82-.29-1.15c-.19-.33-.45-.59-.77-.78s-.69-.28-1.1-.28c-.45,0-.84.09-1.18.28-.34.18-.61.44-.79.77-.19.33-.28.72-.28,1.16s.1.82.3,1.15.47.6.82.79c.35.19.74.29,1.16.29Z"/>
        </g>
      </g>
      <g id="sector-c3">
        <rect class="cls-6" x="619.95" y="578.75" width="37.82" height="30.81"/>
        <g>
          <path d="M634.55,598.86c-.76,0-1.45-.14-2.07-.41s-1.15-.66-1.6-1.15-.79-1.08-1.02-1.75c-.24-.67-.36-1.41-.36-2.2s.12-1.51.35-2.17.57-1.25,1.01-1.75c.44-.5.98-.89,1.6-1.17s1.33-.42,2.12-.42c.61,0,1.17.08,1.67.24s.93.38,1.28.67c.4.32.73.7.97,1.15.24.44.39.93.46,1.45h-1.71c-.07-.4-.23-.76-.46-1.06-.23-.3-.53-.54-.91-.72s-.82-.26-1.32-.26c-.71,0-1.31.18-1.81.53-.49.35-.87.84-1.12,1.45-.25.61-.38,1.3-.38,2.07s.14,1.5.41,2.11.66,1.08,1.16,1.42,1.08.51,1.75.51c.59,0,1.08-.12,1.48-.35.4-.23.7-.55.92-.94s.34-.82.39-1.28h1.71c-.01.53-.13,1.05-.36,1.56-.22.51-.53.96-.92,1.33-.4.4-.86.69-1.4.87-.54.19-1.15.28-1.84.28Z"/>
          <path d="M644.13,598.86c-.79,0-1.5-.14-2.12-.41-.62-.27-1.1-.67-1.46-1.2-.36-.53-.54-1.16-.55-1.91h1.58c.01.46.12.85.32,1.18.2.33.48.59.85.77s.81.27,1.33.27c.43,0,.8-.07,1.13-.22.33-.14.58-.36.76-.64.18-.28.27-.63.27-1.06,0-.39-.09-.71-.28-.97-.18-.26-.45-.46-.81-.59-.36-.13-.79-.2-1.3-.2h-.63v-1.21h.61c.47,0,.86-.06,1.17-.18.32-.12.56-.3.72-.54.16-.23.24-.52.24-.85s-.09-.6-.26-.84c-.17-.23-.4-.41-.7-.54-.29-.13-.63-.19-1-.19-.45,0-.83.09-1.15.27-.31.18-.55.42-.72.72s-.25.64-.26,1.01h-1.55c0-.63.16-1.18.46-1.67s.72-.87,1.27-1.15c.55-.28,1.21-.42,1.99-.42.66,0,1.25.11,1.78.33s.95.54,1.25.96.46.92.46,1.51c0,.55-.16,1-.47,1.33s-.72.59-1.23.76v.03c.69.19,1.2.49,1.53.93s.5.98.5,1.64c0,.5-.1.95-.29,1.33-.19.39-.46.71-.8.97-.34.26-.74.46-1.2.59-.45.13-.94.2-1.46.2Z"/>
        </g>
      </g>
      <g id="sector-c6">
        <rect class="cls-6" x="620.25" y="330.57" width="37.82" height="30.81"/>
        <g>
          <path d="M634.44,350.67c-.76,0-1.45-.14-2.07-.41s-1.15-.66-1.6-1.15-.79-1.08-1.02-1.75c-.24-.67-.36-1.41-.36-2.2s.12-1.51.35-2.17.57-1.25,1.01-1.75c.44-.5.98-.89,1.6-1.17s1.33-.42,2.12-.42c.61,0,1.17.08,1.67.24s.93.38,1.28.67c.4.32.73.7.97,1.15.24.44.39.93.46,1.45h-1.71c-.07-.4-.23-.76-.46-1.06-.23-.3-.53-.54-.91-.72s-.82-.26-1.32-.26c-.71,0-1.31.18-1.81.53-.49.35-.87.84-1.12,1.45-.25.61-.38,1.3-.38,2.07s.14,1.5.41,2.11.66,1.08,1.16,1.42,1.08.51,1.75.51c.59,0,1.08-.12,1.48-.35.4-.23.7-.55.92-.94s.34-.82.39-1.28h1.71c-.01.53-.13,1.05-.36,1.56-.22.51-.53.96-.92,1.33-.4.4-.86.69-1.4.87-.54.19-1.15.28-1.84.28Z"/>
          <path d="M644.33,350.67c-.61,0-1.15-.1-1.6-.29-.45-.19-.85-.45-1.17-.78-.48-.49-.83-1.08-1.03-1.77-.2-.69-.3-1.52-.3-2.47,0-1.05.14-1.96.43-2.75.29-.79.73-1.4,1.34-1.85.6-.44,1.37-.66,2.31-.66.69,0,1.27.13,1.74.38.47.25.84.58,1.11.98.27.4.44.82.51,1.26h-1.59c-.04-.22-.12-.43-.26-.64-.13-.21-.33-.38-.57-.51s-.55-.2-.9-.2c-.58,0-1.05.15-1.42.44s-.64.72-.83,1.28c-.19.56-.29,1.24-.33,2.03v.1h.03c.21-.34.45-.63.72-.85.27-.22.57-.39.9-.5.33-.11.7-.16,1.09-.16.63,0,1.21.15,1.73.46s.94.72,1.25,1.24.47,1.11.47,1.75c0,.66-.16,1.25-.48,1.78-.32.53-.75.95-1.3,1.27s-1.16.47-1.84.47ZM644.28,349.41c.4,0,.77-.09,1.09-.28s.58-.45.76-.78c.19-.33.28-.71.28-1.15s-.1-.82-.29-1.15c-.19-.33-.45-.59-.77-.78s-.69-.28-1.1-.28c-.45,0-.84.09-1.18.28-.34.18-.61.44-.79.77-.19.33-.28.72-.28,1.16s.1.82.3,1.15.47.6.82.79c.35.19.74.29,1.16.29Z"/>
        </g>
      </g>
      <g id="sector-a">
        <rect class="cls-6" x="117.58" y="474.47" width="57.04" height="82.43"/>
        <g>
          <path d="M136.93,520.17l3.87-10.62h1.86l3.9,10.62h-1.85l-.95-2.82h-4.09l-.98,2.82h-1.75ZM140.1,516.06h3.22l-.91-2.71c-.13-.38-.24-.76-.34-1.13s-.2-.79-.31-1.28h-.04c-.07.31-.14.58-.2.83s-.14.51-.22.79c-.08.28-.16.55-.25.79l-.94,2.71Z"/>
          <path d="M152.33,520.17v-2.43h-4.89v-1.45l5.05-6.34h1.41v6.55h1.62v1.24h-1.62v2.43h-1.58ZM148.68,516.57c.34-.02.63-.03.86-.05.23-.01.45-.02.64-.02h2.15v-3.13c0-.18,0-.4.02-.63s.03-.53.05-.88h-.03c-.2.3-.36.56-.51.77-.14.21-.29.41-.43.58l-1.65,2.06c-.13.17-.29.35-.46.55-.17.2-.39.44-.64.71v.03Z"/>
        </g>
      </g>
      <g id="sector-vip1">
        <rect class="cls-3" x="90.64" y="474.47" width="20.36" height="92.55"/>
        <g>
          <path class="cls-1" d="M105.78,531.19l-10.62,3.62v-1.82l6.56-2.13c.22-.07.47-.14.76-.22s.55-.15.82-.21.57-.14.92-.22v-.03c-.35-.08-.66-.15-.93-.21s-.54-.13-.83-.21-.53-.15-.75-.21l-6.56-2.1v-1.76l10.62,3.66v1.85Z"/>
          <path class="cls-1" d="M105.78,524.4h-10.62v-1.72h10.62v1.72Z"/>
          <path class="cls-1" d="M105.78,520.57h-10.62v-4.54c0-.59.09-1.1.26-1.54s.43-.8.75-1.08c.29-.26.62-.47.99-.61s.77-.22,1.22-.22c.66,0,1.22.13,1.7.39s.85.65,1.11,1.17.39,1.15.39,1.91v2.77h4.19v1.74ZM100.21,518.83v-2.54c0-.66-.16-1.16-.48-1.49s-.76-.49-1.31-.49c-.58,0-1.02.17-1.32.51s-.45.81-.45,1.43v2.59h3.57Z"/>
          <path class="cls-1" d="M105.78,509.3h-7.06v2.36h-1.09c0-.45-.08-.86-.21-1.25s-.34-.71-.64-.97-.68-.43-1.16-.49v-1.28h10.16v1.64Z"/>
        </g>
      </g>
      <g id="sector-vip2">
        <rect class="cls-3" x="90.92" y="370.57" width="20.36" height="92.55"/>
        <g>
          <path class="cls-1" d="M105.78,428.69l-10.62,3.62v-1.82l6.56-2.13c.22-.07.48-.14.76-.22.28-.08.56-.15.82-.21.27-.06.57-.14.92-.22v-.03c-.35-.08-.66-.15-.93-.21-.27-.06-.54-.13-.83-.21-.28-.08-.53-.15-.75-.21l-6.56-2.1v-1.76l10.62,3.66v1.85Z"/>
          <path class="cls-1" d="M105.78,421.9h-10.62v-1.72h10.62v1.72Z"/>
          <path class="cls-1" d="M105.78,418.06h-10.62v-4.54c0-.59.09-1.1.26-1.54.18-.44.43-.8.75-1.08.29-.26.62-.47.99-.61.37-.14.77-.22,1.22-.22.66,0,1.22.13,1.7.39s.85.65,1.11,1.17c.26.52.39,1.15.39,1.91v2.77h4.19v1.74ZM100.21,416.33v-2.54c0-.66-.16-1.16-.48-1.49-.32-.33-.76-.49-1.31-.49s-1.02.17-1.32.51-.45.81-.45,1.43v2.59h3.57Z"/>
          <path class="cls-1" d="M105.78,409.19c-.62-.02-1.15-.13-1.6-.31-.45-.18-.85-.44-1.21-.77s-.7-.73-1.02-1.2c-.32-.47-.67-.99-1.04-1.58-.26-.43-.5-.78-.72-1.07-.22-.28-.45-.5-.7-.64-.25-.14-.55-.21-.9-.21-.54,0-.99.17-1.33.52s-.51.81-.51,1.41c0,.45.09.82.28,1.12s.46.52.8.67c.35.15.75.22,1.22.22v1.62c-.78,0-1.43-.16-1.98-.46-.54-.31-.95-.74-1.24-1.3s-.43-1.21-.43-1.97.14-1.34.41-1.86c.28-.52.65-.93,1.12-1.21.47-.28,1.01-.42,1.61-.42s1.09.12,1.48.35c.4.23.74.55,1.03.95.29.4.59.85.88,1.36.39.62.71,1.11.96,1.47.25.36.49.63.7.82.21.18.46.33.72.44v-5.24h1.45v7.3Z"/>
        </g>
      </g>
      <g id="sector-a5">
        <rect class="cls-6" x="117.88" y="380.69" width="57.04" height="82.43"/>
        <g>
          <path d="M138.29,426.38l3.39-9.29h1.63l3.41,9.29h-1.62l-.84-2.46h-3.58l-.85,2.46h-1.53ZM141.06,422.79h2.82l-.8-2.37c-.11-.33-.21-.66-.3-.99-.09-.32-.18-.7-.27-1.12h-.04c-.06.27-.12.51-.18.72-.06.21-.12.44-.19.69-.07.25-.14.48-.22.69l-.82,2.37Z"/>
          <path d="M150.63,426.57c-.64,0-1.2-.11-1.69-.34-.49-.23-.87-.53-1.16-.93-.29-.39-.45-.84-.49-1.33h1.4c.06.28.17.52.33.73.16.21.37.38.63.5s.58.18.95.18.72-.08,1.01-.24c.29-.16.51-.39.66-.68.16-.29.24-.63.24-1.01s-.08-.75-.25-1.03c-.16-.28-.38-.5-.66-.66-.27-.15-.58-.23-.92-.23-.3,0-.56.03-.79.11-.23.07-.43.16-.6.28-.16.11-.3.24-.41.37h-1.35l.96-4.79h4.92v1.2h-3.92l-.52,2.47h.02c.24-.25.52-.44.84-.58.32-.14.71-.2,1.16-.2.51,0,.99.12,1.44.37s.81.59,1.09,1.05c.28.46.42,1.01.42,1.66s-.14,1.19-.43,1.65c-.29.46-.68.82-1.18,1.08-.5.25-1.06.38-1.7.38Z"/>
        </g>
      </g>
      <g id="sector-c4">
        <rect class="cls-6" x="566.96" y="475.75" width="50.05" height="82.43"/>
        <g>
          <path d="M588.78,520.99c-.76,0-1.45-.14-2.07-.41s-1.15-.66-1.6-1.15-.79-1.08-1.02-1.75c-.24-.67-.36-1.41-.36-2.2s.12-1.51.35-2.17.57-1.25,1.01-1.75c.44-.5.98-.89,1.6-1.17s1.33-.42,2.12-.42c.61,0,1.17.08,1.67.24s.93.38,1.28.67c.4.32.73.7.97,1.15.24.44.39.93.46,1.45h-1.71c-.07-.4-.23-.76-.46-1.06-.23-.3-.53-.54-.91-.72s-.82-.26-1.32-.26c-.71,0-1.31.18-1.81.53-.49.35-.87.83-1.12,1.45-.25.61-.38,1.3-.38,2.07s.14,1.5.41,2.11.66,1.08,1.16,1.42,1.08.51,1.75.51c.59,0,1.08-.12,1.48-.35.4-.24.7-.55.92-.94s.34-.82.39-1.28h1.71c-.01.52-.13,1.04-.36,1.56-.22.51-.53.96-.92,1.33-.4.39-.86.68-1.4.87-.54.18-1.15.28-1.84.28Z"/>
          <path d="M599.38,520.78v-2.43h-4.89v-1.45l5.05-6.34h1.41v6.55h1.62v1.24h-1.62v2.43h-1.58ZM595.73,517.18c.34-.02.63-.03.86-.05.23-.01.45-.02.64-.02h2.15v-3.13c0-.19,0-.4.02-.63s.03-.53.05-.88h-.03c-.2.3-.36.56-.51.77-.14.21-.29.4-.43.58l-1.65,2.06c-.13.17-.29.35-.46.55-.17.2-.39.44-.64.71v.03Z"/>
        </g>
      </g>
      <g>
        <rect class="cls-3" x="623.82" y="371.86" width="27.4" height="195.1"/>
        <g>
          <path class="cls-1" d="M641.65,491.65h-10.62v-2.25l5.42-1.97c.3-.11.65-.22,1.04-.34s.77-.22,1.14-.32c.37-.1.79-.21,1.27-.34v-.03c-.47-.13-.9-.24-1.26-.34s-.75-.21-1.14-.33-.74-.23-1.04-.33l-5.42-1.94v-2.31h10.62v1.62h-5.98c-.26,0-.57,0-.91-.02s-.67-.02-1-.04c-.32-.01-.69-.03-1.11-.05v.03c.38.09.72.18,1.01.25.29.08.59.16.9.25s.58.17.82.26l6.28,2.3v1.37l-6.28,2.29c-.24.08-.51.17-.82.26s-.6.17-.9.25c-.29.08-.63.17-1.01.26v.03c.42-.02.79-.04,1.11-.06.32-.01.66-.03,1-.03s.64-.01.91-.01h5.98v1.54Z"/>
          <path class="cls-1" d="M641.65,479.06h-10.62v-7.66h1.48v5.94h2.92v-5.32h1.4v5.32h3.29v-6.09h1.53v7.81Z"/>
          <path class="cls-1" d="M641.65,469.53h-10.62v-4.06c0-.79.13-1.48.38-2.07.26-.59.62-1.09,1.09-1.49s1.04-.71,1.7-.91c.66-.2,1.39-.31,2.18-.31s1.52.1,2.16.31c.65.21,1.2.52,1.66.93s.82.92,1.07,1.53.38,1.31.38,2.11v3.95ZM640.17,467.8v-2.13c0-.75-.15-1.36-.46-1.84s-.74-.82-1.31-1.04c-.57-.22-1.24-.33-2.01-.33s-1.45.1-2.04.31c-.58.21-1.03.55-1.36,1.01-.32.46-.48,1.07-.48,1.82v2.2h7.66Z"/>
          <path class="cls-1" d="M641.65,459.01h-10.62v-1.72h10.62v1.72Z"/>
          <path class="cls-1" d="M641.65,455.98l-10.62-3.87v-1.86l10.62-3.9v1.85l-2.82.95v4.09l2.82.98v1.75ZM637.54,452.82v-3.22l-2.71.91c-.38.13-.76.24-1.13.34s-.79.2-1.28.31v.04c.31.07.58.14.83.2s.51.14.79.22c.28.08.55.16.79.25l2.71.94Z"/>
        </g>
      </g>
      <g id="sector-c5">
        <rect class="cls-6" x="567.21" y="381.96" width="50.06" height="82.43"/>
        <g>
          <path d="M589,427.2c-.76,0-1.45-.14-2.07-.41s-1.15-.66-1.6-1.15-.79-1.08-1.02-1.75c-.24-.67-.36-1.41-.36-2.2s.12-1.51.35-2.17.57-1.25,1.01-1.75c.44-.5.98-.89,1.6-1.17s1.33-.42,2.12-.42c.61,0,1.17.08,1.67.24s.93.38,1.28.67c.4.32.73.7.97,1.15.24.44.39.93.46,1.45h-1.71c-.07-.4-.23-.76-.46-1.06-.23-.3-.53-.54-.91-.72s-.82-.26-1.32-.26c-.71,0-1.31.18-1.81.53-.49.35-.87.83-1.12,1.45-.25.61-.38,1.3-.38,2.07s.14,1.5.41,2.11.66,1.08,1.16,1.42,1.08.51,1.75.51c.59,0,1.08-.12,1.48-.35.4-.24.7-.55.92-.94s.34-.82.39-1.28h1.71c-.01.52-.13,1.04-.36,1.56-.22.51-.53.96-.92,1.33-.4.39-.86.68-1.4.87-.54.18-1.15.28-1.84.28Z"/>
          <path d="M598.31,427.2c-.73,0-1.37-.13-1.93-.39s-1-.61-1.33-1.06c-.33-.45-.52-.96-.56-1.53h1.6c.07.32.19.59.37.84.18.24.42.43.71.57.3.14.66.21,1.09.21s.82-.09,1.15-.28c.33-.18.58-.44.76-.77.18-.33.27-.72.27-1.16s-.09-.85-.28-1.18c-.19-.33-.44-.57-.75-.75s-.66-.26-1.05-.26c-.34,0-.64.04-.91.12-.26.08-.49.19-.68.32s-.34.28-.47.43h-1.55l1.09-5.48h5.62v1.37h-4.47l-.6,2.82h.03c.27-.28.59-.5.96-.66.37-.16.81-.23,1.32-.23.59,0,1.13.14,1.65.42s.93.68,1.25,1.2.48,1.15.48,1.89-.16,1.36-.49,1.89-.78.94-1.35,1.23c-.57.29-1.22.44-1.94.44Z"/>
        </g>
      </g>
    </g>
  </g>
</svg>