<?xml version="1.0" encoding="UTF-8"?>
<svg id="_Слой_2" data-name="Слой 2" xmlns="http://www.w3.org/2000/svg" viewBox="0 0 450.66 358.27">
  <defs>
    <style>
      .cls-1 {
        fill: #fff;
      }

      .cls-2 {
        fill: #342783;
      }
    </style>
  </defs>
  <g id="_Слой_1-2" data-name="Слой 1">
    <g>
      <g>
        <g id="seat-1-1">
          <rect class="cls-2" x="24.62" y="306.69" width="51.57" height="51.57"/>
          <path class="cls-1" d="M49.98,339.92v-9.15h-3.29v-2.19c.7-.02,1.32-.13,1.88-.34s1.02-.52,1.38-.95c.36-.42.6-.96.71-1.61h2.58v14.24h-3.26Z"/>
        </g>
        <g id="seat-1-2">
          <rect class="cls-2" x="83.02" y="306.69" width="51.57" height="51.57"/>
          <path class="cls-1" d="M103.33,339.92c.01-.85.14-1.59.39-2.22.25-.62.6-1.19,1.06-1.7s1.01-1.01,1.67-1.49c.65-.48,1.38-1.01,2.19-1.57.61-.42,1.07-.79,1.41-1.1s.56-.61.7-.89c.13-.29.2-.6.2-.93,0-.6-.17-1.08-.52-1.45-.35-.36-.83-.55-1.45-.55-.55,0-.99.12-1.33.36s-.59.56-.75.97c-.16.41-.24.88-.24,1.41h-3.1c0-1.15.22-2.13.66-2.92s1.07-1.4,1.89-1.82c.82-.42,1.81-.62,2.96-.62s2.04.2,2.81.61c.77.4,1.35.95,1.75,1.63s.6,1.45.6,2.29c0,.72-.13,1.36-.4,1.9s-.64,1.04-1.12,1.49c-.49.45-1.07.89-1.74,1.32-.78.5-1.38.9-1.81,1.21-.43.3-.76.55-.97.75-.21.2-.38.4-.5.6h6.52v2.72h-10.89Z"/>
        </g>
        <g id="seat-1-3">
          <rect class="cls-2" x="141.42" y="306.69" width="51.57" height="51.57"/>
          <path class="cls-1" d="M167.35,340.21c-1.2,0-2.24-.19-3.13-.57-.89-.38-1.59-.94-2.08-1.69s-.75-1.66-.77-2.75h3.09c.03.46.15.87.34,1.25s.49.68.89.9c.4.22.91.34,1.54.34.51,0,.94-.08,1.3-.25.36-.17.63-.41.82-.73.19-.32.28-.69.28-1.13s-.1-.79-.3-1.08c-.2-.29-.5-.51-.89-.66s-.87-.22-1.43-.22h-.86v-2.29h.78c.49,0,.91-.07,1.26-.2s.62-.33.81-.6c.19-.27.28-.59.28-.98,0-.35-.08-.66-.25-.92-.17-.26-.41-.46-.71-.61s-.66-.22-1.08-.22c-.54,0-.98.11-1.33.32-.35.21-.61.48-.78.81s-.28.68-.3,1.04h-3.05c.02-.86.25-1.64.68-2.33.43-.69,1.06-1.24,1.87-1.65.81-.41,1.8-.61,2.97-.61,1.01,0,1.9.16,2.69.47s1.39.77,1.84,1.37c.44.6.66,1.31.66,2.15,0,.74-.22,1.33-.65,1.79-.44.46-1.03.82-1.77,1.07v.04c.9.25,1.6.66,2.1,1.25.5.58.76,1.34.76,2.27,0,.76-.15,1.41-.44,1.96-.3.55-.71,1.01-1.23,1.38-.52.36-1.12.63-1.79.81-.67.18-1.38.26-2.12.26Z"/>
        </g>
        <g id="seat-1-4">
          <rect class="cls-2" x="199.82" y="306.69" width="51.57" height="51.57"/>
          <path class="cls-1" d="M226.82,339.92v-3.22h-6.68v-2.9l6.7-8.12h3.12v8.62h2.12v2.39h-2.12v3.22h-3.13ZM222.32,334.42c.46-.04.84-.07,1.16-.09.32-.02.61-.03.88-.03h2.46v-3.28c0-.28,0-.59.02-.93.02-.34.04-.76.07-1.25h-.04c-.32.45-.59.83-.82,1.14-.23.31-.45.59-.65.84l-1.45,1.75c-.2.24-.43.5-.69.78-.26.28-.58.62-.95,1.03v.04Z"/>
        </g>
        <g id="seat-1-5">
          <rect class="cls-2" x="258.22" y="306.69" width="51.57" height="51.57"/>
          <path class="cls-1" d="M283.96,340.21c-1.07,0-2.04-.17-2.88-.52-.85-.35-1.53-.85-2.04-1.49-.51-.65-.81-1.42-.89-2.32h3.22c.07.35.22.65.43.9.22.26.5.46.84.6.34.14.75.21,1.2.21.49,0,.93-.1,1.31-.31.38-.21.67-.5.89-.86s.32-.79.32-1.27c0-.51-.11-.96-.33-1.32-.22-.37-.51-.65-.88-.84s-.79-.29-1.25-.29c-.34,0-.65.04-.93.13s-.53.2-.75.34-.39.3-.54.47h-3.07l1.48-7.94h8.66v2.62h-6.33l-.63,3.14h.04c.33-.36.73-.65,1.2-.85.46-.21,1.05-.31,1.74-.31.87,0,1.67.2,2.41.6.74.4,1.33.96,1.78,1.69s.67,1.6.67,2.6-.24,1.91-.73,2.67-1.16,1.34-2.02,1.76c-.86.42-1.84.62-2.94.62Z"/>
        </g>
        <g id="seat-1-6">
          <rect class="cls-2" x="316.62" y="306.69" width="51.57" height="51.57"/>
          <path class="cls-1" d="M342.77,340.21c-1,0-1.88-.17-2.63-.52s-1.38-.83-1.88-1.43c-.55-.66-.95-1.44-1.21-2.34-.26-.9-.39-1.92-.41-3.04-.01-1.48.2-2.78.62-3.91s1.1-2.01,2-2.64c.9-.63,2.06-.95,3.47-.95.99,0,1.84.16,2.56.49.72.33,1.29.77,1.73,1.32.44.55.72,1.18.86,1.88h-3.12c-.07-.22-.17-.43-.33-.64-.15-.21-.36-.37-.63-.5-.27-.13-.6-.2-1-.2-.62,0-1.15.15-1.58.46-.44.31-.78.76-1.03,1.37-.25.61-.41,1.36-.48,2.26v.14h.04c.27-.38.57-.7.91-.96.34-.26.72-.47,1.15-.61.43-.14.9-.21,1.43-.21.9,0,1.74.21,2.5.63.76.42,1.38,1.01,1.85,1.76.46.75.7,1.61.71,2.6,0,.99-.24,1.86-.72,2.62-.48.76-1.14,1.35-1.97,1.78-.83.43-1.78.64-2.84.64ZM342.64,337.77c.48,0,.92-.11,1.3-.34.39-.22.69-.53.92-.92s.34-.82.34-1.3-.11-.95-.33-1.34c-.22-.39-.53-.7-.91-.92-.39-.22-.83-.34-1.31-.34-.53,0-1,.11-1.4.33s-.71.53-.94.91-.34.83-.34,1.33.12.94.35,1.33.55.7.96.92c.41.22.86.33,1.36.33Z"/>
        </g>
        <g id="seat-1-7">
          <rect class="cls-2" x="375.02" y="306.69" width="51.57" height="51.57"/>
          <path class="cls-1" d="M397.55,339.92c.06-1.29.26-2.52.6-3.68.34-1.17.76-2.24,1.27-3.24.51-.99,1.07-1.88,1.67-2.67s1.2-1.45,1.8-1.97v-.04c-.7.04-1.31.07-1.84.09s-1.06.03-1.6.03h-3.85v-2.75h10.46v2.5c-.64.63-1.26,1.36-1.85,2.2-.59.83-1.12,1.75-1.59,2.75-.47,1-.85,2.07-1.14,3.21-.29,1.14-.45,2.33-.49,3.58h-3.44Z"/>
        </g>
        <g id="seat-2-1">
          <rect class="cls-2" x="55.63" y="248.73" width="51.57" height="51.57"/>
          <path class="cls-1" d="M80.99,281.96v-9.15h-3.29v-2.19c.7-.02,1.32-.13,1.88-.34s1.02-.52,1.38-.95c.36-.42.6-.96.71-1.61h2.58v14.24h-3.26Z"/>
        </g>
        <g id="seat-2-2">
          <rect class="cls-2" x="114.03" y="248.73" width="51.57" height="51.57"/>
          <path class="cls-1" d="M134.34,281.96c.01-.85.14-1.59.39-2.22.25-.62.6-1.19,1.06-1.7s1.01-1.01,1.67-1.49c.65-.48,1.38-1.01,2.19-1.57.61-.42,1.07-.79,1.41-1.1s.56-.61.7-.89c.13-.29.2-.6.2-.93,0-.6-.17-1.08-.52-1.45-.35-.36-.83-.55-1.45-.55-.55,0-.99.12-1.33.36s-.59.56-.75.97c-.16.41-.24.88-.24,1.41h-3.1c0-1.15.22-2.13.66-2.92s1.07-1.4,1.89-1.82c.82-.42,1.81-.62,2.96-.62s2.04.2,2.81.61c.77.4,1.35.95,1.75,1.63s.6,1.45.6,2.29c0,.72-.13,1.36-.4,1.9s-.64,1.04-1.12,1.49c-.49.45-1.07.89-1.74,1.32-.78.5-1.38.9-1.81,1.21-.43.3-.76.55-.97.75-.21.2-.38.4-.5.6h6.52v2.72h-10.89Z"/>
        </g>
        <g id="seat-2-3">
          <rect class="cls-2" x="172.43" y="248.73" width="51.57" height="51.57"/>
          <path class="cls-1" d="M198.36,282.25c-1.2,0-2.24-.19-3.13-.57-.89-.38-1.59-.94-2.08-1.69s-.75-1.66-.77-2.75h3.09c.03.46.15.87.34,1.25s.49.68.89.9c.4.22.91.34,1.54.34.51,0,.94-.08,1.3-.25.36-.17.63-.41.82-.73.19-.32.28-.69.28-1.13s-.1-.79-.3-1.08c-.2-.29-.5-.51-.89-.66s-.87-.22-1.43-.22h-.86v-2.29h.78c.49,0,.91-.07,1.26-.2s.62-.33.81-.6c.19-.27.28-.59.28-.98,0-.35-.08-.66-.25-.92-.17-.26-.41-.46-.71-.61s-.66-.22-1.08-.22c-.54,0-.98.11-1.33.32-.35.21-.61.48-.78.81s-.28.68-.3,1.04h-3.05c.02-.86.25-1.64.68-2.33.43-.69,1.06-1.24,1.87-1.65.81-.41,1.8-.61,2.97-.61,1.01,0,1.9.16,2.69.47s1.39.77,1.84,1.37c.44.6.66,1.31.66,2.15,0,.74-.22,1.33-.65,1.79-.44.46-1.03.82-1.77,1.07v.04c.9.25,1.6.66,2.1,1.25.5.58.76,1.34.76,2.27,0,.76-.15,1.41-.44,1.96-.3.55-.71,1.01-1.23,1.38-.52.36-1.12.63-1.79.81-.67.18-1.38.26-2.12.26Z"/>
        </g>
        <g id="seat-2-4">
          <rect class="cls-2" x="230.83" y="248.73" width="51.57" height="51.57"/>
          <path class="cls-1" d="M257.83,281.96v-3.22h-6.68v-2.9l6.7-8.12h3.12v8.62h2.12v2.39h-2.12v3.22h-3.13ZM253.33,276.46c.46-.04.84-.07,1.16-.09.32-.02.61-.03.88-.03h2.46v-3.28c0-.28,0-.59.02-.93.02-.34.04-.76.07-1.25h-.04c-.32.45-.59.83-.82,1.14-.23.31-.45.59-.65.84l-1.45,1.75c-.2.24-.43.5-.69.78-.26.28-.58.62-.95,1.03v.04Z"/>
        </g>
        <g id="seat-2-5">
          <rect class="cls-2" x="289.23" y="248.73" width="51.57" height="51.57"/>
          <path class="cls-1" d="M314.97,282.25c-1.07,0-2.04-.17-2.88-.52-.85-.35-1.53-.85-2.04-1.49-.51-.65-.81-1.42-.89-2.32h3.22c.07.35.22.65.43.9.22.26.5.46.84.6.34.14.75.21,1.2.21.49,0,.93-.1,1.31-.31.38-.21.67-.5.89-.86s.32-.79.32-1.27c0-.51-.11-.96-.33-1.32-.22-.37-.51-.65-.88-.84s-.79-.29-1.25-.29c-.34,0-.65.04-.93.13s-.53.2-.75.34-.39.3-.54.47h-3.07l1.48-7.94h8.66v2.62h-6.33l-.63,3.14h.04c.33-.36.73-.65,1.2-.85.46-.21,1.05-.31,1.74-.31.87,0,1.67.2,2.41.6.74.4,1.33.96,1.78,1.69s.67,1.6.67,2.6-.24,1.91-.73,2.67-1.16,1.34-2.02,1.76c-.86.42-1.84.62-2.94.62Z"/>
        </g>
        <g id="seat-2-6">
          <rect class="cls-2" x="347.63" y="248.73" width="51.57" height="51.57"/>
          <path class="cls-1" d="M373.78,282.25c-1,0-1.88-.17-2.63-.52s-1.38-.83-1.88-1.43c-.55-.66-.95-1.44-1.21-2.34-.26-.9-.39-1.92-.41-3.04-.01-1.48.2-2.78.62-3.91s1.1-2.01,2-2.64c.9-.63,2.06-.95,3.47-.95.99,0,1.84.16,2.56.49.72.33,1.29.77,1.73,1.32.44.55.72,1.18.86,1.88h-3.12c-.07-.22-.17-.43-.33-.64-.15-.21-.36-.37-.63-.5-.27-.13-.6-.2-1-.2-.62,0-1.15.15-1.58.46-.44.31-.78.76-1.03,1.37-.25.61-.41,1.36-.48,2.26v.14h.04c.27-.38.57-.7.91-.96.34-.26.72-.47,1.15-.61.43-.14.9-.21,1.43-.21.9,0,1.74.21,2.5.63.76.42,1.38,1.01,1.85,1.76.46.75.7,1.61.71,2.6,0,.99-.24,1.86-.72,2.62-.48.76-1.14,1.35-1.97,1.78-.83.43-1.78.64-2.84.64ZM373.65,279.81c.48,0,.92-.11,1.3-.34.39-.22.69-.53.92-.92s.34-.82.34-1.3-.11-.95-.33-1.34c-.22-.39-.53-.7-.91-.92-.39-.22-.83-.34-1.31-.34-.53,0-1,.11-1.4.33s-.71.53-.94.91-.34.83-.34,1.33.12.94.35,1.33.55.7.96.92c.41.22.86.33,1.36.33Z"/>
        </g>
        <g id="seat-3-1">
          <rect class="cls-2" x="55.63" y="189.93" width="51.57" height="51.57"/>
          <path class="cls-1" d="M80.99,223.16v-9.15h-3.29v-2.19c.7-.02,1.32-.13,1.88-.34s1.02-.52,1.38-.95c.36-.42.6-.96.71-1.61h2.58v14.24h-3.26Z"/>
        </g>
        <g id="seat-3-2">
          <rect class="cls-2" x="114.03" y="189.93" width="51.57" height="51.57"/>
          <path class="cls-1" d="M134.34,223.16c.01-.85.14-1.59.39-2.22.25-.62.6-1.19,1.06-1.7s1.01-1.01,1.67-1.49c.65-.48,1.38-1.01,2.19-1.57.61-.42,1.07-.79,1.41-1.1s.56-.61.7-.89c.13-.29.2-.6.2-.93,0-.6-.17-1.08-.52-1.45-.35-.36-.83-.55-1.45-.55-.55,0-.99.12-1.33.36s-.59.56-.75.97c-.16.41-.24.88-.24,1.41h-3.1c0-1.15.22-2.13.66-2.92s1.07-1.4,1.89-1.82c.82-.42,1.81-.62,2.96-.62s2.04.2,2.81.61c.77.4,1.35.95,1.75,1.63s.6,1.45.6,2.29c0,.72-.13,1.36-.4,1.9s-.64,1.04-1.12,1.49c-.49.45-1.07.89-1.74,1.32-.78.5-1.38.9-1.81,1.21-.43.3-.76.55-.97.75-.21.2-.38.4-.5.6h6.52v2.72h-10.89Z"/>
        </g>
        <g id="seat-3-3">
          <rect class="cls-2" x="172.43" y="189.93" width="51.57" height="51.57"/>
          <path class="cls-1" d="M198.36,223.45c-1.2,0-2.24-.19-3.13-.57-.89-.38-1.59-.94-2.08-1.69s-.75-1.66-.77-2.75h3.09c.03.46.15.87.34,1.25s.49.68.89.9c.4.22.91.34,1.54.34.51,0,.94-.08,1.3-.25.36-.17.63-.41.82-.73.19-.32.28-.69.28-1.13s-.1-.79-.3-1.08c-.2-.29-.5-.51-.89-.66s-.87-.22-1.43-.22h-.86v-2.29h.78c.49,0,.91-.07,1.26-.2s.62-.33.81-.6c.19-.27.28-.59.28-.98,0-.35-.08-.66-.25-.92-.17-.26-.41-.46-.71-.61s-.66-.22-1.08-.22c-.54,0-.98.11-1.33.32-.35.21-.61.48-.78.81s-.28.68-.3,1.04h-3.05c.02-.86.25-1.64.68-2.33.43-.69,1.06-1.24,1.87-1.65.81-.41,1.8-.61,2.97-.61,1.01,0,1.9.16,2.69.47s1.39.77,1.84,1.37c.44.6.66,1.31.66,2.15,0,.74-.22,1.33-.65,1.79-.44.46-1.03.82-1.77,1.07v.04c.9.25,1.6.66,2.1,1.25.5.58.76,1.34.76,2.27,0,.76-.15,1.41-.44,1.96-.3.55-.71,1.01-1.23,1.38-.52.36-1.12.63-1.79.81-.67.18-1.38.26-2.12.26Z"/>
        </g>
        <g id="seat-3-4">
          <rect class="cls-2" x="230.83" y="189.93" width="51.57" height="51.57"/>
          <path class="cls-1" d="M257.83,223.16v-3.22h-6.68v-2.9l6.7-8.12h3.12v8.62h2.12v2.39h-2.12v3.22h-3.13ZM253.33,217.66c.46-.04.84-.07,1.16-.09.32-.02.61-.03.88-.03h2.46v-3.28c0-.28,0-.59.02-.93.02-.34.04-.76.07-1.25h-.04c-.32.45-.59.83-.82,1.14-.23.31-.45.59-.65.84l-1.45,1.75c-.2.24-.43.5-.69.78-.26.28-.58.62-.95,1.03v.04Z"/>
        </g>
        <g id="seat-3-5">
          <rect class="cls-2" x="289.23" y="189.93" width="51.57" height="51.57"/>
          <path class="cls-1" d="M314.97,223.45c-1.07,0-2.04-.17-2.88-.52-.85-.35-1.53-.85-2.04-1.49-.51-.65-.81-1.42-.89-2.32h3.22c.07.35.22.65.43.9.22.26.5.46.84.6.34.14.75.21,1.2.21.49,0,.93-.1,1.31-.31.38-.21.67-.5.89-.86s.32-.79.32-1.27c0-.51-.11-.96-.33-1.32-.22-.37-.51-.65-.88-.84s-.79-.29-1.25-.29c-.34,0-.65.04-.93.13s-.53.2-.75.34-.39.3-.54.47h-3.07l1.48-7.94h8.66v2.62h-6.33l-.63,3.14h.04c.33-.36.73-.65,1.2-.85.46-.21,1.05-.31,1.74-.31.87,0,1.67.2,2.41.6.74.4,1.33.96,1.78,1.69s.67,1.6.67,2.6-.24,1.91-.73,2.67-1.16,1.34-2.02,1.76c-.86.42-1.84.62-2.94.62Z"/>
        </g>
        <g id="seat-3-6">
          <rect class="cls-2" x="347.63" y="189.93" width="51.57" height="51.57"/>
          <path class="cls-1" d="M373.78,223.45c-1,0-1.88-.17-2.63-.52s-1.38-.83-1.88-1.43c-.55-.66-.95-1.44-1.21-2.34-.26-.9-.39-1.92-.41-3.04-.01-1.48.2-2.78.62-3.91s1.1-2.01,2-2.64c.9-.63,2.06-.95,3.47-.95.99,0,1.84.16,2.56.49.72.33,1.29.77,1.73,1.32.44.55.72,1.18.86,1.88h-3.12c-.07-.22-.17-.43-.33-.64-.15-.21-.36-.37-.63-.5-.27-.13-.6-.2-1-.2-.62,0-1.15.15-1.58.46-.44.31-.78.76-1.03,1.37-.25.61-.41,1.36-.48,2.26v.14h.04c.27-.38.57-.7.91-.96.34-.26.72-.47,1.15-.61.43-.14.9-.21,1.43-.21.9,0,1.74.21,2.5.63.76.42,1.38,1.01,1.85,1.76.46.75.7,1.61.71,2.6,0,.99-.24,1.86-.72,2.62-.48.76-1.14,1.35-1.97,1.78-.83.43-1.78.64-2.84.64ZM373.65,221.01c.48,0,.92-.11,1.3-.34.39-.22.69-.53.92-.92s.34-.82.34-1.3-.11-.95-.33-1.34c-.22-.39-.53-.7-.91-.92-.39-.22-.83-.34-1.31-.34-.53,0-1,.11-1.4.33s-.71.53-.94.91-.34.83-.34,1.33.12.94.35,1.33.55.7.96.92c.41.22.86.33,1.36.33Z"/>
        </g>
        <g id="seat-4-1">
          <rect class="cls-2" x="55.63" y="131.13" width="51.57" height="51.57"/>
          <path class="cls-1" d="M80.99,164.36v-9.15h-3.29v-2.19c.7-.02,1.32-.13,1.88-.34s1.02-.52,1.38-.95c.36-.42.6-.96.71-1.61h2.58v14.24h-3.26Z"/>
        </g>
        <g id="seat-4-2">
          <rect class="cls-2" x="114.03" y="131.13" width="51.57" height="51.57"/>
          <path class="cls-1" d="M134.34,164.36c.01-.85.14-1.59.39-2.22.25-.62.6-1.19,1.06-1.7s1.01-1.01,1.67-1.49c.65-.48,1.38-1.01,2.19-1.57.61-.42,1.07-.79,1.41-1.1s.56-.61.7-.89c.13-.29.2-.6.2-.93,0-.6-.17-1.08-.52-1.45-.35-.36-.83-.55-1.45-.55-.55,0-.99.12-1.33.36s-.59.56-.75.97c-.16.41-.24.88-.24,1.41h-3.1c0-1.15.22-2.13.66-2.92s1.07-1.4,1.89-1.82c.82-.42,1.81-.62,2.96-.62s2.04.2,2.81.61c.77.4,1.35.95,1.75,1.63s.6,1.45.6,2.29c0,.72-.13,1.36-.4,1.9s-.64,1.04-1.12,1.49c-.49.45-1.07.89-1.74,1.32-.78.5-1.38.9-1.81,1.21-.43.3-.76.55-.97.75-.21.2-.38.4-.5.6h6.52v2.72h-10.89Z"/>
        </g>
        <g id="seat-4-3">
          <rect class="cls-2" x="172.43" y="131.13" width="51.57" height="51.57"/>
          <path class="cls-1" d="M198.36,164.65c-1.2,0-2.24-.19-3.13-.57-.89-.38-1.59-.94-2.08-1.69s-.75-1.66-.77-2.75h3.09c.03.46.15.87.34,1.25s.49.68.89.9c.4.22.91.34,1.54.34.51,0,.94-.08,1.3-.25.36-.17.63-.41.82-.73.19-.32.28-.69.28-1.13s-.1-.79-.3-1.08c-.2-.29-.5-.51-.89-.66s-.87-.22-1.43-.22h-.86v-2.29h.78c.49,0,.91-.07,1.26-.2s.62-.33.81-.6c.19-.27.28-.59.28-.98,0-.35-.08-.66-.25-.92-.17-.26-.41-.46-.71-.61s-.66-.22-1.08-.22c-.54,0-.98.11-1.33.32-.35.21-.61.48-.78.81s-.28.68-.3,1.04h-3.05c.02-.86.25-1.64.68-2.33.43-.69,1.06-1.24,1.87-1.65.81-.41,1.8-.61,2.97-.61,1.01,0,1.9.16,2.69.47s1.39.77,1.84,1.37c.44.6.66,1.31.66,2.15,0,.74-.22,1.33-.65,1.79-.44.46-1.03.82-1.77,1.07v.04c.9.25,1.6.66,2.1,1.25.5.58.76,1.34.76,2.27,0,.76-.15,1.41-.44,1.96-.3.55-.71,1.01-1.23,1.38-.52.36-1.12.63-1.79.81-.67.18-1.38.26-2.12.26Z"/>
        </g>
        <g id="seat-4-4">
          <rect class="cls-2" x="230.83" y="131.13" width="51.57" height="51.57"/>
          <path class="cls-1" d="M257.83,164.36v-3.22h-6.68v-2.9l6.7-8.12h3.12v8.62h2.12v2.39h-2.12v3.22h-3.13ZM253.33,158.86c.46-.04.84-.07,1.16-.09.32-.02.61-.03.88-.03h2.46v-3.28c0-.28,0-.59.02-.93.02-.34.04-.76.07-1.25h-.04c-.32.45-.59.83-.82,1.14-.23.31-.45.59-.65.84l-1.45,1.75c-.2.24-.43.5-.69.78-.26.28-.58.62-.95,1.03v.04Z"/>
        </g>
        <g id="seat-4-5">
          <rect class="cls-2" x="289.23" y="131.13" width="51.57" height="51.57"/>
          <path class="cls-1" d="M314.97,164.65c-1.07,0-2.04-.17-2.88-.52-.85-.35-1.53-.85-2.04-1.49-.51-.65-.81-1.42-.89-2.32h3.22c.07.35.22.65.43.9.22.26.5.46.84.6.34.14.75.21,1.2.21.49,0,.93-.1,1.31-.31.38-.21.67-.5.89-.86s.32-.79.32-1.27c0-.51-.11-.96-.33-1.32-.22-.37-.51-.65-.88-.84s-.79-.29-1.25-.29c-.34,0-.65.04-.93.13s-.53.2-.75.34-.39.3-.54.47h-3.07l1.48-7.94h8.66v2.62h-6.33l-.63,3.14h.04c.33-.36.73-.65,1.2-.85.46-.21,1.05-.31,1.74-.31.87,0,1.67.2,2.41.6.74.4,1.33.96,1.78,1.69s.67,1.6.67,2.6-.24,1.91-.73,2.67-1.16,1.34-2.02,1.76c-.86.42-1.84.62-2.94.62Z"/>
        </g>
        <g id="seat-4-6">
          <rect class="cls-2" x="347.63" y="131.13" width="51.57" height="51.57"/>
          <path class="cls-1" d="M373.78,164.65c-1,0-1.88-.17-2.63-.52s-1.38-.83-1.88-1.43c-.55-.66-.95-1.44-1.21-2.34-.26-.9-.39-1.92-.41-3.04-.01-1.48.2-2.78.62-3.91s1.1-2.01,2-2.64c.9-.63,2.06-.95,3.47-.95.99,0,1.84.16,2.56.49.72.33,1.29.77,1.73,1.32.44.55.72,1.18.86,1.88h-3.12c-.07-.22-.17-.43-.33-.64-.15-.21-.36-.37-.63-.5-.27-.13-.6-.2-1-.2-.62,0-1.15.15-1.58.46-.44.31-.78.76-1.03,1.37-.25.61-.41,1.36-.48,2.26v.14h.04c.27-.38.57-.7.91-.96.34-.26.72-.47,1.15-.61.43-.14.9-.21,1.43-.21.9,0,1.74.21,2.5.63.76.42,1.38,1.01,1.85,1.76.46.75.7,1.61.71,2.6,0,.99-.24,1.86-.72,2.62-.48.76-1.14,1.35-1.97,1.78-.83.43-1.78.64-2.84.64ZM373.65,162.21c.48,0,.92-.11,1.3-.34.39-.22.69-.53.92-.92s.34-.82.34-1.3-.11-.95-.33-1.34c-.22-.39-.53-.7-.91-.92-.39-.22-.83-.34-1.31-.34-.53,0-1,.11-1.4.33s-.71.53-.94.91-.34.83-.34,1.33.12.94.35,1.33.55.7.96.92c.41.22.86.33,1.36.33Z"/>
        </g>
        <g id="seat-5-1">
          <rect class="cls-2" x="55.63" y="72.33" width="51.57" height="51.57"/>
          <path class="cls-1" d="M80.99,105.56v-9.15h-3.29v-2.19c.7-.02,1.32-.13,1.88-.34s1.02-.52,1.38-.95c.36-.42.6-.96.71-1.61h2.58v14.24h-3.26Z"/>
        </g>
        <g id="seat-5-2">
          <rect class="cls-2" x="114.03" y="72.33" width="51.57" height="51.57"/>
          <path class="cls-1" d="M134.34,105.56c.01-.85.14-1.59.39-2.22.25-.62.6-1.19,1.06-1.7s1.01-1.01,1.67-1.49c.65-.48,1.38-1.01,2.19-1.57.61-.42,1.07-.79,1.41-1.1s.56-.61.7-.89c.13-.29.2-.6.2-.93,0-.6-.17-1.08-.52-1.45-.35-.36-.83-.55-1.45-.55-.55,0-.99.12-1.33.36s-.59.56-.75.97c-.16.41-.24.88-.24,1.41h-3.1c0-1.15.22-2.13.66-2.92s1.07-1.4,1.89-1.82c.82-.42,1.81-.62,2.96-.62s2.04.2,2.81.61c.77.4,1.35.95,1.75,1.63s.6,1.45.6,2.29c0,.72-.13,1.36-.4,1.9s-.64,1.04-1.12,1.49c-.49.45-1.07.89-1.74,1.32-.78.5-1.38.9-1.81,1.21-.43.3-.76.55-.97.75-.21.2-.38.4-.5.6h6.52v2.72h-10.89Z"/>
        </g>
        <g id="seat-5-3">
          <rect class="cls-2" x="172.43" y="72.33" width="51.57" height="51.57"/>
          <path class="cls-1" d="M198.36,105.85c-1.2,0-2.24-.19-3.13-.57-.89-.38-1.59-.94-2.08-1.69s-.75-1.66-.77-2.75h3.09c.03.46.15.87.34,1.25s.49.68.89.9c.4.22.91.34,1.54.34.51,0,.94-.08,1.3-.25.36-.17.63-.41.82-.73.19-.32.28-.69.28-1.13s-.1-.79-.3-1.08c-.2-.29-.5-.51-.89-.66s-.87-.22-1.43-.22h-.86v-2.29h.78c.49,0,.91-.07,1.26-.2s.62-.33.81-.6c.19-.27.28-.59.28-.98,0-.35-.08-.66-.25-.92-.17-.26-.41-.46-.71-.61s-.66-.22-1.08-.22c-.54,0-.98.11-1.33.32-.35.21-.61.48-.78.81s-.28.68-.3,1.04h-3.05c.02-.86.25-1.64.68-2.33.43-.69,1.06-1.24,1.87-1.65.81-.41,1.8-.61,2.97-.61,1.01,0,1.9.16,2.69.47s1.39.77,1.84,1.37c.44.6.66,1.31.66,2.15,0,.74-.22,1.33-.65,1.79-.44.46-1.03.82-1.77,1.07v.04c.9.25,1.6.66,2.1,1.25.5.58.76,1.34.76,2.27,0,.76-.15,1.41-.44,1.96-.3.55-.71,1.01-1.23,1.38-.52.36-1.12.63-1.79.81-.67.18-1.38.26-2.12.26Z"/>
        </g>
        <g id="seat-5-4">
          <rect class="cls-2" x="230.83" y="72.33" width="51.57" height="51.57"/>
          <path class="cls-1" d="M257.83,105.56v-3.22h-6.68v-2.9l6.7-8.12h3.12v8.62h2.12v2.39h-2.12v3.22h-3.13ZM253.33,100.06c.46-.04.84-.07,1.16-.09.32-.02.61-.03.88-.03h2.46v-3.28c0-.28,0-.59.02-.93.02-.34.04-.76.07-1.25h-.04c-.32.45-.59.83-.82,1.14-.23.31-.45.59-.65.84l-1.45,1.75c-.2.24-.43.5-.69.78-.26.28-.58.62-.95,1.03v.04Z"/>
        </g>
        <g id="seat-5-5">
          <rect class="cls-2" x="289.23" y="72.33" width="51.57" height="51.57"/>
          <path class="cls-1" d="M314.97,105.85c-1.07,0-2.04-.17-2.88-.52-.85-.35-1.53-.85-2.04-1.49-.51-.65-.81-1.42-.89-2.32h3.22c.07.35.22.65.43.9.22.26.5.46.84.6.34.14.75.21,1.2.21.49,0,.93-.1,1.31-.31.38-.21.67-.5.89-.86s.32-.79.32-1.27c0-.51-.11-.96-.33-1.32-.22-.37-.51-.65-.88-.84s-.79-.29-1.25-.29c-.34,0-.65.04-.93.13s-.53.2-.75.34-.39.3-.54.47h-3.07l1.48-7.94h8.66v2.62h-6.33l-.63,3.14h.04c.33-.36.73-.65,1.2-.85.46-.21,1.05-.31,1.74-.31.87,0,1.67.2,2.41.6.74.4,1.33.96,1.78,1.69s.67,1.6.67,2.6-.24,1.91-.73,2.67-1.16,1.34-2.02,1.76c-.86.42-1.84.62-2.94.62Z"/>
        </g>
        <g id="seat-5-6">
          <rect class="cls-2" x="347.63" y="72.33" width="51.57" height="51.57"/>
          <path class="cls-1" d="M373.78,105.85c-1,0-1.88-.17-2.63-.52s-1.38-.83-1.88-1.43c-.55-.66-.95-1.44-1.21-2.34-.26-.9-.39-1.92-.41-3.04-.01-1.48.2-2.78.62-3.91s1.1-2.01,2-2.64c.9-.63,2.06-.95,3.47-.95.99,0,1.84.16,2.56.49.72.33,1.29.77,1.73,1.32.44.55.72,1.18.86,1.88h-3.12c-.07-.22-.17-.43-.33-.64-.15-.21-.36-.37-.63-.5-.27-.13-.6-.2-1-.2-.62,0-1.15.15-1.58.46-.44.31-.78.76-1.03,1.37-.25.61-.41,1.36-.48,2.26v.14h.04c.27-.38.57-.7.91-.96.34-.26.72-.47,1.15-.61.43-.14.9-.21,1.43-.21.9,0,1.74.21,2.5.63.76.42,1.38,1.01,1.85,1.76.46.75.7,1.61.71,2.6,0,.99-.24,1.86-.72,2.62-.48.76-1.14,1.35-1.97,1.78-.83.43-1.78.64-2.84.64ZM373.65,103.41c.48,0,.92-.11,1.3-.34.39-.22.69-.53.92-.92s.34-.82.34-1.3-.11-.95-.33-1.34c-.22-.39-.53-.7-.91-.92-.39-.22-.83-.34-1.31-.34-.53,0-1,.11-1.4.33s-.71.53-.94.91-.34.83-.34,1.33.12.94.35,1.33.55.7.96.92c.41.22.86.33,1.36.33Z"/>
        </g>
        <path class="cls-2" d="M4.09,342.43v-11.44H0v-2.73c.87-.02,1.64-.17,2.34-.43.69-.26,1.26-.65,1.72-1.18.45-.53.75-1.2.89-2.01h3.2v17.8h-4.05Z"/>
        <path class="cls-2" d="M26.68,284.47c.02-1.07.18-1.99.49-2.77.31-.78.75-1.49,1.32-2.13.57-.64,1.26-1.26,2.07-1.87.81-.61,1.71-1.26,2.72-1.96.75-.53,1.33-.99,1.75-1.37.41-.39.7-.76.87-1.12.17-.36.25-.74.25-1.16,0-.75-.21-1.35-.64-1.81-.43-.46-1.03-.68-1.8-.68-.68,0-1.23.15-1.66.45-.42.3-.74.7-.93,1.21s-.3,1.1-.3,1.76h-3.85c0-1.44.27-2.66.82-3.66.55-1,1.33-1.76,2.35-2.28,1.02-.52,2.25-.78,3.68-.78s2.54.25,3.49.76c.95.5,1.68,1.18,2.18,2.04s.75,1.81.75,2.87c0,.9-.16,1.7-.49,2.38s-.79,1.3-1.4,1.86c-.6.56-1.32,1.11-2.17,1.65-.96.63-1.71,1.13-2.25,1.51-.54.38-.94.69-1.2.94-.26.25-.47.5-.62.75h8.1v3.41h-13.53Z"/>
        <path class="cls-2" d="M33.35,226.04c-1.49,0-2.79-.24-3.89-.71-1.11-.48-1.97-1.18-2.59-2.11-.62-.93-.94-2.08-.95-3.44h3.83c.04.57.18,1.09.42,1.56.24.47.61.85,1.1,1.13.49.28,1.13.42,1.92.42.63,0,1.17-.11,1.61-.32.45-.21.78-.51,1.02-.91.23-.4.35-.86.35-1.41s-.13-.99-.38-1.35c-.25-.36-.62-.64-1.1-.82-.49-.19-1.08-.28-1.77-.28h-1.07v-2.86h.97c.61,0,1.13-.08,1.57-.25.44-.17.77-.42,1.01-.75.23-.33.35-.74.35-1.22,0-.44-.11-.82-.32-1.15-.21-.33-.5-.58-.88-.76-.38-.18-.82-.27-1.34-.27-.67,0-1.22.13-1.65.4-.43.26-.75.6-.97,1.01-.22.41-.34.84-.38,1.3h-3.79c.02-1.07.31-2.04.84-2.91.54-.87,1.31-1.55,2.32-2.06,1.01-.51,2.24-.76,3.69-.76,1.25,0,2.37.2,3.34.59.97.4,1.73.96,2.28,1.71.55.75.83,1.64.83,2.69,0,.92-.27,1.67-.81,2.24-.54.57-1.27,1.02-2.2,1.34v.05c1.12.31,1.99.83,2.61,1.56.63.73.94,1.67.94,2.84,0,.94-.18,1.76-.55,2.45-.37.69-.88,1.27-1.52,1.72-.65.46-1.39.79-2.22,1.01s-1.71.33-2.63.33Z"/>
        <path class="cls-2" d="M34.44,166.87v-4.03h-8.3v-3.63l8.32-10.14h3.87v10.78h2.63v2.99h-2.63v4.03h-3.89ZM28.85,160c.57-.05,1.05-.09,1.44-.11s.76-.04,1.09-.04h3.06v-4.1c0-.35,0-.74.03-1.16.02-.42.05-.94.09-1.56h-.05c-.4.56-.74,1.04-1.02,1.42-.28.39-.55.74-.81,1.06l-1.79,2.19c-.25.3-.54.63-.86.98-.32.35-.71.78-1.18,1.28v.05Z"/>
        <path class="cls-2" d="M33.18,108.44c-1.33,0-2.53-.22-3.58-.65-1.05-.44-1.9-1.06-2.54-1.87-.64-.81-1.01-1.78-1.1-2.9h4c.09.43.27.81.54,1.13.27.32.62.57,1.05.75s.93.27,1.49.27c.61,0,1.16-.13,1.63-.39.47-.26.84-.62,1.1-1.08.27-.46.4-.99.4-1.59,0-.64-.14-1.19-.41-1.65-.27-.46-.64-.81-1.1-1.06s-.98-.37-1.55-.37c-.42,0-.81.05-1.16.16-.35.11-.66.25-.93.42s-.49.37-.67.59h-3.81l1.84-9.92h10.76v3.27h-7.86l-.79,3.93h.05c.41-.46.91-.81,1.49-1.07.58-.26,1.3-.38,2.17-.38,1.08,0,2.07.25,2.99.75.92.5,1.66,1.2,2.21,2.11.56.91.84,1.99.84,3.25s-.3,2.39-.91,3.33-1.44,1.68-2.5,2.2-2.28.78-3.66.78Z"/>
        <path class="cls-2" d="M446.61,339.92v-11.44h-4.09v-2.73c.87-.02,1.64-.17,2.33-.43.69-.26,1.26-.65,1.72-1.18.45-.53.75-1.2.89-2.01h3.2v17.8h-4.05Z"/>
        <path class="cls-2" d="M422.69,281.96c.02-1.07.18-1.99.48-2.77.31-.78.75-1.49,1.32-2.13.57-.64,1.26-1.26,2.07-1.87.81-.61,1.71-1.26,2.72-1.96.75-.53,1.33-.99,1.75-1.37.41-.39.7-.76.87-1.12.17-.36.25-.74.25-1.16,0-.75-.21-1.35-.64-1.81-.43-.46-1.03-.68-1.79-.68-.68,0-1.23.15-1.66.45-.42.3-.74.7-.93,1.21s-.3,1.1-.3,1.76h-3.85c0-1.44.27-2.66.82-3.66.55-1,1.33-1.76,2.35-2.28,1.02-.52,2.25-.78,3.68-.78s2.54.25,3.49.76c.95.5,1.68,1.18,2.18,2.04s.75,1.81.75,2.87c0,.9-.16,1.7-.49,2.38s-.79,1.3-1.4,1.86c-.6.56-1.32,1.11-2.17,1.65-.96.63-1.71,1.13-2.25,1.51-.54.38-.94.69-1.2.94-.26.25-.47.5-.62.75h8.1v3.41h-13.53Z"/>
        <path class="cls-2" d="M429.36,223.53c-1.49,0-2.79-.24-3.89-.71-1.11-.48-1.97-1.18-2.59-2.11-.62-.93-.94-2.08-.95-3.44h3.83c.04.57.18,1.09.42,1.56.24.47.61.85,1.1,1.13.49.28,1.13.42,1.92.42.63,0,1.17-.11,1.61-.32.45-.21.79-.51,1.02-.91.23-.4.35-.86.35-1.41s-.12-.99-.38-1.35c-.25-.36-.62-.64-1.1-.82-.48-.19-1.08-.28-1.77-.28h-1.07v-2.86h.97c.61,0,1.13-.08,1.56-.25.44-.17.77-.42,1.01-.75.23-.33.35-.74.35-1.22,0-.44-.1-.82-.32-1.15-.21-.33-.5-.58-.88-.76-.38-.18-.82-.27-1.34-.27-.67,0-1.22.13-1.65.4-.43.26-.75.6-.97,1.01-.22.41-.34.84-.38,1.3h-3.79c.02-1.07.31-2.04.84-2.91.54-.87,1.31-1.55,2.32-2.06,1.01-.51,2.24-.76,3.69-.76,1.25,0,2.37.2,3.34.59.97.4,1.73.96,2.28,1.71.55.75.83,1.64.83,2.69,0,.92-.27,1.67-.81,2.24-.54.57-1.27,1.02-2.2,1.34v.05c1.12.31,1.99.83,2.61,1.56.63.73.94,1.67.94,2.84,0,.94-.18,1.76-.55,2.45-.37.69-.88,1.27-1.52,1.72-.65.46-1.39.79-2.22,1.01s-1.71.33-2.63.33Z"/>
        <path class="cls-2" d="M430.45,164.36v-4.03h-8.3v-3.63l8.32-10.14h3.87v10.78h2.63v2.99h-2.63v4.03h-3.89ZM424.86,157.49c.57-.05,1.05-.09,1.44-.11s.76-.04,1.09-.04h3.06v-4.1c0-.35,0-.74.03-1.16.02-.42.05-.94.09-1.56h-.05c-.4.56-.74,1.04-1.02,1.42-.28.39-.55.74-.81,1.06l-1.79,2.19c-.25.3-.54.63-.86.98-.32.35-.71.78-1.18,1.28v.05Z"/>
        <path class="cls-2" d="M429.19,105.93c-1.33,0-2.53-.22-3.58-.65-1.05-.44-1.9-1.06-2.54-1.87-.64-.81-1.01-1.78-1.1-2.9h4c.09.43.27.81.54,1.13.27.32.62.57,1.05.75.43.18.93.27,1.49.27.61,0,1.16-.13,1.63-.39.47-.26.84-.62,1.1-1.08.27-.46.4-.99.4-1.59,0-.64-.14-1.19-.41-1.65-.27-.46-.64-.81-1.1-1.06s-.98-.37-1.55-.37c-.42,0-.81.05-1.16.16-.35.11-.66.25-.93.42-.27.18-.49.37-.67.59h-3.81l1.84-9.92h10.76v3.27h-7.86l-.79,3.93h.05c.41-.46.91-.81,1.49-1.07.58-.26,1.3-.38,2.17-.38,1.08,0,2.07.25,2.99.74.92.5,1.66,1.2,2.21,2.11.56.91.84,1.99.84,3.25s-.3,2.39-.91,3.33c-.61.94-1.44,1.68-2.5,2.2s-2.28.78-3.66.78Z"/>
      </g>
      <g>
        <path d="M50.99,44.13L66.89,0h10.51l15.95,44.13h-10.68l-2.78-8.43h-16.01l-2.72,8.43h-10.16ZM66.25,28.46h11.32l-2.66-8.22c-.66-2.03-1.19-3.93-1.61-5.72-.42-1.79-.83-3.8-1.23-6.04h-.15c-.35,1.6-.66,3.02-.94,4.26-.28,1.24-.6,2.52-.96,3.87-.36,1.34-.71,2.55-1.06,3.63l-2.72,8.22Z"/>
        <path d="M114.46,45c-2.97,0-5.57-.52-7.8-1.55-2.23-1.03-4.09-2.45-5.57-4.24-1.62-1.95-2.81-4.27-3.58-6.95-.76-2.68-1.16-5.68-1.2-9-.04-4.38.58-8.24,1.85-11.58,1.27-3.34,3.25-5.95,5.94-7.82,2.68-1.87,6.11-2.81,10.28-2.81,2.93,0,5.46.48,7.59,1.45,2.12.97,3.83,2.27,5.12,3.91,1.29,1.64,2.14,3.49,2.55,5.56h-9.27c-.19-.66-.52-1.29-.97-1.9-.45-.61-1.08-1.1-1.87-1.49-.79-.39-1.78-.58-2.95-.58-1.83,0-3.4.45-4.69,1.36-1.29.91-2.31,2.26-3.04,4.07-.73,1.8-1.21,4.04-1.42,6.7v.41h.12c.79-1.12,1.69-2.07,2.69-2.85,1-.78,2.14-1.38,3.4-1.79,1.26-.42,2.68-.62,4.24-.62,2.68,0,5.16.63,7.43,1.88,2.27,1.26,4.09,2.99,5.47,5.21,1.38,2.22,2.08,4.79,2.1,7.7,0,2.93-.71,5.53-2.14,7.77-1.43,2.25-3.38,4.01-5.85,5.27-2.47,1.26-5.28,1.9-8.43,1.9ZM114.08,37.76c1.43,0,2.72-.33,3.87-1,1.15-.67,2.06-1.57,2.72-2.72.67-1.15,1-2.44,1-3.87s-.33-2.81-.98-3.97-1.56-2.07-2.71-2.74-2.45-1-3.89-1c-1.58,0-2.97.33-4.15.98-1.19.66-2.11,1.56-2.78,2.71-.67,1.15-1,2.47-1,3.95s.35,2.78,1.04,3.94c.69,1.16,1.64,2.07,2.85,2.72,1.21.66,2.55.98,4.04.98Z"/>
        <path d="M135.13,32.46v-8.08h16.79v8.08h-16.79Z"/>
        <path d="M170.46,45c-3.03,0-5.65-.45-7.86-1.36-2.21-.91-3.93-2.17-5.17-3.79s-1.93-3.48-2.08-5.59h8.77c.27,1.49.95,2.63,2.04,3.43,1.09.8,2.54,1.2,4.36,1.2,1.66,0,2.94-.32,3.85-.97.91-.65,1.36-1.53,1.36-2.65,0-.95-.37-1.66-1.12-2.13-.74-.47-1.73-.84-2.95-1.1-1.23-.26-2.57-.53-4.04-.8-1.41-.27-2.79-.59-4.14-.97-1.35-.38-2.57-.91-3.65-1.59-1.08-.69-1.94-1.61-2.58-2.78-.64-1.17-.96-2.67-.96-4.5,0-2.16.59-3.97,1.77-5.43,1.18-1.46,2.77-2.56,4.78-3.3,2.01-.74,4.25-1.11,6.72-1.11,2.93,0,5.39.39,7.35,1.17,1.97.78,3.5,1.87,4.6,3.27,1.1,1.4,1.79,3.02,2.06,4.85h-8.66c-.19-.75-.52-1.38-.98-1.88-.46-.5-1.06-.87-1.78-1.11-.72-.24-1.59-.36-2.59-.36-1.41,0-2.54.28-3.39.84-.85.56-1.27,1.34-1.27,2.35,0,.79.35,1.39,1.04,1.79.7.41,1.63.72,2.79.96,1.17.23,2.47.48,3.92.75,1.41.25,2.82.57,4.24.96,1.42.39,2.72.94,3.89,1.67,1.18.72,2.12,1.71,2.84,2.95.71,1.25,1.07,2.86,1.07,4.85,0,2.28-.62,4.19-1.85,5.73-1.24,1.54-2.92,2.71-5.07,3.49s-4.58,1.17-7.33,1.17Z"/>
        <path d="M204.51,44.97c-3.44,0-6.4-.73-8.9-2.2s-4.42-3.46-5.76-5.98-2.01-5.35-2.01-8.5.68-6.01,2.06-8.53,3.27-4.51,5.7-5.98c2.43-1.47,5.24-2.2,8.43-2.2,2.26,0,4.3.35,6.14,1.06,1.83.71,3.41,1.69,4.72,2.97,1.78,1.72,3.08,3.87,3.91,6.46.83,2.59,1.23,5.43,1.19,8.54h-22.99c.19,1.58.6,2.94,1.23,4.07.63,1.13,1.48,2,2.55,2.61s2.36.91,3.87.91,2.64-.27,3.59-.81c.95-.54,1.67-1.29,2.17-2.26h9c-.52,1.85-1.44,3.52-2.75,5.01s-2.99,2.66-5.02,3.53-4.41,1.3-7.11,1.3ZM197.04,25.22h13.46c-.1-1.47-.43-2.73-1-3.78-.57-1.05-1.32-1.86-2.24-2.43-.93-.57-2.01-.85-3.24-.85-1.41,0-2.6.29-3.56.87s-1.73,1.39-2.29,2.45c-.56,1.05-.94,2.3-1.13,3.75Z"/>
        <path d="M224.66,44.13V0h9.29v13.49c0,2.34-.03,4.37-.1,6.11s-.13,3.12-.19,4.14l10.45-11.47h10.89l-11.35,11.81,12.68,20.04h-10.92l-8.31-13.87-3.16,3.3v10.57h-9.29Z"/>
        <path d="M271.97,44.47c-1.97,0-3.7-.25-5.2-.75-1.5-.5-2.66-1.36-3.49-2.58-.83-1.22-1.25-2.9-1.25-5.04v-17.84h-4.81v-5.99h4.81V2.11h9.18v10.16h6.22v5.99h-6.22v15.81c0,1.18.31,1.98.94,2.4.63.42,1.5.64,2.62.64.31,0,.67-.01,1.07-.04.4-.03.76-.05,1.07-.07h.46v7.01c-.5.08-1.22.17-2.14.29s-2.02.17-3.27.17Z"/>
        <path d="M297.39,44.97c-3.36,0-6.29-.74-8.8-2.22-2.51-1.48-4.46-3.48-5.85-6.01s-2.08-5.37-2.08-8.51.7-6.01,2.08-8.53,3.34-4.51,5.85-5.98c2.51-1.47,5.44-2.2,8.8-2.2s6.25.73,8.75,2.2c2.49,1.47,4.42,3.46,5.79,5.98,1.37,2.52,2.06,5.36,2.06,8.53s-.69,5.98-2.06,8.51c-1.37,2.53-3.3,4.53-5.79,6.01-2.49,1.48-5.41,2.22-8.75,2.22ZM297.33,38.19c1.54,0,2.86-.42,3.94-1.26,1.08-.84,1.9-2.01,2.46-3.5.56-1.5.84-3.23.84-5.2s-.28-3.76-.84-5.27c-.56-1.51-1.38-2.68-2.46-3.53-1.08-.85-2.39-1.27-3.94-1.27s-2.91.42-3.98,1.27c-1.07.85-1.88,2.03-2.43,3.53-.55,1.51-.83,3.26-.83,5.27s.27,3.7.83,5.2c.55,1.5,1.36,2.66,2.43,3.5,1.07.84,2.4,1.26,3.98,1.26Z"/>
        <path d="M318.47,44.13V12.28h9.06v5.7h.17c1.02-2.24,2.26-3.84,3.72-4.81,1.46-.96,3.17-1.45,5.14-1.45.46,0,.86.02,1.19.06.33.04.6.11.81.2v8.19h-.26c-.31-.06-.63-.1-.97-.13s-.67-.04-1-.04c-1.27,0-2.43.19-3.46.58-1.03.39-1.92.97-2.66,1.75s-1.31,1.75-1.71,2.91-.59,2.52-.59,4.08v14.8h-9.44Z"/>
      </g>
    </g>
  </g>
</svg>