<?xml version="1.0" encoding="UTF-8"?>
<svg id="_Слой_2" data-name="Слой 2" xmlns="http://www.w3.org/2000/svg" viewBox="0 0 465.05 349.77">
  <defs>
    <style>
      .cls-1 {
        fill: #fff;
      }

      .cls-2 {
        fill: #342783;
      }
    </style>
  </defs>
  <g id="_Слой_1-2" data-name="Слой 1">
    <g>
      <g>
        <g id="seat-1-1">
          <rect class="cls-2" x="29.72" y="298.2" width="51.57" height="51.57"/>
          <path class="cls-1" d="M55.07,331.43v-9.15h-3.29v-2.19c.7-.02,1.32-.13,1.88-.34.56-.21,1.02-.52,1.38-.95.36-.42.6-.96.71-1.61h2.58v14.24h-3.26Z"/>
        </g>
        <g id="seat-1-2">
          <rect class="cls-2" x="88.12" y="298.2" width="51.57" height="51.57"/>
          <path class="cls-1" d="M108.42,331.43c.01-.85.14-1.59.39-2.22s.6-1.19,1.06-1.7c.46-.51,1.01-1.01,1.67-1.49.65-.48,1.38-1.01,2.19-1.57.61-.42,1.07-.79,1.41-1.1.33-.31.56-.61.7-.89.13-.29.2-.6.2-.93,0-.6-.17-1.08-.52-1.45-.35-.36-.83-.55-1.45-.55-.55,0-.99.12-1.33.36-.34.24-.59.56-.75.97s-.24.88-.24,1.41h-3.1c0-1.15.22-2.13.66-2.92.44-.8,1.07-1.4,1.89-1.82.82-.42,1.81-.62,2.96-.62s2.04.2,2.81.61c.77.4,1.35.95,1.75,1.63s.6,1.45.6,2.29c0,.72-.13,1.36-.4,1.9s-.64,1.04-1.12,1.49c-.48.45-1.07.89-1.74,1.32-.77.5-1.38.9-1.81,1.21s-.76.55-.97.75c-.21.2-.38.4-.5.6h6.52v2.72h-10.89Z"/>
        </g>
        <g id="seat-1-3">
          <rect class="cls-2" x="146.52" y="298.2" width="51.57" height="51.57"/>
          <path class="cls-1" d="M172.44,331.72c-1.2,0-2.24-.19-3.13-.57s-1.59-.94-2.08-1.69c-.5-.75-.75-1.66-.77-2.75h3.09c.03.46.15.87.34,1.25.2.38.49.68.89.9s.91.34,1.54.34c.51,0,.94-.08,1.3-.25.36-.17.63-.41.82-.73.19-.32.28-.69.28-1.13s-.1-.79-.3-1.08c-.2-.29-.5-.51-.89-.66-.39-.15-.87-.22-1.43-.22h-.86v-2.29h.78c.49,0,.91-.07,1.26-.2.35-.13.62-.33.81-.6.19-.27.28-.59.28-.98,0-.35-.08-.66-.25-.92-.17-.26-.41-.46-.71-.61s-.66-.22-1.08-.22c-.54,0-.98.11-1.33.32-.35.21-.61.48-.78.81-.18.33-.28.68-.3,1.04h-3.05c.02-.86.25-1.64.68-2.33s1.06-1.24,1.87-1.65c.81-.41,1.8-.61,2.97-.61,1.01,0,1.9.16,2.69.47.78.32,1.39.77,1.84,1.37s.66,1.31.66,2.15c0,.74-.22,1.33-.65,1.79s-1.03.82-1.77,1.07v.04c.9.25,1.6.66,2.1,1.25.5.58.76,1.34.76,2.27,0,.76-.15,1.41-.44,1.96-.3.55-.7,1.01-1.23,1.38-.52.37-1.12.63-1.79.81s-1.38.26-2.12.26Z"/>
        </g>
        <g id="seat-1-4">
          <rect class="cls-2" x="204.92" y="298.2" width="51.57" height="51.57"/>
          <path class="cls-1" d="M231.91,331.43v-3.22h-6.68v-2.9l6.7-8.12h3.12v8.62h2.12v2.39h-2.12v3.22h-3.13ZM227.41,325.93c.46-.04.84-.07,1.16-.09s.61-.03.88-.03h2.46v-3.28c0-.28,0-.59.02-.93.02-.34.04-.75.07-1.25h-.04c-.32.45-.59.83-.82,1.14-.23.31-.45.59-.65.84l-1.45,1.75c-.2.24-.43.5-.69.78-.26.28-.57.62-.95,1.03v.04Z"/>
        </g>
        <g id="seat-1-5">
          <rect class="cls-2" x="263.32" y="298.2" width="51.57" height="51.57"/>
          <path class="cls-1" d="M289.06,331.72c-1.07,0-2.03-.17-2.88-.52-.85-.35-1.53-.85-2.04-1.49-.51-.65-.81-1.42-.89-2.32h3.22c.07.35.22.65.43.9.22.26.5.46.84.6.35.14.75.21,1.2.21.49,0,.93-.1,1.31-.31.38-.21.67-.5.89-.86.21-.37.32-.79.32-1.27,0-.51-.11-.96-.33-1.32-.22-.37-.51-.65-.88-.84s-.79-.29-1.25-.29c-.34,0-.65.04-.93.13-.28.08-.53.2-.75.34-.21.14-.39.3-.54.47h-3.07l1.48-7.94h8.66v2.62h-6.33l-.63,3.14h.04c.33-.36.73-.65,1.2-.85s1.05-.31,1.74-.31c.87,0,1.67.2,2.41.6.74.4,1.33.96,1.78,1.69.45.73.67,1.6.67,2.6s-.24,1.91-.73,2.67c-.49.76-1.16,1.34-2.02,1.76-.86.42-1.84.62-2.94.62Z"/>
        </g>
        <g id="seat-1-6">
          <rect class="cls-2" x="321.72" y="298.2" width="51.57" height="51.57"/>
          <path class="cls-1" d="M347.86,331.72c-1,0-1.88-.17-2.63-.52-.75-.35-1.38-.83-1.88-1.43-.55-.66-.95-1.44-1.21-2.34-.26-.9-.39-1.92-.41-3.04-.01-1.48.2-2.78.62-3.91.43-1.13,1.1-2,2-2.64.9-.63,2.06-.95,3.47-.95.99,0,1.84.16,2.56.49.72.33,1.29.77,1.73,1.32.44.55.72,1.18.86,1.88h-3.12c-.06-.22-.17-.43-.33-.64s-.36-.37-.63-.5c-.27-.13-.6-.2-1-.2-.62,0-1.15.15-1.58.46-.44.31-.78.76-1.03,1.37-.25.61-.41,1.36-.48,2.26v.14h.04c.27-.38.57-.7.91-.96s.72-.46,1.15-.61c.43-.14.9-.21,1.43-.21.9,0,1.74.21,2.5.63.77.42,1.38,1.01,1.85,1.76.47.75.7,1.62.71,2.6,0,.99-.24,1.86-.72,2.62-.48.76-1.14,1.35-1.97,1.78-.83.43-1.78.64-2.84.64ZM347.74,329.28c.48,0,.92-.11,1.3-.34s.69-.53.92-.92c.22-.39.34-.82.34-1.3s-.11-.95-.33-1.34-.53-.7-.91-.92-.83-.34-1.31-.34c-.53,0-1,.11-1.4.33-.4.22-.71.53-.94.91-.22.39-.34.83-.34,1.33s.12.94.35,1.33.56.7.96.92c.41.22.86.33,1.36.33Z"/>
        </g>
        <g id="seat-1-7">
          <rect class="cls-2" x="380.12" y="298.2" width="51.57" height="51.57"/>
          <path class="cls-1" d="M402.64,331.43c.06-1.29.26-2.52.6-3.68.34-1.17.76-2.24,1.27-3.24.51-.99,1.07-1.88,1.67-2.67.61-.79,1.2-1.45,1.8-1.97v-.04c-.7.04-1.31.07-1.84.09s-1.06.03-1.6.03h-3.85v-2.75h10.46v2.5c-.64.63-1.26,1.36-1.85,2.2-.59.83-1.12,1.75-1.59,2.75-.47,1-.85,2.07-1.14,3.21-.29,1.14-.45,2.33-.49,3.58h-3.44Z"/>
        </g>
        <g id="seat-2-1">
          <rect class="cls-2" x="29.72" y="239.4" width="51.57" height="51.57"/>
          <path class="cls-1" d="M55.07,272.63v-9.15h-3.29v-2.19c.7-.02,1.32-.13,1.88-.34.56-.21,1.02-.52,1.38-.95.36-.42.6-.96.71-1.61h2.58v14.24h-3.26Z"/>
        </g>
        <g id="seat-2-2">
          <rect class="cls-2" x="88.12" y="239.4" width="51.57" height="51.57"/>
          <path class="cls-1" d="M108.42,272.63c.01-.85.14-1.59.39-2.22s.6-1.19,1.06-1.7c.46-.51,1.01-1.01,1.67-1.49.65-.48,1.38-1.01,2.19-1.57.61-.42,1.07-.79,1.41-1.1.33-.31.56-.61.7-.89.13-.29.2-.6.2-.93,0-.6-.17-1.08-.52-1.45-.35-.36-.83-.55-1.45-.55-.55,0-.99.12-1.33.36-.34.24-.59.56-.75.97s-.24.88-.24,1.41h-3.1c0-1.15.22-2.13.66-2.92.44-.8,1.07-1.4,1.89-1.82.82-.42,1.81-.62,2.96-.62s2.04.2,2.81.61c.77.4,1.35.95,1.75,1.63s.6,1.45.6,2.29c0,.72-.13,1.36-.4,1.9s-.64,1.04-1.12,1.49c-.48.45-1.07.89-1.74,1.32-.77.5-1.38.9-1.81,1.21s-.76.55-.97.75c-.21.2-.38.4-.5.6h6.52v2.72h-10.89Z"/>
        </g>
        <g id="seat-2-3">
          <rect class="cls-2" x="146.52" y="239.4" width="51.57" height="51.57"/>
          <path class="cls-1" d="M172.44,272.92c-1.2,0-2.24-.19-3.13-.57s-1.59-.94-2.08-1.69c-.5-.75-.75-1.66-.77-2.75h3.09c.03.46.15.87.34,1.25.2.38.49.68.89.9s.91.34,1.54.34c.51,0,.94-.08,1.3-.25.36-.17.63-.41.82-.73.19-.32.28-.69.28-1.13s-.1-.79-.3-1.08c-.2-.29-.5-.51-.89-.66-.39-.15-.87-.22-1.43-.22h-.86v-2.29h.78c.49,0,.91-.07,1.26-.2.35-.13.62-.33.81-.6.19-.27.28-.59.28-.98,0-.35-.08-.66-.25-.92-.17-.26-.41-.46-.71-.61s-.66-.22-1.08-.22c-.54,0-.98.11-1.33.32-.35.21-.61.48-.78.81-.18.33-.28.68-.3,1.04h-3.05c.02-.86.25-1.64.68-2.33s1.06-1.24,1.87-1.65c.81-.41,1.8-.61,2.97-.61,1.01,0,1.9.16,2.69.47.78.32,1.39.77,1.84,1.37s.66,1.31.66,2.15c0,.74-.22,1.33-.65,1.79s-1.03.82-1.77,1.07v.04c.9.25,1.6.66,2.1,1.25.5.58.76,1.34.76,2.27,0,.76-.15,1.41-.44,1.96-.3.55-.7,1.01-1.23,1.38-.52.37-1.12.63-1.79.81s-1.38.26-2.12.26Z"/>
        </g>
        <g id="seat-2-4">
          <rect class="cls-2" x="204.92" y="239.4" width="51.57" height="51.57"/>
          <path class="cls-1" d="M231.91,272.63v-3.22h-6.68v-2.9l6.7-8.12h3.12v8.62h2.12v2.39h-2.12v3.22h-3.13ZM227.41,267.13c.46-.04.84-.07,1.16-.09s.61-.03.88-.03h2.46v-3.28c0-.28,0-.59.02-.93.02-.34.04-.75.07-1.25h-.04c-.32.45-.59.83-.82,1.14-.23.31-.45.59-.65.84l-1.45,1.75c-.2.24-.43.5-.69.78-.26.28-.57.62-.95,1.03v.04Z"/>
        </g>
        <g id="seat-2-5">
          <rect class="cls-2" x="263.32" y="239.4" width="51.57" height="51.57"/>
          <path class="cls-1" d="M289.06,272.92c-1.07,0-2.03-.17-2.88-.52-.85-.35-1.53-.85-2.04-1.49-.51-.65-.81-1.42-.89-2.32h3.22c.07.35.22.65.43.9.22.26.5.46.84.6.35.14.75.21,1.2.21.49,0,.93-.1,1.31-.31.38-.21.67-.5.89-.86.21-.37.32-.79.32-1.27,0-.51-.11-.96-.33-1.32-.22-.37-.51-.65-.88-.84s-.79-.29-1.25-.29c-.34,0-.65.04-.93.13-.28.08-.53.2-.75.34-.21.14-.39.3-.54.47h-3.07l1.48-7.94h8.66v2.62h-6.33l-.63,3.14h.04c.33-.36.73-.65,1.2-.85s1.05-.31,1.74-.31c.87,0,1.67.2,2.41.6.74.4,1.33.96,1.78,1.69.45.73.67,1.6.67,2.6s-.24,1.91-.73,2.67c-.49.76-1.16,1.34-2.02,1.76-.86.42-1.84.62-2.94.62Z"/>
        </g>
        <g id="seat-2-6">
          <rect class="cls-2" x="321.72" y="239.4" width="51.57" height="51.57"/>
          <path class="cls-1" d="M347.86,272.92c-1,0-1.88-.17-2.63-.52-.75-.35-1.38-.83-1.88-1.43-.55-.66-.95-1.44-1.21-2.34-.26-.9-.39-1.92-.41-3.04-.01-1.48.2-2.78.62-3.91.43-1.13,1.1-2,2-2.64.9-.63,2.06-.95,3.47-.95.99,0,1.84.16,2.56.49.72.33,1.29.77,1.73,1.32.44.55.72,1.18.86,1.88h-3.12c-.06-.22-.17-.43-.33-.64s-.36-.37-.63-.5c-.27-.13-.6-.2-1-.2-.62,0-1.15.15-1.58.46-.44.31-.78.76-1.03,1.37-.25.61-.41,1.36-.48,2.26v.14h.04c.27-.38.57-.7.91-.96s.72-.46,1.15-.61c.43-.14.9-.21,1.43-.21.9,0,1.74.21,2.5.63.77.42,1.38,1.01,1.85,1.76.47.75.7,1.62.71,2.6,0,.99-.24,1.86-.72,2.62-.48.76-1.14,1.35-1.97,1.78-.83.43-1.78.64-2.84.64ZM347.74,270.48c.48,0,.92-.11,1.3-.34s.69-.53.92-.92c.22-.39.34-.82.34-1.3s-.11-.95-.33-1.34-.53-.7-.91-.92-.83-.34-1.31-.34c-.53,0-1,.11-1.4.33-.4.22-.71.53-.94.91-.22.39-.34.83-.34,1.33s.12.94.35,1.33.56.7.96.92c.41.22.86.33,1.36.33Z"/>
        </g>
        <g id="seat-2-7">
          <rect class="cls-2" x="380.12" y="239.4" width="51.57" height="51.57"/>
          <path class="cls-1" d="M402.64,272.63c.06-1.29.26-2.52.6-3.68.34-1.17.76-2.24,1.27-3.24.51-.99,1.07-1.88,1.67-2.67.61-.79,1.2-1.45,1.8-1.97v-.04c-.7.04-1.31.07-1.84.09s-1.06.03-1.6.03h-3.85v-2.75h10.46v2.5c-.64.63-1.26,1.36-1.85,2.2-.59.83-1.12,1.75-1.59,2.75-.47,1-.85,2.07-1.14,3.21-.29,1.14-.45,2.33-.49,3.58h-3.44Z"/>
        </g>
        <g id="seat-3-1">
          <rect class="cls-2" x="29.72" y="180.6" width="51.57" height="51.57"/>
          <path class="cls-1" d="M55.07,213.83v-9.15h-3.29v-2.19c.7-.02,1.32-.13,1.88-.34.56-.21,1.02-.52,1.38-.95.36-.42.6-.96.71-1.61h2.58v14.24h-3.26Z"/>
        </g>
        <g id="seat-3-2">
          <rect class="cls-2" x="88.12" y="180.6" width="51.57" height="51.57"/>
          <path class="cls-1" d="M108.42,213.83c.01-.85.14-1.59.39-2.22s.6-1.19,1.06-1.7c.46-.51,1.01-1.01,1.67-1.49.65-.48,1.38-1.01,2.19-1.57.61-.42,1.07-.79,1.41-1.1.33-.31.56-.61.7-.89.13-.29.2-.6.2-.93,0-.6-.17-1.08-.52-1.45-.35-.36-.83-.55-1.45-.55-.55,0-.99.12-1.33.36-.34.24-.59.56-.75.97s-.24.88-.24,1.41h-3.1c0-1.15.22-2.13.66-2.92.44-.8,1.07-1.4,1.89-1.82.82-.42,1.81-.62,2.96-.62s2.04.2,2.81.61c.77.4,1.35.95,1.75,1.63s.6,1.45.6,2.29c0,.72-.13,1.36-.4,1.9s-.64,1.04-1.12,1.49c-.48.45-1.07.89-1.74,1.32-.77.5-1.38.9-1.81,1.21s-.76.55-.97.75c-.21.2-.38.4-.5.6h6.52v2.72h-10.89Z"/>
        </g>
        <g id="seat-3-3">
          <rect class="cls-2" x="146.52" y="180.6" width="51.57" height="51.57"/>
          <path class="cls-1" d="M172.44,214.12c-1.2,0-2.24-.19-3.13-.57s-1.59-.94-2.08-1.69c-.5-.75-.75-1.66-.77-2.75h3.09c.03.46.15.87.34,1.25.2.38.49.68.89.9s.91.34,1.54.34c.51,0,.94-.08,1.3-.25.36-.17.63-.41.82-.73.19-.32.28-.69.28-1.13s-.1-.79-.3-1.08c-.2-.29-.5-.51-.89-.66-.39-.15-.87-.22-1.43-.22h-.86v-2.29h.78c.49,0,.91-.07,1.26-.2.35-.13.62-.33.81-.6.19-.27.28-.59.28-.98,0-.35-.08-.66-.25-.92-.17-.26-.41-.46-.71-.61s-.66-.22-1.08-.22c-.54,0-.98.11-1.33.32-.35.21-.61.48-.78.81-.18.33-.28.68-.3,1.04h-3.05c.02-.86.25-1.64.68-2.33s1.06-1.24,1.87-1.65c.81-.41,1.8-.61,2.97-.61,1.01,0,1.9.16,2.69.47.78.32,1.39.77,1.84,1.37s.66,1.31.66,2.15c0,.74-.22,1.33-.65,1.79s-1.03.82-1.77,1.07v.04c.9.25,1.6.66,2.1,1.25.5.58.76,1.34.76,2.27,0,.76-.15,1.41-.44,1.96-.3.55-.7,1.01-1.23,1.38-.52.37-1.12.63-1.79.81s-1.38.26-2.12.26Z"/>
        </g>
        <g id="seat-3-4">
          <rect class="cls-2" x="204.92" y="180.6" width="51.57" height="51.57"/>
          <path class="cls-1" d="M231.91,213.83v-3.22h-6.68v-2.9l6.7-8.12h3.12v8.62h2.12v2.39h-2.12v3.22h-3.13ZM227.41,208.33c.46-.04.84-.07,1.16-.09s.61-.03.88-.03h2.46v-3.28c0-.28,0-.59.02-.93.02-.34.04-.75.07-1.25h-.04c-.32.45-.59.83-.82,1.14-.23.31-.45.59-.65.84l-1.45,1.75c-.2.24-.43.5-.69.78-.26.28-.57.62-.95,1.03v.04Z"/>
        </g>
        <g id="seat-3-5">
          <rect class="cls-2" x="263.32" y="180.6" width="51.57" height="51.57"/>
          <path class="cls-1" d="M289.06,214.12c-1.07,0-2.03-.17-2.88-.52-.85-.35-1.53-.85-2.04-1.49-.51-.65-.81-1.42-.89-2.32h3.22c.07.35.22.65.43.9.22.26.5.46.84.6.35.14.75.21,1.2.21.49,0,.93-.1,1.31-.31.38-.21.67-.5.89-.86.21-.37.32-.79.32-1.27,0-.51-.11-.96-.33-1.32-.22-.37-.51-.65-.88-.84s-.79-.29-1.25-.29c-.34,0-.65.04-.93.13-.28.08-.53.2-.75.34-.21.14-.39.3-.54.47h-3.07l1.48-7.94h8.66v2.62h-6.33l-.63,3.14h.04c.33-.36.73-.65,1.2-.85s1.05-.31,1.74-.31c.87,0,1.67.2,2.41.6.74.4,1.33.96,1.78,1.69.45.73.67,1.6.67,2.6s-.24,1.91-.73,2.67c-.49.76-1.16,1.34-2.02,1.76-.86.42-1.84.62-2.94.62Z"/>
        </g>
        <g id="seat-3-6">
          <rect class="cls-2" x="321.72" y="180.6" width="51.57" height="51.57"/>
          <path class="cls-1" d="M347.86,214.12c-1,0-1.88-.17-2.63-.52-.75-.35-1.38-.83-1.88-1.43-.55-.66-.95-1.44-1.21-2.34-.26-.9-.39-1.92-.41-3.04-.01-1.48.2-2.78.62-3.91.43-1.13,1.1-2,2-2.64.9-.63,2.06-.95,3.47-.95.99,0,1.84.16,2.56.49.72.33,1.29.77,1.73,1.32.44.55.72,1.18.86,1.88h-3.12c-.06-.22-.17-.43-.33-.64s-.36-.37-.63-.5c-.27-.13-.6-.2-1-.2-.62,0-1.15.15-1.58.46-.44.31-.78.76-1.03,1.37-.25.61-.41,1.36-.48,2.26v.14h.04c.27-.38.57-.7.91-.96s.72-.46,1.15-.61c.43-.14.9-.21,1.43-.21.9,0,1.74.21,2.5.63.77.42,1.38,1.01,1.85,1.76.47.75.7,1.62.71,2.6,0,.99-.24,1.86-.72,2.62-.48.76-1.14,1.35-1.97,1.78-.83.43-1.78.64-2.84.64ZM347.74,211.68c.48,0,.92-.11,1.3-.34s.69-.53.92-.92c.22-.39.34-.82.34-1.3s-.11-.95-.33-1.34-.53-.7-.91-.92-.83-.34-1.31-.34c-.53,0-1,.11-1.4.33-.4.22-.71.53-.94.91-.22.39-.34.83-.34,1.33s.12.94.35,1.33.56.7.96.92c.41.22.86.33,1.36.33Z"/>
        </g>
        <g id="seat-3-7">
          <rect class="cls-2" x="380.12" y="180.6" width="51.57" height="51.57"/>
          <path class="cls-1" d="M402.64,213.83c.06-1.29.26-2.52.6-3.68.34-1.17.76-2.24,1.27-3.24.51-.99,1.07-1.88,1.67-2.67.61-.79,1.2-1.45,1.8-1.97v-.04c-.7.04-1.31.07-1.84.09s-1.06.03-1.6.03h-3.85v-2.75h10.46v2.5c-.64.63-1.26,1.36-1.85,2.2-.59.83-1.12,1.75-1.59,2.75-.47,1-.85,2.07-1.14,3.21-.29,1.14-.45,2.33-.49,3.58h-3.44Z"/>
        </g>
        <g id="seat-4-1">
          <rect class="cls-2" x="29.72" y="121.8" width="51.57" height="51.57"/>
          <path class="cls-1" d="M55.07,155.03v-9.15h-3.29v-2.19c.7-.02,1.32-.13,1.88-.34.56-.21,1.02-.52,1.38-.95.36-.42.6-.96.71-1.61h2.58v14.24h-3.26Z"/>
        </g>
        <g id="seat-4-2">
          <rect class="cls-2" x="88.12" y="121.8" width="51.57" height="51.57"/>
          <path class="cls-1" d="M108.42,155.03c.01-.85.14-1.59.39-2.22s.6-1.19,1.06-1.7c.46-.51,1.01-1.01,1.67-1.49.65-.49,1.38-1.01,2.19-1.57.61-.42,1.07-.79,1.41-1.1.33-.31.56-.61.7-.89.13-.29.2-.6.2-.93,0-.6-.17-1.08-.52-1.45-.35-.37-.83-.55-1.45-.55-.55,0-.99.12-1.33.36-.34.24-.59.56-.75.97s-.24.88-.24,1.41h-3.1c0-1.15.22-2.13.66-2.92.44-.8,1.07-1.41,1.89-1.82.82-.42,1.81-.62,2.96-.62s2.04.2,2.81.61c.77.4,1.35.95,1.75,1.63s.6,1.45.6,2.29c0,.72-.13,1.36-.4,1.9s-.64,1.04-1.12,1.49c-.48.45-1.07.89-1.74,1.32-.77.5-1.38.9-1.81,1.21s-.76.55-.97.75c-.21.2-.38.4-.5.6h6.52v2.72h-10.89Z"/>
        </g>
        <g id="seat-4-3">
          <rect class="cls-2" x="146.52" y="121.8" width="51.57" height="51.57"/>
          <path class="cls-1" d="M172.44,155.32c-1.2,0-2.24-.19-3.13-.57s-1.59-.94-2.08-1.69c-.5-.75-.75-1.66-.77-2.75h3.09c.03.46.15.87.34,1.25.2.38.49.68.89.9s.91.34,1.54.34c.51,0,.94-.08,1.3-.25.36-.17.63-.41.82-.73.19-.32.28-.69.28-1.13s-.1-.79-.3-1.08c-.2-.29-.5-.51-.89-.66-.39-.15-.87-.22-1.43-.22h-.86v-2.29h.78c.49,0,.91-.07,1.26-.2.35-.13.62-.33.81-.6.19-.27.28-.59.28-.98,0-.35-.08-.66-.25-.92-.17-.26-.41-.46-.71-.61s-.66-.22-1.08-.22c-.54,0-.98.11-1.33.32-.35.21-.61.48-.78.81-.18.33-.28.67-.3,1.04h-3.05c.02-.86.25-1.64.68-2.33s1.06-1.24,1.87-1.65c.81-.41,1.8-.61,2.97-.61,1.01,0,1.9.16,2.69.47.78.32,1.39.77,1.84,1.37s.66,1.31.66,2.15c0,.74-.22,1.33-.65,1.79s-1.03.82-1.77,1.07v.04c.9.25,1.6.66,2.1,1.25.5.58.76,1.34.76,2.27,0,.75-.15,1.41-.44,1.96-.3.55-.7,1.01-1.23,1.38-.52.36-1.12.63-1.79.81s-1.38.26-2.12.26Z"/>
        </g>
        <g id="seat-4-4">
          <rect class="cls-2" x="204.92" y="121.8" width="51.57" height="51.57"/>
          <path class="cls-1" d="M231.91,155.03v-3.22h-6.68v-2.9l6.7-8.12h3.12v8.62h2.12v2.39h-2.12v3.22h-3.13ZM227.41,149.53c.46-.04.84-.07,1.16-.09s.61-.03.88-.03h2.46v-3.28c0-.28,0-.59.02-.93.02-.34.04-.76.07-1.25h-.04c-.32.45-.59.83-.82,1.14-.23.31-.45.59-.65.84l-1.45,1.75c-.2.24-.43.5-.69.78-.26.28-.57.62-.95,1.03v.04Z"/>
        </g>
        <g id="seat-4-5">
          <rect class="cls-2" x="263.32" y="121.8" width="51.57" height="51.57"/>
          <path class="cls-1" d="M289.06,155.32c-1.07,0-2.03-.17-2.88-.52-.85-.35-1.53-.85-2.04-1.49-.51-.65-.81-1.42-.89-2.32h3.22c.07.34.22.65.43.9.22.26.5.46.84.6.35.14.75.21,1.2.21.49,0,.93-.1,1.31-.31.38-.21.67-.5.89-.86.21-.37.32-.79.32-1.27,0-.51-.11-.96-.33-1.32-.22-.37-.51-.65-.88-.84s-.79-.29-1.25-.29c-.34,0-.65.04-.93.13-.28.08-.53.2-.75.34-.21.14-.39.3-.54.47h-3.07l1.48-7.94h8.66v2.62h-6.33l-.63,3.14h.04c.33-.37.73-.65,1.2-.85s1.05-.31,1.74-.31c.87,0,1.67.2,2.41.6.74.4,1.33.96,1.78,1.69.45.73.67,1.59.67,2.6s-.24,1.91-.73,2.67c-.49.75-1.16,1.34-2.02,1.76-.86.42-1.84.62-2.94.62Z"/>
        </g>
        <g id="seat-4-6">
          <rect class="cls-2" x="321.72" y="121.8" width="51.57" height="51.57"/>
          <path class="cls-1" d="M347.86,155.32c-1,0-1.88-.17-2.63-.52-.75-.35-1.38-.83-1.88-1.43-.55-.66-.95-1.44-1.21-2.34-.26-.91-.39-1.92-.41-3.04-.01-1.48.2-2.78.62-3.91.43-1.13,1.1-2.01,2-2.64.9-.63,2.06-.95,3.47-.95.99,0,1.84.16,2.56.49.72.33,1.29.76,1.73,1.32.44.55.72,1.18.86,1.88h-3.12c-.06-.22-.17-.43-.33-.64s-.36-.37-.63-.5c-.27-.13-.6-.2-1-.2-.62,0-1.15.15-1.58.46-.44.31-.78.76-1.03,1.37-.25.61-.41,1.36-.48,2.26v.14h.04c.27-.38.57-.7.91-.96s.72-.47,1.15-.61c.43-.14.9-.21,1.43-.21.9,0,1.74.21,2.5.63.77.42,1.38,1.01,1.85,1.76.47.75.7,1.61.71,2.6,0,.99-.24,1.86-.72,2.62-.48.76-1.14,1.35-1.97,1.78-.83.43-1.78.64-2.84.64ZM347.74,152.88c.48,0,.92-.11,1.3-.34s.69-.53.92-.92c.22-.39.34-.82.34-1.3s-.11-.95-.33-1.34-.53-.7-.91-.92-.83-.34-1.31-.34c-.53,0-1,.11-1.4.33-.4.22-.71.53-.94.91-.22.39-.34.83-.34,1.33s.12.94.35,1.33.56.7.96.92c.41.22.86.33,1.36.33Z"/>
        </g>
        <g id="seat-4-7">
          <rect class="cls-2" x="380.12" y="121.8" width="51.57" height="51.57"/>
          <path class="cls-1" d="M402.64,155.03c.06-1.29.26-2.52.6-3.68.34-1.17.76-2.25,1.27-3.24.51-.99,1.07-1.88,1.67-2.67.61-.79,1.2-1.45,1.8-1.97v-.04c-.7.04-1.31.07-1.84.09s-1.06.03-1.6.03h-3.85v-2.75h10.46v2.5c-.64.63-1.26,1.36-1.85,2.2-.59.83-1.12,1.75-1.59,2.75-.47,1-.85,2.07-1.14,3.21-.29,1.14-.45,2.33-.49,3.58h-3.44Z"/>
        </g>
        <g id="seat-5-1">
          <rect class="cls-2" x="29.72" y="63" width="51.57" height="51.57"/>
          <path class="cls-1" d="M55.07,96.23v-9.15h-3.29v-2.19c.7-.02,1.32-.13,1.88-.34.56-.21,1.02-.52,1.38-.95.36-.42.6-.96.71-1.61h2.58v14.24h-3.26Z"/>
        </g>
        <g id="seat-5-2">
          <rect class="cls-2" x="88.12" y="63" width="51.57" height="51.57"/>
          <path class="cls-1" d="M108.42,96.23c.01-.85.14-1.59.39-2.22s.6-1.19,1.06-1.7c.46-.51,1.01-1.01,1.67-1.49.65-.49,1.38-1.01,2.19-1.57.61-.42,1.07-.79,1.41-1.1.33-.31.56-.61.7-.89.13-.29.2-.6.2-.93,0-.6-.17-1.08-.52-1.45-.35-.37-.83-.55-1.45-.55-.55,0-.99.12-1.33.36-.34.24-.59.56-.75.97s-.24.88-.24,1.41h-3.1c0-1.15.22-2.13.66-2.92.44-.8,1.07-1.41,1.89-1.82.82-.42,1.81-.62,2.96-.62s2.04.2,2.81.61c.77.4,1.35.95,1.75,1.63s.6,1.45.6,2.29c0,.72-.13,1.36-.4,1.9s-.64,1.04-1.12,1.49c-.48.45-1.07.89-1.74,1.32-.77.5-1.38.9-1.81,1.21s-.76.55-.97.75c-.21.2-.38.4-.5.6h6.52v2.72h-10.89Z"/>
        </g>
        <g id="seat-5-3">
          <rect class="cls-2" x="146.52" y="63" width="51.57" height="51.57"/>
          <path class="cls-1" d="M172.44,96.52c-1.2,0-2.24-.19-3.13-.57s-1.59-.94-2.08-1.69c-.5-.75-.75-1.66-.77-2.75h3.09c.03.46.15.87.34,1.25.2.38.49.68.89.9s.91.34,1.54.34c.51,0,.94-.08,1.3-.25.36-.17.63-.41.82-.73.19-.32.28-.69.28-1.13s-.1-.79-.3-1.08c-.2-.29-.5-.51-.89-.66-.39-.15-.87-.22-1.43-.22h-.86v-2.29h.78c.49,0,.91-.07,1.26-.2.35-.13.62-.33.81-.6.19-.27.28-.59.28-.98,0-.35-.08-.66-.25-.92-.17-.26-.41-.46-.71-.61s-.66-.22-1.08-.22c-.54,0-.98.11-1.33.32-.35.21-.61.48-.78.81-.18.33-.28.67-.3,1.04h-3.05c.02-.86.25-1.64.68-2.33s1.06-1.24,1.87-1.65c.81-.41,1.8-.61,2.97-.61,1.01,0,1.9.16,2.69.47.78.32,1.39.77,1.84,1.37s.66,1.31.66,2.15c0,.74-.22,1.33-.65,1.79s-1.03.82-1.77,1.07v.04c.9.25,1.6.66,2.1,1.25.5.58.76,1.34.76,2.27,0,.75-.15,1.41-.44,1.96-.3.55-.7,1.01-1.23,1.38-.52.36-1.12.63-1.79.81s-1.38.26-2.12.26Z"/>
        </g>
        <g id="seat-5-4">
          <rect class="cls-2" x="204.92" y="63" width="51.57" height="51.57"/>
          <path class="cls-1" d="M231.91,96.23v-3.22h-6.68v-2.9l6.7-8.12h3.12v8.62h2.12v2.39h-2.12v3.22h-3.13ZM227.41,90.73c.46-.04.84-.07,1.16-.09s.61-.03.88-.03h2.46v-3.28c0-.28,0-.59.02-.93.02-.34.04-.76.07-1.25h-.04c-.32.45-.59.83-.82,1.14-.23.31-.45.59-.65.84l-1.45,1.75c-.2.24-.43.5-.69.78-.26.28-.57.62-.95,1.03v.04Z"/>
        </g>
        <g id="seat-5-5">
          <rect class="cls-2" x="263.32" y="63" width="51.57" height="51.57"/>
          <path class="cls-1" d="M289.06,96.52c-1.07,0-2.03-.17-2.88-.52-.85-.35-1.53-.85-2.04-1.49-.51-.65-.81-1.42-.89-2.32h3.22c.07.34.22.65.43.9.22.26.5.46.84.6.35.14.75.21,1.2.21.49,0,.93-.1,1.31-.31.38-.21.67-.5.89-.86.21-.37.32-.79.32-1.27,0-.51-.11-.96-.33-1.32-.22-.37-.51-.65-.88-.84s-.79-.29-1.25-.29c-.34,0-.65.04-.93.13-.28.08-.53.2-.75.34-.21.14-.39.3-.54.47h-3.07l1.48-7.94h8.66v2.62h-6.33l-.63,3.14h.04c.33-.37.73-.65,1.2-.85s1.05-.31,1.74-.31c.87,0,1.67.2,2.41.6.74.4,1.33.96,1.78,1.69.45.73.67,1.59.67,2.6s-.24,1.91-.73,2.67c-.49.75-1.16,1.34-2.02,1.76-.86.42-1.84.62-2.94.62Z"/>
        </g>
        <g id="seat-5-6">
          <rect class="cls-2" x="321.72" y="63" width="51.57" height="51.57"/>
          <path class="cls-1" d="M347.86,96.52c-1,0-1.88-.17-2.63-.52-.75-.35-1.38-.83-1.88-1.43-.55-.66-.95-1.44-1.21-2.34-.26-.91-.39-1.92-.41-3.04-.01-1.48.2-2.78.62-3.91.43-1.13,1.1-2.01,2-2.64.9-.63,2.06-.95,3.47-.95.99,0,1.84.16,2.56.49.72.33,1.29.76,1.73,1.32.44.55.72,1.18.86,1.88h-3.12c-.06-.22-.17-.43-.33-.64s-.36-.37-.63-.5c-.27-.13-.6-.2-1-.2-.62,0-1.15.15-1.58.46-.44.31-.78.76-1.03,1.37-.25.61-.41,1.36-.48,2.26v.14h.04c.27-.38.57-.7.91-.96s.72-.47,1.15-.61c.43-.14.9-.21,1.43-.21.9,0,1.74.21,2.5.63.77.42,1.38,1.01,1.85,1.76.47.75.7,1.61.71,2.6,0,.99-.24,1.86-.72,2.62-.48.76-1.14,1.35-1.97,1.78-.83.43-1.78.64-2.84.64ZM347.74,94.08c.48,0,.92-.11,1.3-.34s.69-.53.92-.92c.22-.39.34-.82.34-1.3s-.11-.95-.33-1.34-.53-.7-.91-.92-.83-.34-1.31-.34c-.53,0-1,.11-1.4.33-.4.22-.71.53-.94.91-.22.39-.34.83-.34,1.33s.12.94.35,1.33.56.7.96.92c.41.22.86.33,1.36.33Z"/>
        </g>
        <g id="seat-5-7">
          <rect class="cls-2" x="380.12" y="63" width="51.57" height="51.57"/>
          <path class="cls-1" d="M402.64,96.23c.06-1.29.26-2.52.6-3.68.34-1.17.76-2.25,1.27-3.24.51-.99,1.07-1.88,1.67-2.67.61-.79,1.2-1.45,1.8-1.97v-.04c-.7.04-1.31.07-1.84.09s-1.06.03-1.6.03h-3.85v-2.75h10.46v2.5c-.64.63-1.26,1.36-1.85,2.2-.59.83-1.12,1.75-1.59,2.75-.47,1-.85,2.07-1.14,3.21-.29,1.14-.45,2.33-.49,3.58h-3.44Z"/>
        </g>
        <path class="cls-2" d="M9.18,333.94v-11.44h-4.09v-2.73c.87-.02,1.64-.17,2.33-.43s1.26-.66,1.72-1.18c.45-.53.75-1.2.89-2.01h3.2v17.8h-4.05Z"/>
        <path class="cls-2" d="M.76,275.14c.02-1.07.18-1.99.49-2.77.31-.78.75-1.49,1.32-2.13.57-.64,1.26-1.26,2.07-1.87s1.71-1.26,2.72-1.96c.75-.53,1.33-.99,1.75-1.37.41-.39.7-.76.87-1.12.17-.36.25-.75.25-1.16,0-.75-.21-1.35-.64-1.81-.43-.46-1.03-.68-1.8-.68-.68,0-1.23.15-1.66.45-.42.3-.74.7-.93,1.21-.2.51-.3,1.1-.3,1.76H1.04c0-1.44.27-2.66.82-3.66.55-1,1.33-1.75,2.35-2.28,1.02-.52,2.25-.78,3.68-.78s2.54.25,3.49.76c.95.5,1.68,1.18,2.18,2.04s.75,1.81.75,2.87c0,.9-.16,1.7-.49,2.38s-.79,1.3-1.4,1.86-1.32,1.11-2.17,1.65c-.96.63-1.71,1.13-2.25,1.51-.54.38-.94.69-1.2.94-.26.25-.47.5-.62.75h8.1v3.41H.76Z"/>
        <path class="cls-2" d="M7.44,216.7c-1.49,0-2.79-.24-3.89-.71-1.11-.48-1.97-1.18-2.59-2.11-.62-.93-.94-2.08-.95-3.44h3.83c.04.57.18,1.09.42,1.56s.61.85,1.1,1.13c.49.28,1.13.42,1.92.42.63,0,1.17-.11,1.61-.32.44-.21.78-.51,1.02-.91.23-.39.35-.86.35-1.41s-.13-.99-.38-1.35c-.25-.36-.62-.64-1.1-.82-.49-.19-1.08-.28-1.77-.28h-1.07v-2.86h.97c.61,0,1.13-.08,1.56-.25.44-.17.77-.42,1.01-.75.23-.33.35-.74.35-1.22,0-.44-.11-.82-.32-1.15-.21-.33-.5-.58-.88-.76-.38-.18-.82-.27-1.34-.27-.67,0-1.22.13-1.65.4-.43.26-.75.6-.97,1.01s-.34.84-.38,1.3H.52c.02-1.07.31-2.04.84-2.91.54-.87,1.31-1.55,2.32-2.06,1.01-.51,2.24-.76,3.69-.76,1.25,0,2.37.2,3.34.59.97.4,1.73.96,2.28,1.71.55.75.82,1.64.82,2.69,0,.92-.27,1.67-.81,2.24-.54.57-1.27,1.02-2.2,1.34v.05c1.12.31,1.99.83,2.61,1.56.63.73.94,1.67.94,2.84,0,.94-.18,1.76-.55,2.45-.37.69-.88,1.27-1.52,1.72-.65.46-1.39.79-2.22,1.01-.83.22-1.71.33-2.63.33Z"/>
        <path class="cls-2" d="M8.53,157.54v-4.03H.23v-3.63l8.32-10.14h3.87v10.78h2.63v2.99h-2.63v4.03h-3.89ZM2.94,150.67c.57-.05,1.05-.08,1.44-.11.4-.02.76-.04,1.09-.04h3.06v-4.1c0-.35.01-.74.03-1.16.02-.42.05-.94.09-1.56h-.05c-.4.56-.74,1.04-1.02,1.42s-.55.74-.81,1.06l-1.8,2.19c-.25.3-.54.63-.85.98-.32.35-.71.78-1.18,1.28v.05Z"/>
        <path class="cls-2" d="M7.27,99.11c-1.33,0-2.53-.22-3.58-.65-1.05-.44-1.9-1.06-2.54-1.87-.64-.81-1.01-1.78-1.1-2.9h4c.09.43.27.81.54,1.13s.62.57,1.05.75.93.27,1.49.27c.61,0,1.16-.13,1.63-.39.47-.26.84-.62,1.1-1.08.27-.46.4-.99.4-1.59,0-.64-.14-1.19-.41-1.65-.27-.46-.64-.81-1.1-1.06s-.98-.37-1.55-.37c-.42,0-.81.05-1.16.16-.35.11-.66.25-.93.42s-.49.37-.67.59H.64l1.84-9.92h10.76v3.27h-7.86l-.79,3.93h.05c.41-.46.91-.81,1.49-1.07.58-.26,1.3-.38,2.17-.38,1.08,0,2.07.25,2.99.75s1.66,1.2,2.21,2.11c.56.91.84,1.99.84,3.25s-.3,2.39-.91,3.33c-.61.94-1.44,1.68-2.5,2.2s-2.28.78-3.66.78Z"/>
        <path class="cls-2" d="M459.17,337.18v-11.44h-4.09v-2.73c.87-.02,1.64-.17,2.33-.43s1.26-.66,1.72-1.18c.45-.53.75-1.2.89-2.01h3.2v17.8h-4.05Z"/>
        <path class="cls-2" d="M450.76,278.38c.02-1.07.18-1.99.49-2.77.31-.78.75-1.49,1.32-2.13.57-.64,1.26-1.26,2.07-1.87s1.71-1.26,2.72-1.96c.75-.53,1.33-.99,1.75-1.37.41-.39.7-.76.87-1.12.17-.36.25-.75.25-1.16,0-.75-.21-1.35-.64-1.81-.43-.46-1.03-.68-1.8-.68-.68,0-1.23.15-1.66.45-.42.3-.74.7-.93,1.21-.2.51-.3,1.1-.3,1.76h-3.85c0-1.44.27-2.66.82-3.66.55-1,1.33-1.75,2.35-2.28,1.02-.52,2.25-.78,3.68-.78s2.54.25,3.49.76c.95.5,1.68,1.18,2.18,2.04s.75,1.81.75,2.87c0,.9-.16,1.7-.49,2.38s-.79,1.3-1.4,1.86-1.32,1.11-2.17,1.65c-.96.63-1.71,1.13-2.25,1.51-.54.38-.94.69-1.2.94-.26.25-.47.5-.62.75h8.1v3.41h-13.53Z"/>
        <path class="cls-2" d="M457.43,219.94c-1.49,0-2.79-.24-3.89-.71-1.11-.48-1.97-1.18-2.59-2.11-.62-.93-.94-2.08-.95-3.44h3.83c.04.57.18,1.09.42,1.56s.61.85,1.1,1.13c.49.28,1.13.42,1.92.42.63,0,1.17-.11,1.61-.32.44-.21.78-.51,1.02-.91.23-.39.35-.86.35-1.41s-.13-.99-.38-1.35c-.25-.36-.62-.64-1.1-.82-.49-.19-1.08-.28-1.77-.28h-1.07v-2.86h.97c.61,0,1.13-.08,1.56-.25.44-.17.77-.42,1.01-.75.23-.33.35-.74.35-1.22,0-.44-.11-.82-.32-1.15-.21-.33-.5-.58-.88-.76-.38-.18-.82-.27-1.34-.27-.67,0-1.22.13-1.65.4-.43.26-.75.6-.97,1.01s-.34.84-.38,1.3h-3.78c.02-1.07.31-2.04.84-2.91.54-.87,1.31-1.55,2.32-2.06,1.01-.51,2.24-.76,3.69-.76,1.25,0,2.37.2,3.34.59.97.4,1.73.96,2.28,1.71.55.75.82,1.64.82,2.69,0,.92-.27,1.67-.81,2.24-.54.57-1.27,1.02-2.2,1.34v.05c1.12.31,1.99.83,2.61,1.56.63.73.94,1.67.94,2.84,0,.94-.18,1.76-.55,2.45-.37.69-.88,1.27-1.52,1.72-.65.46-1.39.79-2.22,1.01-.83.22-1.71.33-2.63.33Z"/>
        <path class="cls-2" d="M458.52,160.78v-4.03h-8.3v-3.63l8.32-10.14h3.87v10.78h2.63v2.99h-2.63v4.03h-3.89ZM452.93,153.9c.57-.05,1.05-.08,1.44-.11.4-.02.76-.04,1.09-.04h3.06v-4.1c0-.35.01-.74.03-1.16.02-.42.05-.94.09-1.56h-.05c-.4.56-.74,1.04-1.02,1.42s-.55.74-.81,1.06l-1.8,2.19c-.25.3-.54.63-.85.98-.32.35-.71.78-1.18,1.28v.05Z"/>
        <path class="cls-2" d="M457.26,102.34c-1.33,0-2.53-.22-3.58-.65-1.05-.44-1.9-1.06-2.54-1.87-.64-.81-1.01-1.78-1.1-2.9h4c.09.43.27.81.54,1.13s.62.57,1.05.75.93.27,1.49.27c.61,0,1.16-.13,1.63-.39.47-.26.84-.62,1.1-1.08.27-.46.4-.99.4-1.59,0-.64-.14-1.19-.41-1.65-.27-.46-.64-.81-1.1-1.06s-.98-.37-1.55-.37c-.42,0-.81.05-1.16.16-.35.11-.66.25-.93.42s-.49.37-.67.59h-3.81l1.84-9.92h10.76v3.27h-7.86l-.79,3.93h.05c.41-.46.91-.81,1.49-1.07.58-.26,1.3-.38,2.17-.38,1.08,0,2.07.25,2.99.75s1.66,1.2,2.21,2.11c.56.91.84,1.99.84,3.25s-.3,2.39-.91,3.33c-.61.94-1.44,1.68-2.5,2.2s-2.28.78-3.66.78Z"/>
      </g>
      <g>
        <path d="M53.26,45.75c-3.2,0-6.13-.57-8.79-1.71-2.65-1.14-4.94-2.74-6.85-4.79-1.91-2.06-3.39-4.47-4.43-7.25-1.04-2.78-1.56-5.8-1.56-9.06s.51-6.31,1.52-9.09c1.01-2.78,2.47-5.21,4.36-7.28,1.89-2.08,4.16-3.69,6.82-4.84,2.65-1.15,5.63-1.72,8.93-1.72,2.43,0,4.68.29,6.73.87s3.85,1.43,5.37,2.55c1.99,1.47,3.56,3.25,4.71,5.34,1.15,2.09,1.85,4.39,2.1,6.88h-10.08c-.19-1.39-.68-2.63-1.45-3.72-.77-1.09-1.79-1.95-3.05-2.58-1.26-.63-2.73-.94-4.39-.94-2.51,0-4.6.64-6.27,1.91-1.67,1.27-2.92,3.01-3.75,5.2-.83,2.19-1.25,4.67-1.25,7.43s.46,5.26,1.38,7.43c.92,2.17,2.22,3.88,3.92,5.14,1.7,1.25,3.71,1.88,6.02,1.88,1.8,0,3.35-.36,4.66-1.07,1.31-.71,2.35-1.68,3.13-2.9.77-1.22,1.24-2.58,1.39-4.08h10.16c-.15,2.18-.71,4.26-1.65,6.24-.95,1.98-2.18,3.71-3.71,5.2-1.64,1.62-3.61,2.86-5.91,3.71-2.3.85-4.99,1.27-8.08,1.27Z"/>
        <path d="M94.55,45.75c-2.97,0-5.57-.52-7.8-1.55s-4.09-2.45-5.57-4.24c-1.62-1.95-2.81-4.27-3.58-6.95-.76-2.68-1.16-5.68-1.2-9-.04-4.38.58-8.24,1.85-11.58,1.27-3.34,3.25-5.95,5.94-7.82,2.68-1.87,6.11-2.81,10.28-2.81,2.93,0,5.46.48,7.59,1.45s3.83,2.27,5.12,3.91c1.29,1.64,2.14,3.49,2.55,5.56h-9.27c-.19-.66-.52-1.29-.97-1.9-.45-.61-1.08-1.1-1.87-1.49-.79-.39-1.78-.58-2.95-.58-1.83,0-3.4.45-4.69,1.36-1.29.91-2.31,2.26-3.04,4.07-.73,1.8-1.21,4.04-1.42,6.7v.41h.12c.79-1.12,1.69-2.07,2.69-2.85,1-.78,2.14-1.38,3.4-1.79s2.68-.62,4.24-.62c2.68,0,5.16.63,7.43,1.88,2.27,1.26,4.09,2.99,5.47,5.21,1.38,2.22,2.08,4.79,2.1,7.7,0,2.93-.71,5.53-2.14,7.77-1.43,2.25-3.38,4.01-5.85,5.27-2.47,1.26-5.28,1.9-8.43,1.9ZM94.17,38.51c1.43,0,2.72-.33,3.87-1s2.06-1.57,2.72-2.72,1-2.44,1-3.87-.33-2.81-.98-3.97-1.56-2.07-2.71-2.74c-1.15-.67-2.45-1-3.89-1-1.58,0-2.97.33-4.16.98-1.19.66-2.11,1.56-2.78,2.71-.67,1.15-1,2.47-1,3.95s.35,2.78,1.04,3.94c.7,1.16,1.65,2.07,2.85,2.72,1.21.66,2.55.98,4.04.98Z"/>
        <path d="M115.22,33.21v-8.08h16.79v8.08h-16.79Z"/>
        <path d="M150.55,45.75c-3.03,0-5.65-.45-7.86-1.36-2.21-.91-3.93-2.17-5.17-3.79-1.24-1.62-1.93-3.48-2.08-5.59h8.77c.27,1.49.95,2.63,2.04,3.43,1.09.8,2.54,1.2,4.36,1.2,1.66,0,2.94-.32,3.85-.97s1.36-1.53,1.36-2.65c0-.95-.37-1.66-1.11-2.13s-1.73-.84-2.95-1.1c-1.23-.26-2.57-.53-4.04-.8-1.41-.27-2.79-.59-4.14-.97-1.35-.38-2.57-.91-3.65-1.59s-1.94-1.61-2.58-2.78c-.64-1.17-.96-2.67-.96-4.5,0-2.16.59-3.97,1.77-5.43,1.18-1.46,2.77-2.56,4.78-3.3,2.01-.74,4.25-1.12,6.72-1.12,2.93,0,5.39.39,7.35,1.17,1.97.78,3.5,1.87,4.6,3.27,1.1,1.4,1.79,3.02,2.06,4.85h-8.66c-.19-.75-.52-1.38-.98-1.88-.46-.5-1.06-.87-1.78-1.11-.72-.24-1.59-.36-2.59-.36-1.41,0-2.54.28-3.39.84-.85.56-1.27,1.34-1.27,2.35,0,.79.35,1.39,1.04,1.79s1.63.72,2.79.96c1.17.23,2.48.48,3.92.75,1.41.25,2.82.57,4.24.96,1.42.39,2.72.94,3.89,1.67,1.18.72,2.12,1.71,2.84,2.95.71,1.25,1.07,2.86,1.07,4.85,0,2.28-.62,4.19-1.85,5.73s-2.92,2.71-5.07,3.49c-2.14.78-4.58,1.17-7.33,1.17Z"/>
        <path d="M184.6,45.72c-3.44,0-6.4-.73-8.9-2.2-2.5-1.47-4.42-3.46-5.76-5.98-1.34-2.52-2.01-5.35-2.01-8.5s.68-6.01,2.06-8.53c1.37-2.52,3.27-4.51,5.7-5.98,2.43-1.47,5.24-2.2,8.43-2.2,2.26,0,4.3.35,6.14,1.06,1.83.71,3.41,1.69,4.72,2.97,1.78,1.72,3.08,3.87,3.91,6.46s1.23,5.43,1.19,8.54h-22.99c.19,1.58.6,2.94,1.23,4.07.63,1.13,1.48,2,2.55,2.61,1.07.61,2.36.91,3.87.91s2.64-.27,3.59-.81c.95-.54,1.67-1.29,2.17-2.26h9c-.52,1.85-1.44,3.52-2.75,5.01s-2.99,2.66-5.02,3.53c-2.04.87-4.41,1.3-7.11,1.3ZM177.13,25.97h13.46c-.1-1.47-.43-2.73-1-3.78-.57-1.05-1.32-1.86-2.24-2.43-.93-.57-2.01-.85-3.24-.85-1.41,0-2.6.29-3.56.87-.97.58-1.73,1.39-2.29,2.45-.56,1.05-.94,2.3-1.13,3.75Z"/>
        <path d="M204.75,44.88V.75h9.29v13.49c0,2.34-.03,4.37-.1,6.11-.07,1.74-.13,3.12-.19,4.14l10.45-11.47h10.89l-11.35,11.81,12.68,20.04h-10.92l-8.31-13.87-3.16,3.3v10.57h-9.29Z"/>
        <path d="M252.06,45.23c-1.97,0-3.7-.25-5.2-.75-1.5-.5-2.66-1.36-3.49-2.58-.83-1.22-1.25-2.9-1.25-5.04v-17.84h-4.81v-5.99h4.81V2.87h9.18v10.16h6.23v5.99h-6.23v15.81c0,1.18.31,1.98.94,2.4.63.42,1.5.64,2.62.64.31,0,.67-.01,1.07-.04s.76-.05,1.07-.07h.46v7.01c-.5.08-1.22.17-2.14.29-.93.12-2.02.17-3.27.17Z"/>
        <path d="M277.48,45.72c-3.36,0-6.29-.74-8.8-2.22-2.51-1.48-4.46-3.48-5.85-6.01-1.39-2.53-2.08-5.37-2.08-8.51s.7-6.01,2.08-8.53c1.39-2.52,3.34-4.51,5.85-5.98s5.44-2.2,8.8-2.2,6.25.73,8.74,2.2c2.49,1.47,4.42,3.46,5.79,5.98,1.37,2.52,2.06,5.36,2.06,8.53s-.69,5.98-2.06,8.51c-1.37,2.53-3.3,4.53-5.79,6.01-2.49,1.48-5.41,2.22-8.74,2.22ZM277.42,38.94c1.54,0,2.86-.42,3.94-1.26s1.9-2.01,2.46-3.5c.56-1.5.84-3.23.84-5.2s-.28-3.76-.84-5.27c-.56-1.51-1.38-2.68-2.46-3.53s-2.39-1.27-3.94-1.27-2.91.42-3.98,1.27-1.88,2.03-2.43,3.53c-.55,1.51-.83,3.26-.83,5.27s.27,3.7.83,5.2c.55,1.5,1.36,2.66,2.43,3.5s2.4,1.26,3.98,1.26Z"/>
        <path d="M298.56,44.88V13.03h9.06v5.7h.17c1.02-2.24,2.26-3.84,3.72-4.81,1.46-.96,3.17-1.45,5.14-1.45.46,0,.86.02,1.19.06.33.04.6.11.81.2v8.19h-.26c-.31-.06-.63-.1-.97-.13-.34-.03-.67-.04-1-.04-1.27,0-2.43.19-3.46.58-1.03.39-1.92.97-2.66,1.75-.74.78-1.31,1.75-1.71,2.91-.4,1.16-.59,2.52-.59,4.08v14.8h-9.44Z"/>
      </g>
    </g>
  </g>
</svg>