<?xml version="1.0" encoding="UTF-8"?>
<!DOCTYPE svg PUBLIC "-//W3C//DTD SVG 1.1//EN" "http://www.w3.org/Graphics/SVG/1.1/DTD/svg11.dtd">
<!-- Creator: CorelDRAW 2021.5 -->
<svg xmlns="http://www.w3.org/2000/svg" xml:space="preserve" width="210mm" height="297mm" version="1.1" style="shape-rendering:geometricPrecision; text-rendering:geometricPrecision; image-rendering:optimizeQuality; fill-rule:evenodd; clip-rule:evenodd"
viewBox="0 0 21000 29700"
 xmlns:xlink="http://www.w3.org/1999/xlink"
 xmlns:xodm="http://www.corel.com/coreldraw/odm/2003">
 <defs>
  <style type="text/css">
   <![CDATA[
    .fil4 {fill:none;fill-rule:nonzero}
    .fil8 {fill:#E20613}
    .fil5 {fill:#E21013}
    .fil6 {fill:white}
    .fil3 {fill:#00B222;fill-rule:nonzero}
    .fil7 {fill:#1D1D1B;fill-rule:nonzero}
    .fil1 {fill:#342783;fill-rule:nonzero}
    .fil0 {fill:#6A62BC;fill-rule:nonzero}
    .fil9 {fill:#E20613;fill-rule:nonzero}
    .fil10 {fill:#E82121;fill-rule:nonzero}
    .fil11 {fill:#EBF0F2;fill-rule:nonzero}
    .fil12 {fill:#FFE600;fill-rule:nonzero}
    .fil2 {fill:white;fill-rule:nonzero}
   ]]>
  </style>
 </defs>
 <g id="Слой_x0020_1">
  <metadata id="CorelCorpID_0Corel-Layer"/>
  <g id="_1830579001664">
   <path class="fil0" d="M353.93 22057.74l0 -13974.22c0,-1927.41 776.12,-3741.68 2187.44,-5113.3 1407.35,-1367.65 3269.26,-2119.95 5244.3,-2119.95l5041.84 0c1975.05,0 3836.96,752.3 5244.3,2119.95 1409.33,1369.64 2187.45,3185.88 2187.45,5113.3l0 3539.21 591.52 0 0 6879.92 -591.52 0 0 3559.06c0,1927.41 -776.13,3741.68 -2187.45,5113.3 -1407.35,1367.65 -3269.25,2119.95 -5244.3,2119.95l-5041.84 0c-1975.04,0 -3838.93,-752.3 -5244.3,-2119.95 -1411.31,-1373.61 -2187.44,-3189.86 -2187.44,-5117.27zm19099.43 -13974.22c0,-3543.18 -2973.5,-6427.35 -6627.84,-6427.35l-5041.83 0c-3654.33,0 -6627.83,2884.17 -6627.83,6427.35l0 13976.2c0,3543.18 2973.5,6427.35 6627.83,6427.35l5041.84 0c3654.34,0 6627.83,-2884.17 6627.83,-6427.35l0 -4362.97 591.52 0 0 -5270.11 -591.52 0 0 -4343.12z"/>
   <path class="fil1" d="M19856.31 22057.74l0 -3960.02 591.52 0 0 -6074.03 -591.52 0 0 -3940.17c0,-3755.57 -3164.05,-6830.3 -7028.8,-6830.3l-5041.83 0c-3866.73,0 -7028.8,3072.74 -7028.8,6830.3l0 13976.2c0,3757.56 3164.05,6830.3 7028.8,6830.3l5041.83 0.01c3864.75,-1.99 7028.8,-3074.73 7028.8,-6832.29z"/>
   <path class="fil2" d="M4593.84 20680.17l0 -11272.67c0,-1190.99 458.53,-2314.48 1292.22,-3164.05 833.68,-849.58 1935.35,-1316.04 3104.49,-1316.04l2574.52 0c1169.15,0 2272.79,466.47 3106.48,1316.04 833.69,847.59 1292.22,1973.07 1292.22,3164.05l0 11272.68c0,1190.98 -458.53,2314.47 -1292.22,3164.05 -833.69,849.57 -1935.35,1316.04 -3106.48,1316.04l-2572.53 -0.01c-1169.15,0 -2272.8,-466.47 -3104.5,-1316.04 -833.69,-847.58 -1294.2,-1971.08 -1294.2,-3164.05zm11344.13 -11272.67c0,-2455.42 -1961.16,-4454.29 -4370.92,-4454.29l-2574.51 0c-2409.76,0 -4370.92,1998.87 -4370.92,4454.29l0 11272.67c0,2455.41 1961.16,4454.28 4370.92,4454.28l2574.52 0c2409.75,0 4370.91,-1998.87 4370.91,-4454.28l0 -11272.67z"/>
   <rect class="fil3" transform="matrix(-1.37814E-16 0.750227 -0.750227 -1.37814E-16 14999.5 7542.65)" width="19743.21" height="12549.19"/>
   <path class="fil2" d="M6092.5 21815.58l0 -13734.05 8398.42 0 0 13734.04 -8398.42 0.01zm25.8 -13706.25l0 13682.43 8346.81 0 0 -13682.43 -8346.81 0z"/>
   <path class="fil2" d="M8603.49 14947.56c0,-978.6 756.27,-1776.55 1687.23,-1776.55 930.95,0 1687.23,795.97 1687.23,1776.55 0,978.6 -756.28,1776.55 -1687.23,1776.55 -930.96,0 -1687.23,-795.97 -1687.23,-1776.55zm3350.64 0c0,-964.7 -746.35,-1750.75 -1661.42,-1750.75 -915.08,0 -1661.43,786.05 -1661.43,1750.75 0,964.7 746.35,1750.75 1661.43,1750.75 915.07,0 1661.42,-786.05 1661.42,-1750.75z"/>
   <line class="fil4" x1="11962.07" y1="14947.56" x2="14477.03" y2= "14947.56" />
   <rect class="fil2" transform="matrix(-1.37814E-16 0.750227 -0.750227 -1.37814E-16 14476.9 14934.6)" width="34.4" height="3352.27"/>
   <line class="fil4" x1="6104.4" y1="14947.56" x2="8615.39" y2= "14947.56" />
   <rect class="fil2" transform="matrix(-1.37814E-16 0.750227 -0.750227 -1.37814E-16 8615.58 14934.3)" width="34.4" height="3346.98"/>
   <path class="fil2" d="M8557.83 10147.9l0 -2064.38 3469.74 0 0 2064.38 -3469.74 0zm25.81 -2038.57l0 2012.76 3416.14 0 0 -2012.76 -3416.14 0z"/>
   <path class="fil2" d="M9433.21 9066.08l0 -982.56 1718.99 0 0 982.56 -1718.99 0zm25.8 -956.75l0 930.95 1667.38 0 0 -930.96 -1667.38 0.01z"/>
   <path class="fil2" d="M9838.14 10134l25.8 0c0,228.27 192.55,414.86 426.77,414.86 236.21,0 426.77,-186.59 426.77,-414.86l25.81 0c0,242.17 -202.47,440.67 -452.57,440.67 -250.11,-0.01 -452.58,-196.52 -452.58,-440.67z"/>
   <path class="fil2" d="M13891.46 8095.43l25.8 0c0,299.73 252.09,545.87 561.75,545.87l0 25.81c-325.53,0 -587.55,-256.07 -587.55,-571.68z"/>
   <path class="fil2" d="M6104.4 8667.11l0 -25.81c309.66,0 561.75,-244.16 561.75,-545.87l25.81 0c0,315.61 -264.01,571.68 -587.56,571.68z"/>
   <path class="fil2" d="M8557.83 21815.58l0 -2064.38 3469.74 0 0 2064.38 -3469.74 0zm25.81 -2038.57l0 2012.77 3416.14 -0.01 0 -2012.76 -3416.14 0z"/>
   <path class="fil2" d="M9433.21 21815.58l0 -982.57 1718.99 0 0 982.57 -1718.99 0zm25.8 -956.77l0 930.96 1667.38 0 0 -930.96 -1667.38 0z"/>
   <path class="fil2" d="M9838.14 19763.11c0,-242.17 202.48,-440.67 452.58,-440.67 250.11,0 452.57,198.49 452.57,440.67l-25.81 0c0,-228.28 -192.54,-414.86 -426.76,-414.86 -236.21,0 -426.77,186.58 -426.77,414.86l-25.81 0z"/>
   <path class="fil2" d="M13891.46 21803.66c0,-315.61 264.01,-571.67 587.56,-571.67l0 25.81c-309.66,0 -561.75,244.15 -561.75,545.86l-25.81 0z"/>
   <path class="fil2" d="M6104.4 21257.8l0 -25.81c323.55,0 587.56,256.06 587.56,571.67l-25.8 0c-0.01,-301.72 -252.1,-545.86 -561.76,-545.86z"/>
   <path class="fil2" d="M11477.73 14383.83c-11.91,-31.76 -25.8,-63.52 -41.68,-93.29 -35.73,-63.52 -75.43,-123.07 -123.07,-178.65 -77.41,-91.31 -168.72,-172.69 -271.94,-236.21l0 0 -3.97 -1.99 -15.88 -9.92c-115.13,-71.46 -240.18,-125.06 -371.19,-156.82 -99.25,-23.81 -200.48,-35.73 -301.72,-35.73 -442.65,0 -847.58,224.3 -1081.81,599.46 -11.91,19.85 -23.82,37.72 -33.74,57.57 -299.73,539.91 -164.75,1208.85 295.76,1593.93 -7.94,-37.71 -13.9,-77.42 -13.9,-119.1 0,-293.77 238.2,-531.97 531.97,-531.97 81.39,0 160.79,23.82 160.79,23.82 79.39,25.81 83.37,49.63 172.69,93.29 67.49,33.75 190.56,81.38 341.41,81.38 0,0 35.74,0 73.45,-3.96 283.85,-29.78 551.82,-220.34 664.96,-472.43 81.39,-184.6 89.33,-418.82 17.87,-609.38zm-412.88 434.71c-23.82,55.57 -69.47,105.2 -129.02,144.9 -57.56,39.7 -127.04,65.5 -186.59,73.45 -9.92,1.99 -19.85,1.99 -27.79,1.99 -59.55,0 -115.13,-21.83 -208.42,-63.52 -121.08,-51.61 -271.94,-115.13 -464.48,-115.13 -109.18,0 -216.37,21.83 -321.57,63.52 -77.42,31.75 -150.86,71.46 -216.37,119.1 -19.85,-174.68 13.89,-353.33 99.25,-508.16l0 0c5.95,-11.91 13.89,-25.8 21.83,-37.71 39.7,-63.52 87.34,-121.09 138.95,-170.71 51.61,-47.63 109.17,-89.32 172.69,-123.06 123.07,-67.49 264.01,-103.22 404.94,-103.22 67.49,0 134.98,7.94 200.48,23.82 83.37,19.85 162.77,53.6 236.21,97.27l23.82 15.88 25.81 15.88 1.99 0c55.57,37.72 105.2,83.37 146.88,132.99 27.79,33.75 53.6,71.46 75.43,109.18 5.96,11.91 11.91,23.82 15.88,35.73 29.79,89.3 27.8,204.43 -9.92,287.8z"/>
   <path class="fil2" d="M11569.04 15181.79l-1.99 11.91c-15.88,71.46 -37.72,138.95 -65.5,206.44 -27.79,67.49 -59.56,131.01 -99.25,192.55 -11.91,19.85 -23.82,37.71 -37.71,55.57l-3.97 5.96c-190.56,269.95 -474.41,452.57 -801.94,514.11 -23.82,3.97 -75.42,11.91 -146.88,13.89 -133,3.97 -478.38,15.88 -609.39,-190.56 -7.94,-13.89 -57.56,-91.31 -47.64,-192.54 0,-160.78 129.03,-289.81 289.81,-289.81 95.28,-11.91 242.16,47.64 242.16,47.64 134.98,55.58 160.78,99.25 275.91,117.11 9.93,1.99 35.74,3.97 75.43,5.96 55.58,1.99 252.09,1.99 452.57,-83.37 224.32,-89.32 377.16,-254.08 478.39,-414.86z"/>
   <rect class="fil2" transform="matrix(-1.37814E-16 0.750227 -0.750227 -1.37814E-16 20127.6 12286.7)" width="7397.75" height="2383.9"/>
   <path class="fil2" d="M18327.88 17847.61l0 -5573.81 1814.27 0 0 5575.79 -1814.27 0 0 -1.98zm25.8 -5548.01l0 5522.21 1762.66 0 0 -5522.21 -1762.66 0z"/>
   <path class="fil5" d="M19550.62 16287.42l0 1026.23c0,49.63 -47.64,89.33 -105.2,89.33l-353.33 0c-57.56,0 -105.2,-39.71 -105.2,-89.33l0 -1026.23c0,-49.63 47.64,-89.32 105.2,-89.32l353.33 0c57.56,0 105.2,39.69 105.2,89.32z"/>
   <g>
    <path class="fil6" d="M19187.37 17113.17c15.88,7.94 31.76,17.86 49.63,35.73 17.86,15.89 19.85,23.82 19.85,27.79l-3.97 3.97 -1.99 0c-9.92,-5.96 -57.56,-33.74 -71.46,-43.67l-13.89 -9.92 -11.92 -13.9 0 -5.96c3.97,-7.93 15.89,-3.96 33.75,5.96l0 0zm27.79 -115.13l-1.99 -3.97c0,-3.97 7.94,-17.86 21.83,-17.86 13.9,0 27.79,19.85 21.83,27.79l-27.78 1.99 -13.89 -7.95zm-11.91 -5.96c0,0 -13.89,-7.93 -23.82,-15.88 -11.91,-7.94 -27.79,-23.82 -23.82,-33.74 5.96,-15.89 37.72,1.99 53.6,11.91 15.88,9.93 17.86,11.91 17.86,11.91l0 0 -11.91 9.93 -11.91 15.87 0 0zm-63.52 210.41l1.99 1.99 1.99 -3.97 0 -3.97 -3.97 0 -0.01 5.95zm-9.92 5.96l0 -3.97 5.95 -3.97 0 -3.97 -5.95 0 0 -3.97 15.88 0 0 7.94 0 3.96 -3.97 1.99 -3.97 -3.97 -7.94 5.96zm7.94 3.97l11.91 -11.91 -11.91 -11.92 -11.91 11.92 11.91 11.91zm0 -25.81l13.89 13.9 -13.89 13.89 -13.89 -13.89 13.89 -13.9zm180.63 -101.23c-41.68,-33.74 -103.21,-63.52 -103.21,-63.52l-3.97 -9.92 0 -5.96 0 0c0,0 53.59,29.78 61.53,0 5.96,-27.79 -45.65,-77.42 -83.37,-95.28 -25.81,-11.91 -57.57,-19.85 -63.52,1.99 -7.94,21.83 31.75,59.55 43.67,69.47 11.91,9.92 31.75,19.85 31.75,19.85l0 7.94 1.99 7.93c0,0 -9.92,-3.96 -21.83,-7.93 -23.82,-7.94 -55.58,-13.9 -57.56,11.91 0,17.86 29.77,41.68 29.77,41.68 0,0 -27.79,-5.95 -29.77,15.89 -1.99,15.88 23.82,39.7 23.82,39.7 0,0 -21.84,-5.96 -23.82,11.91 -1.99,13.9 15.88,33.75 33.74,51.61 19.85,17.86 41.68,31.76 41.68,31.76l0 -9.93c0,0 -35.73,-23.82 -45.65,-39.7 -7.93,-13.89 3.97,-7.94 11.92,-3.97l103.21 61.53 0 -29.77 -7.94 -3.97c0,0 11.92,-5.96 11.92,-15.88 0,-17.87 -13.9,-35.74 -37.72,-57.57 -17.86,-15.88 -55.57,-39.7 -55.57,-39.7 0,0 -29.78,-19.85 -27.79,-29.78 3.97,-15.88 65.5,13.9 65.5,13.9 0,0 9.93,15.88 27.79,37.71 11.91,13.9 25.81,27.79 39.7,41.68 11.92,11.92 29.78,27.79 49.63,41.69l-1.99 -11.92c-15.88,-11.91 -31.76,-25.8 -43.67,-37.71 -17.86,-17.86 -31.76,-33.75 -41.68,-43.67 -7.94,-11.92 -13.9,-17.86 -13.9,-17.86 0,0 43.67,21.83 91.31,55.57 47.64,35.74 91.31,83.37 71.46,81.39 -5.95,-1.99 -13.89,-3.97 -25.8,-9.93l3.96 11.91c17.87,7.94 31.76,11.92 35.74,5.96 19.83,-29.76 -51.63,-95.27 -91.33,-129.01zm-15.88 -553.81l-13.89 -5.95 -1.99 -1.99c0,-1.99 3.97,-19.85 19.85,-19.85 13.89,0 27.79,19.85 21.83,27.79l-25.8 0zm-23.82 -11.91c0,0 -17.86,-9.93 -27.79,-17.86 -11.91,-7.94 -27.79,-25.81 -23.82,-33.75 5.96,-15.88 37.72,1.99 53.6,11.91 15.88,9.93 17.86,11.92 17.86,11.92l0 0 -11.91 11.91 -7.94 15.87 0 0zm-19.85 142.92c15.88,7.93 31.76,19.85 51.61,35.73 19.85,15.88 21.83,23.82 19.85,27.79l-3.97 3.97c0,0 -59.55,-33.75 -75.43,-45.65l-13.89 -9.93 -11.92 -13.89 0 -5.96c3.97,-5.96 17.87,-1.99 33.75,7.94zm85.35 -131.01c7.94,-29.77 -41.68,-77.41 -83.37,-97.26 -25.81,-11.92 -55.58,-17.87 -63.52,3.96 -7.94,21.84 31.76,59.56 43.67,69.48 11.91,9.92 35.73,23.82 35.73,23.82l1.99 7.93 1.99 7.94c0,0 -9.93,-5.96 -19.85,-9.93 -11.92,-5.95 -51.61,-21.83 -63.52,9.93 -11.92,29.78 35.73,71.46 37.71,73.45 0,0 -31.76,-11.92 -37.71,5.95 -5.96,21.84 21.83,45.66 21.83,45.66 0,0 -19.85,-3.97 -21.83,11.91 -3.97,29.78 73.44,83.37 73.44,83.37l0 -9.92c0,0 -33.74,-27.79 -41.68,-39.71 -7.94,-11.91 5.96,-7.93 11.91,-3.96l103.22 61.53 0 -29.78 -5.96 -3.97c0,0 9.93,-5.95 7.94,-15.88 -1.99,-29.77 -49.63,-65.5 -71.46,-81.38 -21.83,-15.89 -61.53,-49.63 -55.58,-67.49 7.94,-19.85 43.68,0 65.51,11.91 23.82,13.89 45.65,39.7 45.65,49.63 0,11.91 -9.93,7.94 -9.93,7.94l-7.93 -15.89 -19.86 -3.97 7.94 21.84c25.81,17.86 39.7,3.96 41.68,-7.94 3.97,-29.78 -33.74,-55.58 -47.63,-75.43 -9.93,-13.89 -7.94,-19.85 -7.94,-19.85 0,0 51.61,13.9 57.56,-13.89zm17.87 454.56c-19.85,-7.94 -31.75,-19.85 -41.68,-29.78 -13.89,-13.89 -11.91,-21.83 -9.93,-25.81 5.96,-9.92 31.76,3.97 55.58,23.82 23.82,21.83 29.78,39.71 29.78,39.71 -0.01,-1.99 -11.92,1.98 -33.75,-7.94zm-236.21 -180.63c0,45.65 51.6,91.31 95.28,105.2 41.68,15.88 53.59,-1.99 53.59,-15.88 -1.99,-15.88 -13.89,-41.68 -43.67,-55.58 -29.78,-13.89 -47.64,-13.89 -47.64,-13.89 0,0 7.94,7.93 17.86,19.85 7.94,11.91 11.92,19.85 11.92,19.85 0,0 9.92,1.99 21.83,7.94 11.91,5.95 21.83,13.89 25.81,23.82 5.95,21.83 -33.75,9.92 -57.57,-3.97 -13.89,-7.94 -51.61,-37.72 -51.61,-63.52 0,-25.81 23.82,-29.78 47.64,-23.82 21.84,5.95 51.61,11.91 103.22,49.62 51.61,37.72 83.37,77.42 97.27,99.25 13.89,23.82 7.93,33.75 7.93,33.75 0,0 -17.86,-29.78 -41.68,-47.64 -21.83,-15.89 -45.65,-25.81 -57.56,-17.87 -11.92,7.94 -11.92,33.75 29.77,61.54 39.71,27.79 63.52,21.83 63.52,21.83l1.99 5.96c1.99,13.89 -1.99,23.82 -9.92,41.68 -9.93,17.86 -23.82,33.74 -35.74,57.56l23.82 23.82c15.89,-31.75 37.72,-55.57 39.71,-85.35 1.98,-25.81 -7.94,-47.64 -7.94,-47.64 0,0 11.91,-7.94 7.94,-33.75 -3.97,-25.8 -35.74,-103.21 -140.93,-168.72 -101.25,-65.5 -156.82,-35.73 -154.84,5.96zm0 -410.89c0,45.65 25.8,101.24 27.78,158.8 0,35.74 -11.91,57.57 -31.75,69.47 0,0 19.85,11.92 19.85,37.72 1.99,25.8 -5.96,53.59 -21.83,75.42 11.91,-7.93 27.79,-29.77 37.71,-47.63 11.91,-17.87 17.86,-41.69 17.86,-69.48 0,-69.47 -33.74,-144.9 -33.74,-196.51 0,-59.55 45.65,-63.52 71.46,-59.55 55.57,9.92 107.19,49.62 134.98,73.44 27.79,25.81 49.63,51.61 55.58,73.45 5.95,21.83 -11.92,19.85 -13.9,17.86l-1.99 -11.91c-3.97,-3.97 -9.92,-11.91 -17.86,-11.91 -13.89,0 -17.86,17.86 13.89,31.75 19.86,9.93 35.74,-5.95 35.74,-17.86 1.99,-15.88 -3.97,-41.68 -23.82,-73.45 -33.75,-53.59 -109.17,-125.05 -194.53,-127.03 -49.63,3.97 -75.43,35.73 -75.43,77.42zm240.18 772.15c-7.94,-7.94 -15.88,-13.89 -25.81,-21.83 -9.92,49.63 19.85,91.31 47.64,115.13 15.89,13.89 29.78,21.83 29.78,21.83 0,0 -15.88,-13.89 -27.79,-33.75 -13.89,-23.82 -25.81,-53.58 -23.82,-81.38zm-23.82 -345.38l0 -27.79 -25.81 -15.88 0 27.79 25.81 15.88z"/>
   </g>
   <path class="fil7" d="M19387.85 15685.97c19.85,0 37.72,0 53.6,0 15.88,0 27.79,0 39.7,-1.99 -11.91,3.97 -21.83,9.93 -29.78,13.9l-23.81 11.91 -129.03 69.47 0 61.53 248.12 0.01 0 -47.64 -77.41 0c-23.82,0 -43.67,0 -61.54,0 -17.86,0 -31.75,1.99 -41.68,1.99 9.93,-3.97 19.85,-9.92 29.78,-13.89 9.92,-5.96 19.85,-9.93 29.77,-15.89l123.07 -65.5 0 -75.43 -15.88 9.93 -9.93 1.99 -9.92 0 -176.66 -0.01 -9.93 0 -9.93 -1.99 -9.92 -3.97 -5.96 -5.95 0 59.55 87.34 0 0 1.98zm-89.32 -71.46l11.91 -9.92c5.96,-3.97 13.9,-5.96 21.84,-9.93l214.37 -71.46 0 -47.64 -214.37 -71.46c-19.85,-5.95 -31.76,-11.91 -33.75,-19.85l0 55.58 49.63 15.88 0 87.34 -49.63 15.88 0 55.58zm150.86 -127.03l21.83 5.95 19.85 3.97 0 0 -19.85 3.97 -19.85 5.96 -63.52 21.83 0 -63.52 61.54 21.84zm57.56 -180.64l0 53.6 39.7 15.88 0 -178.65 -39.7 0 0 61.53 -208.42 0 0 45.66 208.42 0 0 1.98zm-210.41 -218.34c0,29.77 7.94,53.59 21.83,69.47 13.9,15.88 31.76,23.82 55.58,23.82 19.85,0 35.73,-5.96 47.64,-15.88l11.91 -13.9 9.93 -21.83 7.94 -19.85 5.95 -9.93c5.96,-7.93 13.9,-13.89 23.82,-13.89l21.84 9.92c5.95,7.94 7.93,17.87 7.93,29.78l-1.99 21.83 -5.95 21.83 41.7 0.01 3.96 -21.83 1.99 -17.86c1.99,-27.79 -5.95,-49.63 -17.86,-65.51 -13.89,-15.88 -31.76,-23.81 -53.6,-23.81 -23.82,0 -39.7,5.95 -51.6,19.85l-9.93 15.88c-3.97,5.96 -7.94,15.88 -11.91,25.81l-5.96 13.89 -5.96 9.93c-5.95,5.95 -13.89,9.92 -23.82,9.92 -21.83,0 -31.75,-13.89 -31.75,-41.68 0,-23.82 1.98,-41.68 7.93,-53.6l-43.67 17.87c-3.96,-0.02 -5.95,11.89 -5.95,29.76zm250.11 -83.38l0 -61.53 -15.88 9.93 -9.92 1.98 -9.93 0 -212.39 0 0 47.64 248.12 0 0 1.98zm-138.95 -198.49l0 5.96 -11.91 13.89 -97.27 51.61 0 55.58 119.1 -71.46 9.93 -5.96 3.97 -3.97 115.13 79.4 0 -55.58 -109.18 -71.46 109.18 0 0 -59.55 -15.88 9.92 -9.92 1.99 -9.93 0 -176.66 0 -9.93 0 -9.92 -1.99 -15.89 -9.92 0 59.55 109.18 0 0 1.99zm-109.17 -91.31l39.7 17.86 0 -87.34 67.49 0.01 0 71.46 39.7 0 0 -71.46 59.55 0 0 81.38 39.7 0 0 -140.93 -15.89 9.92 -9.92 1.99 -9.93 0 -176.65 0 -21.84 -3.97 -7.93 -3.97 -5.96 -3.97 -0.01 129.02 1.99 0zm41.68 -267.97l69.48 0 0 17.86c0,15.88 -1.99,27.79 -5.95,37.71 -5.96,9.93 -13.9,13.9 -27.79,13.9 -9.93,0 -19.85,-3.97 -25.81,-11.92 -5.96,-7.93 -9.93,-19.85 -9.93,-33.74l0 -23.81zm166.74 25.8c0,25.81 -9.92,39.71 -27.79,39.71 -11.91,0 -19.85,-3.97 -25.8,-9.93l-5.96 -13.89 -1.99 -21.84 0 -17.86 61.54 -0.01 0 23.82zm-75.43 51.61c3.97,11.92 11.92,19.85 21.84,27.79 9.92,7.94 21.83,9.93 33.74,9.93 39.7,0 59.55,-27.79 59.55,-81.39l0 -93.29 -15.88 9.93 -19.85 3.96 -176.66 0 -9.93 0 -9.92 -1.98 -15.89 -9.93 0 83.37c0,33.75 7.94,59.56 25.81,75.43 13.9,13.9 31.76,21.83 51.61,21.83 13.89,0 25.81,-3.97 35.73,-9.92 9.93,-11.91 15.89,-21.83 19.85,-35.73l0 0zm-132.99 -315.61l0 150.85 41.68 15.89 0 -67.49 0 -17.87 0 -11.9 0 -7.94 0 -5.96 9.93 7.94 9.92 5.96 148.88 91.31 37.71 -0.01 0 -154.83 -39.7 0.01 0 65.5 0 13.89 0 9.93 0 5.95 0 5.96 -11.91 -7.94 -11.92 -7.93 -148.87 -91.31 -35.72 -0.01zm87.34 -224.3c-59.55,0 -89.32,31.75 -89.32,93.29 0,33.74 7.94,59.55 25.81,77.41 15.88,15.89 37.71,23.82 63.52,23.82l160.77 0.01 0 -47.64 -158.8 0c-35.73,0 -53.59,-15.88 -53.59,-49.63 0,-17.86 3.97,-31.75 13.89,-39.7 7.94,-5.96 21.83,-9.92 39.7,-9.92l158.8 0 0 -59.56 -13.89 7.94 -21.83 3.97 -125.06 0.01z"/>
   <path class="fil7" d="M19111.94 14479.11l83.38 0 0 9.93c0,31.75 -13.9,45.65 -39.71,45.65 -13.89,0 -23.82,-3.97 -31.75,-13.9 -7.94,-9.92 -11.92,-21.83 -11.92,-35.73l0 -5.95zm123.07 -59.55l-15.88 9.92 -9.93 1.99 -9.92 0 -176.66 0 -21.83 -3.97 -7.94 -3.97 -5.96 -3.96 0 59.55 85.35 -0.01 0 9.93c0,29.77 7.94,53.59 25.81,71.46 15.88,15.88 35.73,25.8 61.53,25.8 23.82,0 43.67,-7.93 55.58,-25.8 13.89,-15.89 19.85,-39.71 19.85,-69.48l0 -71.46zm-160.78 -222.32c-59.55,0 -89.32,31.76 -89.32,93.29 0,33.75 7.93,59.56 25.8,77.42 15.89,15.88 37.72,23.82 63.53,23.82l160.77 0 0 -47.64 -158.79 0c-35.74,0 -53.6,-15.88 -53.6,-49.63 0,-17.86 3.97,-31.75 13.89,-39.7 7.94,-5.96 21.84,-9.93 39.71,-9.93l158.79 0.01 0 -59.55 -13.89 7.94 -21.84 3.97 -125.05 0zm-91.31 -97.26c0,23.82 1.99,41.68 5.96,51.6l45.65 19.86c-5.96,-15.89 -7.94,-37.72 -7.94,-63.53 0,-55.57 27.79,-81.38 85.35,-81.38 23.82,0 45.65,7.94 59.56,21.83 15.88,13.89 23.82,33.75 23.82,57.57 0,21.83 -3.97,43.67 -13.9,65.5l45.65 0c3.97,-11.92 5.96,-21.83 7.94,-33.75 1.99,-9.92 1.99,-21.83 1.99,-31.75 0,-41.69 -11.92,-73.45 -37.72,-97.27 -23.82,-21.83 -53.59,-33.75 -93.29,-33.75 -33.74,0 -61.53,9.93 -85.35,29.78 -23.83,21.85 -37.72,53.6 -37.72,95.29z"/>
   <rect class="fil5" transform="matrix(-1.37814E-16 0.750227 -0.750227 -1.37814E-16 19614.8 16018)" width="39.69" height="926.04"/>
   <path class="fil8" d="M19665.75 13627.55l132.99 -228.27 -132.99 -228.27 -132.99 -228.27 -528 0 -133 228.27 -132.99 228.27 132.99 228.27 133 230.26 528 0 132.99 -230.26zm-653.06 212.4l-127.03 -220.34 -127.04 -220.33 127.04 -220.33 127.03 -220.34 508.16 0.01 45.65 79.4 -13.9 7.93 -39.7 -69.47 -488.3 0 -121.09 210.41 -121.08 212.39 1.99 1.99 35.73 -63.52c5.96,9.92 21.83,19.85 31.76,21.83 15.88,3.97 23.82,-7.94 33.74,-17.87l15.88 -7.93 15.89 11.91c11.91,13.9 17.86,15.88 35.73,17.86 15.88,1.99 31.76,1.99 47.64,-1.98 49.63,-11.92 132.99,-146.89 166.74,-184.61 11.91,-13.89 23.82,-27.78 35.73,-39.7l17.86 -17.86 15.89 -25.81c9.92,-1.99 5.95,17.87 19.85,7.94l23.82 -15.88c15.88,-9.93 31.75,-19.85 49.62,-25.81 33.75,-15.88 83.38,-29.78 121.09,-29.78 23.82,0 41.68,3.97 63.52,11.92 17.86,5.95 27.79,11.91 39.7,7.93l1.97 0.02 0 -1.99 1.98 0 0 0 1.99 0 0 -1.99 1.98 0 0 -1.99 1.99 0.01 0 -1.99 1.98 0 1.99 -1.98 1.98 0 1.99 -1.98 1.98 0 0 -1.99 1.99 0 7.94 -3.97 1.98 0 0 -1.99 3.97 1.99 1.98 1.99 1.99 1.98 0 1.99 0 0 1.99 1.99 0 3.97 -1.99 1.99 0 3.97 0 1.98 0 1.99 -1.99 1.99 0 0 -1.98 1.99 0 1.99 -1.99 1.99 -11.91 11.91 1.98 1.99 0 -1.99 2 -0.03 0 -1.99 1.98 0 0 -1.99 1.99 0 0 -1.98 1.99 -1.99 -0.01 0 0 -1.98 1.99 -1.99 0 -1.99 1.98 0.01 1.99 -1.99 0 -1.99 1.99 -1.99 69.47 119.1 127.04 220.34 -127.04 220.33 -69.47 119.1 -1.99 -1.99 0 1.99 1.98 0.01 0 1.98 1.98 0 0 1.99 1.99 -0.01 0 1.99 1.99 0 0 1.99 1.98 0 0 3.97 0 5.96 0 3.96 0 3.97 -13.89 -1.99 -1.99 -1.98 -1.99 1.98 0 1.99 -43.67 77.42 -528 0 0 3.97z"/>
   <path class="fil8" d="M19568.49 13724.82l3.96 -9.93c1.99,-15.88 1.99,-35.73 -3.96,-51.61 -3.97,-15.88 -19.86,-29.77 -33.75,-39.7 -9.93,-5.95 -17.86,-9.92 -27.79,-9.92 -15.88,-3.97 -19.85,1.98 -19.85,-17.87l41.69 0c9.93,-9.92 15.88,-3.96 23.82,-21.83 3.97,-9.92 9.93,-23.82 11.91,-33.74 3.97,-23.82 -1.98,-17.87 17.87,-27.79 9.92,-3.97 19.85,-9.93 27.79,-19.85l11.91 -11.92c19.85,-21.83 31.76,-47.64 31.76,-77.41l0 -1.99c1.98,-29.78 -9.93,-57.56 -31.76,-77.42l-11.91 -11.91c-9.93,-7.94 -17.87,-13.89 -27.79,-19.85 -19.85,-9.93 -11.92,-5.96 -17.87,-27.79 -1.98,-11.91 -5.95,-23.82 -11.91,-33.74 -9.93,-17.87 -13.89,-11.92 -23.82,-21.84l-41.69 0.01c1.99,-19.85 3.97,-13.89 21.83,-17.86 9.93,-1.99 17.87,-3.97 25.81,-11.91 13.89,-7.94 29.78,-23.82 33.75,-39.71 3.96,-13.89 7.93,-33.74 3.96,-49.62l-3.96 -13.9 0 -1.99 1.98 0 65.51 115.13 123.06 212.39 -123.06 212.39 -67.49 111.18z"/>
   <path class="fil8" d="M19022.62 13822.08l488.3 0 37.71 -67.49c-11.91,-3.97 -21.83,1.98 -37.71,7.93 -21.83,7.94 -39.7,11.92 -63.52,11.92 -35.73,1.99 -87.34,-11.92 -121.09,-27.79 -17.86,-7.94 -33.74,-17.86 -49.63,-25.81l-23.82 -15.88c-13.89,-11.91 -11.91,7.94 -21.83,5.96l-13.89 -23.82 -17.86 -19.85c-11.92,-11.92 -23.82,-25.81 -35.74,-37.72 -33.74,-37.71 -117.11,-174.67 -166.73,-186.59 -15.89,-3.97 -31.76,-3.97 -49.63,-1.99 -17.87,1.99 -23.82,3.97 -35.74,17.87l-15.88 11.91 -15.88 -9.92c-11.91,-9.93 -19.85,-19.86 -33.75,-15.89 -9.92,1.99 -23.82,11.92 -29.77,19.85l83.37 144.91 123.09 212.4z"/>
   <path class="fil8" d="M19528.79 13714.89c7.94,-9.92 9.93,-19.85 9.93,-31.75l-11.92 -29.78c-7.93,9.92 0,23.82 -25.81,31.76 -13.89,3.96 -29.77,-5.96 -37.71,-17.87 -9.92,-17.86 -1.99,-27.79 -19.85,-37.71 -15.88,-9.93 -17.86,-13.9 -25.81,-31.76 -19.85,-1.99 -47.64,-1.99 -67.49,-1.99 -23.82,0 -45.65,0 -67.49,-1.98 -19.85,0 -43.67,-1.99 -63.52,-5.96l-51.61 -15.88 -5.96 13.89 7.94 11.91 21.83 21.84c11.92,11.91 33.75,25.8 49.63,33.74 9.93,5.96 31.76,3.97 33.75,9.93 3.97,11.91 -23.82,5.95 3.97,21.83 17.86,9.92 35.73,19.85 55.57,29.77 39.7,17.87 95.28,31.76 138.95,25.81 13.91,-3.97 43.69,-9.92 55.6,-25.8z"/>
   <path class="fil8" d="M19165.54 13230.56l-3.97 -13.89 7.94 -13.9 21.83 -19.85c11.91,-13.89 33.74,-27.79 49.63,-35.73 9.92,-3.97 31.75,-3.97 33.74,-7.94 3.97,-11.91 -23.82,-5.96 3.97,-21.83 17.86,-9.93 35.73,-21.83 53.6,-29.78 41.68,-19.85 95.28,-33.74 138.95,-25.8 17.86,1.98 47.64,9.92 59.55,23.81 7.94,9.93 9.92,21.84 9.92,33.75l-11.91 29.78c-7.94,-9.93 0,-23.82 -25.81,-31.76 -13.89,-3.97 -29.77,3.97 -37.71,17.86 -9.93,17.87 -1.99,27.79 -19.85,39.7 -15.88,9.93 -17.86,13.9 -25.81,31.76 -21.83,1.99 -47.64,0 -69.47,0 -21.83,1.99 -45.65,1.99 -67.49,1.99 -19.85,0 -41.68,1.99 -61.53,7.94l-55.58 13.89z"/>
   <path class="fil9" d="M19229.05 15249.28l0 113.14 -43.66 0 0 -79.4 -45.65 -9.92 1.99 7.94 0 7.93c0,21.83 -7.94,39.7 -21.84,55.58 -15.88,13.89 -33.74,21.83 -57.56,21.83 -23.82,0 -43.67,-7.94 -59.55,-23.82 -15.89,-15.88 -23.82,-35.73 -23.82,-59.55 0,-19.85 5.95,-37.72 17.86,-53.6 11.91,-15.88 27.79,-23.82 49.63,-29.77l0 49.62 -17.87 13.9 -5.95 19.85c0,9.92 3.97,19.85 11.91,25.81 7.94,7.93 15.88,9.92 27.79,9.92 11.91,0 19.85,-3.97 27.79,-9.92 7.94,-5.96 9.92,-13.9 9.92,-23.82l-3.96 -15.89 -11.92 -13.89 7.94 -37.71 136.95 31.77zm-79.39 -188.58l0 -45.65c25.8,1.99 47.64,9.93 61.53,23.82 15.88,15.88 21.83,35.73 21.83,59.55 0,13.9 -3.97,27.79 -9.92,39.7 -5.96,11.92 -15.89,19.86 -27.79,27.79 -11.92,5.96 -23.82,9.93 -35.74,9.93 -13.89,0 -29.77,-3.97 -47.64,-11.92 -15.88,-7.93 -35.73,-23.81 -59.55,-45.65l-29.77 -27.78 0 87.34 -37.7 -0.01 0 -168.73 21.83 0 77.41 75.43c17.87,17.86 33.75,29.78 43.67,35.73 11.92,5.96 21.84,9.93 29.78,9.93 9.93,0 17.86,-3.97 23.82,-9.93 5.96,-5.95 9.93,-13.89 9.93,-23.82 0,-9.92 -3.97,-17.86 -11.92,-25.8 -5.95,-5.95 -15.88,-7.94 -29.77,-9.93zm41.68 -152.83l-7.94 -19.86c-5.96,-5.95 -13.89,-9.92 -25.81,-13.89 -11.91,-3.97 -29.77,-3.97 -53.59,-3.97 -29.78,0 -51.61,3.97 -63.52,11.91 -11.92,7.94 -17.87,15.89 -17.87,27.79 0,11.92 5.96,19.85 15.89,25.81 13.89,7.94 35.73,11.91 67.49,11.91 31.75,0 53.59,-3.96 65.5,-9.92 13.9,-9.94 19.85,-17.88 19.85,-29.78zm43.67 -1.99c0,17.86 -3.97,33.74 -13.89,45.65 -7.94,11.91 -21.84,21.83 -39.71,29.77 -17.86,7.94 -43.67,9.93 -75.42,9.93 -31.76,0 -57.57,-3.97 -75.43,-9.93 -17.87,-7.93 -31.76,-15.88 -39.7,-27.78 -7.94,-11.92 -11.92,-27.79 -11.92,-45.65 0,-17.87 3.97,-33.75 11.92,-45.66 7.93,-11.91 21.83,-21.83 39.7,-29.77 17.86,-7.94 41.68,-9.93 73.44,-9.93 45.66,0 77.42,5.96 97.27,19.85 23.81,15.88 33.74,37.71 33.74,63.52zm-85.35 -224.31l0 -45.65c25.8,1.99 47.64,9.93 61.53,23.82 15.88,15.88 21.83,35.74 21.83,59.56 0,13.89 -3.97,27.78 -9.92,39.7 -5.96,11.91 -15.89,19.85 -27.79,27.79 -11.92,5.95 -23.82,9.92 -35.74,9.92 -13.89,0 -29.77,-3.97 -47.64,-11.91 -15.88,-7.94 -35.73,-23.82 -59.55,-45.65l-29.77 -27.79 0 87.34 -37.7 -0.01 0 -168.72 21.83 0 77.41 75.42c17.87,17.87 33.75,29.78 43.67,35.74 11.92,5.95 21.84,9.92 29.78,9.92 9.93,0 17.86,-3.97 23.82,-9.92 5.96,-5.96 9.93,-13.9 9.93,-23.82 0,-9.93 -3.97,-17.87 -11.92,-25.81 -5.95,-5.96 -15.88,-9.93 -29.77,-9.93z"/>
   <path class="fil2" d="M16545.37 15570.84l0 -1054.02 1514.54 0 0 1054.03 -1514.54 -0.01zm25.8 -1026.23l0 1002.42 1462.93 -0.01 0 -1002.41 -1462.93 0z"/>
   <path class="fil2" d="M16545.37 17891.28l0 -2000.86 1514.54 0 0 2000.86 -1514.54 0zm25.8 -1973.06l0 1947.26 1462.93 0 0 -1947.26 -1462.93 0z"/>
   <path class="fil2" d="M16545.37 20142.24l0 -2000.85 2568.56 0 0 2000.85 -2568.56 0zm25.8 -1975.05l0 1947.26 2516.95 0 0 -1947.26 -2516.95 0z"/>
   <path class="fil2" d="M16424.29 22240.35l5.95 -117.11c63.52,-297.75 103.22,-609.38 115.13,-926.98l0 -815.82 2568.56 0 0 1010.35c0,357.3 -27.79,716.58 -83.37,1067.92l-1.99 11.91 -869.42 -75.43c-573.66,-49.62 -1147.32,-101.23 -1722.96,-150.85l-11.9 -3.99zm146.88 -1836.09l0 790.02c-11.91,321.57 -51.61,633.2 -115.13,930.95l-3.97 91.31c569.69,49.63 1139.38,99.25 1709.07,148.88l845.6 73.44c53.59,-347.37 81.38,-700.69 81.38,-1052.03l0 -984.55 -2516.95 -0.01 0 1.99z"/>
   <path class="fil2" d="M16430.24 7887l13.9 -1.98c833.69,-73.45 1665.39,-144.91 2499.08,-218.35l81.38 -7.94 1.99 11.92c57.56,355.3 85.35,718.56 85.35,1079.82l0 996.46 -2566.57 0 0 -855.52c0,-335.47 -37.71,-668.94 -111.16,-992.49l-3.97 -11.92zm2574.52 -198.49l-57.57 5.96c-827.73,73.44 -1655.47,144.9 -2485.18,218.34 71.46,321.57 109.17,651.07 109.17,982.57l0 829.72 2516.94 -0.01 0 -970.65c0,-357.3 -27.79,-716.57 -83.36,-1065.93z"/>
   <path class="fil2" d="M16545.37 11952.24l0 -2000.86 2568.56 0 0 2000.86 -2568.56 0zm25.8 -1975.05l0 1949.24 2516.95 0 0 -1949.25 -2516.95 0.01z"/>
   <path class="fil2" d="M15715.65 23792.61l5.96 -11.91 3.97 -5.96 3.97 -5.96c234.22,-339.43 418.82,-710.62 553.81,-1107.62l55.57 -111.16 184.6 15.89c811.86,71.45 1623.71,140.93 2435.57,212.38l13.89 1.99 -3.97 13.9c-39.7,190.55 -89.32,381.11 -146.88,569.68 -156.82,514.11 -375.16,1008.37 -649.09,1472.85l-5.96 9.93 -2451.44 -1054.01zm635.2 -1214.8l-47.64 93.29c-133,396.99 -319.58,770.16 -553.81,1109.6l2403.8 1032.18c269.95,-458.53 486.32,-948.82 641.14,-1456.97 55.58,-182.62 103.22,-369.21 142.92,-551.82 -807.88,-69.47 -1613.78,-140.93 -2421.67,-210.41l-164.74 -15.87z"/>
   <path class="fil2" d="M14758.9 24763.26l11.91 -7.94c162.77,-117.11 315.61,-246.13 452.57,-383.1 99.25,-99.25 200.49,-208.42 289.81,-317.59 13.89,-15.88 27.79,-33.75 39.7,-49.63l5.96 -7.94 601.45 307.67c587.55,299.73 1173.12,601.45 1760.67,901.18l13.89 5.96 -7.94 11.91c-414.86,605.42 -919.04,1137.39 -1504.61,1584.01l-9.92 7.94 -7.94 -9.92c-545.87,-676.88 -1091.74,-1353.76 -1637.6,-2030.63l-7.95 -11.92zm807.88 -736.43c-11.92,13.9 -21.83,27.79 -33.75,41.68 -91.31,111.17 -190.56,222.32 -291.79,319.59 -136.96,134.98 -285.84,262.01 -444.64,379.12 539.92,670.92 1079.83,1339.86 1619.74,2010.78 573.66,-440.67 1071.89,-964.7 1478.81,-1558.2 -581.6,-297.75 -1165.18,-595.5 -1746.78,-893.25l-581.59 -299.72z"/>
   <path class="fil2" d="M13869.62 25255.54l9.93 -3.97c230.26,-97.27 448.6,-208.42 649.09,-333.48l9.92 -5.95 1595.92 2104.07 -11.91 7.93c-472.43,323.55 -984.55,583.59 -1520.49,778.12l-13.9 3.97 -3.97 -13.9c-238.19,-841.63 -474.4,-1685.24 -712.6,-2526.87l-1.99 -9.92zm661 -309.66c-194.52,121.09 -406.92,230.26 -631.22,325.54 236.21,833.69 470.44,1667.38 704.66,2501.07 524.04,-190.56 1026.24,-446.62 1490.72,-762.23l-1564.16 -2064.38z"/>
   <path class="fil2" d="M12521.82 25630.7l11.92 -1.99c349.36,-57.57 682.83,-138.95 992.49,-244.16l13.89 -3.96 3.97 13.89c156.81,637.17 313.63,1276.34 470.44,1913.51l156.81 633.21 -11.91 3.97c-482.35,136.96 -982.57,222.31 -1482.78,250.11l-13.9 0 0 -13.9c-45.65,-847.58 -93.29,-1693.18 -138.94,-2540.77l-1.99 -9.91zm998.45 -216.37c-303.7,101.24 -631.22,182.62 -972.64,238.2 45.65,839.64 91.31,1677.3 136.96,2514.96 490.29,-27.79 978.6,-109.17 1453.01,-244.15l-150.86 -609.39c-154.83,-633.21 -309.66,-1266.41 -466.47,-1899.62z"/>
   <path class="fil2" d="M10630.14 28205.2l0 -2512.98 1417.28 0.01c61.53,-5.96 127.03,-13.89 190.56,-21.83l13.89 -1.99 55.58 2536.8 -1677.31 -0.01zm25.81 -2487.17l0 2461.37 1623.71 0 -53.6 -2481.21c-59.55,7.93 -119.1,13.89 -178.65,19.85l-1391.46 -0.01z"/>
   <path class="fil2" d="M8682.89 28205.2l0 -2512.98 1617.75 0.01 0 13.89c1.99,829.72 3.97,1657.46 5.96,2487.18l0 13.89 -1623.71 0 0 -1.99zm25.8 -2487.17l0 2461.37 1572.1 0c-1.99,-819.79 -3.97,-1641.57 -5.95,-2461.36l-1566.15 -0.01z"/>
   <path class="fil2" d="M6533.16 27974.95l0 -9.92 218.34 -2620.17 15.88 5.96c508.16,210.4 1042.11,325.53 1591.96,339.43l11.91 0 -37.72 2514.96 -53.59 -0.01c-589.54,0 -1175.1,-75.42 -1738.84,-226.29l-7.94 -3.96zm240.18 -2594.36l-214.38 2574.51c559.77,146.89 1139.38,222.32 1722.96,222.32l27.79 0 35.73 -2463.36c-541.9,-13.89 -1069.9,-127.03 -1572.1,-333.47z"/>
   <path class="fil2" d="M4615.67 27127.37l5.96 -9.93c393.03,-766.2 786.05,-1532.4 1179.08,-2298.6l7.94 -13.9 11.91 9.93c210.41,156.81 436.69,293.77 670.92,410.89l7.94 3.97 -260.03 2661.85 -15.88 -3.97c-561.75,-178.65 -1099.68,-430.74 -1597.91,-750.32l-9.93 -9.92zm1200.91 -2282.72c-389.05,758.26 -778.11,1516.52 -1165.17,2274.78 488.31,311.64 1016.31,559.77 1566.14,736.42l256.06 -2612.23c-230.26,-113.14 -450.59,-248.12 -657.03,-398.97z"/>
   <path class="fil2" d="M2874.85 25525.49l9.92 -7.94c428.76,-335.46 857.51,-670.92 1286.27,-1006.38l744.37 -583.59 7.93 9.93c194.53,252.09 416.85,484.33 659.02,688.78l7.93 5.96 -5.95 9.92c-424.79,754.3 -847.59,1506.6 -1272.37,2260.89l-7.94 11.91 -11.91 -7.94c-533.96,-387.07 -1010.36,-849.57 -1413.3,-1371.61l-3.97 -9.93zm2036.59 -1562.17l-724.52 567.7c-424.79,333.48 -851.55,666.95 -1276.34,998.44 397,512.13 863.47,966.68 1387.5,1347.8 418.83,-746.35 839.65,-1492.71 1260.46,-2239.05 -238.2,-200.49 -456.55,-426.77 -647.1,-674.89z"/>
   <path class="fil2" d="M2037.19 24163.8l11.91 -3.97c799.95,-299.73 1597.91,-601.45 2397.86,-901.18l9.92 -3.97 5.96 9.93c81.38,162.77 176.66,321.57 279.88,476.39l7.94 9.93 -651.07 446.62c-490.29,337.44 -982.57,674.88 -1472.86,1012.34l-9.92 7.93 -7.94 -11.91c-218.34,-325.54 -408.9,-672.91 -565.71,-1030.2l-5.97 -11.91zm2409.76 -877.36c-792.01,297.75 -1582.03,595.49 -2374.03,891.25 154.83,347.37 339.43,684.82 551.82,1002.42 488.31,-335.46 974.62,-668.94 1462.93,-1004.4l629.23 -432.72c-101.23,-146.89 -190.55,-299.74 -269.95,-456.55z"/>
   <path class="fil2" d="M1465.52 21807.63l0 -3.97 0 -23.82c0,-57.56 0,-206.44 0,-400.96l0 -57.57 0 -734.44 2516.95 3.97 0 553.81c-11.92,166.74 -11.92,337.44 0,504.18 13.89,196.52 43.67,395.01 87.34,587.56l3.97 13.89 -2542.75 182.62 -1.99 -11.91c-41.68,-250.11 -63.52,-456.55 -63.52,-613.36zm27.79 -248.12c0,105.2 0,182.62 0,220.33l0 23.82c0,154.83 19.85,355.31 61.53,599.46l2489.16 -178.65c-43.67,-188.57 -71.46,-383.1 -85.35,-575.64 -11.91,-168.73 -11.91,-337.44 0,-506.17l0 -528 -2467.32 -3.96 0 768.18c1.98,65.51 1.98,127.04 1.98,180.63z"/>
   <path class="fil2" d="M1465.52 20310.96l0 -2030.63 2516.95 0.01 0 2030.63 -2516.95 -0.01zm25.81 -2004.82l0 1977.03 2465.33 0 0 -1977.03 -2465.33 0z"/>
   <path class="fil2" d="M1465.52 18026.26l0 -1927.41 2516.95 0 0 1927.41 -2516.95 0zm25.81 -1901.61l0 1875.8 2465.33 0 0 -1875.8 -2465.33 0z"/>
   <path class="fil2" d="M1465.52 15832.86l0 -1528.43 2516.95 0 0 1528.43 -2516.95 0zm25.81 -1502.62l0 1476.82 2465.33 0 0 -1476.82 -2465.33 0z"/>
   <path class="fil2" d="M1465.52 14056.31l0 -1937.34 2516.95 0 0 1937.34 -2516.95 0zm25.81 -1911.53l0 1885.73 2465.33 0 0 -1885.73 -2465.33 0z"/>
   <path class="fil2" d="M1465.52 11864.89l0 -2030.62 2516.95 0 0 2030.63 -2516.95 -0.01zm25.81 -2004.82l0 1977.04 2465.33 0 0 -1977.04 -2465.33 0z"/>
   <path class="fil2" d="M1465.52 8524.19c0,-103.22 13.89,-373.18 41.68,-801.93l0 -13.9 13.89 0c442.65,29.78 891.26,61.53 1329.94,93.29 398.98,27.79 801.93,57.57 1196.94,87.34l13.89 1.99 -1.98 13.9c-41.69,210.4 -67.49,426.76 -77.42,639.16 -5.96,132.99 -5.96,269.95 0,402.94l0 607.41 -2516.95 3.97 0 -795.98c0,-125.05 0,-218.34 0,-234.22l0.01 -3.97zm67.49 -788.04c-27.79,428.75 -41.68,694.74 -39.7,790.02 0,17.86 0,111.16 0,236.21l0 53.59 0 716.58 2465.34 -3.97 0 -581.6c-5.96,-132.99 -5.96,-269.95 0,-404.93 9.92,-210.41 35.73,-422.8 75.43,-629.24 -391.04,-29.77 -788.04,-57.56 -1183.05,-87.34 -436.69,-27.79 -881.33,-59.54 -1318.02,-89.32z"/>
   <path class="fil2" d="M2051.09 6033.04l5.95 -11.91c160.78,-367.22 355.31,-722.53 577.63,-1056l7.94 -11.92 9.92 7.94c696.73,478.38 1393.46,956.76 2090.18,1435.14l9.93 7.94 -7.94 9.92c-99.25,150.86 -188.57,307.67 -267.97,468.46l-5.96 9.92 -2419.68 -859.49zm597.48 -1044.09c-216.37,325.54 -404.94,670.92 -561.75,1028.21l2372.04 841.63c77.42,-154.83 164.75,-305.69 258.05,-450.59 -690.77,-474.41 -1379.56,-946.84 -2068.34,-1419.25z"/>
   <path class="fil2" d="M2872.87 4617.76l7.94 -9.93c402.94,-524.03 879.34,-984.54 1413.29,-1373.6l11.92 -7.94 7.94 11.91c416.84,742.38 835.67,1482.78 1252.51,2225.16l5.96 9.93 -7.94 5.95c-246.13,210.41 -470.43,448.61 -664.96,706.66l-7.94 9.92 -9.92 -7.94c-664.97,-520.06 -1329.94,-1042.11 -1996.89,-1562.17l-11.91 -7.95zm1425.21 -1353.76c-524.03,383.11 -990.5,837.66 -1387.5,1349.79 659.02,516.09 1318.02,1030.2 1975.05,1546.29 192.54,-252.09 410.89,-484.33 653.06,-692.76 -414.86,-734.44 -827.74,-1468.87 -1240.61,-2203.32z"/>
   <path class="fil2" d="M4621.63 3009.92l9.93 -5.95c496.24,-317.6 1034.17,-569.69 1593.93,-748.34l15.88 -3.97 256.06 2612.23 -7.94 3.97c-238.19,119.1 -468.45,260.03 -682.83,418.83l-11.91 9.93 -7.94 -13.9c-387.07,-754.29 -772.16,-1506.6 -1159.23,-2260.88l-5.95 -11.92zm1595.92 -724.51c-547.85,176.66 -1073.87,422.8 -1562.17,734.44 381.11,746.35 764.21,1490.72 1147.31,2237.06 208.42,-154.83 432.72,-291.79 664.96,-408.9l-250.1 -2562.6z"/>
   <path class="fil2" d="M6533.16 2166.31l9.92 -1.99c563.74,-150.85 1149.3,-226.29 1738.84,-226.29l53.6 0.01 35.73 2463.35 -11.91 0c-551.83,13.9 -1087.77,129.03 -1595.92,339.43l-15.89 5.96 -1.98 -17.86c-67.5,-807.88 -134.99,-1615.77 -202.48,-2423.65l-9.91 -138.96zm1776.55 -204.45l-27.79 0c-583.59,0 -1161.21,75.43 -1720.98,222.31l9.93 119.1c67.49,801.93 132.99,1603.86 200.48,2405.79 502.2,-206.44 1032.19,-319.58 1576.07,-335.46l-37.71 -2411.74z"/>
   <path class="fil2" d="M8682.89 4397.42l0 -2461.36 1623.7 -0.01 0 13.89c-1.98,811.86 -3.97,1623.71 -5.95,2435.57l0 13.89 -1617.75 0 0 -1.98zm25.8 -2435.56l0 2409.76 1566.15 0c1.98,-803.92 3.96,-1605.85 5.95,-2409.76l-1572.1 0z"/>
   <path class="fil2" d="M10630.14 4397.42l0 -2461.36 1677.31 -0.01 -53.6 2465.34 -13.89 0c-61.54,-1.99 -127.04,-3.97 -192.55,-3.97l-1417.27 0zm25.81 -2435.56l0 2409.76 1391.47 0c61.53,0 123.07,1.98 180.63,3.96l51.61 -2413.72 -1623.71 0z"/>
   <path class="fil2" d="M12525.8 4423.22l0 -11.91c45.65,-817.81 89.32,-1635.62 134.98,-2451.44l0 -13.89 13.9 0c502.2,27.78 1000.42,111.16 1480.79,248.12l11.91 3.97 -3.97 11.91c-200.48,811.86 -400.97,1623.71 -601.45,2435.57l-3.97 13.89 -13.89 -3.97c-325.54,-115.13 -664.96,-194.52 -1008.37,-232.24l-9.93 -0.01zm160.78 -2449.45c-43.67,807.88 -89.32,1617.75 -132.99,2427.62 337.44,37.72 670.92,115.13 988.52,226.29 198.5,-803.91 397,-1607.83 593.5,-2409.75 -470.44,-134.99 -958.74,-216.37 -1449.03,-244.16z"/>
   <path class="fil2" d="M13891.46 4796.4l3.97 -9.92c230.26,-811.86 458.53,-1625.7 686.8,-2437.55l3.97 -13.89 13.89 3.96c533.96,192.55 1044.1,454.57 1516.53,776.13l11.91 7.94 -7.94 9.92c-406.92,535.95 -811.85,1069.9 -1216.79,1605.85l-331.49 438.68 -9.92 -5.96c-208.42,-140.93 -428.76,-265.99 -659.02,-369.21l-11.91 -5.95zm710.62 -2429.61c-226.29,803.92 -452.57,1609.82 -680.84,2413.73 222.31,101.23 438.68,222.31 641.14,359.28l317.59 -418.83c402.95,-531.97 805.91,-1063.95 1208.85,-1593.93 -464.48,-313.63 -964.69,-569.69 -1486.74,-760.25z"/>
   <path class="fil2" d="M14784.7 5334.33l1619.73 -2010.78 9.93 7.94c583.59,444.63 1089.75,976.6 1504.61,1580.03l7.94 11.92 -2346.25 1200.91 -5.95 -7.94c-228.27,-287.82 -490.29,-547.85 -780.1,-774.14l-9.91 -7.94zm1625.69 -1975.05l-1587.98 1971.08c283.85,222.31 541.9,478.38 768.19,762.23l2300.58 -1177.09c-410.88,-595.49 -907.13,-1117.54 -1480.79,-1556.22z"/>
   <path class="fil2" d="M15733.51 6328.8l13.9 -5.96c799.94,-343.4 1599.89,-686.8 2399.83,-1030.2l9.93 -3.97 5.95 9.93c9.93,15.88 19.85,31.75 27.79,47.64 256.06,438.68 462.5,907.13 613.36,1391.46 61.53,196.52 115.13,397 156.81,599.46l3.97 13.9 -13.9 1.99c-865.44,75.42 -1730.9,150.85 -2596.34,226.29l-9.93 0 -3.97 -9.93c-134.98,-436.69 -337.44,-849.57 -599.46,-1226.72l-7.94 -13.89zm2415.72 -1010.35c-792.01,339.44 -1584.01,678.87 -2376.01,1020.28 258.04,373.18 456.54,780.1 591.52,1210.84 857.51,-73.45 1715.02,-148.88 2570.54,-224.3 -41.68,-196.52 -93.29,-391.05 -152.84,-581.6 -150.86,-482.35 -355.31,-948.82 -611.38,-1387.5 -5.95,-11.92 -13.89,-23.82 -21.83,-37.72z"/>
   <path class="fil2" d="M16545.37 14230.99l0 -2000.86 1514.54 0 0 2000.86 -1514.54 0zm25.8 -1975.06l0 1947.26 1462.93 0.01 0 -1947.26 -1462.93 -0.01z"/>
   <path class="fil2" d="M1525.07 7392.75l3.97 -13.9c91.31,-377.14 216.37,-746.34 371.19,-1097.69l3.97 -11.91 2421.67 859.49 -5.96 13.9c-89.32,178.65 -166.74,365.23 -230.26,553.81l-3.97 9.92 -2560.61 -313.62zm395.01 -1091.74c-148.87,343.4 -269.95,702.69 -361.26,1069.9l2510.99 305.69c61.53,-180.64 136.96,-361.27 222.31,-533.96l-2372.04 -841.63z"/>
   <path class="fil2" d="M1527.05 22778.29l2578.49 -313.63 3.96 9.93c63.53,180.63 140.93,357.3 226.3,529.99l5.95 13.89 -13.89 5.96c-799.95,299.73 -1597.91,601.45 -2397.85,901.18l-11.92 3.97 -5.95 -11.91c-160.79,-363.26 -289.81,-740.4 -383.11,-1123.5l-1.98 -15.88zm2560.62 -283.86l-2528.85 307.67c91.31,373.18 218.34,740.4 373.17,1093.72 792.01,-297.75 1582.03,-593.5 2374.04,-891.25 -83.38,-166.74 -156.82,-337.44 -218.36,-510.14z"/>
   <g id="sector-vip">
    <rect class="fil10" transform="matrix(-1.37814E-16 0.750227 -0.750227 -1.37814E-16 18046.1 14530.5)" width="1370.54" height="1984.38"/>
    <polygon class="fil2" points="17140.86,15110.33 17222.25,14913.81 17269.89,14913.81 17164.68,15163.92 17115.06,15163.92 17009.85,14913.81 17057.49,14913.81 "/>
    <rect class="fil2" x="17297.68" y="14913.81" width="45.65" height="250.11"/>
    <path class="fil2" d="M17523.96 14913.81c23.82,0 45.65,7.94 61.53,23.82 15.89,15.89 23.82,35.74 23.82,59.56 0,23.82 -7.93,43.67 -25.8,59.55 -15.89,15.88 -37.72,23.82 -61.54,23.82l-77.41 -0.01 0 83.37 -45.65 0 0 -250.11 125.05 0zm-77.41 123.08l75.43 0c11.91,0 23.82,-3.97 31.76,-11.91 7.93,-7.94 11.91,-17.87 11.91,-29.78 0,-11.91 -3.97,-21.83 -11.91,-29.78 -7.94,-7.93 -17.87,-11.91 -31.76,-11.91l-75.43 0.01 0 83.37z"/>
   </g>
   <g id="sector-1">
    <rect class="fil10" transform="matrix(-1.37814E-16 0.750227 -0.750227 -1.37814E-16 18046.6 15904.7)" width="2632.6" height="1984.38"/>
    <polygon class="fil2" points="17367.15,16767.78 17367.15,17017.89 17321.5,17017.89 17321.5,16811.45 17261.94,16811.45 17261.94,16767.78 "/>
   </g>
   <g id="sector-17">
    <rect class="fil10" transform="matrix(-1.37814E-16 0.750227 -0.750227 -1.37814E-16 3970.68 14316.9)" width="2002.9" height="3320.52"/>
    <polygon class="fil2" points="2656.5,14961.45 2656.5,15211.56 2612.83,15211.56 2612.83,15005.12 2553.29,15005.12 2553.29,14961.45 "/>
    <polygon class="fil2" points="2696.2,15005.12 2696.2,14961.45 2870.88,14961.45 2870.88,14995.2 2769.64,15211.56 2720.02,15211.56 2819.27,15005.12 "/>
   </g>
   <g id="sector-1a">
    <rect class="fil10" transform="matrix(-1.37814E-16 0.750227 -0.750227 -1.37814E-16 18046 12243.7)" width="2632.6" height="1984.38"/>
    <polygon class="fil2" points="17255.99,13105.51 17255.99,13355.61 17212.32,13355.61 17212.32,13149.18 17150.79,13149.18 17150.79,13105.51 "/>
    <path class="fil2" d="M17545.8 13355.61l-49.63 0 -23.82 -59.55 -111.15 0 -23.82 59.56 -49.63 -0.01 105.21 -250.11 49.62 0.01 103.22 250.1zm-131.01 -196.51l-39.7 97.27 79.4 -0.01 -39.7 -97.26z"/>
   </g>
   <g id="sector-31">
    <path class="fil11" d="M19100.04 9737l-2542.76 0 0 -841.62c0,-341.42 -37.72,-674.89 -111.16,-994.47 855.52,-75.43 1713.03,-148.88 2568.56,-224.31 57.56,351.34 85.35,712.61 85.35,1077.85l0.01 982.55z"/>
    <path class="fil1" d="M17851.49 8766.35l0 0c21.83,0 37.71,5.96 53.59,19.85 13.9,13.9 21.83,29.78 21.83,51.61 0,21.83 -7.93,39.7 -21.83,53.6 -13.89,13.89 -31.75,21.83 -51.61,21.83l-107.19 0 0 -43.67 103.22 0c9.92,0 17.86,-3.97 23.82,-9.93l9.92 -21.83 -9.92 -21.83c-5.96,-5.96 -13.9,-9.93 -23.82,-9.93l-55.58 0 0 -29.78 61.54 -69.47 -109.18 0 0 -45.65 170.71 0 0 33.74 -65.5 71.46z"/>
    <polygon class="fil1" points="18046.01,8661.15 18046.01,8911.25 18000.35,8911.25 18000.35,8704.82 17940.81,8704.82 17940.81,8661.15 "/>
   </g>
   <g id="sector-32">
    <rect class="fil11" transform="matrix(-1.37814E-16 0.750227 -0.750227 -1.37814E-16 19101.1 9963.54)" width="2632.6" height="3389.31"/>
    <path class="fil1" d="M17754.22 10908.14l0 0c21.83,0 37.71,5.95 53.6,19.85 13.89,13.89 21.83,29.77 21.83,51.61 0,21.83 -7.94,39.7 -21.83,53.59 -13.9,13.9 -31.76,21.83 -51.61,21.83l-107.19 0 0 -43.67 103.21 0.01c9.93,0 17.86,-3.97 23.82,-9.92l9.93 -21.84 -9.93 -21.83c-5.96,-5.95 -13.89,-9.92 -23.82,-9.92l-57.56 -0.01 0 -29.78 61.54 -69.47 -109.18 0 0 -43.67 170.71 0 0 33.75 -63.52 69.47z"/>
    <path class="fil1" d="M17994.4 10929.98l-79.39 81.38 107.18 -0.01 0 43.67 -174.68 0 0 -35.73 117.11 -119.1c7.94,-7.94 11.91,-15.88 11.91,-25.81l-9.92 -19.85c-5.96,-5.95 -13.9,-7.93 -23.82,-7.93l-93.29 0 0 -43.67 93.29 0c21.83,0 41.68,5.96 55.58,19.85 13.89,13.9 21.83,29.78 21.83,49.63 0.01,19.84 -7.93,39.7 -25.8,57.57z"/>
   </g>
   <g id="sector-18">
    <rect class="fil11" transform="matrix(-1.37814E-16 0.750227 -0.750227 -1.37814E-16 3970.59 12131.3)" width="2547.94" height="3320.52"/>
    <polygon class="fil1" points="2642.61,12958.62 2642.61,13208.72 2598.94,13208.72 2598.94,13002.29 2537.4,13002.29 2537.4,12958.62 "/>
    <path class="fil1" d="M2684.29 13137.26c0,-13.89 3.97,-25.8 11.91,-35.73 7.94,-9.93 17.87,-17.86 33.75,-23.82l0 0c-11.91,-5.96 -21.83,-11.91 -29.78,-21.83 -5.95,-9.93 -9.92,-19.85 -9.92,-31.76 0,-21.83 7.94,-37.71 25.81,-51.61 17.86,-11.91 39.7,-19.85 67.49,-19.85 27.78,0 51.6,5.96 67.49,19.85 17.86,11.92 25.8,29.78 25.8,51.61 0,11.91 -3.96,21.83 -9.92,31.76 -5.96,9.92 -15.88,17.86 -29.78,21.83l0 0c13.9,5.96 25.81,13.89 33.75,23.82 7.94,9.93 11.91,21.83 11.91,35.73 0,23.82 -9.92,41.69 -27.79,55.58 -19.85,13.89 -43.67,19.85 -73.44,19.85 -29.78,0 -53.6,-7.94 -71.46,-21.83 -15.89,-11.91 -25.82,-29.78 -25.82,-53.6zm43.67 -1.98c0,9.93 5.96,19.85 15.88,25.81 9.93,7.94 23.82,9.93 39.71,9.93 17.86,0 31.75,-3.97 41.68,-9.93 9.92,-5.96 15.88,-15.88 15.88,-25.81 0,-9.92 -5.96,-19.85 -15.88,-25.81 -9.93,-5.95 -23.82,-9.92 -41.68,-9.92 -15.89,0 -29.78,3.97 -39.71,9.92 -9.92,5.96 -15.88,13.9 -15.88,25.81zm5.96 -109.17c0,9.92 3.97,17.86 13.89,23.82 9.93,5.96 21.83,7.94 35.74,7.94 15.88,0 27.78,-1.99 35.73,-7.94 9.93,-5.96 13.89,-13.9 13.89,-23.82 0,-9.93 -3.96,-17.86 -13.89,-23.82 -9.93,-5.96 -21.83,-9.93 -37.71,-9.93 -15.89,0 -27.79,3.97 -35.74,9.93 -7.94,5.95 -11.91,13.89 -11.91,23.82z"/>
   </g>
   <g id="sector-19">
    <rect class="fil11" transform="matrix(-1.37814E-16 0.750227 -0.750227 -1.37814E-16 3970.19 9848.23)" width="2672.29" height="3320.52"/>
    <polygon class="fil1" points="2648.57,10697.73 2648.57,10949.82 2602.91,10949.82 2602.91,10741.4 2543.36,10741.4 2543.36,10697.73 "/>
    <path class="fil1" d="M2884.77 10777.13l-1.98 15.88 -19.85 109.18c-5.96,31.76 -25.81,47.64 -61.54,47.64l-87.33 -0.01 0 -43.67 85.35 0.01c11.91,0 19.85,-5.96 21.83,-15.89l7.94 -45.65 -1.98 0c-15.88,9.92 -31.76,15.88 -51.61,15.88 -27.79,0 -51.61,-7.94 -67.49,-21.83 -15.88,-15.89 -23.82,-35.74 -23.82,-59.56 0,-23.82 9.93,-43.67 27.79,-59.55 17.86,-15.88 41.68,-23.82 71.46,-23.82 29.78,0 55.58,7.94 73.45,23.82 19.85,11.91 27.78,31.76 27.78,57.57zm-59.54 29.77c9.92,-7.94 15.88,-17.86 15.88,-29.77 0,-11.92 -3.97,-21.84 -13.89,-29.78 -9.93,-7.94 -23.82,-11.91 -41.69,-11.91 -17.86,0 -29.77,3.96 -39.7,11.91 -9.92,7.94 -13.89,17.86 -13.89,29.78 0,11.91 5.95,21.83 15.88,29.77 9.93,7.94 23.82,11.92 41.68,11.92 11.91,0 25.8,-3.97 35.73,-11.92z"/>
   </g>
   <g id="sector-20">
    <path class="fil11" d="M1479.41 9546.45l0 -726.51c0,-11.91 0,-31.76 0,-55.58 0,-131.01 0,-226.29 0,-236.2 0,-73.45 7.94,-271.95 41.68,-803.92 444.64,29.78 887.29,61.54 1329.94,93.29 398.98,27.79 797.96,57.57 1196.94,87.35 -37.71,188.56 -65.5,402.94 -77.42,641.14 -5.95,142.92 -5.95,279.88 0,404.93l0 593.51c-829.72,0 -1661.42,0 -2491.14,1.99z"/>
    <path class="fil1" d="M2656.5 8708.79l-79.39 81.38 107.18 0 0 43.67 -174.67 0 0 -35.73 117.11 -119.1c7.93,-7.94 11.91,-15.88 11.91,-25.81l-9.93 -19.85c-5.95,-5.95 -13.89,-7.93 -23.82,-7.93l-93.29 0 0 -43.68 93.29 0c21.84,0 41.69,5.96 55.58,19.86 13.9,13.89 21.83,29.77 21.83,49.62 0.01,19.85 -7.93,39.71 -25.8,57.57z"/>
    <path class="fil1" d="M2714.07 8738.56l0 -61.53c0,-29.78 9.92,-53.6 27.79,-71.46 17.86,-17.86 41.68,-27.79 71.46,-27.79 27.78,0 51.6,9.93 71.45,27.79 19.86,17.86 27.79,41.68 27.79,71.46l0 61.53c0,29.78 -9.92,53.6 -27.79,71.46 -19.85,17.87 -43.67,27.79 -71.45,27.79 -27.79,0 -51.61,-9.92 -71.46,-27.79 -17.87,-19.85 -27.79,-43.67 -27.79,-71.46zm45.65 -61.54l0 61.54c0,15.88 5.96,29.77 15.88,39.7 9.93,9.92 23.82,15.88 39.7,15.88 15.89,0 29.78,-5.96 39.71,-15.88 9.92,-9.93 15.88,-23.82 15.88,-39.7l0 -61.54c0,-15.88 -5.96,-29.77 -15.88,-39.7 -9.93,-9.92 -23.82,-15.88 -39.71,-15.88 -15.88,0 -29.77,5.96 -39.7,15.88 -11.9,7.95 -15.88,21.84 -15.88,39.7z"/>
   </g>
   <g id="sector-21">
    <path class="fil11" d="M4464.82 6874.67l-2395.86 -849.57c160.78,-369.21 355.3,-722.53 575.64,-1054.02 696.72,478.38 1393.45,956.75 2090.17,1435.14 -99.24,148.87 -190.55,305.68 -269.95,468.45z"/>
    <path class="fil1" d="M3494.16 6068.77l-79.4 81.39 107.19 0 0 43.67 -174.68 0 0 -35.74 117.11 -119.1c7.94,-7.93 11.92,-15.88 11.92,-25.8l-9.93 -19.85c-5.95,-5.96 -13.89,-7.94 -23.82,-7.94l-93.29 0 0 -43.67 93.29 0c21.83,0 41.69,5.96 55.58,19.86 13.89,13.89 21.83,29.77 21.83,49.62 0.01,19.85 -7.93,39.7 -25.8,57.56z"/>
    <polygon class="fil1" points="3643.04,5941.73 3643.04,6191.84 3597.38,6191.84 3597.38,5985.4 3537.83,5985.4 3537.83,5941.73 "/>
   </g>
   <g id="sector-22">
    <path class="fil11" d="M4887.62 6177.94c-664.97,-520.06 -1329.94,-1042.11 -1996.89,-1562.17 400.97,-522.05 877.36,-984.55 1411.32,-1371.62 416.85,742.38 835.68,1482.78 1252.52,2225.16 -248.12,212.39 -472.43,450.59 -666.95,708.63z"/>
    <path class="fil1" d="M4385.41 4857.94l-79.39 81.38 107.18 0 0 43.67 -174.67 0 0 -35.73 117.11 -119.1c7.94,-7.94 11.91,-15.88 11.91,-25.81l-9.92 -19.85c-5.96,-5.96 -13.9,-7.94 -23.82,-7.94l-93.29 0.01 0 -43.67 93.29 0c21.83,0 41.68,5.96 55.57,19.85 13.9,13.89 21.84,29.78 21.84,49.63 0,19.84 -7.94,39.69 -25.81,57.56z"/>
    <path class="fil1" d="M4589.87 4857.94l-79.4 81.38 107.19 0 0 43.67 -174.67 0 0 -35.73 117.11 -119.1c7.94,-7.94 11.91,-15.88 11.91,-25.81l-9.92 -19.85c-5.96,-5.96 -13.9,-7.94 -23.82,-7.94l-93.3 0.01 0 -43.67 93.29 0c21.83,0 41.68,5.96 55.58,19.85 13.89,13.89 21.83,29.78 21.83,49.63 1.99,19.84 -7.93,39.69 -25.8,57.56z"/>
   </g>
   <g id="sector-23">
    <path class="fil11" d="M5796.73 5276.76c-387.07,-754.29 -772.15,-1506.59 -1159.22,-2260.88 490.28,-313.62 1024.24,-565.71 1589.96,-746.35 83.37,861.48 168.72,1724.95 252.09,2586.42 -238.19,119.1 -468.45,260.03 -682.83,420.81z"/>
    <path class="fil1" d="M5721.31 3774.14l-79.4 81.39 107.18 0 0 43.67 -174.67 -0.01 0 -35.73 117.11 -119.1c7.94,-7.94 11.91,-15.88 11.91,-25.81l-9.92 -19.85c-5.96,-5.96 -13.9,-7.94 -23.82,-7.94l-93.3 0.01 0 -43.67 93.3 0c21.83,0 41.68,5.96 55.57,19.85 13.9,13.89 21.84,29.78 21.84,49.63 1.98,19.85 -7.94,39.69 -25.8,57.56z"/>
    <path class="fil1" d="M5890.02 3752.3l0 0c21.84,0 37.72,5.96 53.6,19.85 13.89,13.9 21.83,29.78 21.83,51.61 0,21.83 -7.94,39.7 -21.83,53.6 -13.89,13.89 -31.76,21.83 -51.61,21.83l-107.19 0 0 -43.67 103.22 0.01c9.93,0 17.87,-3.97 23.82,-9.93l9.93 -21.83 -9.93 -21.83c-5.95,-5.96 -13.89,-9.93 -23.82,-9.93l-55.58 0 0 -29.78 61.53 -69.47 -109.17 0 0 -43.67 170.71 0 0 33.74 -65.51 69.47z"/>
   </g>
   <g id="sector-24">
    <path class="fil11" d="M6759.45 4728.91c-71.46,-851.55 -140.93,-1701.12 -212.39,-2552.67 553.81,-146.89 1135.41,-226.3 1734.87,-226.3l41.68 0.01c11.91,811.86 23.82,1625.7 35.73,2437.55 -565.72,13.89 -1103.65,134.98 -1599.89,341.41z"/>
    <path class="fil1" d="M7472.05 3248.12l-79.4 81.39 107.19 0 0 43.67 -174.68 0 0 -35.74 117.11 -119.1c7.94,-7.93 11.92,-15.88 11.92,-25.8l-9.93 -19.85c-5.96,-5.96 -13.89,-7.94 -23.82,-7.94l-93.29 0.01 0 -43.67 93.29 0c21.83,0 41.68,5.95 55.58,19.85 13.89,13.89 21.83,29.77 21.83,49.62 1.99,19.85 -5.95,39.7 -25.8,57.56z"/>
    <path class="fil1" d="M7676.5 3267.97l37.72 0 0 41.68 -37.72 0 0 61.54 -45.65 0 0 -61.54 -131.01 0 0 -31.75 113.14 -156.81 63.52 0 0 146.88zm-45.65 -103.21l-73.45 103.21 73.45 0 0 -103.21z"/>
   </g>
   <g id="sector-25">
    <path class="fil11" d="M10288.73 4385.51l-1591.95 0 0 -2435.56 1597.91 0c-1.99,811.85 -3.97,1623.71 -5.96,2435.56z"/>
    <path class="fil1" d="M9443.13 3140.94l-79.39 81.38 107.18 -0.01 0 43.67 -174.68 0 0 -35.73 117.11 -119.1c7.94,-7.93 11.91,-15.88 11.91,-25.81l-9.92 -19.85c-5.96,-5.95 -13.9,-7.93 -23.82,-7.93l-93.29 0 0 -43.67 93.29 0c21.83,0 41.68,5.96 55.58,19.85 13.89,13.9 21.83,29.78 21.83,49.63 1.99,19.85 -7.93,39.7 -25.8,57.57z"/>
    <path class="fil1" d="M9552.31 3113.14l59.54 0c23.82,0 41.69,7.94 55.58,21.83 13.89,13.9 19.85,31.76 19.85,51.61 0,21.83 -5.96,39.7 -19.85,53.6 -13.89,13.89 -31.76,21.83 -55.58,21.83l-101.23 0.01 0 -43.68 97.26 0c9.93,0 17.87,-3.96 23.82,-9.92l7.94 -23.82 -7.94 -23.82c-5.95,-5.96 -13.89,-9.93 -23.82,-9.93l-101.23 0.01 13.89 -140.93 146.89 -0.01 0 43.68 -111.15 0 -3.97 59.54z"/>
   </g>
   <g id="sector-26">
    <path class="fil11" d="M12241.95 4389.48c-63.53,-1.99 -129.03,-3.97 -192.55,-3.97l-1405.35 0 0 -2435.56 1649.5 0c-15.87,813.84 -33.74,1625.69 -51.6,2439.53z"/>
    <path class="fil1" d="M11400.32 3117.12l-79.4 81.38 107.19 -0.01 0 43.67 -174.68 0 0 -35.73 117.11 -119.1c7.94,-7.93 11.92,-15.88 11.92,-25.8l-9.93 -19.86c-5.96,-5.95 -13.89,-7.93 -23.82,-7.93l-93.3 0 0 -43.67 93.3 0c21.83,0 41.68,5.96 55.58,19.85 13.89,13.9 21.83,29.78 21.83,49.63 1.99,19.85 -7.94,39.7 -25.8,57.57z"/>
    <path class="fil1" d="M11449.94 3162.77l1.99 -15.88 19.85 -109.18c5.95,-31.75 25.81,-47.64 61.53,-47.64l87.34 0 0 43.67 -85.36 0c-11.91,0 -19.85,5.96 -21.83,15.89l-7.94 45.65 1.98 0c13.9,-9.93 31.76,-15.88 51.61,-15.88 27.79,0 51.61,7.93 67.49,21.83 15.88,15.88 23.82,35.73 23.82,59.55 0,23.82 -9.92,43.67 -27.79,59.55 -17.86,15.89 -41.68,23.82 -71.46,23.82 -29.77,0 -55.57,-7.93 -73.44,-23.82 -19.85,-11.91 -27.79,-33.74 -27.79,-57.56zm59.55 -29.78c-9.92,7.94 -15.88,17.86 -15.88,29.78 0,11.91 3.97,21.83 13.89,29.77 9.93,7.94 23.82,11.92 41.69,11.92 17.86,0 29.77,-3.97 39.7,-11.92 9.92,-7.93 13.89,-17.86 13.89,-29.77 0,-11.92 -5.95,-21.83 -15.88,-29.78 -9.93,-7.94 -23.82,-11.91 -41.68,-11.91 -13.9,0.01 -25.8,3.97 -35.73,11.91z"/>
   </g>
   <g id="sector-27">
    <path class="fil11" d="M13552.03 4643.56c-321.57,-115.13 -661,-194.53 -1012.34,-232.24 45.65,-817.81 89.32,-1635.62 134.98,-2451.44 508.15,27.79 1004.39,113.14 1476.82,248.12 -200.48,811.85 -400.97,1623.71 -599.46,2435.56z"/>
    <path class="fil1" d="M13214.58 3208.42l-79.39 81.38 107.18 0 0 43.67 -172.69 0 0 -35.73 117.11 -119.1c7.94,-7.93 11.91,-15.88 11.91,-25.8l-9.92 -19.86c-5.96,-5.95 -13.9,-7.93 -23.82,-7.93l-93.29 0 0 -43.67 93.29 0c21.83,0 41.68,5.96 55.57,19.85 13.9,13.9 21.83,29.78 21.83,49.63 0.01,21.83 -9.91,39.7 -27.78,57.56z"/>
    <polygon class="fil1" points="13260.24,3125.05 13260.24,3081.38 13434.92,3081.38 13434.92,3117.12 13333.68,3333.47 13284.05,3333.47 13383.31,3125.05 "/>
   </g>
   <g id="sector-28">
    <path class="fil11" d="M14566.35 5159.65c-208.42,-140.93 -428.75,-265.98 -659.01,-371.19 230.26,-811.85 458.53,-1625.69 686.8,-2437.54 539.91,194.52 1048.06,456.54 1514.53,774.14 -514.1,676.87 -1028.21,1355.73 -1542.32,2034.59z"/>
    <path class="fil1" d="M14810.5 3708.63l-79.39 81.39 107.18 0 0 43.67 -174.67 0 0 -35.73 117.11 -119.1c7.93,-7.93 11.91,-15.88 11.91,-25.8l-9.93 -19.85c-5.95,-5.96 -13.89,-7.94 -23.81,-7.94l-93.3 0 0 -43.67 93.3 0c21.83,0 41.68,5.95 55.57,19.85 13.9,13.89 21.83,29.77 21.83,49.63 1.99,21.83 -7.93,39.69 -25.8,57.55z"/>
    <path class="fil1" d="M14860.13 3762.23c0,-13.9 3.97,-25.81 11.91,-35.73 7.94,-9.93 17.87,-17.87 33.75,-23.82l0 0c-11.91,-5.96 -21.83,-11.92 -29.78,-21.84 -5.95,-9.92 -9.92,-19.85 -9.92,-31.75 0,-21.83 7.94,-37.72 25.81,-51.61 17.86,-11.91 39.7,-19.85 67.49,-19.85 27.78,0 51.6,5.96 67.49,19.85 17.86,11.91 25.8,29.78 25.8,51.61 0,11.91 -3.96,21.83 -9.92,31.75 -5.96,9.93 -15.88,17.87 -29.78,21.84l0 0c13.9,5.95 25.81,13.89 33.75,23.82 7.93,9.92 11.91,21.83 11.91,35.73 0,23.82 -9.92,41.68 -27.79,55.58 -19.85,13.89 -43.67,19.85 -73.44,19.85 -29.78,0 -53.6,-7.94 -71.46,-21.83 -15.9,-11.92 -25.82,-29.78 -25.82,-53.6zm43.66 -1.98c0,9.92 5.96,19.85 15.89,25.81 9.92,7.93 23.82,9.92 39.7,9.92 17.86,0 31.76,-3.97 41.68,-9.92 9.93,-5.96 15.88,-15.89 15.88,-25.81 0,-9.93 -5.95,-19.85 -15.88,-25.81 -9.92,-5.96 -23.82,-9.92 -41.68,-9.92 -15.88,0 -29.78,3.96 -39.7,9.92 -9.93,5.96 -15.89,13.89 -15.89,25.81zm5.96 -109.18c0,9.92 3.97,17.86 13.9,23.82 9.92,5.95 21.83,7.94 35.73,7.94 15.88,0 27.79,-1.99 35.73,-7.94 9.93,-5.96 13.9,-13.9 13.9,-23.82 0,-9.93 -3.97,-17.86 -13.9,-23.82 -9.92,-5.96 -21.83,-9.93 -37.71,-9.93 -15.88,0 -27.79,3.97 -35.74,9.93 -5.95,5.96 -11.91,13.9 -11.91,23.82z"/>
   </g>
   <g id="sector-29">
    <path class="fil11" d="M15586.63 6108.47c-228.27,-289.8 -492.28,-549.84 -782.08,-776.12 533.96,-662.98 1069.89,-1325.97 1603.85,-1990.93 579.61,442.65 1087.77,974.62 1500.64,1578.06 -774.13,395 -1548.27,792 -2322.41,1188.99z"/>
    <path class="fil1" d="M16184.11 4857.94l-79.4 81.38 107.19 0 0 43.67 -174.69 0 0 -35.73 117.11 -119.1c7.94,-7.94 11.92,-15.88 11.92,-25.81l-9.93 -19.85c-5.95,-5.96 -13.89,-7.94 -23.82,-7.94l-93.29 0.01 0 -43.67 93.29 0c21.83,0 41.69,5.96 55.58,19.85 13.89,13.89 21.83,29.78 21.83,49.63 0.01,21.83 -7.93,41.68 -25.79,57.56z"/>
    <path class="fil1" d="M16434.21 4810.3l-1.99 15.88 -19.85 109.17c-5.95,31.76 -25.81,47.64 -61.53,47.64l-87.34 0 0 -43.67 85.36 0c11.91,0 19.85,-5.96 21.83,-15.88l7.94 -45.65 -1.98 0c-15.89,9.92 -31.76,15.88 -51.61,15.88 -27.79,0 -51.61,-7.94 -67.49,-21.83 -15.88,-15.89 -23.82,-35.74 -23.82,-59.56 0,-23.82 9.92,-43.67 27.79,-59.55 17.86,-15.88 41.68,-23.82 71.46,-23.82 29.77,0 55.57,7.94 73.44,23.82 17.87,13.9 27.79,33.75 27.79,57.57zm-59.54 29.77c9.92,-7.94 15.88,-17.86 15.88,-29.77 0,-11.92 -3.97,-21.84 -13.9,-29.78 -9.92,-7.94 -23.82,-11.91 -41.68,-11.91 -17.86,0 -29.78,3.96 -39.7,11.91 -9.93,7.94 -13.89,17.86 -13.89,29.78 0,11.91 5.95,21.83 15.88,29.77 9.92,7.94 23.82,11.92 41.68,11.92 11.91,-0.01 25.8,-3.98 35.73,-11.92z"/>
   </g>
   <g id="sector-30">
    <path class="fil11" d="M16354.81 7563.45c-136.96,-442.64 -341.41,-857.5 -601.44,-1230.68 799.94,-343.4 1599.88,-686.8 2399.83,-1030.21 9.92,15.89 19.85,31.76 27.79,47.64 254.08,434.72 458.53,901.18 611.37,1389.48 61.53,196.52 113.14,395.01 156.81,597.48 -863.46,75.44 -1728.91,150.87 -2594.36,226.29z"/>
    <path class="fil1" d="M17305.61 6570.97l0 0c21.84,0 37.72,5.96 53.6,19.85 13.89,13.9 21.83,29.78 21.83,51.61 0,21.83 -7.94,39.7 -21.83,53.6 -13.89,13.89 -31.76,21.83 -51.61,21.83l-109.17 0 0 -43.67 103.22 0c9.92,0 17.86,-3.97 23.82,-9.93l9.92 -23.82 -9.92 -21.83c-5.96,-5.96 -13.9,-9.92 -23.82,-9.92l-55.58 0 0 -29.78 61.53 -69.47 -109.17 0 0 -43.67 170.71 0 0 33.74 -63.53 71.46z"/>
    <path class="fil1" d="M17402.88 6622.58l0 -61.53c0,-29.78 9.93,-53.6 27.79,-71.46 17.86,-17.87 41.68,-27.79 71.46,-27.79 27.79,0 51.61,9.92 71.46,27.79 19.85,17.86 27.79,41.68 27.79,71.46l0 61.53c0,29.78 -9.93,53.6 -27.79,71.46 -17.87,17.86 -43.67,27.79 -71.46,27.79 -27.79,0 -51.61,-9.93 -71.46,-27.79 -19.85,-17.86 -27.79,-43.67 -27.79,-71.46zm45.65 -63.52l0 61.53c0,15.88 5.96,29.78 15.88,39.7 9.93,9.93 23.82,15.89 39.71,15.89 15.88,0 29.77,-5.96 39.7,-15.89 9.92,-9.92 15.88,-23.82 15.88,-39.7l0 -61.53c0,-15.88 -5.96,-29.78 -15.88,-39.7 -9.93,-9.93 -23.82,-15.89 -39.7,-15.89 -15.89,0 -29.78,5.96 -39.71,15.89 -11.91,9.92 -15.88,23.82 -15.88,39.7z"/>
   </g>
   <g id="sector-21a">
    <path class="fil11" d="M4077.75 7688.51c-845.61,-103.22 -1691.2,-204.45 -2534.82,-307.67 93.29,-379.13 216.37,-746.35 371.19,-1095.7l2395.87 849.57c-91.31,178.64 -168.73,363.24 -232.24,553.8z"/>
    <path class="fil1" d="M2870.88 7122.79l-79.4 81.39 107.19 0 0 43.67 -174.68 0 0 -35.73 117.11 -119.1c7.94,-7.94 11.92,-15.88 11.92,-25.81l-9.93 -19.85c-5.96,-5.96 -13.89,-7.94 -23.82,-7.94l-91.31 0 0 -43.67 93.3 0c21.83,0 41.68,5.96 55.58,19.85 13.89,13.9 21.83,29.78 21.83,49.63 0,19.85 -9.93,39.7 -27.79,57.56z"/>
    <polygon class="fil1" points="3019.76,6995.75 3019.76,7245.86 2974.1,7245.86 2974.1,7039.42 2914.55,7039.42 2914.55,6995.75 "/>
    <path class="fil1" d="M3301.62 7245.86l-49.62 0 -23.82 -59.55 -111.17 0 -23.82 59.55 -49.62 0 105.21 -250.11 49.62 0 103.22 250.11zm-131.01 -196.51l-39.7 97.26 79.4 0 -39.7 -97.26z"/>
   </g>
   <g id="sector-2">
    <rect class="fil12" transform="matrix(-1.37814E-16 0.750227 -0.750227 -1.37814E-16 19101.2 18153.6)" width="2632.6" height="3389.31"/>
    <path class="fil1" d="M17954.7 19141.81l-79.39 81.39 107.18 0 0 43.67 -174.67 0 0 -35.73 117.11 -119.1c7.93,-7.94 11.91,-15.89 11.91,-25.81l-9.93 -19.85c-5.95,-5.96 -13.89,-7.94 -23.82,-7.94l-93.29 0 0 -43.67 93.29 0.01c21.84,0 41.69,5.95 55.58,19.85 13.9,13.89 21.83,29.78 21.83,49.63 0.01,19.84 -7.93,39.69 -25.8,57.55z"/>
   </g>
   <g id="sector-3">
    <path class="fil12" d="M19016.66 22454.73c-859.49,-75.43 -1718.98,-150.85 -2580.46,-226.29 1.99,-35.73 3.97,-69.47 3.97,-105.2 75.43,-353.33 105.2,-672.91 115.13,-926.98l0 -803.92 2542.75 0 0 996.46c1.99,361.27 -25.81,718.56 -81.39,1065.93z"/>
    <path class="fil1" d="M17913.02 21337.19l0 0c21.83,0 37.71,5.96 53.6,19.86 13.89,13.89 21.83,29.77 21.83,51.6 0,21.83 -7.94,39.71 -21.83,53.6 -13.9,13.89 -31.76,21.83 -51.61,21.83l-107.19 0 0 -43.67 103.21 0c9.93,0 17.87,-3.97 23.82,-9.93l9.93 -21.83 -9.93 -21.83c-5.95,-5.96 -13.89,-9.92 -23.82,-9.92l-57.56 0 0 -29.78 61.53 -69.47 -109.17 0 0 -43.67 170.7 0 0 33.74 -63.51 69.47z"/>
   </g>
   <g id="sector-4">
    <path class="fil12" d="M18161.14 24828.76c-809.87,-347.37 -1617.75,-694.74 -2427.62,-1042.11l5.96 -13.89c254.08,-369.21 432.72,-748.34 553.81,-1107.62 17.86,-33.74 33.74,-67.49 51.61,-101.24 869.42,75.43 1740.82,150.86 2610.24,226.3 -39.7,192.54 -89.32,381.11 -146.89,567.7 -158.81,520.06 -377.15,1012.33 -647.11,1470.86z"/>
    <path class="fil1" d="M17537.85 23482.95l37.73 0 0 41.69 -37.73 0 0 61.53 -45.65 0 0 -61.53 -131 0 0 -31.76 113.14 -156.81 63.51 -0.01 0 146.89zm-45.65 -103.22l-73.44 103.22 73.44 0 0 -103.22z"/>
   </g>
   <g id="sector-5">
    <path class="fil12" d="M16414.36 26795.87c-545.86,-676.87 -1091.74,-1353.75 -1637.6,-2030.63 158.8,-115.13 309.65,-242.16 454.56,-385.08 142.92,-140.93 248.12,-267.98 289.81,-319.58 13.89,-17.87 27.78,-33.75 39.7,-49.63 784.06,400.97 1568.13,801.93 2352.19,1202.9 -410.89,603.43 -917.06,1137.39 -1498.66,1582.02z"/>
    <path class="fil1" d="M16194.03 25152.31l59.55 0c23.82,0 41.68,7.94 55.58,21.84 13.89,13.89 19.85,31.75 19.85,51.6 0,21.84 -5.96,39.71 -19.85,53.6 -13.9,13.89 -31.76,21.83 -55.58,21.83l-101.24 0.01 0 -43.67 97.27 0c9.93,0 17.86,-3.97 23.82,-9.93l7.94 -23.82 -7.94 -21.83c-5.96,-5.96 -13.89,-9.92 -23.82,-9.92l-101.24 0 13.9 -140.93 146.89 -0.01 0 43.67 -111.16 0 -3.97 57.56z"/>
   </g>
   <g id="sector-6">
    <path class="fil12" d="M14596.13 27790.34c-238.2,-841.62 -474.41,-1685.24 -712.61,-2526.87 220.34,-93.29 440.67,-204.45 649.09,-335.47 526.02,694.74 1052.04,1389.48 1580.04,2084.23 -466.47,319.59 -974.63,581.61 -1516.52,778.11z"/>
    <path class="fil1" d="M14735.08 26347.27l1.98 -15.88 19.85 -109.18c5.96,-31.76 25.81,-47.64 61.54,-47.64l87.33 0.01 0 43.67 -85.35 -0.01c-11.91,0 -19.85,5.96 -21.83,15.89l-7.94 45.65 1.98 0c13.89,-9.92 31.76,-15.88 51.61,-15.88 27.79,0 51.61,7.94 67.49,21.83 15.88,15.89 23.82,35.74 23.82,59.56 0,23.82 -9.93,43.67 -27.79,59.55 -17.86,15.88 -41.68,23.82 -71.46,23.82 -29.78,0 -55.58,-7.94 -73.45,-23.82 -17.86,-13.9 -27.78,-33.75 -27.78,-57.57zm59.54 -29.77c-9.92,7.94 -15.88,17.86 -15.88,29.77 0,11.92 3.97,21.84 13.89,29.78 9.93,7.94 23.82,11.91 41.69,11.91 17.86,0 29.77,-3.96 39.7,-11.91 9.92,-7.94 13.89,-17.86 13.89,-29.78 0,-11.91 -5.96,-21.83 -15.88,-29.77 -9.93,-7.94 -23.82,-11.92 -41.68,-11.92 -11.91,0 -25.8,3.97 -35.73,11.92z"/>
   </g>
   <g id="sector-7">
    <path class="fil12" d="M12674.67 28181.38c-45.65,-847.58 -93.29,-1693.18 -138.95,-2540.77 319.58,-51.6 657.02,-131.01 994.47,-244.15 208.42,845.6 416.85,1691.2 625.27,2534.81 -476.4,136.97 -970.65,222.33 -1480.79,250.11z"/>
    <polygon class="fil1" points="13149.08,26714.49 13149.08,26670.82 13321.77,26670.82 13321.77,26704.56 13220.54,26920.93 13172.9,26920.93 13270.16,26714.49 "/>
   </g>
   <g id="sector-8">
    <path class="fil12" d="M12293.55 28191.31l-1649.5 0 0 -2487.17 1405.35 0c63.52,-5.96 127.04,-13.9 192.55,-21.84 15.88,837.66 33.74,1673.34 51.6,2509.01z"/>
    <path class="fil1" d="M11330.84 26992.39c0,-13.9 3.97,-25.81 11.91,-35.74 7.94,-9.92 17.87,-17.86 33.75,-23.82l0 0c-11.91,-5.95 -21.83,-11.91 -29.78,-21.83 -5.95,-9.92 -9.92,-19.85 -9.92,-31.75 0,-21.84 7.93,-37.72 25.8,-51.61 17.87,-11.92 39.71,-19.85 67.49,-19.85 27.79,0 51.61,5.95 67.5,19.85 17.86,11.91 25.8,29.77 25.8,51.61 0,11.91 -3.97,23.82 -9.92,31.75 -5.96,9.93 -15.88,17.87 -29.78,21.83l0 0c13.9,5.96 25.81,13.9 33.75,23.82 7.93,9.93 11.91,21.84 11.91,35.74 0,23.82 -9.93,41.68 -27.79,55.57 -19.85,13.9 -43.67,19.85 -73.45,19.85 -29.77,0 -53.59,-7.93 -71.45,-21.83 -15.89,-11.91 -25.82,-31.76 -25.82,-53.59zm45.66 -3.97c0,9.92 5.96,19.85 15.88,25.81 9.93,7.93 23.82,9.92 39.7,9.92 17.87,0 31.76,-3.97 41.69,-9.92 9.92,-5.96 15.88,-15.89 15.88,-25.81 0,-9.93 -5.96,-19.85 -15.88,-25.81 -9.93,-5.96 -23.82,-9.92 -41.69,-9.92 -15.88,0 -29.77,3.96 -39.7,9.92 -11.91,7.95 -15.88,15.88 -15.88,25.81zm5.96 -107.19c0,9.92 3.96,17.86 13.89,23.82 9.93,5.95 21.83,7.93 35.73,7.93 15.89,0 27.79,-1.98 35.74,-7.93 9.92,-5.96 13.89,-13.9 13.89,-23.82 0,-9.93 -3.97,-17.87 -13.89,-23.82 -9.93,-5.96 -21.84,-9.93 -37.72,-9.93 -15.88,0 -27.79,3.97 -35.73,9.93 -7.95,5.95 -11.91,13.89 -11.91,23.82z"/>
   </g>
   <g id="sector-9">
    <path class="fil12" d="M10294.69 28191.31l-1597.91 0 0 -2487.17 1591.95 0c1.99,829.72 3.97,1657.45 5.96,2487.17z"/>
    <path class="fil1" d="M9572.15 26901.08l-1.99 15.88 -19.85 109.17c-5.95,31.76 -25.81,47.64 -61.53,47.64l-87.34 0 0 -43.67 85.36 0c11.91,0 19.85,-5.96 21.83,-15.88l7.94 -45.65 -1.98 0c-15.88,9.92 -31.75,15.88 -51.6,15.88 -27.79,0 -51.61,-7.94 -67.49,-21.83 -15.89,-15.88 -23.82,-35.74 -23.82,-59.55 0,-23.82 9.92,-43.68 27.78,-59.56 17.87,-15.88 41.69,-23.82 71.46,-23.82 29.78,0 55.58,7.94 73.45,23.82 17.86,13.9 27.78,33.75 27.78,57.57zm-59.54 31.75c9.92,-7.93 15.88,-17.86 15.88,-29.77 0,-11.92 -3.97,-21.83 -13.9,-29.78 -9.92,-7.94 -23.82,-11.91 -41.68,-11.91 -17.86,0 -29.78,3.97 -39.7,11.91 -9.93,7.94 -13.89,17.86 -13.89,29.78 0,11.91 5.95,21.83 15.88,29.77 9.92,7.94 23.82,11.92 41.68,11.92 11.91,-1.99 25.8,-3.97 35.73,-11.92z"/>
   </g>
   <g id="sector-10">
    <path class="fil12" d="M8323.61 28191.31l-41.69 0c-599.46,0 -1181.06,-79.4 -1736.85,-226.29 71.46,-867.44 144.91,-1734.87 216.37,-2602.31 494.25,204.46 1034.17,325.54 1597.9,339.44 -11.91,829.73 -23.82,1659.44 -35.73,2489.16z"/>
    <polygon class="fil1" points="7396.62,26730.37 7396.62,26982.46 7350.97,26982.46 7350.97,26774.04 7291.42,26774.04 7291.42,26730.37 "/>
    <path class="fil1" d="M7442.28 26887.18l0 -61.53c0,-29.78 9.93,-53.6 27.79,-71.46 17.86,-17.86 41.68,-27.79 71.46,-27.79 27.79,0 51.61,9.93 71.46,27.79 19.85,17.86 27.79,41.68 27.79,71.46l0 61.53c0,29.78 -9.93,53.6 -27.79,71.46 -19.85,17.86 -43.67,27.79 -71.46,27.79 -27.79,0 -51.61,-9.93 -71.46,-27.79 -19.85,-17.86 -27.79,-41.68 -27.79,-71.46zm43.66 -61.53l0 61.53c0,15.89 5.96,29.78 15.89,39.7 9.92,9.93 23.82,15.89 39.7,15.89 15.88,0 29.77,-5.96 39.7,-15.89 9.93,-9.92 15.88,-23.81 15.88,-39.7l0 -61.53c0,-15.88 -5.95,-29.78 -15.88,-39.7 -9.93,-9.93 -23.82,-15.89 -39.7,-15.89 -15.88,0 -29.78,5.96 -39.7,15.89 -9.93,9.92 -15.89,21.84 -15.89,39.7z"/>
   </g>
   <g id="sector-11">
    <path class="fil12" d="M6227.48 27871.73c-565.72,-180.63 -1101.67,-434.71 -1593.94,-748.34 393.03,-766.2 786.05,-1532.4 1179.08,-2298.6 212.39,156.81 436.7,293.77 672.91,410.89 -85.37,879.35 -172.7,1758.7 -258.05,2636.05z"/>
    <polygon class="fil1" points="5788.8,26242.06 5788.8,26494.16 5743.14,26494.16 5743.14,26285.73 5683.59,26285.73 5683.59,26242.06 "/>
    <polygon class="fil1" points="5933.7,26242.06 5933.7,26494.16 5888.04,26494.16 5888.04,26285.73 5828.49,26285.73 5828.49,26242.06 "/>
   </g>
   <g id="sector-12">
    <path class="fil12" d="M4302.05 26897.11c-533.96,-387.07 -1008.36,-849.57 -1409.33,-1369.64 672.91,-528 1347.8,-1054.02 2020.7,-1582.02 196.52,252.09 416.85,484.33 661,690.77 -422.81,754.29 -847.58,1508.58 -1272.37,2260.89z"/>
    <polygon class="fil1" points="4260.36,25233.7 4260.36,25485.79 4214.71,25485.79 4214.71,25279.36 4155.16,25279.36 4155.16,25233.7 "/>
    <path class="fil1" d="M4448.94 25360.73l-79.4 81.39 107.19 0 0 43.67 -174.68 0 0 -35.73 117.11 -119.1c7.94,-7.94 11.91,-15.88 11.91,-25.81l-9.92 -19.85c-5.96,-5.96 -13.9,-7.94 -23.82,-7.94l-93.3 0.01 0 -43.67 93.3 0c21.83,0 41.68,5.96 55.58,19.85 13.89,13.89 21.83,29.78 21.83,49.63 0,21.83 -7.94,39.69 -25.8,57.55z"/>
   </g>
   <g id="sector-13a">
    <path class="fil12" d="M2620.78 25199.95c-216.37,-323.55 -406.93,-668.94 -565.72,-1028.21 799.95,-299.73 1597.91,-601.45 2397.85,-901.18 83.38,164.75 176.67,325.54 279.88,478.38 -704.67,484.33 -1409.34,966.68 -2112.01,1451.01z"/>
    <polygon class="fil1" points="3204.36,23987.14 3204.36,24239.23 3158.7,24239.23 3158.7,24030.81 3099.15,24030.81 3099.15,23987.14 "/>
    <path class="fil1" d="M3355.21 24092.34l0 0c21.83,0 37.72,5.96 53.6,19.85 13.89,13.9 21.83,29.78 21.83,51.61 0,21.83 -7.94,39.7 -21.83,53.6 -13.9,13.89 -31.76,21.83 -51.61,21.83l-107.19 0 0 -43.67 103.22 0c9.93,0 17.86,-3.97 23.82,-9.93l9.93 -21.83 -9.93 -21.83c-5.96,-5.96 -13.89,-9.93 -23.82,-9.93l-55.58 0 0 -29.78 61.54 -69.47 -109.18 0 0 -43.67 170.71 0 0 33.74 -65.51 69.48z"/>
    <path class="fil1" d="M3678.77 24239.23l-49.63 0 -23.82 -59.55 -111.16 0 -23.82 59.55 -49.62 0 105.21 -250.11 49.62 0 103.22 250.11zm-131.01 -198.5l-39.7 97.27 79.4 -0.01 -39.7 -97.26z"/>
   </g>
   <g id="sector-14">
    <path class="fil12" d="M1542.93 22417.02c-51.6,-307.67 -63.52,-496.25 -63.52,-613.36 0,-27.79 1.99,-192.54 0,-424.78 0,-23.82 0,-45.65 0,-57.57l0 -722.53c829.72,1.99 1661.42,1.99 2491.14,3.97l0 541.9c-9.92,148.87 -11.91,317.59 0,504.18 15.89,224.3 49.63,420.82 87.35,589.54 -837.66,59.55 -1677.31,119.1 -2514.97,178.65z"/>
    <polygon class="fil1" points="2638.64,21345.13 2638.64,21595.24 2592.98,21595.24 2592.98,21388.8 2533.44,21388.8 2533.44,21345.13 "/>
    <path class="fil1" d="M2853.02 21492.03l37.71 0 0 41.68 -37.71 0 0 61.53 -45.66 0 0 -61.53 -131.01 0 0 -31.76 113.15 -156.81 63.52 -0.01 0 146.9zm-45.66 -103.23l-73.45 103.22 73.45 0.01 0 -103.23z"/>
   </g>
   <g id="sector-15">
    <rect class="fil12" transform="matrix(-1.37814E-16 0.750227 -0.750227 -1.37814E-16 3970.23 18294.3)" width="2669.65" height="3320.52"/>
    <polygon class="fil1" points="2630.7,19169.6 2630.7,19419.71 2585.04,19419.71 2585.04,19213.27 2525.5,19213.27 2525.5,19169.6 "/>
    <path class="fil1" d="M2723.99 19268.85l59.55 0c23.82,0 41.68,7.94 55.58,21.83 13.89,13.9 19.85,31.76 19.85,51.61 0,21.83 -5.96,39.7 -19.85,53.6 -13.9,13.89 -31.76,21.83 -55.58,21.83l-101.23 0 0 -43.67 97.26 0c9.93,0 17.86,-3.96 23.82,-9.92l7.94 -23.82 -7.94 -21.83c-5.96,-5.96 -13.89,-9.93 -23.82,-9.93l-101.23 0 13.9 -140.93 146.88 -0.01 0 43.67 -111.16 0 -3.97 57.57z"/>
   </g>
   <g id="sector-16">
    <rect class="fil12" transform="matrix(-1.37814E-16 0.750227 -0.750227 -1.37814E-16 3970.16 16110.8)" width="2534.71" height="3320.52"/>
    <polygon class="fil1" points="2640.62,16932.54 2640.62,17182.64 2596.96,17182.64 2596.96,16976.2 2535.42,16976.2 2535.42,16932.54 "/>
    <path class="fil1" d="M2682.31 17105.23l1.99 -15.89 19.85 -109.17c5.96,-31.76 25.81,-47.64 61.53,-47.64l87.34 0.01 0 43.67 -85.36 -0.01c-11.91,0 -19.85,5.96 -21.83,15.88l-7.94 45.66 1.99 0c13.89,-9.92 31.75,-15.88 51.6,-15.88 27.79,0 51.61,7.94 67.49,21.83 15.89,15.88 23.82,35.74 23.82,59.56 0,23.82 -9.92,43.67 -27.78,59.55 -17.87,15.88 -41.69,23.82 -71.46,23.82 -29.78,0 -55.58,-7.94 -73.45,-23.82 -19.85,-13.9 -27.79,-33.75 -27.79,-57.57zm59.55 -29.77c-9.93,7.93 -15.89,17.86 -15.89,29.77 0,11.92 3.97,21.84 13.9,29.78 9.92,7.94 23.82,11.91 41.68,11.91 17.86,0 29.78,-3.96 39.7,-11.91 9.93,-7.94 13.9,-17.86 13.9,-29.78 0,-11.91 -5.96,-21.83 -15.89,-29.77 -9.92,-7.95 -23.82,-11.92 -41.68,-11.92 -11.9,0 -25.8,3.97 -35.72,11.92z"/>
   </g>
   <g id="sector-13">
    <path class="fil12" d="M1924.05 23911.71c-158.8,-359.28 -287.83,-734.44 -381.12,-1121.51 851.56,-103.22 1703.12,-206.44 2552.68,-309.66 65.5,182.62 140.93,359.28 226.29,531.97 -797.96,299.73 -1597.91,599.47 -2397.85,899.2z"/>
    <polygon class="fil1" points="2876.84,22907.31 2876.84,23157.42 2833.17,23157.42 2833.17,22950.98 2771.63,22950.98 2771.63,22907.31 "/>
    <path class="fil1" d="M3027.69 23012.51l0 0c21.83,0 37.72,5.96 53.6,19.85 13.89,13.9 21.83,29.78 21.83,51.61 0,21.83 -7.94,39.7 -21.83,53.6 -13.9,13.89 -31.76,21.83 -51.61,21.83l-107.19 0 0 -43.67 103.22 0c9.93,0 17.86,-3.96 23.82,-9.92l9.93 -21.83 -9.93 -21.83c-5.96,-5.96 -13.89,-9.93 -23.82,-9.93l-55.58 -0.01 0 -29.77 61.53 -69.48 -109.17 0 0 -43.67 170.7 0 0 33.75 -65.5 69.47z"/>
   </g>
  </g>
 </g>
</svg>
